<svg xmlns="http://www.w3.org/2000/svg" xmlns:xlink="http://www.w3.org/1999/xlink" viewBox="0 0 1020 574"><defs><style>.cls-1{fill:none;}.cls-2{isolation:isolate;}.cls-3{fill:url(#Unbenannter_Verlauf_18);}.cls-4{fill:#eef5fc;}.cls-5{fill:#f4f9fd;}.cls-6{clip-path:url(#clip-path);}.cls-7{fill:#e9f2fb;}.cls-8{clip-path:url(#clip-path-2);}.cls-9{fill:#fff;}.cls-10{fill:url(#Unbenannter_Verlauf_45);}.cls-11{fill:#626061;}.cls-12{fill:#908d8d;}.cls-13{fill:#c4c1c2;}.cls-14{fill:#a4a1a1;}.cls-15{fill:#3c3c3d;}.cls-16{fill:url(#Unbenannter_Verlauf_63);}.cls-17{fill:#94c7ed;}.cls-18{fill:#9dbeb7;}.cls-19{fill:#e1d3bb;}.cls-20,.cls-21{mix-blend-mode:multiply;}.cls-20{fill:url(#Unbenannter_Verlauf_35);}.cls-22{fill:#ece8e5;}.cls-23{fill:#f3ede3;}</style><linearGradient id="Unbenannter_Verlauf_18" x1="510" y1="385" x2="510" gradientUnits="userSpaceOnUse"><stop offset="0" stop-color="#e9f2fb"/><stop offset="1" stop-color="#d3e5f7"/></linearGradient><clipPath id="clip-path"><rect class="cls-1" width="320" height="120"/></clipPath><clipPath id="clip-path-2"><rect class="cls-1" x="735" width="285" height="285"/></clipPath><radialGradient id="Unbenannter_Verlauf_45" cx="1008.06" cy="11.26" r="100.41" gradientUnits="userSpaceOnUse"><stop offset="0" stop-color="#fff9ef"/><stop offset="0.23" stop-color="#fff8ec"/><stop offset="0.41" stop-color="#fff5e2"/><stop offset="0.57" stop-color="#ffefd1"/><stop offset="0.73" stop-color="#ffe7b9"/><stop offset="0.88" stop-color="#fedd9b"/><stop offset="1" stop-color="#fed37c"/></radialGradient><linearGradient id="Unbenannter_Verlauf_63" x1="510" y1="574" x2="510" y2="370.82" gradientUnits="userSpaceOnUse"><stop offset="0" stop-color="#b3d5f2"/><stop offset="1" stop-color="#cee3f7"/></linearGradient><linearGradient id="Unbenannter_Verlauf_35" x1="510" y1="574" x2="510" y2="331.32" gradientUnits="userSpaceOnUse"><stop offset="0" stop-color="#f0e9dc"/><stop offset="0.1" stop-color="#f6f2eb"/><stop offset="0.24" stop-color="#fbfaf6"/><stop offset="0.44" stop-color="#fefefd"/><stop offset="1" stop-color="#fff"/></linearGradient></defs><title>Frame 1</title><g class="cls-2"><g id="Himmel"><rect class="cls-3" width="1020" height="385"/></g><g id="Wolken"><path class="cls-4" d="M905.07,310.41c0-7.47-21.17-13.79-50.26-15.85A33.41,33.41,0,0,0,825.37,277L824,277c-8.18-10.47-20.14-17.07-33.46-17.07-17.06,0-31.88,10.81-39.4,26.7a23.81,23.81,0,0,0-22.4,23.77Z"/><path class="cls-5" d="M821.47,310.41c0-10.52-40.88-19.41-97.05-22.32-10.91-14.74-32.28-24.75-56.86-24.75-.87,0-1.74,0-2.61,0-15.8-14.73-38.89-24-64.63-24-32.94,0-61.56,15.23-76.09,37.6C500.1,278,481,292.56,481,310.41Z"/><g class="cls-6"><path class="cls-7" d="M274.94,97.82c0-16.83-47.67-31-113.17-35.7A75.25,75.25,0,0,0,95.48,22.53c-1,0-2,0-3,.08C74-1,47.09-15.84,17.07-15.84c-38.41,0-71.78,24.35-88.71,60.14a53.61,53.61,0,0,0-50.45,53.52Z"/></g></g><g id="Sonne"><g class="cls-8"><circle class="cls-9" cx="1008.06" cy="11.26" r="107.58"/><circle class="cls-10" cx="1008.06" cy="11.26" r="100.41"/><polygon class="cls-9" points="1012.28 118.83 1008.06 262.27 1003.84 118.83 1012.28 118.83"/><polygon class="cls-9" points="900.58 15.57 757.14 11.35 900.58 7.13 900.58 15.57"/><polygon class="cls-9" points="935.04 90.33 830.63 188.78 929.08 84.37 935.04 90.33"/><polygon class="cls-9" points="910.37 56.38 776.24 107.38 907.15 48.59 910.37 56.38"/><polygon class="cls-9" points="970.82 112.27 912.04 243.17 963.03 109.04 970.82 112.27"/><polygon class="cls-9" points="903.19 35.08 832.3 46.31 902.1 29.56 903.19 35.08"/><polygon class="cls-9" points="950.68 102.28 908.5 160.35 946.01 99.16 950.68 102.28"/><polygon class="cls-9" points="920.25 73.4 859.06 110.91 917.13 68.73 920.25 73.4"/><polygon class="cls-9" points="989.85 117.32 973.1 187.11 984.33 116.22 989.85 117.32"/></g></g><g id="Figur"><path class="cls-11" d="M338.68,265.81l-68.95,35.27L249,312.64c8,22.92,32.24,20.2,32.24,20.2l2.63-1.69-3.28,7.35,32.89-3.29,39.1-44.85S365.17,267.87,338.68,265.81Z"/><path class="cls-11" d="M292.2,224.67a9.65,9.65,0,0,0-13.13,14.11l38.53,35.84a9.66,9.66,0,0,0,13.13-14.12Z"/><path class="cls-11" d="M316.64,268.93a8.55,8.55,0,1,0,16.93-2.34L325,218.34c-.65-4.67-3.14-8.54-7.81-7.9s-5,3.79-4.4,8.46Z"/><path class="cls-12" d="M286.54,312l-38.6-11.48s3.75-90.93,40.91-80.81C326.24,229.87,286.54,312,286.54,312Z"/><path class="cls-11" d="M276.82,218.81a10.05,10.05,0,0,0-7.43,12.12l13.9,55.81A10.06,10.06,0,0,0,295.54,294c5.44-1.36,3.7-3.51,2.37-8.85C297.91,285.11,282.26,217.46,276.82,218.81Z"/><path class="cls-12" d="M249.49,286.85l30,.62,62.27,45.63-27,17.24L252,325.59S233.09,312.72,249.49,286.85Z"/><path class="cls-12" d="M324.78,337l-60.49-3-5.45-8L247,328.44l-7.42,5.94-19.41,4.7-3.79,5.05,15.56-.69,14.69,2,9.78-.62,73.41,14.49s26.13-3,12-26.17Z"/><path class="cls-13" d="M279.51,315.33c.13,0-21.6-20.25-21.6-20.25L240.46,307s-1.73-13.09,8.51-19.26l43.88,9.54L303.4,305l-4.64,4.45h-6.47L290,313.8Z"/><path class="cls-11" d="M243.29,311.6s2.46-9.37,14.34-15.5l20.61,22.5,12.91-3.27,2.41-5.21,5.2-.7h-6.47L290,313.8l-10.53,1.53-21.6-20.25-15.1,10.28A28.13,28.13,0,0,0,243.29,311.6Z"/><path class="cls-14" d="M323.44,334.81a33.91,33.91,0,0,0-10.35-2.58,62.21,62.21,0,0,0-10.66-.06,94.3,94.3,0,0,0-10.59,1.34,102.86,102.86,0,0,0-10.39,2.34l-.18,0h-.17c-5.62-.27-11.25-.48-16.87-.79l-.55,0-.31-.46L258,326.56l1.1.45-11.92,2.32.38-.18L240,334.94l-.14.11-.14,0c-3.25.7-6.5,1.4-9.77,2.05l-4.9,1c-1.62.34-3.27.63-4.9.95,1.6-.46,3.19-.95,4.8-1.39l4.81-1.35c3.2-.92,6.41-1.79,9.63-2.65l-.28.14,7.31-6.1.15-.13.23-.05,11.85-2.62.69-.16.41.6,5.49,8-.87-.49c5.63.24,11.24.58,16.86.86l-.35,0a104.07,104.07,0,0,1,10.68-2.15,87.3,87.3,0,0,1,10.83-1,55.54,55.54,0,0,1,10.85.69A31.65,31.65,0,0,1,323.44,334.81Z"/><path class="cls-14" d="M326.58,209.54l-6.51,1.62-2.32,11.16s-6.3,6.84-4,14L288.5,272c-2.5,3.53-1.87,9.29,1.92,12s9.52,1.44,12.67-1.54c3.53-3.34,18.75-41.59,18.75-41.59l7.06-7.75Z"/><polygon class="cls-11" points="315.66 224.99 327.65 220.63 326.79 211.68 315.66 223.02 315.66 224.99"/><path class="cls-12" d="M327.65,191l4.33,9s3.09,4.7-4.21,6.18Z"/><rect class="cls-12" x="276.14" y="197.87" width="41.42" height="22.41" transform="translate(2.42 421.55) rotate(-70.97)"/><ellipse class="cls-12" cx="304.7" cy="186.64" rx="17.23" ry="23.23" transform="translate(31.71 417.19) rotate(-71.67)"/><path class="cls-11" d="M298.56,190.31c-2.83-.26-5.66,2.24-6.47,5.91-.73,3.27-.57,8.65,1.57,10-.58,9.39,3,17.51,8.56,21.7l12-34.74-14.29-4.92C299.44,188.89,299,189.58,298.56,190.31Z"/><path class="cls-12" d="M312.42,223.21c-9.46-2.11-16.3-6.48-17.52-19.78s5.42-24.78,14.83-25.64,18,9.23,19.22,22.53a50.53,50.53,0,0,1-.6,13.9C327.77,217.88,316.88,224.2,312.42,223.21Z"/><path class="cls-12" d="M326.79,194.16c-2.49.8-5.33-.81-6.34-3.59s0-7,2.43-8.08c1.8-.8,4.52,1.1,6.59,5.18a4.66,4.66,0,0,1-2.68,6.49"/><path class="cls-15" d="M311.88,165a14.81,14.81,0,0,0-1.49,0,13.19,13.19,0,0,1,9.75,7.42,37.46,37.46,0,0,0-7.6-5.18c-7.93-4.14-15.62-5.09-17.18-2.1a3.72,3.72,0,0,0,.36,3.42c-5.79-.41-10.35,1.11-11.27,4.19a4.21,4.21,0,0,0-.05,2.09c-3.9,1.28-6.7,3.77-7.31,7-.55,2.93.76,5.92,3.33,8.39a7.29,7.29,0,0,1-4-3.39,6.28,6.28,0,0,0,.23.82,6.8,6.8,0,0,0,3.47,3.78,10.55,10.55,0,0,0-.25,1.8c-.3,5.27,2.88,9.84,7.35,11a7.62,7.62,0,0,1-6.43-1.32,6.66,6.66,0,0,0,.53.66c2.42,2.59,6.63,2.75,10.27.68a10.5,10.5,0,0,0,7.5-8.69c5.31-.86,9.33-3.7,10.08-7.7a7.18,7.18,0,0,0,.1-1.6c3.57-.46,6.15-1.86,6.82-4.09a3.64,3.64,0,0,0,.13-.72c3.93.8,6.94.4,7.85-1.34a2.6,2.6,0,0,0,.26-1.45A13.19,13.19,0,0,0,311.88,165Z"/><path class="cls-12" d="M298.22,206c-3,.6-6.1-2.08-6.88-6s1-7.59,4-8.19,6.09,2.08,6.88,6-1,7.59-4,8.19"/><path class="cls-15" d="M318.84,197.88a3.7,3.7,0,0,1,2.71-1.9,4.33,4.33,0,0,1,1.79.11A3.72,3.72,0,0,1,325,197l-1.44.25a12.65,12.65,0,0,1,2.72-2.58,12.91,12.91,0,0,1-1.06,3.59l-.24.54-1.2-.3c-.24-.06-.66-.2-1-.27s-.72-.14-1.11-.2-.8-.08-1.26-.1l-.73,0A8,8,0,0,1,318.84,197.88Z"/><path class="cls-11" d="M318.7,213.44a9.53,9.53,0,0,1,2.41-.82,10.72,10.72,0,0,1,2.59-.17,5.78,5.78,0,0,1,2.58.42,4.15,4.15,0,0,1,1.92,1.94l-.12.2a8.19,8.19,0,0,1-2.53,0,13.38,13.38,0,0,1-2.14-.77,13,13,0,0,0-2.25-.48,11.22,11.22,0,0,0-2.4-.09Z"/><path class="cls-11" d="M327.88,191.51a14.84,14.84,0,0,0-2.76-1,12.54,12.54,0,0,0-2.6-.59,11.69,11.69,0,0,0-2.94.38c-.49.15-1,.28-1.49.46l-1.49.57-.12-.19c.42-.34.85-.67,1.29-1s.92-.58,1.39-.88,1-.49,1.54-.7a10.08,10.08,0,0,1,1.68-.43,9.57,9.57,0,0,1,1.81-.18,4,4,0,0,1,1.81.49,3.84,3.84,0,0,1,2.08,3Z"/><path class="cls-14" d="M286.15,223.62a9.66,9.66,0,0,0-18,6.9L287,279.7a9.66,9.66,0,0,0,18-6.9Z"/></g><g id="Wasser"><path class="cls-16" d="M1020,574V374a27.84,27.84,0,0,1-9.84-1.56,32.76,32.76,0,0,0-20.35,0,31.78,31.78,0,0,1-19.67,0,32.73,32.73,0,0,0-20.34,0,31.78,31.78,0,0,1-19.67,0,32.73,32.73,0,0,0-20.34,0,31.75,31.75,0,0,1-19.66,0,32.76,32.76,0,0,0-20.35,0,31.75,31.75,0,0,1-19.66,0,32.73,32.73,0,0,0-20.34,0,31.75,31.75,0,0,1-19.66,0,32.73,32.73,0,0,0-20.34,0,31.75,31.75,0,0,1-19.66,0,32.73,32.73,0,0,0-20.34,0,31.75,31.75,0,0,1-19.66,0,32.76,32.76,0,0,0-20.35,0,31.75,31.75,0,0,1-19.66,0,32.73,32.73,0,0,0-20.34,0,31.75,31.75,0,0,1-19.66,0,32.73,32.73,0,0,0-20.34,0,31.75,31.75,0,0,1-19.66,0,32.73,32.73,0,0,0-20.34,0,31.75,31.75,0,0,1-19.66,0,32.76,32.76,0,0,0-20.35,0,31.72,31.72,0,0,1-19.65,0,32.73,32.73,0,0,0-20.34,0,31.75,31.75,0,0,1-19.66,0,32.73,32.73,0,0,0-20.34,0,31.75,31.75,0,0,1-19.66,0,32.73,32.73,0,0,0-20.34,0,31.75,31.75,0,0,1-19.66,0,32.73,32.73,0,0,0-20.34,0,31.72,31.72,0,0,1-19.65,0,32.73,32.73,0,0,0-20.34,0,31.75,31.75,0,0,1-19.66,0,32.73,32.73,0,0,0-20.34,0,31.72,31.72,0,0,1-19.65,0,32.73,32.73,0,0,0-20.34,0,31.72,31.72,0,0,1-19.65,0,32.73,32.73,0,0,0-20.34,0,31.72,31.72,0,0,1-19.65,0,32.73,32.73,0,0,0-20.34,0,31.72,31.72,0,0,1-19.65,0,32.73,32.73,0,0,0-20.34,0,31.75,31.75,0,0,1-19.66,0A28.83,28.83,0,0,0,120,370.82a28.83,28.83,0,0,0-10.17,1.62A27.82,27.82,0,0,1,100,374a27.82,27.82,0,0,1-9.83-1.56A28.79,28.79,0,0,0,80,370.82a28.88,28.88,0,0,0-10.17,1.62A27.73,27.73,0,0,1,60,374a27.71,27.71,0,0,1-9.82-1.56A28.88,28.88,0,0,0,40,370.82a28.83,28.83,0,0,0-10.17,1.62A27.82,27.82,0,0,1,20,374a27.82,27.82,0,0,1-9.83-1.56A28.83,28.83,0,0,0,0,370.82V574Z"/><path class="cls-17" d="M0,370.86a30,30,0,0,1,8.15.83c1.33.34,2.61.77,3.9,1.1a25.68,25.68,0,0,0,3.9.69,36.87,36.87,0,0,0,7.93-.12,23.83,23.83,0,0,0,3.84-.81c1.26-.37,2.52-.85,3.86-1.25a30.12,30.12,0,0,1,8.26-1.21,30.29,30.29,0,0,1,8.34.85c1.37.35,2.66.78,3.92,1.11a24.46,24.46,0,0,0,3.78.72,36.14,36.14,0,0,0,7.78,0,22.85,22.85,0,0,0,3.75-.75c1.23-.35,2.48-.81,3.84-1.22a30.32,30.32,0,0,1,8.42-1.24,31.12,31.12,0,0,1,8.49.87c1.4.35,2.7.79,3.93,1.13a25.21,25.21,0,0,0,3.7.73,36.42,36.42,0,0,0,7.67,0,22.9,22.9,0,0,0,3.67-.72c1.21-.33,2.45-.78,3.81-1.2a27.7,27.7,0,0,1,4.26-1,35,35,0,0,1,4.3-.32,32.07,32.07,0,0,1,8.61.87c1.42.36,2.74.81,4,1.16a25,25,0,0,0,3.63.76,36.82,36.82,0,0,0,7.57.05,24.66,24.66,0,0,0,3.63-.66c1.19-.31,2.41-.75,3.79-1.17a28.91,28.91,0,0,1,4.3-1,37.79,37.79,0,0,1,4.34-.33,41.49,41.49,0,0,1,4.31.11,30,30,0,0,1,4.39.72c1.44.35,2.78.81,4,1.16a24.7,24.7,0,0,0,3.58.78,36.83,36.83,0,0,0,7.5.08,25.29,25.29,0,0,0,3.58-.63c1.17-.3,2.38-.74,3.75-1.16a28.9,28.9,0,0,1,4.34-1,36.75,36.75,0,0,1,4.38-.36,42.3,42.3,0,0,1,4.35.1,29.38,29.38,0,0,1,4.43.71c1.47.36,2.82.82,4,1.19a23.33,23.33,0,0,0,3.54.8,36.8,36.8,0,0,0,7.43.15,24.35,24.35,0,0,0,3.55-.59c1.17-.28,2.36-.7,3.73-1.13a28.87,28.87,0,0,1,4.36-1,33.49,33.49,0,0,1,4.41-.37,34.25,34.25,0,0,1,8.82.79c1.47.35,2.85.82,4.06,1.19a23.26,23.26,0,0,0,3.53.81,36.3,36.3,0,0,0,7.39.2,24.17,24.17,0,0,0,3.54-.55c1.16-.27,2.34-.67,3.7-1.09a29.84,29.84,0,0,1,4.36-1,33.79,33.79,0,0,1,4.43-.37,34.64,34.64,0,0,1,8.82.78c1.48.35,2.87.82,4.09,1.2a22.47,22.47,0,0,0,3.52.85,34.24,34.24,0,0,0,7.39.25,24.42,24.42,0,0,0,3.56-.52c1.16-.27,2.33-.65,3.69-1.07a30.25,30.25,0,0,1,4.34-1,31.91,31.91,0,0,1,4.42-.38,34.47,34.47,0,0,1,8.8.77c1.47.34,2.86.81,4.09,1.2a25,25,0,0,0,3.55.9,33.81,33.81,0,0,0,7.42.3,26.52,26.52,0,0,0,7.27-1.54,31.42,31.42,0,0,1,4.3-1.05,31.84,31.84,0,0,1,4.41-.4,34.82,34.82,0,0,1,8.74.73c1.47.32,2.87.79,4.11,1.19a27,27,0,0,0,3.58.92,33.46,33.46,0,0,0,7.45.34,26.7,26.7,0,0,0,7.31-1.51,30.49,30.49,0,0,1,4.26-1.06,31.37,31.37,0,0,1,4.38-.43,35.8,35.8,0,0,1,8.7.68,42.34,42.34,0,0,1,4.12,1.19,27.67,27.67,0,0,0,3.61,1,32,32,0,0,0,7.49.4,23.3,23.3,0,0,0,3.67-.45,36,36,0,0,0,3.69-1,33.21,33.21,0,0,1,4.21-1.06,32.7,32.7,0,0,1,4.36-.44,36.11,36.11,0,0,1,8.62.67,40,40,0,0,1,4.11,1.17,30.28,30.28,0,0,0,3.65,1,33.19,33.19,0,0,0,7.56.43,24.06,24.06,0,0,0,3.73-.42,34.72,34.72,0,0,0,3.71-1,34.17,34.17,0,0,1,4.16-1.05,33.34,33.34,0,0,1,4.3-.44,36.8,36.8,0,0,1,8.53.65,36.13,36.13,0,0,1,4.08,1.17,35.17,35.17,0,0,0,3.7,1.05,33.6,33.6,0,0,0,7.67.51,28.13,28.13,0,0,0,3.8-.41,33.55,33.55,0,0,0,3.75-1,34,34,0,0,1,4.09-1.06,29.06,29.06,0,0,1,4.24-.45,35.64,35.64,0,0,1,8.41.58,33.53,33.53,0,0,1,4.06,1.13,30.77,30.77,0,0,0,3.75,1.07,33.43,33.43,0,0,0,7.77.55,29.19,29.19,0,0,0,3.86-.4,32,32,0,0,0,3.79-1,34.14,34.14,0,0,1,4-1.06,29.74,29.74,0,0,1,4.18-.48,36.4,36.4,0,0,1,8.32.5c2.8.53,5.31,1.67,7.83,2.17a33.53,33.53,0,0,0,7.84.56,29.8,29.8,0,0,0,3.9-.41,34.16,34.16,0,0,0,3.82-1,37.63,37.63,0,0,1,4-1.11,27.73,27.73,0,0,1,4.14-.52,36.62,36.62,0,0,1,8.29.42c2.79.49,5.31,1.63,7.85,2.13a32.6,32.6,0,0,0,7.85.53,26.44,26.44,0,0,0,7.72-1.41,30,30,0,0,1,8.13-1.7,38,38,0,0,1,8.31.33c2.8.44,5.36,1.54,7.87,2.05a32.27,32.27,0,0,0,7.81.53A25.93,25.93,0,0,0,669,371.8a30.42,30.42,0,0,1,8.17-1.82,37,37,0,0,1,8.4.23,30.19,30.19,0,0,1,4.12,1c1.32.39,2.56.78,3.8,1a30.71,30.71,0,0,0,7.69.5,25.35,25.35,0,0,0,7.52-1.37c1.25-.41,2.6-.87,4-1.21a27,27,0,0,1,4.26-.67,38.64,38.64,0,0,1,8.52.2,29.87,29.87,0,0,1,4.2,1c1.34.41,2.55.79,3.77,1.06a30.44,30.44,0,0,0,7.55.53,25.34,25.34,0,0,0,7.4-1.3c1.23-.4,2.59-.88,4-1.23a27,27,0,0,1,4.33-.71,37.84,37.84,0,0,1,8.63.19,29.31,29.31,0,0,1,4.28,1c1.35.42,2.56.81,3.75,1.09a29.32,29.32,0,0,0,7.43.6,25.25,25.25,0,0,0,7.31-1.19c1.23-.38,2.58-.85,4-1.2a30.23,30.23,0,0,1,4.38-.7,40.1,40.1,0,0,1,8.68.22,28.62,28.62,0,0,1,4.3,1c1.37.42,2.58.83,3.76,1.11a28.46,28.46,0,0,0,7.39.7,30.19,30.19,0,0,0,3.73-.26,23.48,23.48,0,0,0,3.59-.82c1.22-.36,2.57-.82,4-1.17a29.85,29.85,0,0,1,4.38-.72,41.78,41.78,0,0,1,8.65.21,29.59,29.59,0,0,1,4.3,1c1.37.42,2.59.85,3.78,1.15a27.8,27.8,0,0,0,7.42.75,30.81,30.81,0,0,0,3.75-.24,24.52,24.52,0,0,0,3.61-.78c1.22-.35,2.55-.81,4-1.16a28.22,28.22,0,0,1,4.35-.73,41.36,41.36,0,0,1,8.61.2,30.22,30.22,0,0,1,4.28,1c1.37.42,2.6.86,3.8,1.18a27.85,27.85,0,0,0,7.47.83,26.45,26.45,0,0,0,7.45-1c1.23-.34,2.54-.79,4-1.15a26.44,26.44,0,0,1,4.3-.72,40.67,40.67,0,0,1,8.54.18,28.49,28.49,0,0,1,4.23,1c1.36.41,2.61.86,3.83,1.2a28.1,28.1,0,0,0,7.55.92,26.61,26.61,0,0,0,7.58-.91c1.24-.33,2.54-.77,3.92-1.12a24.47,24.47,0,0,1,4.23-.73,39.5,39.5,0,0,1,8.42.17,26.73,26.73,0,0,1,4.17.92c1.34.41,2.6.88,3.84,1.24a31.88,31.88,0,0,0,15.45.2c1.27-.33,2.56-.77,3.91-1.11a25.18,25.18,0,0,1,4.12-.71,38,38,0,0,1,8.26.16,25.21,25.21,0,0,1,4,.89c1.32.4,2.58.89,3.86,1.28A29,29,0,0,0,1020,374v.57a30,30,0,0,1-8.15-.82c-1.33-.33-2.62-.76-3.91-1.08a25.77,25.77,0,0,0-3.89-.69,36.88,36.88,0,0,0-7.93.13,22.69,22.69,0,0,0-3.83.81c-1.26.37-2.52.84-3.85,1.25a34.11,34.11,0,0,1-16.64.38c-1.37-.35-2.66-.78-3.92-1.11a24.34,24.34,0,0,0-3.77-.72,36,36,0,0,0-7.76.06,21.53,21.53,0,0,0-3.74.74c-1.23.35-2.48.81-3.84,1.22a30.07,30.07,0,0,1-8.44,1.26,30.91,30.91,0,0,1-8.51-.87c-1.4-.36-2.7-.8-3.93-1.15a24,24,0,0,0-3.7-.74,36.22,36.22,0,0,0-7.65,0,22.64,22.64,0,0,0-3.67.7c-1.21.32-2.45.77-3.81,1.19a28.9,28.9,0,0,1-4.26,1,35,35,0,0,1-4.3.32,31.71,31.71,0,0,1-8.61-.87c-1.42-.35-2.74-.81-4-1.16a24.86,24.86,0,0,0-3.64-.77,36.81,36.81,0,0,0-7.57-.07,24.41,24.41,0,0,0-3.63.65c-1.2.31-2.42.75-3.79,1.17a29,29,0,0,1-4.29,1,33.77,33.77,0,0,1-4.34.33,41.42,41.42,0,0,1-4.3-.13,29.5,29.5,0,0,1-4.37-.72c-1.44-.36-2.77-.82-4-1.18a23.56,23.56,0,0,0-3.6-.81,37.1,37.1,0,0,0-7.53-.13,24.08,24.08,0,0,0-3.61.61c-1.19.3-2.4.72-3.77,1.14a28.64,28.64,0,0,1-4.3,1,34.25,34.25,0,0,1-4.36.34,38.89,38.89,0,0,1-4.31-.11,28.67,28.67,0,0,1-4.39-.71c-1.45-.35-2.8-.83-4-1.2a23.46,23.46,0,0,0-3.58-.84,36.14,36.14,0,0,0-7.51-.2,25.28,25.28,0,0,0-3.62.56c-1.18.28-2.38.7-3.74,1.11a26.37,26.37,0,0,1-4.3,1,32.48,32.48,0,0,1-4.36.33,33.43,33.43,0,0,1-8.67-.84c-1.44-.35-2.8-.82-4-1.21a23.06,23.06,0,0,0-3.6-.89,36.44,36.44,0,0,0-7.55-.3,24.56,24.56,0,0,0-3.67.5c-1.21.27-2.42.66-3.76,1.06a29.71,29.71,0,0,1-8.56,1.3,34.24,34.24,0,0,1-8.56-.83c-1.42-.35-2.77-.82-4-1.23a24.73,24.73,0,0,0-3.67-.94,34.73,34.73,0,0,0-7.65-.36,28.11,28.11,0,0,0-7.54,1.54,28.9,28.9,0,0,1-8.41,1.31,33.5,33.5,0,0,1-8.43-.78c-1.4-.33-2.74-.79-4-1.2a27.2,27.2,0,0,0-3.74-1,34.64,34.64,0,0,0-7.77-.4,28,28,0,0,0-7.65,1.52,29.64,29.64,0,0,1-8.26,1.37,33.88,33.88,0,0,1-8.32-.7c-2.79-.62-5.23-1.73-7.78-2.16a33.24,33.24,0,0,0-7.86-.39,28.08,28.08,0,0,0-7.7,1.58,31.44,31.44,0,0,1-4,1,30.55,30.55,0,0,1-4.15.42,34.51,34.51,0,0,1-8.28-.61c-2.76-.58-5.24-1.67-7.8-2.1a33.89,33.89,0,0,0-7.87-.37,27.49,27.49,0,0,0-7.71,1.58,32.46,32.46,0,0,1-4,1.06,30.83,30.83,0,0,1-4.15.47,34.7,34.7,0,0,1-8.31-.5c-2.79-.54-5.28-1.64-7.81-2.07a33.61,33.61,0,0,0-7.84-.37,26,26,0,0,0-3.86.51,32.08,32.08,0,0,0-3.78,1.08,34.24,34.24,0,0,1-4,1.12,31.37,31.37,0,0,1-4.19.53,35.84,35.84,0,0,1-8.38-.43,35.43,35.43,0,0,1-4.06-1.07,35.11,35.11,0,0,0-3.78-1,33.16,33.16,0,0,0-7.73-.36,26.45,26.45,0,0,0-3.81.48,32.36,32.36,0,0,0-3.74,1.05,34.36,34.36,0,0,1-4.06,1.16,29.46,29.46,0,0,1-4.25.56,36.78,36.78,0,0,1-8.49-.38,36.11,36.11,0,0,1-4.13-1.06,33.82,33.82,0,0,0-3.73-1,33.23,33.23,0,0,0-7.62-.38,27.06,27.06,0,0,0-3.75.46,30.33,30.33,0,0,0-3.67,1,40.47,40.47,0,0,1-4.1,1.18,27.89,27.89,0,0,1-4.31.59,37.2,37.2,0,0,1-8.6-.38,36.63,36.63,0,0,1-4.19-1.06,35.62,35.62,0,0,0-3.7-1,32.22,32.22,0,0,0-7.52-.45,29.47,29.47,0,0,0-3.7.43,27.68,27.68,0,0,0-3.63,1,41,41,0,0,1-4.11,1.18,27.51,27.51,0,0,1-4.37.61,37.8,37.8,0,0,1-8.67-.34,33.68,33.68,0,0,1-4.24-1.06c-1.32-.41-2.49-.77-3.68-1a30.92,30.92,0,0,0-7.44-.5,25.23,25.23,0,0,0-7.27,1.32,42.12,42.12,0,0,1-4.11,1.19,27.9,27.9,0,0,1-4.4.62,37.64,37.64,0,0,1-8.72-.33,32.65,32.65,0,0,1-4.28-1.05c-1.33-.42-2.5-.79-3.68-1a29.85,29.85,0,0,0-7.38-.53,24.42,24.42,0,0,0-7.23,1.27c-1.23.39-2.63.86-4.1,1.2a27.22,27.22,0,0,1-4.43.65,38.54,38.54,0,0,1-8.76-.3,30.16,30.16,0,0,1-4.31-1c-1.35-.41-2.53-.79-3.69-1.05a29.36,29.36,0,0,0-7.33-.56,24.19,24.19,0,0,0-7.17,1.23c-1.23.38-2.62.86-4.1,1.21a28.49,28.49,0,0,1-4.45.67,39.35,39.35,0,0,1-8.79-.3,28.2,28.2,0,0,1-4.35-1c-1.36-.42-2.54-.81-3.7-1.08a28.47,28.47,0,0,0-7.29-.62,26.79,26.79,0,0,0-3.64.31,23.3,23.3,0,0,0-3.52.84c-1.22.38-2.6.85-4.08,1.2a29.94,29.94,0,0,1-4.46.7,39.33,39.33,0,0,1-8.79-.27,28.61,28.61,0,0,1-4.36-1c-1.37-.43-2.56-.84-3.71-1.12a28,28,0,0,0-7.29-.68,27.43,27.43,0,0,0-3.67.27,22.12,22.12,0,0,0-3.53.81c-1.21.36-2.57.83-4,1.18a29.84,29.84,0,0,1-4.45.71,41.42,41.42,0,0,1-8.75-.25,28.86,28.86,0,0,1-4.36-1c-1.37-.43-2.57-.85-3.74-1.14a25.93,25.93,0,0,0-3.56-.6,35.75,35.75,0,0,0-3.75-.14,27.94,27.94,0,0,0-3.7.24A23.32,23.32,0,0,0,192,375c-1.21.35-2.55.81-4,1.16a30.22,30.22,0,0,1-4.41.71,42.19,42.19,0,0,1-8.69-.24,30.19,30.19,0,0,1-4.32-1c-1.37-.43-2.59-.86-3.77-1.17a27.57,27.57,0,0,0-7.39-.81,33,33,0,0,0-3.75.23,23.38,23.38,0,0,0-3.6.77c-1.22.35-2.55.8-4,1.16a28,28,0,0,1-4.35.72,41.44,41.44,0,0,1-8.62-.19,28.74,28.74,0,0,1-4.29-1c-1.37-.42-2.61-.86-3.8-1.18a27.78,27.78,0,0,0-7.46-.86,26.88,26.88,0,0,0-7.46,1c-1.22.34-2.54.78-3.94,1.13a26.44,26.44,0,0,1-4.3.72,39.9,39.9,0,0,1-8.53-.19,28.36,28.36,0,0,1-4.22-.95c-1.36-.41-2.61-.87-3.83-1.21a27.17,27.17,0,0,0-7.58-1,27.19,27.19,0,0,0-7.6.9c-1.24.34-2.54.78-3.91,1.14a26.42,26.42,0,0,1-4.22.73,39.41,39.41,0,0,1-8.41-.16,25.38,25.38,0,0,1-4.15-.91c-1.34-.41-2.6-.88-3.85-1.24a28.25,28.25,0,0,0-7.71-1.05,28.13,28.13,0,0,0-7.77.86c-1.27.33-2.55.76-3.9,1.11a25.18,25.18,0,0,1-4.12.71,37.93,37.93,0,0,1-8.25-.15,25.42,25.42,0,0,1-4.05-.88c-1.31-.4-2.58-.89-3.85-1.27A29.08,29.08,0,0,0,0,371.42Z"/></g><g id="Boden"><path class="cls-18" d="M40.64,271.36a64.66,64.66,0,0,1,6,8.06l1.35,2.12,1.27,2.16c.87,1.43,1.63,2.92,2.43,4.39s1.49,3,2.22,4.51,1.41,3,2.07,4.59,1.31,3.09,1.87,4.67S59,305,59.53,306.58c2.12,6.36,4.46,12.75,5.22,19.46.1.83.24,1.66.31,2.5l.18,2.52c.1,1.68.2,3.36.22,5a72.91,72.91,0,0,1-.67,10.1l-.56,0a97.28,97.28,0,0,1-2.69-9.65c-.45-1.59-.83-3.19-1.21-4.78s-.7-3.19-1.12-4.77-.73-3.18-1-4.78c-.14-.8-.3-1.6-.48-2.39l-.46-2.4c-.51-3.23-1.25-6.4-2-9.58-.41-1.58-.89-3.14-1.33-4.71s-.95-3.13-1.47-4.68-1-3.12-1.59-4.64-1.1-3.09-1.75-4.59a99,99,0,0,0-8.88-17.55Z"/><path class="cls-18" d="M69.22,280.05a188.25,188.25,0,0,0-1.72,19.09c-.09,1.6-.15,3.19-.18,4.78s-.1,3.19-.1,4.78-.06,3.19,0,4.78l0,4.77c0,1.59.12,3.18.21,4.77s.18,3.18.33,4.76S68,331,68,332.54s.11,3.17.12,4.75c0,3.18,0,6.36-.15,9.57a94.46,94.46,0,0,1-.66,9.71l-.56.07a78.57,78.57,0,0,1-4.24-19c-.82-6.46-.11-13,.2-19.43l.33-4.85c.12-1.61.29-3.22.43-4.83s.36-3.22.56-4.82.41-3.21.65-4.8a158.21,158.21,0,0,1,4-18.95Z"/><path class="cls-18" d="M90.74,266.49A138,138,0,0,0,82.08,290c-.61,2-1.1,4-1.6,6.07l-.75,3-.64,3.06c-1,4.07-1.6,8.19-2.32,12.29-.5,4.15-1.14,8.26-1.36,12.43-.16,2.08-.4,4.14-.59,6.21s-.38,4.14-.62,6.21l-.39,3.1-.3,3.12c-.24,2.07-.43,4.15-.73,6.24-.47,4.17-.85,8.35-1.65,12.58l-.56,0c-.44-2.1-.74-4.21-1.06-6.32s-.59-4.24-.68-6.36-.19-4.26-.28-6.39l-.07-3.2L68.6,339c.12-8.55,2.06-16.94,3.74-25.27,1-4.14,1.91-8.3,3.12-12.38l.88-3.06,1-3c.66-2,1.31-4,2.07-6s1.48-4,2.32-5.93L83,280.31l1.32-2.89a94.32,94.32,0,0,1,6-11.22Z"/><path class="cls-18" d="M102.15,270.38a184.17,184.17,0,0,0-8.23,21c-1.15,3.58-2.25,7.16-3.18,10.79L90,304.9l-.64,2.73c-.4,1.82-.89,3.62-1.2,5.46s-.67,3.67-1,5.5l-.65,5.54c-.28,1.84-.39,3.68-.59,5.52l-.34,2.75-.2,1.37-.11,1.38c-1,7.37-1.18,14.7-1.82,22.39l-.56.08c-.61-1.82-1.09-3.69-1.58-5.57-.22-.94-.48-1.88-.64-2.83s-.26-1.91-.38-2.87-.25-1.92-.34-2.89-.24-1.93-.24-2.89c0-1.93,0-3.87,0-5.81.22-7.75,2-15.33,4.09-22.7.44-1.87,1.07-3.68,1.61-5.52l.84-2.74.93-2.71c1.25-3.61,2.66-7.16,4.12-10.68s3.12-7,4.84-10.34,3.53-6.73,5.53-10Z"/><path class="cls-18" d="M91.22,289.15a31.12,31.12,0,0,1,8.33,6.44,49,49,0,0,1,3.46,4c1.06,1.41,2,2.89,3,4.36s1.74,3.09,2.58,4.66l2.18,4.86A82.3,82.3,0,0,1,114,323.64l.65,2.58c.1.43.24.86.33,1.29l.23,1.31,1,5.24a39.14,39.14,0,0,1,.51,5.29c.09,1.77.13,3.54.13,5.31-.28,3.52-.56,7-1.14,10.51A87.94,87.94,0,0,1,113,365.41l-.56-.07a93,93,0,0,1-.74-10.41c-.24-3.43-.47-6.83-.54-10.21-.13-1.69-.28-3.37-.35-5.05,0-.85,0-1.69-.07-2.53l0-1.27-.11-1.25-.33-5.05a42,42,0,0,0-.69-5,69.1,69.1,0,0,0-6-19.24c-.8-1.48-1.58-3-2.44-4.44a50,50,0,0,0-2.91-4.16A32.55,32.55,0,0,0,91,289.65Z"/><path class="cls-18" d="M70.39,291.08a30.64,30.64,0,0,1,9.6,3.69c1.55.78,2.92,1.83,4.39,2.76s2.74,2.11,4.08,3.21,2.53,2.36,3.76,3.59l3.46,3.89a85.32,85.32,0,0,1,6,8.5l1.38,2.2c.22.38.48.73.69,1.11l.61,1.14,2.48,4.58a39.34,39.34,0,0,1,2.09,4.75c.62,1.61,1.2,3.25,1.74,4.88.84,3.36,1.65,6.71,2.18,10.11a82.8,82.8,0,0,1,.68,10.32l-.55.11a87.1,87.1,0,0,1-4-9.41c-1.3-3.1-2.56-6.18-3.67-9.3-.65-1.52-1.3-3-1.88-4.58-.3-.77-.56-1.55-.85-2.32l-.4-1.18-.48-1.13a75.8,75.8,0,0,0-4-9,70.4,70.4,0,0,0-11.23-16.19c-1.15-1.17-2.33-2.34-3.54-3.46s-2.51-2.18-3.9-3.07a32.34,32.34,0,0,0-8.78-4.61Z"/><path class="cls-18" d="M32,287.2a31.35,31.35,0,0,1,8.09,6.44c1.24,1.22,2.25,2.63,3.37,4s2,2.84,3,4.29,1.72,3,2.54,4.56l2.17,4.75a84.48,84.48,0,0,1,3.24,9.92l.68,2.53.34,1.26.25,1.28,1,5.12a39.16,39.16,0,0,1,.62,5.18c.13,1.73.2,3.47.25,5.2-.18,3.46-.39,6.93-.86,10.35a85.22,85.22,0,0,1-2.36,10.11l-.56,0a90.42,90.42,0,0,1-1-10.2c-.34-3.36-.65-6.69-.8-10-.18-1.65-.36-3.3-.47-4.95-.06-.83-.08-1.66-.13-2.49,0-.41,0-.83,0-1.24L51.16,332l-.42-5a45.13,45.13,0,0,0-.76-4.91,72.12,72.12,0,0,0-6-18.87c-.76-1.46-1.54-2.93-2.37-4.37s-1.76-2.83-2.82-4.11a33,33,0,0,0-7-7.07Z"/><path class="cls-18" d="M31.41,300.7a30.65,30.65,0,0,1,9.53,3.89,49.72,49.72,0,0,1,4.33,2.85q2,1.59,4,3.29c1.22,1.22,2.48,2.42,3.69,3.67l3.38,4a83.38,83.38,0,0,1,5.8,8.63l1.34,2.23c.21.38.46.74.67,1.12l.59,1.15,2.39,4.63a40,40,0,0,1,2,4.79c.59,1.63,1.13,3.27,1.64,4.92.77,3.37,1.52,6.74,2,10.15a83,83,0,0,1,.48,10.34l-.55.1a87.61,87.61,0,0,1-3.77-9.5c-1.24-3.12-2.44-6.23-3.49-9.37-.61-1.53-1.23-3.06-1.79-4.62-.28-.77-.53-1.56-.8-2.34l-.38-1.18L62,338.26a75.89,75.89,0,0,0-3.8-9.12A70.84,70.84,0,0,0,47.3,312.72c-1.13-1.19-2.28-2.38-3.47-3.53A48.32,48.32,0,0,0,40,306a32.37,32.37,0,0,0-8.69-4.79Z"/><path class="cls-18" d="M26.77,256.57a158.17,158.17,0,0,0-7,18.22c-1,3.09-1.9,6.19-2.68,9.33l-.63,2.34L16,288.82c-.34,1.57-.76,3.13-1,4.72s-.56,3.17-.81,4.75l-.52,4.78c-.23,1.58-.31,3.17-.49,4.76-.1.79-.18,1.58-.29,2.37l-.18,1.18-.1,1.18c-.87,6.34-1.16,12.65-1.92,19.32l-.56.09c-.59-1.57-1-3.18-1.5-4.81-.21-.81-.45-1.63-.61-2.45s-.24-1.66-.37-2.49-.24-1.66-.34-2.5S7,318.05,7,317.21c0-1.67-.07-3.35-.08-5,.13-6.72,1.79-13.29,3.62-19.66.39-1.62.94-3.19,1.41-4.77l.74-2.38.82-2.34c1.1-3.12,2.35-6.19,3.63-9.22s2.74-6,4.25-8.92,3.1-5.8,4.86-8.59Z"/><path class="cls-18" d="M11.3,256.84a47.76,47.76,0,0,1,4.38,9.57c1.12,3.32,2.15,6.68,3,10.09a154.74,154.74,0,0,1,3.47,20.72q.33,2.61.57,5.22l.52,5.24a91.81,91.81,0,0,1,.16,10.49c-.24,3.5-.54,7-1.05,10.46A90.91,90.91,0,0,1,20.11,339l-.56,0a89.31,89.31,0,0,1-1.19-10.43c-.31-3.46-.53-6.91-.62-10.34s-.21-6.86-.11-10.3l.07-5.15,0-2.58-.09-2.57-.22-5.15L17,287.27c-.1-1.72-.33-3.42-.49-5.13s-.41-3.41-.65-5.11c-1-6.77-2.29-13.62-5.05-19.89Z"/><path class="cls-18" d="M35.43,280.12A119.56,119.56,0,0,0,31.35,296c-.54,2.66-1,5.35-1.37,8l-.55,4-.43,4c-.15,1.34-.21,2.69-.26,4s-.14,2.7-.12,4.05c0,2.7-.21,5.37-.41,8.06s-.47,5.37-.83,8.08a78.78,78.78,0,0,1-1.24,8.25l-.56.05a52.82,52.82,0,0,1-3-16.54c0-1.4-.07-2.8.05-4.2s.26-2.78.44-4.17.48-2.76.71-4.14.46-2.75.76-4.11a125.45,125.45,0,0,1,4.08-16.17,101.69,101.69,0,0,1,6.29-15.36Z"/><path class="cls-18" d="M56.75,261.67a89.49,89.49,0,0,0-10.56,18.46,104.66,104.66,0,0,0-3.74,9.9,97.77,97.77,0,0,0-2.72,10.17,77.79,77.79,0,0,0-1.47,10.39c-.34,3.47-.55,6.93-.86,10.4-.1,1.74-.28,3.48-.34,5.23l-.15,2.64c0,.87,0,1.76-.09,2.64-.1,1.77-.09,3.54-.16,5.33s0,3.59-.2,5.43l-.56.1a52.61,52.61,0,0,1-3-10.56c-.17-.91-.33-1.81-.47-2.72l-.31-2.74c-.23-1.83-.24-3.67-.32-5.52a55.62,55.62,0,0,1,1-11c.7-3.62,1.6-7.19,2.62-10.71a104,104,0,0,1,3.58-10.37,106.09,106.09,0,0,1,4.73-9.85,99.64,99.64,0,0,1,5.78-9.22,68.11,68.11,0,0,1,6.88-8.38Z"/><path class="cls-18" d="M16.42,252.92a79.23,79.23,0,0,0-5.25,9.67c-.78,1.66-1.54,3.33-2.24,5s-1.39,3.4-2,5.12S5.65,276.2,5.07,278l-.87,2.62-.78,2.65c-1.07,3.53-1.87,7.12-2.75,10.7C.45,295,.23,296,0,297.1v40.5c.77-3.59,1.17-7.13,1.61-10.66.3-1.8.47-3.59.7-5.38l.29-2.69L3,316.19c.21-1.78.41-3.56.54-5.35s.37-3.57.49-5.36c.17-3.6.7-7.15,1.1-10.73.61-3.55,1.15-7.11,2-10.62l.53-2.65.64-2.63c.42-1.76.83-3.51,1.35-5.24a119.29,119.29,0,0,1,7.33-20.4Z"/><path class="cls-18" d="M57.82,271.48a83.06,83.06,0,0,0-7.1,14.83A97.58,97.58,0,0,0,46.3,302c-1,5.33-1.15,10.72-1.78,16l-.25,2-.15,1L44,322c-.11,1.34-.23,2.69-.42,4s-.27,2.73-.41,4.11-.32,2.78-.6,4.21l-.56.08a44.59,44.59,0,0,1-3.15-16.77,33.89,33.89,0,0,1,.19-4.28c.18-1.42.41-2.84.67-4.24s.69-2.78,1-4.16l.53-2.07c.19-.68.41-1.36.61-2,.42-1.36.78-2.73,1.26-4.06l1.45-4L46.32,289c.56-1.29,1.23-2.54,1.83-3.8a74.9,74.9,0,0,1,9.23-14.05Z"/><path class="cls-19" d="M0,321.17S66.48,315,111.28,331.82c55.46,20.8,91,15.1,108.44,14.36,93.09-4,138.65,25.75,177.77,55,52.71,39.37,84.3,87.21,201.66,94.14,135,8,184.09-39.81,420.85-22.6V574H0Z"/><path class="cls-20" d="M0,332.42s66.48-6.16,111.28,10.64c55.46,20.8,91,15.11,108.44,14.36,93.09-4,138.65,25.75,177.77,55,52.71,39.36,84.3,87.2,201.66,94.14,135,8,184.09-39.81,420.85-22.61V574H0Z"/><g class="cls-21"><ellipse class="cls-22" cx="108.45" cy="533.75" rx="1.47" ry="3.2" transform="translate(-428.74 623.66) rotate(-88.02)"/><ellipse class="cls-22" cx="206.77" cy="520.83" rx="3.16" ry="1.48" transform="translate(-38.25 16.86) rotate(-4.28)"/><ellipse class="cls-22" cx="206.8" cy="514.97" rx="1.19" ry="1.5" transform="translate(-308.45 721.08) rotate(-89.92)"/><ellipse class="cls-22" cx="148.54" cy="444.78" rx="1.5" ry="1.19" transform="translate(-24.99 9.14) rotate(-3.25)"/><ellipse class="cls-22" cx="99.81" cy="536" rx="2.24" ry="5.11" transform="translate(-437.44 628.83) rotate(-89.26)"/><ellipse class="cls-22" cx="85.76" cy="445.46" rx="2.7" ry="3.2" transform="translate(-363.83 505.95) rotate(-86.77)"/><path class="cls-22" d="M30.47,464.89a1.2,1.2,0,0,0,0-.33,1.92,1.92,0,0,0-2.14-1.4,1.68,1.68,0,0,0-1.6,1.33,2.64,2.64,0,0,0-1.8,2.79,3.4,3.4,0,0,0,3.8,2.5c1.86-.16,3.16-1.55,2.92-3.09A4,4,0,0,0,30.47,464.89Z"/><ellipse class="cls-22" cx="78.57" cy="443.85" rx="1.35" ry="1.6" transform="translate(-366.59 514.6) rotate(-88.99)"/><ellipse class="cls-22" cx="169.91" cy="502.24" rx="0.97" ry="0.82" transform="translate(-29.01 10.77) rotate(-3.34)"/><ellipse class="cls-22" cx="115.03" cy="470.04" rx="0.97" ry="0.82" transform="translate(-16.57 4.37) rotate(-2.03)"/><ellipse class="cls-22" cx="181.12" cy="509.66" rx="0.82" ry="0.97" transform="translate(-353 594.96) rotate(-79.51)"/><ellipse class="cls-22" cx="160.35" cy="508.81" rx="0.82" ry="0.97" transform="translate(-355.69 644.11) rotate(-87.2)"/><ellipse class="cls-22" cx="159.96" cy="510.22" rx="2.21" ry="1.16" transform="translate(-0.7 0.22) rotate(-0.08)"/><ellipse class="cls-22" cx="171.28" cy="514.12" rx="2.21" ry="1.16" transform="translate(-11.18 3.86) rotate(-1.25)"/><ellipse class="cls-22" cx="140.36" cy="512.17" rx="1.35" ry="1.6" transform="translate(-376.66 633.45) rotate(-87.88)"/><ellipse class="cls-22" cx="155.18" cy="507.77" rx="1.35" ry="2.04" transform="translate(-356.28 650.35) rotate(-88.58)"/><ellipse class="cls-22" cx="75.52" cy="492.29" rx="1.6" ry="1.35" transform="translate(-15.86 2.7) rotate(-1.85)"/><ellipse class="cls-22" cx="78.99" cy="496.66" rx="1.83" ry="2.16" transform="translate(-423.74 509.87) rotate(-82.47)"/><ellipse class="cls-22" cx="164.88" cy="507.2" rx="1.65" ry="1.95" transform="translate(-354.42 628.72) rotate(-85.16)"/><ellipse class="cls-22" cx="159.31" cy="502.14" rx="1.35" ry="2.93" transform="translate(-346.69 648.73) rotate(-88.55)"/><ellipse class="cls-22" cx="68.59" cy="495.83" rx="3.88" ry="1.79" transform="translate(-5.21 0.75) rotate(-0.6)"/><ellipse class="cls-22" cx="273.85" cy="473.74" rx="1.57" ry="3.43" transform="translate(-209.09 731.03) rotate(-88.02)"/><ellipse class="cls-22" cx="316.91" cy="378.2" rx="1.61" ry="1.27" transform="translate(-20.94 18.58) rotate(-3.25)"/><ellipse class="cls-22" cx="264.57" cy="476.15" rx="2.4" ry="5.48" transform="translate(-214.97 734.51) rotate(-89.26)"/><ellipse class="cls-22" cx="249.49" cy="378.93" rx="2.9" ry="3.43" transform="translate(-142.91 606.65) rotate(-86.77)"/><path class="cls-22" d="M190.12,399.79a1.27,1.27,0,0,0,0-.34,2.05,2.05,0,0,0-2.3-1.51,1.81,1.81,0,0,0-1.72,1.43,2.84,2.84,0,0,0-1.93,3c.26,1.65,2.09,2.85,4.08,2.68s3.4-1.66,3.14-3.32A4.34,4.34,0,0,0,190.12,399.79Z"/><ellipse class="cls-22" cx="241.77" cy="377.2" rx="1.45" ry="1.72" transform="translate(-139.62 612.31) rotate(-88.99)"/><ellipse class="cls-22" cx="362.34" cy="417.41" rx="1.04" ry="0.88" transform="translate(-23.74 21.85) rotate(-3.34)"/><ellipse class="cls-22" cx="280.92" cy="405.33" rx="1.04" ry="0.88" transform="translate(-14.18 10.2) rotate(-2.03)"/><ellipse class="cls-22" cx="374.38" cy="425.38" rx="0.88" ry="1.04" transform="translate(-112.06 716.05) rotate(-79.51)"/><ellipse class="cls-22" cx="352.07" cy="424.47" rx="0.88" ry="1.04" transform="translate(-89.09 755.38) rotate(-87.2)"/><ellipse class="cls-22" cx="351.65" cy="425.98" rx="2.37" ry="1.25" transform="translate(-0.59 0.48) rotate(-0.08)"/><ellipse class="cls-22" cx="363.81" cy="430.17" rx="2.38" ry="1.25" transform="translate(-9.3 8.04) rotate(-1.25)"/><ellipse class="cls-22" cx="330.61" cy="428.07" rx="1.45" ry="1.72" transform="translate(-109.42 742.59) rotate(-87.88)"/><ellipse class="cls-22" cx="346.52" cy="423.36" rx="1.45" ry="2.19" transform="matrix(0.02, -1, 1, 0.02, -85.28, 759.3)"/><ellipse class="cls-22" cx="238.49" cy="429.22" rx="1.72" ry="1.45" transform="translate(-13.74 7.93) rotate(-1.85)"/><ellipse class="cls-22" cx="242.23" cy="433.91" rx="1.96" ry="2.32" transform="translate(-219.7 617.17) rotate(-82.47)"/><ellipse class="cls-22" cx="356.94" cy="422.74" rx="1.77" ry="2.1" transform="translate(-94.4 742.75) rotate(-85.16)"/><ellipse class="cls-22" cx="350.95" cy="417.31" rx="1.45" ry="3.15" transform="translate(-75.07 757.62) rotate(-88.55)"/><ellipse class="cls-22" cx="231.06" cy="433.02" rx="4.17" ry="1.92" transform="translate(-4.54 2.45) rotate(-0.6)"/><ellipse class="cls-22" cx="19.62" cy="392.71" rx="1.69" ry="3.67" transform="translate(-373.53 398.72) rotate(-88.02)"/><ellipse class="cls-22" cx="132.62" cy="377.86" rx="3.63" ry="1.71" transform="translate(-27.8 10.94) rotate(-4.28)"/><ellipse class="cls-22" cx="132.66" cy="371.12" rx="1.36" ry="1.73" transform="translate(-238.64 503.28) rotate(-89.92)"/><ellipse class="cls-22" cx="90.27" cy="356.49" rx="1.12" ry="0.94" transform="translate(-20.64 5.87) rotate(-3.34)"/><ellipse class="cls-22" cx="103.15" cy="365.02" rx="0.94" ry="1.12" transform="translate(-274.55 399.99) rotate(-79.51)"/><ellipse class="cls-22" cx="91.84" cy="370.14" rx="2.54" ry="1.33" transform="translate(-8.06 2.09) rotate(-1.25)"/><ellipse class="cls-22" cx="56.31" cy="367.9" rx="1.55" ry="1.84" transform="translate(-313.43 410.53) rotate(-87.88)"/><ellipse class="cls-22" cx="73.33" cy="362.85" rx="1.55" ry="2.35" transform="translate(-291.22 427.18) rotate(-88.58)"/><ellipse class="cls-22" cx="84.48" cy="362.19" rx="1.9" ry="2.24" transform="translate(-283.54 415.83) rotate(-85.16)"/><ellipse class="cls-22" cx="78.08" cy="356.37" rx="1.55" ry="3.37" transform="translate(-280.16 425.44) rotate(-88.55)"/><ellipse class="cls-22" cx="358.92" cy="498.01" rx="1.61" ry="1.27" transform="translate(-27.67 21.16) rotate(-3.25)"/><ellipse class="cls-22" cx="291.5" cy="498.74" rx="2.9" ry="3.43" transform="translate(-222.88 761.65) rotate(-86.77)"/><path class="cls-22" d="M232.14,519.6a1.37,1.37,0,0,0,0-.35,2,2,0,0,0-2.29-1.51,1.83,1.83,0,0,0-1.73,1.43,2.85,2.85,0,0,0-1.93,3,3.65,3.65,0,0,0,4.08,2.68c2-.17,3.4-1.66,3.14-3.32A4.35,4.35,0,0,0,232.14,519.6Z"/><ellipse class="cls-22" cx="283.78" cy="497.01" rx="1.45" ry="1.72" transform="translate(-218.13 772.01) rotate(-88.99)"/><ellipse class="cls-22" cx="416.73" cy="469.75" rx="1.04" ry="0.88" transform="translate(-26.7 25.11) rotate(-3.34)"/><ellipse class="cls-22" cx="322.93" cy="525.13" rx="1.04" ry="0.88" transform="translate(-18.4 11.77) rotate(-2.03)"/><ellipse class="cls-22" cx="383.97" cy="533.03" rx="0.88" ry="1.04" transform="translate(-167.19 890.49) rotate(-87.2)"/><ellipse class="cls-22" cx="383.54" cy="534.54" rx="2.37" ry="1.25" transform="translate(-0.74 0.53) rotate(-0.08)"/><ellipse class="cls-22" cx="378.41" cy="531.92" rx="1.45" ry="2.19" transform="translate(-162.7 897.06) rotate(-88.58)"/><ellipse class="cls-22" cx="280.51" cy="549.02" rx="1.72" ry="1.45" transform="translate(-17.59 9.35) rotate(-1.85)"/><ellipse class="cls-22" cx="284.24" cy="553.72" rx="1.96" ry="2.32" transform="matrix(0.13, -0.99, 0.99, 0.13, -301.96, 762.93)"/><ellipse class="cls-22" cx="388.83" cy="531.3" rx="1.77" ry="2.1" transform="translate(-173.37 873.94) rotate(-85.16)"/><ellipse class="cls-22" cx="405.34" cy="469.64" rx="1.45" ry="3.15" transform="translate(-74.38 863.01) rotate(-88.55)"/><ellipse class="cls-22" cx="273.08" cy="552.82" rx="4.17" ry="1.92" transform="translate(-5.79 2.9) rotate(-0.6)"/><ellipse class="cls-22" cx="724.79" cy="553.23" rx="1.57" ry="3.43" transform="translate(146.8 1258.43) rotate(-88.02)"/><ellipse class="cls-22" cx="849.52" cy="561.85" rx="3.39" ry="1.59" transform="translate(-39.52 64.89) rotate(-4.28)"/><ellipse class="cls-22" cx="849.56" cy="555.55" rx="1.27" ry="1.61" transform="translate(292.86 1404.36) rotate(-89.92)"/><ellipse class="cls-22" cx="775.76" cy="511.67" rx="1.61" ry="1.27" transform="translate(-27.77 44.82) rotate(-3.25)"/><ellipse class="cls-22" cx="715.51" cy="555.64" rx="2.4" ry="5.48" transform="translate(150.62 1263.87) rotate(-89.26)"/><ellipse class="cls-22" cx="809.95" cy="541.88" rx="1.04" ry="0.88" transform="translate(-30.23 48.18) rotate(-3.34)"/><ellipse class="cls-22" cx="762.26" cy="515.18" rx="1.04" ry="0.88" transform="translate(-17.77 27.32) rotate(-2.03)"/><ellipse class="cls-22" cx="821.99" cy="549.85" rx="0.88" ry="1.04" transform="translate(131.67 1257.99) rotate(-79.51)"/><ellipse class="cls-22" cx="799.68" cy="548.94" rx="0.88" ry="1.04" transform="translate(212.33 1320.84) rotate(-87.2)"/><ellipse class="cls-22" cx="799.26" cy="550.45" rx="2.37" ry="1.25" transform="translate(-0.76 1.1) rotate(-0.08)"/><ellipse class="cls-22" cx="811.42" cy="554.64" rx="2.38" ry="1.25" transform="translate(-11.91 17.85) rotate(-1.25)"/><ellipse class="cls-22" cx="778.22" cy="552.54" rx="1.45" ry="1.72" transform="translate(197.21 1309.75) rotate(-87.88)"/><ellipse class="cls-22" cx="794.13" cy="547.82" rx="1.45" ry="2.19" transform="translate(226.83 1328.16) rotate(-88.58)"/><ellipse class="cls-22" cx="686.1" cy="508.71" rx="1.72" ry="1.45" transform="translate(-16.08 22.43) rotate(-1.85)"/><ellipse class="cls-22" cx="689.84" cy="513.4" rx="1.96" ry="2.32" transform="translate(90.44 1129.99) rotate(-82.47)"/><ellipse class="cls-22" cx="804.55" cy="547.21" rx="1.77" ry="2.1" transform="translate(191.44 1302.74) rotate(-85.16)"/><ellipse class="cls-22" cx="798.56" cy="541.78" rx="1.45" ry="3.15" transform="translate(236.82 1326.42) rotate(-88.55)"/><ellipse class="cls-22" cx="678.67" cy="512.51" rx="4.17" ry="1.92" transform="translate(-5.35 7.16) rotate(-0.6)"/><ellipse class="cls-22" cx="553.18" cy="511.8" rx="1.4" ry="2.98" transform="translate(-20.34 1000.7) rotate(-83.22)"/><ellipse class="cls-22" cx="553.39" cy="506.29" rx="1.12" ry="1.41" transform="translate(24.13 1037.74) rotate(-87.57)"/><ellipse class="cls-22" cx="636.42" cy="544.8" rx="3.01" ry="2.55" transform="translate(-6.88 8.15) rotate(-0.73)"/><ellipse class="cls-22" cx="643.25" cy="543.58" rx="1.27" ry="1.51" transform="translate(83.05 1172.42) rotate(-88.5)"/><ellipse class="cls-22" cx="442.44" cy="507.06" rx="0.77" ry="0.92" transform="translate(-107.07 895.53) rotate(-84.15)"/><ellipse class="cls-22" cx="585.37" cy="533" rx="0.77" ry="0.92" transform="matrix(0.08, -1, 1, 0.08, 7.77, 1074.41)"/><ellipse class="cls-22" cx="476.57" cy="558.57" rx="0.92" ry="0.77" transform="translate(-72.99 71.63) rotate(-7.99)"/><ellipse class="cls-22" cx="496.15" cy="558.62" rx="0.92" ry="0.77" transform="translate(-2.89 2.58) rotate(-0.3)"/><ellipse class="cls-22" cx="496.46" cy="559.96" rx="1.09" ry="2.08" transform="translate(-85.3 1030.69) rotate(-87.42)"/><ellipse class="cls-22" cx="485.64" cy="563.17" rx="1.09" ry="2.08" transform="translate(-108.12 1010.89) rotate(-86.25)"/><ellipse class="cls-22" cx="514.82" cy="562.6" rx="1.27" ry="1.51" transform="translate(-51.18 1073.69) rotate(-89.62)"/><ellipse class="cls-22" cx="501.06" cy="557.86" rx="1.27" ry="1.92" transform="translate(-66.2 1048.25) rotate(-88.91)"/><ellipse class="cls-22" cx="902.04" cy="480.02" rx="1.27" ry="1.51" transform="translate(354.91 1343.01) rotate(-85.64)"/><ellipse class="cls-22" cx="898.59" cy="483.99" rx="2.03" ry="1.72" transform="translate(-38.96 80.63) rotate(-5.03)"/><ellipse class="cls-22" cx="491.95" cy="556.92" rx="1.84" ry="1.55" transform="translate(-22.27 20.5) rotate(-2.33)"/><ellipse class="cls-22" cx="452.43" cy="507.41" rx="1.27" ry="2.76" transform="translate(-63.25 950.39) rotate(-88.94)"/><ellipse class="cls-22" cx="908.41" cy="483.64" rx="1.68" ry="3.65" transform="translate(376.27 1364.51) rotate(-86.89)"/><ellipse class="cls-22" cx="976.54" cy="507.79" rx="1.12" ry="1.41" transform="translate(373.4 1428.49) rotate(-84.25)"/><ellipse class="cls-22" cx="889.42" cy="522.25" rx="3.01" ry="2.55" transform="translate(-6.58 11.37) rotate(-0.73)"/><path class="cls-22" d="M996.87,554.05a1.48,1.48,0,0,1,0-.3,1.8,1.8,0,0,1,2.07-1.23,1.59,1.59,0,0,1,1.46,1.31,2.5,2.5,0,0,1,1.57,2.71,3.21,3.21,0,0,1-3.68,2.19,2.73,2.73,0,0,1-2.62-3A3.88,3.88,0,0,1,996.87,554.05Z"/><ellipse class="cls-22" cx="896.25" cy="521.03" rx="1.27" ry="1.51" transform="translate(351.98 1403.36) rotate(-88.5)"/><ellipse class="cls-22" cx="917.08" cy="555.43" rx="0.77" ry="0.92" transform="translate(290.91 1425.74) rotate(-85.47)"/><ellipse class="cls-22" cx="955.6" cy="558.87" rx="1.27" ry="1.51" transform="translate(325.77 1469.27) rotate(-85.64)"/><ellipse class="cls-22" cx="952.15" cy="562.85" rx="2.03" ry="1.72" transform="translate(-45.67 85.62) rotate(-5.03)"/><ellipse class="cls-22" cx="961.97" cy="562.49" rx="1.68" ry="3.65" transform="translate(348.18 1492.56) rotate(-86.89)"/></g><path class="cls-23" d="M0,320.65c5.53-.58,11.07-1,16.61-1.28s11.1-.43,16.66-.45a325.81,325.81,0,0,1,33.34,1.36,204.27,204.27,0,0,1,33,5.65c1.35.36,2.72.66,4.06,1.07l4,1.3,4,1.3,3.92,1.33c2.61.87,5.19,1.84,7.82,2.64l7.89,2.4a238.3,238.3,0,0,0,32.19,6.79l2,.3,2,.23,4.09.45c2.72.3,5.46.43,8.19.66,5.47.24,10.94.43,16.43.26s11-.46,16.48-.83c2.76-.17,5.59-.39,8.37-.44l8.37-.16c2.79,0,5.58-.17,8.37-.11l8.37.25,4.19.12,2.09.07,2.09.16,8.35.66,4.18.32c1.39.15,2.77.37,4.15.54l8.31,1.12,2.08.29,2.06.39,4.12.77,4.12.78c1.37.27,2.75.48,4.1.85,5.42,1.36,10.89,2.52,16.21,4.27l4,1.21,2,.61c.67.21,1.32.47,2,.7l7.87,2.85a239.13,239.13,0,0,1,30.19,14.38,326.48,326.48,0,0,1,28,18.18c4.53,3.21,9,6.53,13.41,9.87s8.75,6.85,13.07,10.33c8.62,7,17,14.24,25.62,21.21A331.25,331.25,0,0,0,465,452.85a214.17,214.17,0,0,0,59.64,27.79A278.6,278.6,0,0,0,556.8,488c10.86,1.82,21.81,3.07,32.8,3.91l8.25.53c2.75.19,5.51.21,8.26.32l16.54.52a566.62,566.62,0,0,0,66-3.75c21.92-2.67,43.77-6.19,65.69-9.61s44-6.4,66.09-8.66l16.61-1.43c2.77-.23,5.54-.51,8.31-.69l8.33-.47,16.64-.94c2.77-.19,5.55-.22,8.33-.29l8.33-.21c44.44-1.06,88.85,1,133,5l0,.56c-44.29-2.09-88.62-3.08-132.84-1.13l-8.29.33c-2.76.11-5.52.18-8.28.42L854,473.52l-8.27.6c-2.76.22-5.51.54-8.26.81L821,476.61c-5.5.57-11,1.39-16.46,2s-11,1.33-16.44,2.17l-16.42,2.39-16.41,2.6-16.43,2.58c-5.47.86-11,1.72-16.46,2.51l-8.24,1.22c-2.75.41-5.49.82-8.26,1.14l-16.56,2.05a568,568,0,0,1-66.75,3.21l-16.7-.66c-2.78-.14-5.57-.18-8.35-.39l-8.34-.65c-11.1-1-22.18-2.45-33.16-4.47a239.94,239.94,0,0,1-63.59-20.52,222.81,222.81,0,0,1-28.79-17c-4.57-3.18-9.07-6.46-13.45-9.89s-8.72-6.89-13-10.44c-8.53-7.11-16.94-14.33-25.49-21.36s-17.43-13.64-26.46-20a299,299,0,0,0-28-17.64A234.68,234.68,0,0,0,327.07,362l-7.83-2.62c-.65-.22-1.29-.46-1.95-.65l-2-.55-4-1.1c-5.26-1.59-10.68-2.6-16-3.81-1.34-.33-2.7-.51-4.06-.74l-4.07-.67-4.06-.67-2-.33-2.05-.23-8.2-.91c-1.36-.14-2.72-.32-4.09-.43l-4.12-.27-8.23-.54-2.06-.13-2.07,0-4.12-.07-8.26-.16c-2.75-.05-5.5.1-8.25.13l-8.26.19c-2.75.05-5.46.27-8.23.45-5.53.39-11.13.68-16.73.77s-11.22-.09-16.82-.37c-2.79-.25-5.59-.41-8.38-.73l-4.18-.48-2.08-.25-2.08-.32a237.4,237.4,0,0,1-32.75-7.34l-8-2.54c-2.66-.85-5.26-1.88-7.89-2.81l-3.93-1.43L106.42,332l-3.87-1.34c-1.3-.42-2.63-.74-4-1.12-5.25-1.56-10.64-2.68-16-3.77l-8.13-1.42-8.19-1.13a391.56,391.56,0,0,0-66.23-2Z"/></g></g></svg>