<svg xmlns="http://www.w3.org/2000/svg" xmlns:xlink="http://www.w3.org/1999/xlink" viewBox="0 0 1020 574"><defs><style>.cls-1{fill:none;}.cls-2{isolation:isolate;}.cls-3{fill:url(#Unbenannter_Verlauf_18);}.cls-4{fill:#fff;}.cls-5{fill:#e9f2fb;}.cls-6{fill:#f4f9fd;}.cls-7{clip-path:url(#clip-path);}.cls-8{clip-path:url(#clip-path-2);}.cls-9{fill:url(#Unbenannter_Verlauf_45);}.cls-10,.cls-14{mix-blend-mode:multiply;}.cls-11{fill:url(#Unbenannter_Verlauf_63);}.cls-12{fill:#94c7ed;}.cls-13{fill:#e1d3bb;}.cls-14{fill:url(#Unbenannter_Verlauf_4);}.cls-15{fill:#ece8e5;}.cls-16{fill:#f3ede3;}.cls-17{opacity:0.5;}.cls-18{fill:#908d8d;}.cls-19{fill:#b9b6b7;}</style><linearGradient id="Unbenannter_Verlauf_18" x1="510" y1="382.5" x2="510" gradientUnits="userSpaceOnUse"><stop offset="0" stop-color="#e9f2fb"/><stop offset="1" stop-color="#d3e5f7"/></linearGradient><clipPath id="clip-path"><rect class="cls-1" x="695" y="110" width="325" height="150"/></clipPath><clipPath id="clip-path-2"><rect class="cls-1" x="735" width="285" height="285"/></clipPath><radialGradient id="Unbenannter_Verlauf_45" cx="1008.06" cy="11.26" r="100.41" gradientUnits="userSpaceOnUse"><stop offset="0" stop-color="#fff9ef"/><stop offset="0.23" stop-color="#fff8ec"/><stop offset="0.41" stop-color="#fff5e2"/><stop offset="0.57" stop-color="#ffefd1"/><stop offset="0.73" stop-color="#ffe7b9"/><stop offset="0.88" stop-color="#fedd9b"/><stop offset="1" stop-color="#fed37c"/></radialGradient><linearGradient id="Unbenannter_Verlauf_63" x1="510" y1="574" x2="510" y2="280.86" gradientUnits="userSpaceOnUse"><stop offset="0" stop-color="#b3d5f2"/><stop offset="1" stop-color="#cee3f7"/></linearGradient><linearGradient id="Unbenannter_Verlauf_4" x1="510" y1="574" x2="510" y2="385.56" gradientUnits="userSpaceOnUse"><stop offset="0" stop-color="#f0e9dc"/><stop offset="0.1" stop-color="#f6f2eb"/><stop offset="0.24" stop-color="#fbfaf6"/><stop offset="0.44" stop-color="#fefefd"/><stop offset="1" stop-color="#fff"/></linearGradient></defs><title>Frame 5</title><g class="cls-2"><g id="Himmel"><rect class="cls-3" width="1020" height="382.5"/><path class="cls-4" d="M1020,573.87V283.92a27.57,27.57,0,0,1-9.84-1.57,32.76,32.76,0,0,0-20.35,0,31.59,31.59,0,0,1-19.67,0,32.73,32.73,0,0,0-20.34,0,31.59,31.59,0,0,1-19.67,0,32.73,32.73,0,0,0-20.34,0,31.56,31.56,0,0,1-19.66,0,32.76,32.76,0,0,0-20.35,0,31.56,31.56,0,0,1-19.66,0,32.73,32.73,0,0,0-20.34,0,31.56,31.56,0,0,1-19.66,0,32.73,32.73,0,0,0-20.34,0,31.56,31.56,0,0,1-19.66,0,32.73,32.73,0,0,0-20.34,0,31.56,31.56,0,0,1-19.66,0,32.76,32.76,0,0,0-20.35,0,31.56,31.56,0,0,1-19.66,0,32.73,32.73,0,0,0-20.34,0,31.56,31.56,0,0,1-19.66,0,32.73,32.73,0,0,0-20.34,0,31.56,31.56,0,0,1-19.66,0,32.73,32.73,0,0,0-20.34,0,31.56,31.56,0,0,1-19.66,0,32.76,32.76,0,0,0-20.35,0,31.53,31.53,0,0,1-19.65,0,32.73,32.73,0,0,0-20.34,0,31.56,31.56,0,0,1-19.66,0,32.73,32.73,0,0,0-20.34,0,31.56,31.56,0,0,1-19.66,0,32.73,32.73,0,0,0-20.34,0,31.56,31.56,0,0,1-19.66,0,32.73,32.73,0,0,0-20.34,0,31.53,31.53,0,0,1-19.65,0,32.73,32.73,0,0,0-20.34,0,31.56,31.56,0,0,1-19.66,0,32.73,32.73,0,0,0-20.34,0,31.53,31.53,0,0,1-19.65,0,32.73,32.73,0,0,0-20.34,0,31.53,31.53,0,0,1-19.65,0,32.73,32.73,0,0,0-20.34,0,31.53,31.53,0,0,1-19.65,0,32.73,32.73,0,0,0-20.34,0,31.53,31.53,0,0,1-19.65,0,32.73,32.73,0,0,0-20.34,0,31.56,31.56,0,0,1-19.66,0,32.73,32.73,0,0,0-20.34,0,27.55,27.55,0,0,1-9.83,1.57,27.55,27.55,0,0,1-9.83-1.57A29,29,0,0,0,80,280.73a29.11,29.11,0,0,0-10.17,1.62A27.46,27.46,0,0,1,60,283.92a27.44,27.44,0,0,1-9.82-1.57A29.11,29.11,0,0,0,40,280.73a29.07,29.07,0,0,0-10.17,1.62A27.55,27.55,0,0,1,20,283.92a27.55,27.55,0,0,1-9.83-1.57A29.07,29.07,0,0,0,0,280.73V573.87Z"/></g><g id="Wolken"><path class="cls-5" d="M529.47,153.34c0-17.55-49.73-32.38-118-37.24a78.54,78.54,0,0,0-69.16-41.3c-1.07,0-2.12,0-3.18.09-19.22-24.59-47.31-40.11-78.62-40.11-40.07,0-74.88,25.4-92.55,62.73a55.93,55.93,0,0,0-52.62,55.83Z"/><path class="cls-6" d="M363.66,153.34c0-9.39-36.51-17.33-86.68-19.93-9.74-13.16-28.82-22.11-50.77-22.11-.79,0-1.56,0-2.34,0-14.11-13.16-34.73-21.47-57.72-21.47-29.42,0-55,13.59-67.95,33.58-21.55.91-38.64,13.94-38.64,29.88Z"/><g class="cls-7"><path class="cls-5" d="M1135.79,232.65c0-15.15-43.29-32.15-83.58-32.15-15.71-21.23-46.49-35.66-81.9-35.66-1.26,0-2.51,0-3.76.07-22.76-21.22-56-34.62-93.1-34.62-47.45,0-88.68,21.93-109.6,54.16-34.75,1.48-62.32,22.49-62.32,48.2Z"/></g></g><g id="Sonne"><g class="cls-8"><circle class="cls-4" cx="1008.06" cy="11.26" r="107.58"/><circle class="cls-9" cx="1008.06" cy="11.26" r="100.41"/><polygon class="cls-4" points="1012.28 118.83 1008.06 262.27 1003.84 118.83 1012.28 118.83"/><polygon class="cls-4" points="900.58 15.57 757.14 11.35 900.58 7.13 900.58 15.57"/><polygon class="cls-4" points="935.04 90.33 830.63 188.78 929.08 84.37 935.04 90.33"/><polygon class="cls-4" points="910.37 56.38 776.24 107.38 907.15 48.59 910.37 56.38"/><polygon class="cls-4" points="970.82 112.27 912.04 243.17 963.03 109.04 970.82 112.27"/><polygon class="cls-4" points="903.19 35.08 832.3 46.31 902.1 29.56 903.19 35.08"/><polygon class="cls-4" points="950.68 102.28 908.5 160.35 946.01 99.16 950.68 102.28"/><polygon class="cls-4" points="920.25 73.4 859.06 110.91 917.13 68.73 920.25 73.4"/><polygon class="cls-4" points="989.85 117.32 973.1 187.11 984.33 116.22 989.85 117.32"/></g></g><g id="Wasser"><g class="cls-10"><path class="cls-11" d="M1020,574V284.05a27.57,27.57,0,0,1-9.84-1.57,32.76,32.76,0,0,0-20.35,0,31.59,31.59,0,0,1-19.67,0,32.73,32.73,0,0,0-20.34,0,31.59,31.59,0,0,1-19.67,0,32.73,32.73,0,0,0-20.34,0,31.56,31.56,0,0,1-19.66,0,32.76,32.76,0,0,0-20.35,0,31.56,31.56,0,0,1-19.66,0,32.73,32.73,0,0,0-20.34,0,31.56,31.56,0,0,1-19.66,0,32.73,32.73,0,0,0-20.34,0,31.56,31.56,0,0,1-19.66,0,32.73,32.73,0,0,0-20.34,0,31.56,31.56,0,0,1-19.66,0,32.76,32.76,0,0,0-20.35,0,31.56,31.56,0,0,1-19.66,0,32.73,32.73,0,0,0-20.34,0,31.56,31.56,0,0,1-19.66,0,32.73,32.73,0,0,0-20.34,0,31.56,31.56,0,0,1-19.66,0,32.73,32.73,0,0,0-20.34,0,31.56,31.56,0,0,1-19.66,0,32.76,32.76,0,0,0-20.35,0,31.53,31.53,0,0,1-19.65,0,32.73,32.73,0,0,0-20.34,0,31.56,31.56,0,0,1-19.66,0,32.73,32.73,0,0,0-20.34,0,31.56,31.56,0,0,1-19.66,0,32.73,32.73,0,0,0-20.34,0,31.56,31.56,0,0,1-19.66,0,32.73,32.73,0,0,0-20.34,0,31.53,31.53,0,0,1-19.65,0,32.73,32.73,0,0,0-20.34,0,31.56,31.56,0,0,1-19.66,0,32.73,32.73,0,0,0-20.34,0,31.53,31.53,0,0,1-19.65,0,32.73,32.73,0,0,0-20.34,0,31.53,31.53,0,0,1-19.65,0,32.73,32.73,0,0,0-20.34,0,31.53,31.53,0,0,1-19.65,0,32.73,32.73,0,0,0-20.34,0,31.53,31.53,0,0,1-19.65,0,32.73,32.73,0,0,0-20.34,0,31.56,31.56,0,0,1-19.66,0A28.83,28.83,0,0,0,120,280.86a28.83,28.83,0,0,0-10.17,1.62,27.55,27.55,0,0,1-9.83,1.57,27.55,27.55,0,0,1-9.83-1.57A28.79,28.79,0,0,0,80,280.86a28.88,28.88,0,0,0-10.17,1.62A27.46,27.46,0,0,1,60,284.05a27.44,27.44,0,0,1-9.82-1.57A28.88,28.88,0,0,0,40,280.86a28.83,28.83,0,0,0-10.17,1.62A27.55,27.55,0,0,1,20,284.05a27.55,27.55,0,0,1-9.83-1.57A28.83,28.83,0,0,0,0,280.86V574Z"/></g><path class="cls-12" d="M0,281a29.58,29.58,0,0,1,8.15.84c1.33.34,2.61.77,3.9,1.1a25.68,25.68,0,0,0,3.9.69,36.88,36.88,0,0,0,7.93-.13,23.81,23.81,0,0,0,3.84-.8c1.26-.37,2.52-.85,3.86-1.25a30.12,30.12,0,0,1,8.26-1.21,30.29,30.29,0,0,1,8.34.85c1.37.34,2.66.78,3.92,1.11a24.46,24.46,0,0,0,3.78.72,36.79,36.79,0,0,0,7.78-.05,22.85,22.85,0,0,0,3.75-.75c1.23-.35,2.48-.81,3.84-1.22a30.32,30.32,0,0,1,8.42-1.24,31.5,31.5,0,0,1,8.49.86c1.4.35,2.7.8,3.93,1.14a25.21,25.21,0,0,0,3.7.73,36.42,36.42,0,0,0,7.67,0,22.87,22.87,0,0,0,3.67-.71c1.21-.33,2.45-.79,3.81-1.21a28.9,28.9,0,0,1,4.26-1,35,35,0,0,1,4.3-.32,32.07,32.07,0,0,1,8.61.87c1.42.36,2.74.81,4,1.16a25,25,0,0,0,3.63.76,36.82,36.82,0,0,0,7.57.05,24.66,24.66,0,0,0,3.63-.66c1.19-.32,2.41-.76,3.79-1.18a28.89,28.89,0,0,1,4.3-1,33.77,33.77,0,0,1,4.34-.33,41.49,41.49,0,0,1,4.31.11,28.7,28.7,0,0,1,4.39.72c1.44.35,2.78.81,4,1.16a24.7,24.7,0,0,0,3.58.78,37.56,37.56,0,0,0,7.5.08,24,24,0,0,0,3.58-.64c1.17-.3,2.38-.73,3.75-1.16a30.16,30.16,0,0,1,4.34-1,33,33,0,0,1,4.38-.36,42.3,42.3,0,0,1,4.35.1,28.17,28.17,0,0,1,4.43.71c1.47.35,2.82.82,4,1.18a22.18,22.18,0,0,0,3.54.8,35.4,35.4,0,0,0,7.43.15,24.34,24.34,0,0,0,3.55-.58c1.17-.29,2.36-.7,3.73-1.13a28.88,28.88,0,0,1,4.36-1,35.25,35.25,0,0,1,4.41-.36,33.81,33.81,0,0,1,8.82.79c1.47.34,2.85.82,4.06,1.18a22.17,22.17,0,0,0,3.53.82,35.61,35.61,0,0,0,7.39.19,22.89,22.89,0,0,0,3.54-.54c1.16-.27,2.34-.67,3.7-1.1a29.83,29.83,0,0,1,4.36-1,32.15,32.15,0,0,1,4.43-.37,34.64,34.64,0,0,1,8.82.78c1.48.35,2.87.82,4.09,1.2a22.47,22.47,0,0,0,3.52.85,33.62,33.62,0,0,0,7.39.24,22,22,0,0,0,3.56-.52c1.16-.26,2.33-.64,3.69-1.06a29,29,0,0,1,4.34-1,30.47,30.47,0,0,1,4.42-.39,35.4,35.4,0,0,1,8.8.77c1.47.35,2.86.82,4.09,1.21a24.91,24.91,0,0,0,3.55.89,33.2,33.2,0,0,0,7.42.31,26.89,26.89,0,0,0,7.27-1.54,31.42,31.42,0,0,1,4.3-1,31.87,31.87,0,0,1,4.41-.41,35.3,35.3,0,0,1,8.74.73c1.47.33,2.87.8,4.11,1.2a27,27,0,0,0,3.58.92,33.46,33.46,0,0,0,7.45.34,26.36,26.36,0,0,0,7.31-1.52,33.57,33.57,0,0,1,4.26-1.06,32.92,32.92,0,0,1,4.38-.42,35.31,35.31,0,0,1,8.7.68,39.71,39.71,0,0,1,4.12,1.19,27.67,27.67,0,0,0,3.61,1,33.16,33.16,0,0,0,7.49.4,23.3,23.3,0,0,0,3.67-.45,36.15,36.15,0,0,0,3.69-1,37,37,0,0,1,4.21-1.06,32.66,32.66,0,0,1,4.36-.43,36.62,36.62,0,0,1,8.62.66,39.94,39.94,0,0,1,4.11,1.18,30.28,30.28,0,0,0,3.65,1,33.19,33.19,0,0,0,7.56.43,25.34,25.34,0,0,0,3.73-.42,34.72,34.72,0,0,0,3.71-1,36.11,36.11,0,0,1,4.16-1.06,33.31,33.31,0,0,1,4.3-.43,36.8,36.8,0,0,1,8.53.65,34.16,34.16,0,0,1,4.08,1.17A27.84,27.84,0,0,0,502,282.79a26.6,26.6,0,0,0,3.8-.4,33.55,33.55,0,0,0,3.75-1,34,34,0,0,1,4.09-1.06,30.53,30.53,0,0,1,4.24-.46,36.73,36.73,0,0,1,8.41.58,35.47,35.47,0,0,1,4.06,1.14,30.77,30.77,0,0,0,3.75,1.07,33.43,33.43,0,0,0,7.77.55,31,31,0,0,0,3.86-.4,32,32,0,0,0,3.79-1,36.2,36.2,0,0,1,4-1.07,31.27,31.27,0,0,1,4.18-.47,35.85,35.85,0,0,1,8.32.5c2.8.52,5.31,1.67,7.83,2.17a33.53,33.53,0,0,0,7.84.56,29.81,29.81,0,0,0,3.9-.42,30.32,30.32,0,0,0,3.82-1,40.16,40.16,0,0,1,4-1.1,27.73,27.73,0,0,1,4.14-.52,35.5,35.5,0,0,1,8.29.42c2.79.49,5.31,1.63,7.85,2.13a32.6,32.6,0,0,0,7.85.53,26.77,26.77,0,0,0,7.72-1.41,30,30,0,0,1,8.13-1.7,36.81,36.81,0,0,1,8.31.33c2.8.43,5.36,1.54,7.87,2.05a31.77,31.77,0,0,0,7.81.52A25.6,25.6,0,0,0,669,282a30.82,30.82,0,0,1,8.17-1.83,37,37,0,0,1,8.4.24,30.18,30.18,0,0,1,4.12,1c1.32.4,2.56.79,3.8,1.05a31.19,31.19,0,0,0,7.69.5,25.67,25.67,0,0,0,7.52-1.37c1.25-.41,2.6-.87,4-1.21a27,27,0,0,1,4.26-.67,38,38,0,0,1,8.52.2,29.87,29.87,0,0,1,4.2,1c1.34.4,2.55.79,3.77,1.05a30,30,0,0,0,7.55.54,25.68,25.68,0,0,0,7.4-1.3c1.23-.41,2.59-.88,4-1.24a29.38,29.38,0,0,1,4.33-.71,37.85,37.85,0,0,1,8.63.2,28.07,28.07,0,0,1,4.28,1c1.35.41,2.56.81,3.75,1.09a29.79,29.79,0,0,0,7.43.6,25.59,25.59,0,0,0,7.31-1.19c1.23-.38,2.58-.85,4-1.2a28.92,28.92,0,0,1,4.38-.7,40.1,40.1,0,0,1,8.68.22,27.45,27.45,0,0,1,4.3,1c1.37.41,2.58.83,3.76,1.11a28.9,28.9,0,0,0,7.39.7,28.34,28.34,0,0,0,3.73-.27,22.31,22.31,0,0,0,3.59-.81c1.22-.36,2.57-.83,4-1.18a29.82,29.82,0,0,1,4.38-.71,41.1,41.1,0,0,1,8.65.21,28.34,28.34,0,0,1,4.3,1c1.37.42,2.59.84,3.78,1.14a27.39,27.39,0,0,0,7.42.76,33,33,0,0,0,3.75-.24,24.52,24.52,0,0,0,3.61-.78c1.22-.36,2.55-.81,4-1.17a29.46,29.46,0,0,1,4.35-.72,41.36,41.36,0,0,1,8.61.2,28.9,28.9,0,0,1,4.28,1c1.37.42,2.6.86,3.8,1.17a27.45,27.45,0,0,0,7.47.84,26.45,26.45,0,0,0,7.45-1c1.23-.35,2.54-.8,4-1.15a26.44,26.44,0,0,1,4.3-.72,40.67,40.67,0,0,1,8.54.18,29.78,29.78,0,0,1,4.23.94c1.36.42,2.61.87,3.83,1.2a27.71,27.71,0,0,0,7.55.93,26.61,26.61,0,0,0,7.58-.91c1.24-.34,2.54-.78,3.92-1.13A25.44,25.44,0,0,1,956,280a38.85,38.85,0,0,1,8.42.17,26.71,26.71,0,0,1,4.17.91c1.34.41,2.6.89,3.84,1.25a31.88,31.88,0,0,0,15.45.2c1.27-.34,2.56-.77,3.91-1.11a24.18,24.18,0,0,1,4.12-.72,38.65,38.65,0,0,1,8.26.17,24.18,24.18,0,0,1,4,.89c1.32.4,2.58.89,3.86,1.27a28.58,28.58,0,0,0,7.89,1.17v.56a29.55,29.55,0,0,1-8.15-.81c-1.33-.33-2.62-.76-3.91-1.09a24.56,24.56,0,0,0-3.89-.68,36.88,36.88,0,0,0-7.93.13,23.69,23.69,0,0,0-3.83.8c-1.26.37-2.52.85-3.85,1.25a30,30,0,0,1-8.28,1.22,30.45,30.45,0,0,1-8.36-.83c-1.37-.35-2.66-.78-3.92-1.11a24.34,24.34,0,0,0-3.77-.72,36.6,36.6,0,0,0-7.76.05,22.52,22.52,0,0,0-3.74.75c-1.23.34-2.48.81-3.84,1.22a30.05,30.05,0,0,1-8.44,1.25,30.91,30.91,0,0,1-8.51-.87c-1.4-.35-2.7-.8-3.93-1.14a24,24,0,0,0-3.7-.74,36.22,36.22,0,0,0-7.65,0,22.64,22.64,0,0,0-3.67.7c-1.21.32-2.45.77-3.81,1.19a28.9,28.9,0,0,1-4.26,1,37.07,37.07,0,0,1-4.3.32,31.71,31.71,0,0,1-8.61-.87c-1.42-.35-2.74-.81-4-1.16a23.62,23.62,0,0,0-3.64-.77,36.81,36.81,0,0,0-7.57-.07,23.18,23.18,0,0,0-3.63.65c-1.2.31-2.42.75-3.79,1.17a30.37,30.37,0,0,1-4.29,1,33.77,33.77,0,0,1-4.34.33c-1.42,0-2.85,0-4.3-.13A28.27,28.27,0,0,1,852,286c-1.44-.35-2.77-.81-4-1.18a24.76,24.76,0,0,0-3.6-.8,36.39,36.39,0,0,0-7.53-.13,24.08,24.08,0,0,0-3.61.61c-1.19.29-2.4.72-3.77,1.14a28.64,28.64,0,0,1-4.3,1,34.25,34.25,0,0,1-4.36.34c-1.43,0-2.86,0-4.31-.11a30,30,0,0,1-4.39-.71c-1.45-.36-2.8-.83-4-1.2a22.33,22.33,0,0,0-3.58-.84,35.47,35.47,0,0,0-7.51-.2,25.28,25.28,0,0,0-3.62.56c-1.18.28-2.38.69-3.74,1.11a27.45,27.45,0,0,1-4.3,1,32.48,32.48,0,0,1-4.36.33,33.87,33.87,0,0,1-8.67-.84c-1.44-.35-2.8-.83-4-1.22a24.19,24.19,0,0,0-3.6-.88,36.44,36.44,0,0,0-7.55-.3,24.56,24.56,0,0,0-3.67.5c-1.21.27-2.42.66-3.76,1.06a29.36,29.36,0,0,1-8.56,1.29,33.78,33.78,0,0,1-8.56-.83c-1.42-.34-2.77-.81-4-1.22a24.73,24.73,0,0,0-3.67-.94,34.73,34.73,0,0,0-7.65-.37,28.14,28.14,0,0,0-7.54,1.55,29.24,29.24,0,0,1-8.41,1.31,34,34,0,0,1-8.43-.78c-1.4-.33-2.74-.79-4-1.2a27.2,27.2,0,0,0-3.74-1,35.23,35.23,0,0,0-7.77-.41,28.39,28.39,0,0,0-7.65,1.53,29.27,29.27,0,0,1-8.26,1.36,33.87,33.87,0,0,1-8.32-.69c-2.79-.63-5.23-1.74-7.78-2.16a33.24,33.24,0,0,0-7.86-.39,28.08,28.08,0,0,0-7.7,1.58,31.42,31.42,0,0,1-4,1,29.05,29.05,0,0,1-4.15.43,35,35,0,0,1-8.28-.61c-2.76-.59-5.24-1.68-7.8-2.1a33.89,33.89,0,0,0-7.87-.37,27.84,27.84,0,0,0-7.71,1.57,28.31,28.31,0,0,1-8.17,1.54,35.76,35.76,0,0,1-8.31-.5c-2.79-.54-5.28-1.64-7.81-2.08a34.73,34.73,0,0,0-7.84-.37,27.35,27.35,0,0,0-3.86.51,32.15,32.15,0,0,0-3.78,1.09,36.27,36.27,0,0,1-4,1.12,29.79,29.79,0,0,1-4.19.52,35.31,35.31,0,0,1-8.38-.43,33.48,33.48,0,0,1-4.06-1.06,31,31,0,0,0-3.78-1,33.71,33.71,0,0,0-7.73-.37,27.94,27.94,0,0,0-3.81.49,32.36,32.36,0,0,0-3.74,1,34.36,34.36,0,0,1-4.06,1.16,30.93,30.93,0,0,1-4.25.56,36.78,36.78,0,0,1-8.49-.38,36.11,36.11,0,0,1-4.13-1.06,33.82,33.82,0,0,0-3.73-1,32.68,32.68,0,0,0-7.62-.39,25.51,25.51,0,0,0-7.42,1.5,40.47,40.47,0,0,1-4.1,1.18,29.16,29.16,0,0,1-4.31.59,37.2,37.2,0,0,1-8.6-.38,34.66,34.66,0,0,1-4.19-1.07,38.14,38.14,0,0,0-3.7-1,32.22,32.22,0,0,0-7.52-.45A25.31,25.31,0,0,0,431,285a41,41,0,0,1-4.11,1.18,30,30,0,0,1-4.37.61,37.81,37.81,0,0,1-8.67-.35,32,32,0,0,1-4.24-1.05c-1.32-.41-2.49-.77-3.68-1a30.92,30.92,0,0,0-7.44-.5,25.76,25.76,0,0,0-3.67.39,27.29,27.29,0,0,0-3.6.93c-1.25.4-2.65.87-4.11,1.19a27.9,27.9,0,0,1-4.4.62,38.21,38.21,0,0,1-8.72-.33,31.13,31.13,0,0,1-4.28-1.06c-1.33-.41-2.5-.79-3.68-1a30.34,30.34,0,0,0-7.38-.53,24.43,24.43,0,0,0-7.23,1.28c-1.23.39-2.63.86-4.1,1.2a28.36,28.36,0,0,1-4.43.65,38.54,38.54,0,0,1-8.76-.3,30.16,30.16,0,0,1-4.31-1c-1.35-.42-2.53-.8-3.69-1.05a28.9,28.9,0,0,0-7.33-.56,24.51,24.51,0,0,0-7.17,1.22c-1.23.39-2.62.87-4.1,1.21a26.3,26.3,0,0,1-4.45.67,38.76,38.76,0,0,1-8.79-.29,28.2,28.2,0,0,1-4.35-1c-1.36-.42-2.54-.82-3.7-1.09a28.93,28.93,0,0,0-7.29-.61,26.79,26.79,0,0,0-3.64.31,22.16,22.16,0,0,0-3.52.84c-1.22.37-2.6.85-4.08,1.2a28.67,28.67,0,0,1-4.46.69,39.92,39.92,0,0,1-8.79-.26,28.61,28.61,0,0,1-4.36-1c-1.37-.43-2.56-.84-3.71-1.12a28.44,28.44,0,0,0-7.29-.69,29.18,29.18,0,0,0-3.67.28,22.12,22.12,0,0,0-3.53.81c-1.21.36-2.57.83-4,1.18a29.84,29.84,0,0,1-4.45.71,42.1,42.1,0,0,1-8.75-.25,27.71,27.71,0,0,1-4.36-1c-1.37-.42-2.57-.84-3.74-1.13a24.5,24.5,0,0,0-3.56-.61c-1.22-.1-2.49-.16-3.75-.14a31.79,31.79,0,0,0-3.7.24,24.57,24.57,0,0,0-3.57.78c-1.21.36-2.55.82-4,1.17a30.22,30.22,0,0,1-4.41.71,42.19,42.19,0,0,1-8.69-.24,30.19,30.19,0,0,1-4.32-1c-1.37-.43-2.59-.86-3.77-1.17a27.57,27.57,0,0,0-7.39-.81,33,33,0,0,0-3.75.23,24.58,24.58,0,0,0-3.6.76c-1.22.35-2.55.81-4,1.16a26.88,26.88,0,0,1-4.35.73,40.77,40.77,0,0,1-8.62-.2,28.72,28.72,0,0,1-4.29-1c-1.37-.42-2.61-.87-3.8-1.18a27.38,27.38,0,0,0-7.46-.86,26.88,26.88,0,0,0-7.46.94c-1.22.34-2.54.79-3.94,1.14a26.44,26.44,0,0,1-4.3.72,39.91,39.91,0,0,1-8.53-.2,27.14,27.14,0,0,1-4.22-.94c-1.36-.42-2.61-.88-3.83-1.21a27.55,27.55,0,0,0-7.58-1,27.2,27.2,0,0,0-7.6.91c-1.24.34-2.54.78-3.91,1.13a24.36,24.36,0,0,1-4.22.73,38.77,38.77,0,0,1-8.41-.15,27.64,27.64,0,0,1-4.15-.91c-1.34-.41-2.6-.88-3.85-1.24a27.87,27.87,0,0,0-7.71-1,28.12,28.12,0,0,0-7.77.85c-1.27.34-2.55.77-3.9,1.12a25.18,25.18,0,0,1-4.12.71,37.93,37.93,0,0,1-8.25-.16,25.4,25.4,0,0,1-4.05-.87c-1.31-.4-2.58-.89-3.85-1.27A28.69,28.69,0,0,0,0,281.58Z"/></g><g id="Boden"><path class="cls-13" d="M0,377.4s64.12-8.66,111.28-.6c40.6,6.94,70,7,108.44,3.11,54.13-5.52,138,2,185.62,13C492,413,481.79,398.39,599.15,405.32c135,8,184.09-39.81,420.85-22.6V574H0Z"/><path class="cls-14" d="M0,388.64s61.1-6.92,108.45,0c42.94,6.28,65.71-1.1,111.27,2.52,92.89,7.37,129-1.9,175,14.41,45,15.93,87,4.07,204.38,11,135,8,184.09-39.81,420.85-22.6V574H0Z"/><g class="cls-10"><ellipse class="cls-15" cx="108.45" cy="533.87" rx="1.47" ry="3.2" transform="matrix(0.03, -1, 1, 0.03, -428.86, 623.77)"/><ellipse class="cls-15" cx="195.52" cy="543.44" rx="3.16" ry="1.48" transform="translate(-39.97 16.09) rotate(-4.28)"/><ellipse class="cls-15" cx="195.55" cy="537.58" rx="1.19" ry="1.5" transform="translate(-342.29 732.41) rotate(-89.92)"/><ellipse class="cls-15" cx="148.54" cy="444.9" rx="1.5" ry="1.19" transform="translate(-24.99 9.14) rotate(-3.25)"/><ellipse class="cls-15" cx="99.81" cy="536.11" rx="2.24" ry="5.11" transform="translate(-437.56 628.94) rotate(-89.26)"/><ellipse class="cls-15" cx="85.76" cy="445.57" rx="2.7" ry="3.2" transform="translate(-363.94 506.06) rotate(-86.77)"/><path class="cls-15" d="M30.47,465a1.15,1.15,0,0,0,0-.32,1.91,1.91,0,0,0-2.14-1.41,1.69,1.69,0,0,0-1.6,1.33,2.66,2.66,0,0,0-1.8,2.8,3.41,3.41,0,0,0,3.8,2.5c1.86-.17,3.16-1.55,2.92-3.1A4.08,4.08,0,0,0,30.47,465Z"/><ellipse class="cls-15" cx="78.57" cy="443.96" rx="1.35" ry="1.6" transform="translate(-366.71 514.71) rotate(-88.99)"/><ellipse class="cls-15" cx="169.91" cy="502.35" rx="0.97" ry="0.82" transform="translate(-29.02 10.77) rotate(-3.34)"/><ellipse class="cls-15" cx="115.03" cy="470.16" rx="0.97" ry="0.82" transform="matrix(1, -0.04, 0.04, 1, -16.58, 4.37)"/><ellipse class="cls-15" cx="181.12" cy="509.78" rx="0.82" ry="0.97" transform="translate(-353.11 595.06) rotate(-79.51)"/><ellipse class="cls-15" cx="160.35" cy="508.93" rx="0.82" ry="0.97" transform="translate(-355.81 644.22) rotate(-87.2)"/><ellipse class="cls-15" cx="159.96" cy="510.34" rx="2.21" ry="1.16" transform="translate(-0.7 0.22) rotate(-0.08)"/><ellipse class="cls-15" cx="171.28" cy="514.23" rx="2.21" ry="1.16" transform="translate(-11.19 3.86) rotate(-1.25)"/><ellipse class="cls-15" cx="140.36" cy="512.28" rx="1.35" ry="1.6" transform="translate(-376.77 633.56) rotate(-87.88)"/><ellipse class="cls-15" cx="155.18" cy="507.89" rx="1.35" ry="2.04" transform="translate(-356.4 650.46) rotate(-88.58)"/><ellipse class="cls-15" cx="75.52" cy="492.41" rx="1.6" ry="1.35" transform="translate(-15.87 2.7) rotate(-1.85)"/><ellipse class="cls-15" cx="78.99" cy="496.78" rx="1.83" ry="2.16" transform="translate(-423.85 509.97) rotate(-82.47)"/><ellipse class="cls-15" cx="164.88" cy="507.32" rx="1.65" ry="1.95" transform="translate(-354.53 628.83) rotate(-85.16)"/><ellipse class="cls-15" cx="159.31" cy="502.26" rx="1.35" ry="2.93" transform="translate(-346.81 648.85) rotate(-88.55)"/><ellipse class="cls-15" cx="68.59" cy="495.94" rx="3.88" ry="1.79" transform="translate(-5.21 0.75) rotate(-0.6)"/><ellipse class="cls-15" cx="285.1" cy="462.61" rx="1.57" ry="3.43" transform="matrix(0.03, -1, 1, 0.03, -187.11, 731.52)"/><ellipse class="cls-15" cx="294.42" cy="400.81" rx="1.61" ry="1.27" transform="translate(-22.26 17.34) rotate(-3.25)"/><ellipse class="cls-15" cx="275.82" cy="465.02" rx="2.4" ry="5.48" transform="translate(-192.74 734.77) rotate(-89.26)"/><ellipse class="cls-15" cx="463.14" cy="435.27" rx="2.9" ry="3.43" transform="translate(2.44 873.12) rotate(-86.77)"/><path class="cls-15" d="M190.12,399.91a1.38,1.38,0,0,0,0-.35,2.07,2.07,0,0,0-2.3-1.51,1.82,1.82,0,0,0-1.72,1.43,2.85,2.85,0,0,0-1.93,3,3.65,3.65,0,0,0,4.08,2.68c2-.17,3.4-1.66,3.14-3.32A4.35,4.35,0,0,0,190.12,399.91Z"/><ellipse class="cls-15" cx="455.42" cy="433.54" rx="1.45" ry="1.72" transform="translate(13.94 881.27) rotate(-88.99)"/><ellipse class="cls-15" cx="362.34" cy="417.53" rx="1.04" ry="0.88" transform="translate(-23.74 21.85) rotate(-3.34)"/><ellipse class="cls-15" cx="280.92" cy="405.44" rx="1.04" ry="0.88" transform="translate(-14.18 10.2) rotate(-2.03)"/><ellipse class="cls-15" cx="374.38" cy="425.5" rx="0.88" ry="1.04" transform="translate(-112.17 716.15) rotate(-79.51)"/><ellipse class="cls-15" cx="352.07" cy="424.58" rx="0.88" ry="1.04" transform="translate(-89.21 755.49) rotate(-87.2)"/><ellipse class="cls-15" cx="351.65" cy="426.1" rx="2.37" ry="1.25" transform="translate(-0.59 0.48) rotate(-0.08)"/><ellipse class="cls-15" cx="363.81" cy="430.28" rx="2.38" ry="1.25" transform="translate(-9.31 8.04) rotate(-1.25)"/><ellipse class="cls-15" cx="330.61" cy="428.19" rx="1.45" ry="1.72" transform="translate(-109.54 742.7) rotate(-87.88)"/><ellipse class="cls-15" cx="346.52" cy="423.47" rx="1.45" ry="2.19" transform="translate(-85.39 759.41) rotate(-88.58)"/><ellipse class="cls-15" cx="238.49" cy="429.33" rx="1.72" ry="1.45" transform="translate(-13.75 7.93) rotate(-1.85)"/><ellipse class="cls-15" cx="242.23" cy="434.03" rx="1.96" ry="2.32" transform="matrix(0.13, -0.99, 0.99, 0.13, -219.81, 617.27)"/><ellipse class="cls-15" cx="356.94" cy="422.86" rx="1.77" ry="2.1" transform="translate(-94.51 742.86) rotate(-85.16)"/><ellipse class="cls-15" cx="350.95" cy="417.42" rx="1.45" ry="3.15" transform="matrix(0.03, -1, 1, 0.03, -75.19, 757.74)"/><ellipse class="cls-15" cx="231.06" cy="433.13" rx="4.17" ry="1.92" transform="translate(-4.54 2.45) rotate(-0.6)"/><ellipse class="cls-15" cx="19.62" cy="392.82" rx="1.69" ry="3.67" transform="translate(-373.64 398.83) rotate(-88.02)"/><ellipse class="cls-15" cx="602" cy="448.76" rx="3.63" ry="1.71" transform="translate(-31.78 46.13) rotate(-4.28)"/><ellipse class="cls-15" cx="602.04" cy="442.02" rx="1.36" ry="1.73" transform="translate(159.2 1043.47) rotate(-89.92)"/><ellipse class="cls-15" cx="832.42" cy="435.32" rx="1.12" ry="0.94" transform="translate(-23.98 49.31) rotate(-3.34)"/><ellipse class="cls-15" cx="845.31" cy="443.85" rx="0.94" ry="1.12" transform="translate(254.97 1194.21) rotate(-79.51)"/><ellipse class="cls-15" cx="834" cy="448.97" rx="2.54" ry="1.33" transform="translate(-9.6 18.31) rotate(-1.25)"/><ellipse class="cls-15" cx="798.46" cy="446.73" rx="1.55" ry="1.84" transform="translate(322.44 1228.08) rotate(-87.88)"/><ellipse class="cls-15" cx="815.48" cy="441.68" rx="1.55" ry="2.35" transform="translate(353.78 1245.99) rotate(-88.58)"/><ellipse class="cls-15" cx="826.64" cy="441.02" rx="1.9" ry="2.24" transform="translate(317.48 1227.52) rotate(-85.16)"/><ellipse class="cls-15" cx="820.23" cy="435.2" rx="1.55" ry="3.37" transform="translate(364.48 1244.2) rotate(-88.55)"/><path class="cls-15" d="M243.38,531a1.38,1.38,0,0,0,0-.35,2.08,2.08,0,0,0-2.3-1.51,1.82,1.82,0,0,0-1.72,1.43,2.85,2.85,0,0,0-1.93,3,3.65,3.65,0,0,0,4.08,2.68c2-.17,3.4-1.66,3.14-3.31A4.42,4.42,0,0,0,243.38,531Z"/><ellipse class="cls-15" cx="416.73" cy="458.62" rx="1.04" ry="0.88" transform="translate(-26.05 25.09) rotate(-3.34)"/><ellipse class="cls-15" cx="300.44" cy="525.25" rx="1.04" ry="0.88" transform="translate(-18.41 10.97) rotate(-2.03)"/><ellipse class="cls-15" cx="395.21" cy="544.39" rx="0.88" ry="1.04" transform="translate(-167.84 912.53) rotate(-87.2)"/><ellipse class="cls-15" cx="394.79" cy="545.9" rx="2.37" ry="1.25" transform="matrix(1, 0, 0, 1, -0.75, 0.54)"/><ellipse class="cls-15" cx="389.66" cy="543.28" rx="1.45" ry="2.19" transform="translate(-163.09 919.38) rotate(-88.58)"/><ellipse class="cls-15" cx="280.51" cy="549.14" rx="1.72" ry="1.45" transform="translate(-17.59 9.35) rotate(-1.85)"/><ellipse class="cls-15" cx="284.24" cy="553.84" rx="1.96" ry="2.32" transform="translate(-302.07 763.03) rotate(-82.47)"/><ellipse class="cls-15" cx="400.08" cy="542.66" rx="1.77" ry="2.1" transform="translate(-174.39 895.55) rotate(-85.16)"/><ellipse class="cls-15" cx="405.34" cy="447.27" rx="1.45" ry="3.15" transform="translate(-52.02 841.2) rotate(-88.55)"/><ellipse class="cls-15" cx="273.08" cy="552.94" rx="4.17" ry="1.92" transform="translate(-5.8 2.9) rotate(-0.6)"/><ellipse class="cls-15" cx="724.79" cy="440.9" rx="1.57" ry="3.43" transform="translate(259.06 1149.99) rotate(-88.02)"/><ellipse class="cls-15" cx="827.03" cy="550.72" rx="3.39" ry="1.59" transform="translate(-38.75 63.19) rotate(-4.28)"/><ellipse class="cls-15" cx="827.07" cy="544.42" rx="1.27" ry="1.61" transform="translate(281.53 1370.76) rotate(-89.92)"/><ellipse class="cls-15" cx="764.52" cy="489.3" rx="1.61" ry="1.27" transform="translate(-26.52 44.14) rotate(-3.25)"/><ellipse class="cls-15" cx="715.51" cy="443.3" rx="2.4" ry="5.48" transform="translate(262.95 1153) rotate(-89.26)"/><ellipse class="cls-15" cx="787.46" cy="530.75" rx="1.04" ry="0.88" transform="translate(-29.62 46.85) rotate(-3.34)"/><ellipse class="cls-15" cx="751.02" cy="492.81" rx="1.04" ry="0.88" transform="translate(-16.98 26.91) rotate(-2.03)"/><ellipse class="cls-15" cx="799.5" cy="538.72" rx="0.88" ry="1.04" transform="translate(124.22 1226.77) rotate(-79.51)"/><ellipse class="cls-15" cx="777.19" cy="537.81" rx="0.88" ry="1.04" transform="translate(202.05 1287.8) rotate(-87.2)"/><ellipse class="cls-15" cx="776.77" cy="539.32" rx="2.37" ry="1.25" transform="translate(-0.74 1.07) rotate(-0.08)"/><ellipse class="cls-15" cx="788.93" cy="543.51" rx="2.38" ry="1.25" transform="translate(-11.68 17.35) rotate(-1.25)"/><ellipse class="cls-15" cx="771.64" cy="536.69" rx="1.45" ry="2.19" transform="translate(216.02 1294.82) rotate(-88.58)"/><ellipse class="cls-15" cx="663.61" cy="497.58" rx="1.72" ry="1.45" transform="translate(-15.73 21.7) rotate(-1.85)"/><ellipse class="cls-15" cx="667.35" cy="502.27" rx="1.96" ry="2.32" transform="matrix(0.13, -0.99, 0.99, 0.13, 81.93, 1098.02)"/><ellipse class="cls-15" cx="782.06" cy="536.08" rx="1.77" ry="2.1" transform="translate(181.93 1270.14) rotate(-85.16)"/><ellipse class="cls-15" cx="776.07" cy="530.65" rx="1.45" ry="3.15" transform="translate(226.02 1293.09) rotate(-88.55)"/><ellipse class="cls-15" cx="656.18" cy="501.38" rx="4.17" ry="1.92" transform="translate(-5.23 6.92) rotate(-0.6)"/><ellipse class="cls-15" cx="575.67" cy="534.41" rx="1.4" ry="2.98" transform="translate(-22.96 1042.97) rotate(-83.22)"/><ellipse class="cls-15" cx="575.88" cy="528.89" rx="1.12" ry="1.41" transform="translate(23.08 1081.86) rotate(-87.57)"/><ellipse class="cls-15" cx="636.42" cy="544.92" rx="3.01" ry="2.55" transform="translate(-6.89 8.15) rotate(-0.73)"/><ellipse class="cls-15" cx="643.25" cy="543.7" rx="1.27" ry="1.51" transform="translate(82.93 1172.53) rotate(-88.5)"/><ellipse class="cls-15" cx="585.37" cy="533.12" rx="0.77" ry="0.92" transform="translate(7.66 1074.52) rotate(-85.47)"/><ellipse class="cls-15" cx="476.57" cy="547.44" rx="0.92" ry="0.77" transform="matrix(0.99, -0.14, 0.14, 0.99, -71.44, 71.53)"/><ellipse class="cls-15" cx="496.15" cy="547.49" rx="0.92" ry="0.77" transform="translate(-2.83 2.58) rotate(-0.3)"/><ellipse class="cls-15" cx="496.46" cy="548.83" rx="1.09" ry="2.08" transform="translate(-74.18 1020.06) rotate(-87.42)"/><ellipse class="cls-15" cx="485.64" cy="552.04" rx="1.09" ry="2.08" transform="translate(-97.01 1000.49) rotate(-86.25)"/><ellipse class="cls-15" cx="514.82" cy="551.48" rx="1.27" ry="1.51" transform="translate(-40.05 1062.63) rotate(-89.62)"/><ellipse class="cls-15" cx="501.06" cy="546.73" rx="1.27" ry="1.92" transform="translate(-55.07 1037.33) rotate(-88.91)"/><ellipse class="cls-15" cx="947.02" cy="423.91" rx="1.27" ry="1.51" transform="translate(452.42 1336.01) rotate(-85.64)"/><ellipse class="cls-15" cx="943.57" cy="427.89" rx="2.03" ry="1.72" transform="translate(-33.87 84.35) rotate(-5.03)"/><ellipse class="cls-15" cx="491.95" cy="545.79" rx="1.84" ry="1.55" transform="translate(-21.82 20.49) rotate(-2.33)"/><ellipse class="cls-15" cx="953.39" cy="427.53" rx="1.68" ry="3.65" transform="translate(474.84 1356.36) rotate(-86.89)"/><ellipse class="cls-15" cx="976.54" cy="507.9" rx="1.12" ry="1.41" transform="translate(373.28 1428.6) rotate(-84.25)"/><ellipse class="cls-15" cx="900.66" cy="488.63" rx="3.01" ry="2.55" transform="translate(-6.15 11.51) rotate(-0.73)"/><path class="cls-15" d="M996.87,554.17a1.51,1.51,0,0,1,0-.3,1.81,1.81,0,0,1,2.07-1.24,1.6,1.6,0,0,1,1.46,1.32,2.49,2.49,0,0,1,1.57,2.7,3.2,3.2,0,0,1-3.68,2.2,2.73,2.73,0,0,1-2.62-3A3.88,3.88,0,0,1,996.87,554.17Z"/><ellipse class="cls-15" cx="907.49" cy="487.41" rx="1.27" ry="1.51" transform="translate(396.54 1381.86) rotate(-88.5)"/><ellipse class="cls-15" cx="917.08" cy="555.54" rx="0.77" ry="0.92" transform="matrix(0.08, -1, 1, 0.08, 290.79, 1425.85)"/><ellipse class="cls-15" cx="955.6" cy="558.99" rx="1.27" ry="1.51" transform="translate(325.66 1469.38) rotate(-85.64)"/><ellipse class="cls-15" cx="952.15" cy="562.96" rx="2.03" ry="1.72" transform="translate(-45.68 85.62) rotate(-5.03)"/><ellipse class="cls-15" cx="961.97" cy="562.6" rx="1.68" ry="3.65" transform="translate(348.07 1492.67) rotate(-86.89)"/></g><path class="cls-16" d="M0,377c10.57-1.62,21.2-2.76,31.86-3.63s21.34-1.49,32.05-1.61,21.44.13,32.16,1.06l4,.37c1.34.12,2.68.24,4,.44l8,1.1,7.88,1.2c2.63.36,5.26.76,7.89,1.08q15.8,2,31.69,2.68c10.59.43,21.19.32,31.79-.2s21.13-1.54,31.81-2.49,21.45-1.24,32.17-1.34c21.44.05,42.83,1.22,64.12,3.25s42.5,4.81,63.56,8.55c2.64.43,5.26.95,7.88,1.46s5.26,1,7.87,1.59L414.36,394q15.6,3.49,31.39,6c5.27.69,10.54,1.45,15.84,1.87,1.32.12,2.64.26,4,.34l4,.21,4,.2,4,.08c10.62.2,21.26-.27,31.93-.64,21.36-.78,42.78-1,64.15-.25,10.68.26,21.4,1,32,1.22l15.92.47,2,.07,2,0,4-.07,8-.12,8-.13c2.65-.09,5.3-.3,8-.45l7.95-.48,4-.24c1.33-.07,2.65-.15,4-.3l15.85-1.6c2.65-.23,5.28-.59,7.92-.94l7.9-1,7.91-1,7.9-1.19c5.27-.8,10.53-1.54,15.8-2.39l31.64-4.94c5.28-.82,10.58-1.55,15.88-2.27s10.59-1.51,15.9-2.15c10.64-1.2,21.24-2.65,31.92-3.42l16-1.38,16-.91,8-.45c2.67-.14,5.34-.33,8-.36l16-.39c42.78-.79,85.53,1.33,128.06,5.13l0,.56c-42.65-1.95-85.32-3-127.89-1.3l-16,.65c-2.66.07-5.32.3-8,.49l-8,.57-15.92,1.16-15.88,1.62-7.94.81c-2.65.25-5.28.66-7.92,1l-15.85,2c-5.28.68-10.54,1.51-15.81,2.26s-10.54,1.52-15.8,2.38c-21.07,3.2-42.14,6.81-63.4,9.45l-8,1c-2.65.33-5.31.67-8,.88l-16,1.46c-1.34.15-2.68.21-4,.27l-4,.21-8,.42c-2.68.12-5.36.31-8,.38l-8.05.06-8,.05-4,0h-2l-2-.08-16.08-.67c-10.72-.4-21.29-1.29-32-1.72s-21.29-.85-31.93-1.07-21.31-.18-32-.05-21.37.4-32.08,0a280.3,280.3,0,0,1-32-3.23C434.91,400,424.4,398,414,395.62q-7.82-1.77-15.63-3.42c-2.6-.59-5.23-1-7.84-1.54s-5.23-1-7.86-1.42L374.77,388l-7.91-1.12c-2.64-.4-5.28-.72-7.93-1s-5.28-.68-7.93-1c-5.31-.53-10.6-1.14-15.91-1.56l-8-.69-8-.57q-31.89-2.25-63.82-1.69c-10.62.22-21.24.65-31.77,1.65-5.26.41-10.64,1-16,1.46s-10.7.76-16.06,1c-10.73.46-21.49.51-32.23,0s-21.43-1.64-32.06-3.13q-8-1.12-15.88-2.55l-7.83-1.24c-1.3-.23-2.62-.37-3.93-.51l-4-.46c-10.53-1.1-21.15-1.64-31.79-1.82A582,582,0,0,0,0,377.55Z"/></g><g id="Skelett"><g class="cls-17"><polygon class="cls-18" points="392.19 472.54 318.73 467.46 313.89 471.17 245.75 487.08 241.65 500.26 276.53 493.72 309.22 488.04 392.17 499.21 392.19 472.54"/><polygon class="cls-18" points="252.93 487.7 244.8 471.69 241.47 458.04 237.71 458.96 236.2 504.71 251.8 499.56 252.93 487.7"/><polygon class="cls-18" points="392.61 478.04 315.4 476.9 310.27 480.83 238.23 492.11 233.87 506.1 293.87 501.94 305.31 498.74 391.87 510.54 392.61 478.04"/><polygon class="cls-18" points="244.87 490.64 232.09 476.51 224.88 463.45 221.29 465.44 232.45 512.73 247 503.11 244.87 490.64"/><path class="cls-18" d="M392.19,472.54l-2.08,35.52s90.26,32.16,89.62-1.36C479.48,494.07,472,477.87,445,475,422.26,472.59,415.58,475.32,392.19,472.54Z"/><polygon class="cls-18" points="474.06 495.97 462.32 519.65 516.73 519.61 516.97 496.4 474.06 495.97"/><path class="cls-18" d="M514.4,475.42l-9.09-5s-4.67-3.49-6.65,4Z"/><path class="cls-18" d="M513.62,476.3c-9.53,2.55-14.47,15-11,27.86s13.76,19.61,23.29,17.07S540.5,507.8,537.07,495,523.14,473.76,513.62,476.3Z"/><path class="cls-18" d="M482.48,489.34c1.6,9.91,5.7,17.26,19.38,19.33s26-4.1,27.43-13.77-8.45-19.19-22.13-21.26a52.33,52.33,0,0,0-14.41-.22C488.92,473.79,481.73,484.67,482.48,489.34Z"/><path class="cls-18" d="M513.4,476.26c-1,2.52.51,5.56,3.33,6.78s7.26.38,8.5-2c.94-1.81-.86-4.74-5-7.13a4.83,4.83,0,0,0-6.87,2.38"/><path class="cls-18" d="M542.65,493.46c0,.52,0,1-.08,1.54a13.68,13.68,0,0,0-7.07-10.54,38.79,38.79,0,0,1,4.89,8.18c3.8,8.45,4.31,16.47,1.13,17.9A3.87,3.87,0,0,1,538,510c.07,6-1.78,10.63-5,11.39a4.4,4.4,0,0,1-2.16-.07c-1.25,3.56-31.38-1.12-31.53-1.38-1.18-1.93-.86-4.22,1.5-7.86a10.89,10.89,0,0,1,9.44-7.22c1.22-5.44,4.41-9.43,8.59-10a7.68,7.68,0,0,1,1.66,0c.69-3.65,2.3-6.24,4.65-6.79a3.66,3.66,0,0,1,.74-.1c-.58-4.11,0-7.2,1.87-8a2.73,2.73,0,0,1,1.51-.17A13.66,13.66,0,0,1,542.65,493.46Z"/><path class="cls-18" d="M499.36,505.08c-.8,3.08,1.79,6.43,5.8,7.48s7.91-.59,8.72-3.67-1.79-6.43-5.79-7.48-7.92.59-8.73,3.67"/><path class="cls-18" d="M471.39,497c5.14.36,9,5.35,8.57,11.17s-4.89,10.23-10,9.87l-53.66-3.71c-5.14-.35-9-5.35-8.58-11.16s4.9-10.23,10-9.88Z"/><path class="cls-18" d="M330,516.08l6,5.4,12.86-4.29s12.87.42,15.57-4.87l52.95,1.34c5.16.1,9.43-4.37,9.54-10s-4.08-11.37-9.16-10.34c-3,.6-53.45,8.17-53.45,8.17l-12.38-1.79Z"/></g><path class="cls-4" d="M514.17,476.81l-5.76-3.19a29.42,29.42,0,0,1-9.18,2.19Z"/><path class="cls-4" d="M535.71,495.36c-2-7.38-6.41-13.18-11.61-16.09a12,12,0,0,0-4.35-3.93,4.6,4.6,0,0,0-6.07,1.4,32.93,32.93,0,0,0-6.38-1.62,49.85,49.85,0,0,0-13.69-.21c-3.63.35-10.46,10.69-9.75,15.12,1.51,9.41,5.42,16.39,18.41,18.36.78.11,1.55.2,2.32.27,4.22,9.19,12.63,13.75,20.47,11.65C534.11,517.9,539,507.56,535.71,495.36Z"/><polygon class="cls-4" points="224.53 465.23 226.98 469.91 224.23 470.98 223.25 466.56 224.53 465.23"/><polygon class="cls-4" points="233.01 508.25 236.44 508.52 239.32 501.32 231.87 499.64 233.01 508.25"/><polygon class="cls-4" points="227.46 471.43 231.62 479.26 239.9 488.06 229.91 492.65 224.92 472.13 227.46 471.43"/><ellipse class="cls-4" cx="311.7" cy="483" rx="4.5" ry="2.6" transform="translate(-138.86 126.01) rotate(-18.77)"/><polygon class="cls-4" points="312.1 485.13 242.93 494.23 242.72 498.31 311.82 490.63 312.1 485.13"/><polygon class="cls-4" points="311.74 492.18 288.34 500.83 242.63 500.16 242.8 496.92 285.03 496.39 311.97 487.79 311.74 492.18"/><polygon class="cls-4" points="230.42 493.52 240.37 489.82 240.58 499.52 231.47 498.31 230.42 493.52"/><ellipse class="cls-19" cx="512.93" cy="480.95" rx="2.6" ry="4.5" transform="translate(-19.42 940.32) rotate(-83.95)"/><rect class="cls-4" x="504.58" y="510.31" width="7.55" height="5.94" transform="translate(-30.29 994.68) rotate(-87.06)"/><rect class="cls-4" x="490.05" y="511.81" width="7.55" height="5.94" transform="translate(-45.57 981.6) rotate(-87.06)"/><rect class="cls-4" x="497.2" y="511.05" width="7.55" height="5.94" transform="translate(-38.03 988.02) rotate(-87.06)"/><rect class="cls-4" x="483" y="511.45" width="7.55" height="5.94" transform="translate(-51.91 974.21) rotate(-87.06)"/><rect class="cls-4" x="448.46" y="493.95" width="18.86" height="2.16" transform="translate(-59.94 926.97) rotate(-87.06)"/><rect class="cls-4" x="455.14" y="495.36" width="16.61" height="2.16" transform="translate(-56.08 933.85) rotate(-87.06)"/><rect class="cls-4" x="435.1" y="491.13" width="23.36" height="2.16" transform="translate(-67.67 913.19) rotate(-87.06)"/><rect class="cls-4" x="422.8" y="489.43" width="25.61" height="2.16" transform="translate(-76.57 900.42) rotate(-87.06)"/><rect class="cls-4" x="411.57" y="488.85" width="25.61" height="2.16" transform="translate(-86.65 888.66) rotate(-87.06)"/><polygon class="cls-4" points="412.55 481.07 411.41 502.09 413.57 502.2 414.71 481.18 412.55 481.07"/><rect class="cls-4" x="407.02" y="489.69" width="23.36" height="2.16" transform="translate(-92.87 883.78) rotate(-87.06)"/><rect class="cls-4" x="417.18" y="489.14" width="25.61" height="2.16" transform="translate(-81.61 894.54) rotate(-87.06)"/><rect class="cls-4" x="428.41" y="489.72" width="25.61" height="2.16" transform="translate(-71.53 906.3) rotate(-87.06)"/><rect class="cls-4" x="441.78" y="492.54" width="21.11" height="2.16" transform="translate(-63.8 920.08) rotate(-87.06)"/><rect class="cls-4" x="475.74" y="509.95" width="7.55" height="5.94" transform="translate(-57.3 965.54) rotate(-87.06)"/><rect class="cls-4" x="403.48" y="496.65" width="7.55" height="5.94" transform="translate(-112.57 880.75) rotate(-87.06)"/><rect class="cls-4" x="389.07" y="495.91" width="7.55" height="5.94" transform="translate(-125.51 865.66) rotate(-87.06)"/><rect class="cls-4" x="396.22" y="495.15" width="7.55" height="5.94" transform="translate(-117.97 872.08) rotate(-87.06)"/><rect class="cls-4" x="381.95" y="496.68" width="7.55" height="5.94" transform="translate(-133.02 859.28) rotate(-87.06)"/><polygon class="cls-4" points="363.8 503.21 351.61 501.78 356.53 512.54 363.41 510.75 363.8 503.21"/><polygon class="cls-4" points="343.78 507.33 347.51 513.48 334.7 518.33 332.27 516.13 343.78 507.33"/><polygon class="cls-4" points="346.99 512.61 348.55 515.19 337.28 519.74 336.41 518.7 346.99 512.61"/><polygon class="cls-4" points="468.31 499.3 476.22 502.78 474.69 512.68 466.39 514.89 464.71 511.55 416.89 508.57 414.05 509.57 411.94 503.47 417.38 498.9 418.56 501.22 464.06 502.34 468.31 499.3"/><polygon class="cls-4" points="417.38 498.9 365.65 503.31 365.46 507.07 414.54 503.6 417.38 498.9"/><polygon class="cls-4" points="414.05 509.57 365.38 508.51 365.52 505.93 413.18 507.05 414.05 509.57"/><path class="cls-4" d="M350.81,502.57l4.3,10.45s-5.51,2.32-5.48,1.77-4.88-8.11-4.88-8.11Z"/><path class="cls-19" d="M497.33,475.5a14.81,14.81,0,0,0-.71,6.91,10.19,10.19,0,0,0,3.16,5.75,13.38,13.38,0,0,0,1.28,1.09c.46.37.89.63,1.47,1.12a6.84,6.84,0,0,1,1.92,3.67,25.93,25.93,0,0,1,.22,7.44,13.69,13.69,0,0,0,.91,6.52,21,21,0,0,0,3.34,5.9,20.13,20.13,0,0,0,5.15,4.53,20.69,20.69,0,0,0,6.56,2.52,17.3,17.3,0,0,1-7.07-1.55,19,19,0,0,1-6-4.35,20.6,20.6,0,0,1-4-6.29,16.69,16.69,0,0,1-1-3.64,15.39,15.39,0,0,1-.21-1.93c0-.32,0-.65,0-1l.07-.93a25.39,25.39,0,0,0-.06-6.81,4.89,4.89,0,0,0-1.18-2.65c-.3-.31-.88-.71-1.32-1.12a15.28,15.28,0,0,1-1.35-1.32,11,11,0,0,1-3-6.86A13.16,13.16,0,0,1,497.33,475.5Z"/><polygon class="cls-19" points="496.11 486.4 496.44 492.47 496.16 491.91 504.57 497.08 503.3 498.94 495.44 492.97 495.11 492.72 495.16 492.41 496.11 486.4"/><polygon class="cls-4" points="370.91 495.02 362.14 483.8 367.18 473.48 386.05 474.44 390.46 488.06 383.8 507.4 369.55 506.14 370.91 495.02"/><path class="cls-4" d="M312.24,482.56l-.5,9.62,6.25,2.11,1.19-2.26,52.61,7.16,4.28,1.8s2.85-.6,3.25-.77,4.29-13.44,4.29-13.44l-10.2-4-3.7,3.8,2.46,3.2-1,.88L321,485.15l-2.67-3Z"/><polygon class="cls-4" points="240.46 459.02 241.57 464.02 238.73 464.32 238.93 459.94 240.46 459.02"/><polygon class="cls-4" points="237.53 501.38 240.66 502.5 245.17 496.5 238.64 493.04 237.53 501.38"/><polygon class="cls-4" points="241.64 465.56 243.54 473.93 249.07 484.25 238.56 486.02 239.08 465.57 241.64 465.56"/><ellipse class="cls-4" cx="318.76" cy="472.48" rx="4.36" ry="2.52" transform="translate(-135.1 127.72) rotate(-18.77)"/><polygon class="cls-4" points="319 474.54 252.63 487.16 252.66 491.12 319.04 479.87 319 474.54"/><polygon class="cls-4" points="319.05 481.38 296.89 491.04 252.67 492.92 252.65 489.77 293.45 486.92 319.02 477.12 319.05 481.38"/><polygon class="cls-4" points="238.82 486.96 249.06 486.01 246.8 495.14 238.6 491.71 238.82 486.96"/><polygon class="cls-4" points="319.28 472.06 318.8 481.37 324.85 483.42 326 481.23 376.95 488.16 376.34 479.94 327.75 474.56 325.17 471.64 319.28 472.06"/><path class="cls-19" d="M319.19,491.92c4.42.32,8.83.74,13.24,1.19s8.8.92,13.2,1.44,8.78,1.06,13.17,1.66,8.76,1.25,13.14,1.9l.25,0,.19.13,3.68,2.45-.68-.16,3.85-.38-.82.69c1.49-4.77,3.1-9.51,4.65-14.26l.34.68c-3.36-1.42-6.72-2.84-10.12-4.16l.38-.08c-1.25,1.25-2.47,2.54-3.69,3.82l0-.48c.82,1.07,1.68,2.1,2.52,3.15l.25.31-.31.29-1,.9-.15.13h-.22l-12.59-.95c-4.19-.35-8.37-.82-12.54-1.33-8.36-1-16.69-2.15-25-3.63l0-.22c8.42.37,16.81,1.08,25.18,1.91,4.19.42,8.37.88,12.53,1.45l12.5,1.82-.36.12,1-.85-.06.59c-.8-1.08-1.59-2.17-2.4-3.24l-.2-.25.22-.22c1.24-1.26,2.49-2.51,3.71-3.8l.16-.16.21.08c3.4,1.32,6.84,2.54,10.28,3.76l.48.17-.14.52c-1.3,4.83-2.54,9.68-3.89,14.49l-.16.6-.65.09-3.83.5-.36.05-.32-.21-3.74-2.36.44.16c-4.39-.54-8.78-1.06-13.17-1.67s-8.76-1.24-13.13-1.92-8.75-1.38-13.11-2.14-8.72-1.53-13.07-2.39Z"/><path class="cls-19" d="M468.37,499.39l-4.19,3.11-.05,0h-.07l-22.76-.18-22.76-.27H418l-.24-.47-1.22-2.31.89.5-12.92,1.3c-4.3.44-8.61.79-12.93,1.1s-8.63.58-13,.77l-6.49.28c-2.17.05-4.33.14-6.5.16l0-.23c2.14-.35,4.29-.63,6.44-.94l6.44-.82c4.29-.55,8.6-1,12.9-1.44s8.62-.8,12.94-1.1l12.95-.9.62,0,.26.53,1.16,2.34-.76-.48,22.74.86,22.74.94-.12,0,4.29-3Z"/></g></g></svg>