<svg xmlns="http://www.w3.org/2000/svg" xmlns:xlink="http://www.w3.org/1999/xlink" viewBox="0 0 1020 574"><defs><style>.cls-1{fill:none;}.cls-2{isolation:isolate;}.cls-3{fill:url(#Unbenannter_Verlauf_18);}.cls-4{fill:#fff;}.cls-5{fill:#e9f2fb;}.cls-6{fill:#f4f9fd;}.cls-7{clip-path:url(#clip-path);}.cls-8{clip-path:url(#clip-path-2);}.cls-9{fill:url(#Unbenannter_Verlauf_45);}.cls-10{fill:#626061;}.cls-11{fill:#908d8d;}.cls-12{fill:#3c3c3d;}.cls-13{fill:#c4c1c2;}.cls-14{fill:#a4a1a1;}.cls-15,.cls-20{mix-blend-mode:multiply;}.cls-16{fill:url(#Unbenannter_Verlauf_63);}.cls-17{fill:#94c7ed;}.cls-18{fill:#9dbeb7;}.cls-19{fill:#e1d3bb;}.cls-20{fill:url(#Unbenannter_Verlauf_35);}.cls-21{fill:#ece8e5;}.cls-22{fill:#f3ede3;}</style><linearGradient id="Unbenannter_Verlauf_18" x1="510" y1="385" x2="510" gradientUnits="userSpaceOnUse"><stop offset="0" stop-color="#e9f2fb"/><stop offset="1" stop-color="#d3e5f7"/></linearGradient><clipPath id="clip-path"><rect class="cls-1" x="695" y="124.86" width="325" height="150"/></clipPath><clipPath id="clip-path-2"><rect class="cls-1" x="735" width="285" height="285"/></clipPath><radialGradient id="Unbenannter_Verlauf_45" cx="1008.06" cy="11.26" r="100.41" gradientUnits="userSpaceOnUse"><stop offset="0" stop-color="#fff9ef"/><stop offset="0.23" stop-color="#fff8ec"/><stop offset="0.41" stop-color="#fff5e2"/><stop offset="0.57" stop-color="#ffefd1"/><stop offset="0.73" stop-color="#ffe7b9"/><stop offset="0.88" stop-color="#fedd9b"/><stop offset="1" stop-color="#fed37c"/></radialGradient><linearGradient id="Unbenannter_Verlauf_63" x1="510" y1="573.21" x2="510" y2="370.03" gradientUnits="userSpaceOnUse"><stop offset="0" stop-color="#b3d5f2"/><stop offset="1" stop-color="#cee3f7"/></linearGradient><linearGradient id="Unbenannter_Verlauf_35" x1="510" y1="574" x2="510" y2="331.32" gradientUnits="userSpaceOnUse"><stop offset="0" stop-color="#f0e9dc"/><stop offset="0.1" stop-color="#f6f2eb"/><stop offset="0.24" stop-color="#fbfaf6"/><stop offset="0.44" stop-color="#fefefd"/><stop offset="1" stop-color="#fff"/></linearGradient></defs><title>Frame 3</title><g class="cls-2"><g id="Himmel"><rect class="cls-3" width="1020" height="385"/><path class="cls-4" d="M1020,574V374a27.84,27.84,0,0,1-9.84-1.56,32.76,32.76,0,0,0-20.35,0,31.78,31.78,0,0,1-19.67,0,32.73,32.73,0,0,0-20.34,0,31.78,31.78,0,0,1-19.67,0,32.73,32.73,0,0,0-20.34,0,31.75,31.75,0,0,1-19.66,0,32.76,32.76,0,0,0-20.35,0,31.75,31.75,0,0,1-19.66,0,32.73,32.73,0,0,0-20.34,0,31.75,31.75,0,0,1-19.66,0,32.73,32.73,0,0,0-20.34,0,31.75,31.75,0,0,1-19.66,0,32.73,32.73,0,0,0-20.34,0,31.75,31.75,0,0,1-19.66,0,32.76,32.76,0,0,0-20.35,0,31.75,31.75,0,0,1-19.66,0,32.73,32.73,0,0,0-20.34,0,31.75,31.75,0,0,1-19.66,0,32.73,32.73,0,0,0-20.34,0,31.75,31.75,0,0,1-19.66,0,32.73,32.73,0,0,0-20.34,0,31.75,31.75,0,0,1-19.66,0,32.76,32.76,0,0,0-20.35,0,31.72,31.72,0,0,1-19.65,0,32.73,32.73,0,0,0-20.34,0,31.75,31.75,0,0,1-19.66,0,32.73,32.73,0,0,0-20.34,0,31.75,31.75,0,0,1-19.66,0,32.73,32.73,0,0,0-20.34,0,31.75,31.75,0,0,1-19.66,0,32.73,32.73,0,0,0-20.34,0,31.72,31.72,0,0,1-19.65,0,32.73,32.73,0,0,0-20.34,0,31.75,31.75,0,0,1-19.66,0,32.73,32.73,0,0,0-20.34,0,31.72,31.72,0,0,1-19.65,0,32.73,32.73,0,0,0-20.34,0,31.72,31.72,0,0,1-19.65,0,32.73,32.73,0,0,0-20.34,0,31.72,31.72,0,0,1-19.65,0,32.73,32.73,0,0,0-20.34,0,31.72,31.72,0,0,1-19.65,0,32.73,32.73,0,0,0-20.34,0,31.75,31.75,0,0,1-19.66,0A28.83,28.83,0,0,0,120,370.82a28.83,28.83,0,0,0-10.17,1.62A27.82,27.82,0,0,1,100,374a27.82,27.82,0,0,1-9.83-1.56A28.79,28.79,0,0,0,80,370.82a28.88,28.88,0,0,0-10.17,1.62A27.73,27.73,0,0,1,60,374a27.71,27.71,0,0,1-9.82-1.56A28.88,28.88,0,0,0,40,370.82a28.83,28.83,0,0,0-10.17,1.62A27.82,27.82,0,0,1,20,374a27.82,27.82,0,0,1-9.83-1.56A28.83,28.83,0,0,0,0,370.82V574Z"/></g><g id="Wolken"><path class="cls-5" d="M529.47,167.73c0-17.56-49.73-32.39-118-37.24a78.52,78.52,0,0,0-69.16-41.3c-1.07,0-2.12,0-3.18.08-19.22-24.59-47.31-40.11-78.62-40.11-40.07,0-74.88,25.4-92.55,62.73a55.93,55.93,0,0,0-52.62,55.84Z"/><path class="cls-6" d="M363.66,167.73c0-9.4-36.51-17.34-86.68-19.94-9.74-13.16-28.82-22.1-50.77-22.1-.79,0-1.56,0-2.34,0-14.11-13.16-34.73-21.47-57.72-21.47-29.42,0-55,13.6-67.95,33.58-21.55.92-38.64,13.94-38.64,29.89Z"/><g class="cls-7"><path class="cls-5" d="M1135.79,247.51c0-15.16-43.29-32.15-83.58-32.15-15.71-21.23-46.49-35.66-81.9-35.66-1.26,0-2.51,0-3.76.07-22.76-21.22-56-34.63-93.1-34.63-47.45,0-88.68,21.94-109.6,54.17-34.75,1.48-62.32,22.49-62.32,48.2Z"/></g></g><g id="Sonne"><g class="cls-8"><circle class="cls-4" cx="1008.06" cy="11.26" r="107.58"/><circle class="cls-9" cx="1008.06" cy="11.26" r="100.41"/><polygon class="cls-4" points="1012.28 118.83 1008.06 262.27 1003.84 118.83 1012.28 118.83"/><polygon class="cls-4" points="900.58 15.57 757.14 11.35 900.58 7.13 900.58 15.57"/><polygon class="cls-4" points="935.04 90.33 830.63 188.78 929.08 84.37 935.04 90.33"/><polygon class="cls-4" points="910.37 56.38 776.24 107.38 907.15 48.59 910.37 56.38"/><polygon class="cls-4" points="970.82 112.27 912.04 243.17 963.03 109.04 970.82 112.27"/><polygon class="cls-4" points="903.19 35.08 832.3 46.31 902.1 29.56 903.19 35.08"/><polygon class="cls-4" points="950.68 102.28 908.5 160.35 946.01 99.16 950.68 102.28"/><polygon class="cls-4" points="920.25 73.4 859.06 110.91 917.13 68.73 920.25 73.4"/><polygon class="cls-4" points="989.85 117.32 973.1 187.11 984.33 116.22 989.85 117.32"/></g></g><g id="Figur"><polygon class="cls-10" points="165.51 327.41 145.78 327.41 188.58 277.87 199.66 275.04 271.71 313.45 229 328.86 196.26 301.91 191.32 310.95 165.51 327.41"/><polygon class="cls-11" points="272.79 313.65 199.32 323.04 193.18 326.07 111.36 319.29 110.65 330.86 153.63 343.04 190.01 345.47 272.72 346.3 272.79 313.65"/><polygon class="cls-11" points="118.44 321.66 112.11 303.68 110.5 288.85 106.42 289.31 98.47 337.24 115.6 333.98 118.44 321.66"/><path class="cls-11" d="M277.78,311.84l-3.93,35.36s88.46,36.82,89.56,3.31c.42-12.63-6.25-29.2-33.08-33.47C307.8,313.45,301,315.83,277.78,311.84Z"/><polygon class="cls-11" points="358.83 348.51 337.31 363.85 385.3 389.5 396.46 369.14 358.83 348.51"/><path class="cls-10" d="M386.44,382.21c-2,2.18-5.89,2.22-9.08,0-2.83-2-6.45-6.23-5.74-8.74-7-6.79-9.87-15.53-8.54-22.6l33.38,18.3-7.52,13.72C388.11,382.69,387.28,382.47,386.44,382.21Z"/><path class="cls-11" d="M404.09,349.43l-5.63-8.72s-2.48-5.28-7.74.37Z"/><path class="cls-11" d="M403,349.84c-9.6-2.25-19.84,6.41-22.88,19.36s2.88,23.78,12.48,26,19.24-4.93,22.28-17.88S412.59,352.09,403,349.84Z"/><path class="cls-11" d="M369.38,346.64c-3.27,9.49-3.11,17.91,8,26.19s24.82,8.64,30.68.8,1.61-20.9-9.48-29.18a52.44,52.44,0,0,0-12.6-7C382.4,336,370.92,342.17,369.38,346.64Z"/><path class="cls-11" d="M402.82,349.7c-2.06,1.76-2.18,5.14-.27,7.54s6.22,3.77,8.46,2.23c1.68-1.15,1.47-4.59-1-8.63a4.83,4.83,0,0,0-7.18-1.14"/><path class="cls-12" d="M420.49,378.66a14.39,14.39,0,0,1-.79,1.32,13.68,13.68,0,0,0-1.27-12.62,38.51,38.51,0,0,1,.45,9.51c-.63,9.25-4,16.56-7.45,16.32A3.86,3.86,0,0,1,408.6,391c-2.77,5.33-6.58,8.53-9.8,7.67a4.39,4.39,0,0,1-1.88-1.09c-2.77,2.55-27.13-15.79-27.15-16.09-.13-2.25,1.24-4.12,5-6.22a10.88,10.88,0,0,1,11.73-1.91c3.64-4.22,8.33-6.23,12.27-4.73a7.31,7.31,0,0,1,1.46.78c2.34-2.9,5-4.42,7.31-3.8a3.58,3.58,0,0,1,.71.27c1.42-3.9,3.4-6.35,5.44-6.21a2.72,2.72,0,0,1,1.41.56A13.66,13.66,0,0,1,420.49,378.66Z"/><path class="cls-11" d="M376.84,368.49c-2.16,2.33-1.46,6.51,1.58,9.33s7.25,3.21,9.42.88,1.46-6.52-1.57-9.33-7.26-3.22-9.43-.88"/><path class="cls-12" d="M395.22,354.7c.14-.28.28-.52.41-.74l.38-.65c.24-.42.43-.81.61-1.17a11,11,0,0,0,.44-1.1c.12-.34.21-.79.29-1l.34-1.19.62.09a13.25,13.25,0,0,1,3.74,1,13.33,13.33,0,0,1-3.74,1l1-1.1a3.81,3.81,0,0,1-.07,1.94,4.48,4.48,0,0,1-.86,1.63A3.9,3.9,0,0,1,395.22,354.7Z"/><path class="cls-10" d="M381.25,346.22a13,13,0,0,0,1.24-2.15,14.52,14.52,0,0,0,.81-2.26,14.22,14.22,0,0,1,.49-2.3,8.53,8.53,0,0,1,1.32-2.26h.23A4.38,4.38,0,0,1,386,340a5.78,5.78,0,0,1-1,2.49,10.23,10.23,0,0,1-1.54,2.2,9.75,9.75,0,0,1-2,1.69Z"/><path class="cls-10" d="M406,350.06a4,4,0,0,1,1.46,3.43,4.15,4.15,0,0,1-.55,1.86,11.77,11.77,0,0,1-2.41,2.74c-.47.36-1,.67-1.44,1s-1,.53-1.53.76-1.05.41-1.57.6l-.1-.2c.44-.34.87-.67,1.31-1s.82-.72,1.22-1.07a11.92,11.92,0,0,0,1.94-2.38,13.28,13.28,0,0,0,.91-2.63,14.62,14.62,0,0,0,.56-3Z"/><polygon class="cls-13" points="274.54 351.51 278.84 310.59 274.22 309.55 263.91 312.84 244.9 315.18 244.56 318.44 250.84 324.4 256.9 327.49 258.6 333.16 266.87 339.46 269.98 350.71 274.54 351.51"/><path class="cls-14" d="M350.34,338.9c5.05,1,8.19,6.49,7,12.2s-6.19,9.5-11.24,8.47l-52.71-10.74c-5-1-8.19-6.48-7-12.19s6.19-9.5,11.24-8.47Z"/><polygon class="cls-10" points="244.56 318.44 247.98 325.12 252.99 327.25 256.54 335.14 259.12 333.47 256.9 327.49 250.84 324.4 244.56 318.44"/><path class="cls-14" d="M207.64,339.18l5.2,6.14,13.32-2.56s12.7,2.1,16.07-2.79l52.31,8.3c5.11.78,9.93-3.09,10.77-8.64s-2.54-11.81-7.71-11.46c-3,.2-54.07,1.07-54.07,1.07l-12-3.41Z"/><path class="cls-13" d="M357.26,351.08a11.07,11.07,0,0,0-1.56-7.76,9.13,9.13,0,0,0-2.77-2.73,8.06,8.06,0,0,0-1.74-.8c-.31-.1-.62-.15-.93-.23l-1-.18c-5.45-.94-10.89-2-16.33-3l-8.15-1.54-8.14-1.62c-5.42-1.1-10.83-2.25-16.24-3.41l-.2-.05-.06,0a4.26,4.26,0,0,0-.55-.15l-.79-.13c-.54-.08-1.09-.14-1.64-.18s-1.1-.08-1.64-.09a8.75,8.75,0,0,0-1.45.07l-.16,0h-.07l-50.28.51h-.08l-.08,0-12-3.54.31,0-24,13.09-.11-.2,23.72-13.61.14-.08.17,0,12.07,3.28-.16,0,50.26-1.38-.23,0a8.9,8.9,0,0,1,2-.17c.6,0,1.19,0,1.78,0s1.17.09,1.77.16c.29,0,.6.08.9.14a4.55,4.55,0,0,1,1.09.3l-.25-.08c5.43,1,10.86,2.1,16.28,3.21l8.13,1.69,8.11,1.78c5.4,1.18,10.81,2.36,16.2,3.63l1,.24c.36.1.72.19,1.07.32a8.94,8.94,0,0,1,2,1,9.53,9.53,0,0,1,2.9,3.23,11.31,11.31,0,0,1,1,8.26Z"/></g><g id="Wasser"><g class="cls-15"><path class="cls-16" d="M1020,573.21v-200a27.57,27.57,0,0,1-9.84-1.57,32.76,32.76,0,0,0-20.35,0,31.59,31.59,0,0,1-19.67,0,32.73,32.73,0,0,0-20.34,0,31.59,31.59,0,0,1-19.67,0,32.73,32.73,0,0,0-20.34,0,31.56,31.56,0,0,1-19.66,0,32.76,32.76,0,0,0-20.35,0,31.56,31.56,0,0,1-19.66,0,32.73,32.73,0,0,0-20.34,0,31.56,31.56,0,0,1-19.66,0,32.73,32.73,0,0,0-20.34,0,31.56,31.56,0,0,1-19.66,0,32.73,32.73,0,0,0-20.34,0,31.56,31.56,0,0,1-19.66,0,32.76,32.76,0,0,0-20.35,0,31.56,31.56,0,0,1-19.66,0,32.73,32.73,0,0,0-20.34,0,31.56,31.56,0,0,1-19.66,0,32.73,32.73,0,0,0-20.34,0,31.56,31.56,0,0,1-19.66,0,32.73,32.73,0,0,0-20.34,0,31.56,31.56,0,0,1-19.66,0,32.76,32.76,0,0,0-20.35,0,31.53,31.53,0,0,1-19.65,0,32.73,32.73,0,0,0-20.34,0,31.56,31.56,0,0,1-19.66,0,32.73,32.73,0,0,0-20.34,0,31.56,31.56,0,0,1-19.66,0,32.73,32.73,0,0,0-20.34,0,31.56,31.56,0,0,1-19.66,0,32.73,32.73,0,0,0-20.34,0,31.53,31.53,0,0,1-19.65,0,32.73,32.73,0,0,0-20.34,0,31.56,31.56,0,0,1-19.66,0,32.73,32.73,0,0,0-20.34,0,31.53,31.53,0,0,1-19.65,0,32.73,32.73,0,0,0-20.34,0,31.53,31.53,0,0,1-19.65,0,32.73,32.73,0,0,0-20.34,0,31.53,31.53,0,0,1-19.65,0,32.73,32.73,0,0,0-20.34,0,31.53,31.53,0,0,1-19.65,0,32.73,32.73,0,0,0-20.34,0,31.56,31.56,0,0,1-19.66,0A28.83,28.83,0,0,0,120,370a28.83,28.83,0,0,0-10.17,1.62,27.55,27.55,0,0,1-9.83,1.57,27.55,27.55,0,0,1-9.83-1.57A28.79,28.79,0,0,0,80,370a28.88,28.88,0,0,0-10.17,1.62A27.46,27.46,0,0,1,60,373.22a27.44,27.44,0,0,1-9.82-1.57A28.88,28.88,0,0,0,40,370a28.83,28.83,0,0,0-10.17,1.62A27.55,27.55,0,0,1,20,373.22a27.55,27.55,0,0,1-9.83-1.57A28.83,28.83,0,0,0,0,370V573.21Z"/></g><path class="cls-17" d="M0,370.31a30,30,0,0,1,8.15.83c1.33.34,2.61.77,3.9,1.1a23.43,23.43,0,0,0,3.9.69,36.24,36.24,0,0,0,7.93-.12,22.8,22.8,0,0,0,3.84-.81c1.26-.37,2.52-.84,3.86-1.25a29.74,29.74,0,0,1,8.26-1.2,30.28,30.28,0,0,1,8.34.84c1.37.35,2.66.79,3.92,1.12a24.46,24.46,0,0,0,3.78.72,36.14,36.14,0,0,0,7.78-.06,22.85,22.85,0,0,0,3.75-.75c1.23-.34,2.48-.81,3.84-1.22A30.31,30.31,0,0,1,79.67,369a30.72,30.72,0,0,1,8.49.86c1.4.35,2.7.79,3.93,1.13a22.84,22.84,0,0,0,3.7.73,36.42,36.42,0,0,0,7.67,0,22.87,22.87,0,0,0,3.67-.71c1.21-.33,2.45-.79,3.81-1.21a28.92,28.92,0,0,1,4.26-1,35,35,0,0,1,4.3-.31,31.67,31.67,0,0,1,8.61.87c1.42.36,2.74.81,4,1.16a25,25,0,0,0,3.63.76,36.82,36.82,0,0,0,7.57.05,23.44,23.44,0,0,0,3.63-.67c1.19-.31,2.41-.75,3.79-1.17a30.21,30.21,0,0,1,4.3-1,37.79,37.79,0,0,1,4.34-.33,41.51,41.51,0,0,1,4.31.12A27.52,27.52,0,0,1,168,369c1.44.35,2.78.81,4,1.16a24.65,24.65,0,0,0,3.58.77,36.82,36.82,0,0,0,7.5.09,25.31,25.31,0,0,0,3.58-.64c1.17-.3,2.38-.73,3.75-1.16a28.9,28.9,0,0,1,4.34-1,34.74,34.74,0,0,1,4.38-.35,42.28,42.28,0,0,1,4.35.09,29.41,29.41,0,0,1,4.43.72c1.47.35,2.82.82,4,1.18a23.33,23.33,0,0,0,3.54.8,35.4,35.4,0,0,0,7.43.15,24.35,24.35,0,0,0,3.55-.59c1.17-.28,2.36-.7,3.73-1.12a27.72,27.72,0,0,1,4.36-1,33.49,33.49,0,0,1,4.41-.37,34.25,34.25,0,0,1,8.82.79c1.47.35,2.85.82,4.06,1.19a23.31,23.31,0,0,0,3.53.82,36.31,36.31,0,0,0,7.39.19,24.17,24.17,0,0,0,3.54-.54c1.16-.28,2.34-.67,3.7-1.1a28.6,28.6,0,0,1,4.36-1,33.83,33.83,0,0,1,4.43-.38,34.66,34.66,0,0,1,8.82.79c1.48.34,2.87.82,4.09,1.2a25,25,0,0,0,3.52.85,34.25,34.25,0,0,0,7.39.24,24.42,24.42,0,0,0,3.56-.52c1.16-.26,2.33-.65,3.69-1.06a30.25,30.25,0,0,1,4.34-1,31.91,31.91,0,0,1,4.42-.38,35.4,35.4,0,0,1,8.8.77c1.47.34,2.86.81,4.09,1.21a26.33,26.33,0,0,0,3.55.89,33.81,33.81,0,0,0,7.42.31,26.92,26.92,0,0,0,7.27-1.55,31.42,31.42,0,0,1,4.3-1,31.87,31.87,0,0,1,4.41-.41,35.3,35.3,0,0,1,8.74.73c1.47.33,2.87.79,4.11,1.19a27,27,0,0,0,3.58.92,32.87,32.87,0,0,0,7.45.34,26.33,26.33,0,0,0,7.31-1.51,33.57,33.57,0,0,1,4.26-1.06,31.37,31.37,0,0,1,4.38-.43,35.82,35.82,0,0,1,8.7.69,42.4,42.4,0,0,1,4.12,1.18,27.76,27.76,0,0,0,3.61,1,33.16,33.16,0,0,0,7.49.4,23.3,23.3,0,0,0,3.67-.45,36.15,36.15,0,0,0,3.69-1,33.21,33.21,0,0,1,4.21-1.06,32.66,32.66,0,0,1,4.36-.43,36.1,36.1,0,0,1,8.62.66,39.94,39.94,0,0,1,4.11,1.18,30.19,30.19,0,0,0,3.65,1,32.63,32.63,0,0,0,7.56.44,26.77,26.77,0,0,0,3.73-.42,34.85,34.85,0,0,0,3.71-1,36.11,36.11,0,0,1,4.16-1.05,33.31,33.31,0,0,1,4.3-.43,36.25,36.25,0,0,1,8.53.64,38.34,38.34,0,0,1,4.08,1.17,30.93,30.93,0,0,0,3.7,1.05,33.6,33.6,0,0,0,7.67.51,28.13,28.13,0,0,0,3.8-.41,31.52,31.52,0,0,0,3.75-1,36,36,0,0,1,4.09-1.06,32.11,32.11,0,0,1,4.24-.45,35.64,35.64,0,0,1,8.41.58,33.54,33.54,0,0,1,4.06,1.14,32.67,32.67,0,0,0,3.75,1.07,33.43,33.43,0,0,0,7.77.54,27.6,27.6,0,0,0,3.86-.4,30.21,30.21,0,0,0,3.79-1,36.19,36.19,0,0,1,4-1.06,28.3,28.3,0,0,1,4.18-.47,35.84,35.84,0,0,1,8.32.49c2.8.53,5.31,1.67,7.83,2.18a33.53,33.53,0,0,0,7.84.55,28.18,28.18,0,0,0,3.9-.41,32.12,32.12,0,0,0,3.82-1,35.37,35.37,0,0,1,4-1.1,26.48,26.48,0,0,1,4.14-.52,35.5,35.5,0,0,1,8.29.42c2.79.48,5.31,1.62,7.85,2.13a33.11,33.11,0,0,0,7.85.53,26.78,26.78,0,0,0,7.72-1.42,30,30,0,0,1,8.13-1.69,37.39,37.39,0,0,1,8.31.32c2.8.44,5.36,1.55,7.87,2.06a32.27,32.27,0,0,0,7.81.52,25.6,25.6,0,0,0,7.65-1.41,30.82,30.82,0,0,1,8.17-1.83,37,37,0,0,1,8.4.24,28.77,28.77,0,0,1,4.12,1c1.32.4,2.56.78,3.8,1a30.71,30.71,0,0,0,7.69.51,25.67,25.67,0,0,0,7.52-1.37c1.25-.41,2.6-.88,4-1.21a25.88,25.88,0,0,1,4.26-.68,38,38,0,0,1,8.52.21,28.53,28.53,0,0,1,4.2,1c1.34.4,2.55.79,3.77,1.05a30,30,0,0,0,7.55.53,25,25,0,0,0,7.4-1.3c1.23-.4,2.59-.88,4-1.23a29.38,29.38,0,0,1,4.33-.71,38.42,38.42,0,0,1,8.63.19,28.08,28.08,0,0,1,4.28,1c1.35.41,2.56.81,3.75,1.08a28.87,28.87,0,0,0,7.43.6,24.91,24.91,0,0,0,7.31-1.19c1.23-.37,2.58-.85,4-1.2a30.23,30.23,0,0,1,4.38-.7,41.41,41.41,0,0,1,8.68.22,29.9,29.9,0,0,1,4.3,1c1.37.42,2.58.84,3.76,1.12a29.36,29.36,0,0,0,7.39.7,28.34,28.34,0,0,0,3.73-.27,23.44,23.44,0,0,0,3.59-.81c1.22-.36,2.57-.83,4-1.18a29.85,29.85,0,0,1,4.38-.72,41.79,41.79,0,0,1,8.65.22,29.58,29.58,0,0,1,4.3,1c1.37.42,2.59.85,3.78,1.15a27.79,27.79,0,0,0,7.42.76,33,33,0,0,0,3.75-.24,24.56,24.56,0,0,0,3.61-.79c1.22-.35,2.55-.81,4-1.16a29.46,29.46,0,0,1,4.35-.72,40.69,40.69,0,0,1,8.61.2,28.9,28.9,0,0,1,4.28,1c1.37.41,2.6.85,3.8,1.17a28.26,28.26,0,0,0,7.47.84,26.1,26.1,0,0,0,7.45-1c1.23-.34,2.54-.79,4-1.14a27.6,27.6,0,0,1,4.3-.73,40,40,0,0,1,8.54.19,28.47,28.47,0,0,1,4.23.94c1.36.41,2.61.87,3.83,1.2a27.71,27.71,0,0,0,7.55.93,27,27,0,0,0,7.58-.91c1.24-.34,2.54-.78,3.92-1.13a26.55,26.55,0,0,1,4.23-.73,38.86,38.86,0,0,1,8.42.18,25.61,25.61,0,0,1,4.17.91c1.34.41,2.6.88,3.84,1.24a31.88,31.88,0,0,0,15.45.2c1.27-.33,2.56-.76,3.91-1.11a25.18,25.18,0,0,1,4.12-.71,38,38,0,0,1,8.26.17,24.15,24.15,0,0,1,4,.88c1.32.41,2.58.89,3.86,1.28a29.35,29.35,0,0,0,7.89,1.17v.56a29.55,29.55,0,0,1-8.15-.81c-1.33-.34-2.62-.76-3.91-1.09a25.77,25.77,0,0,0-3.89-.69,36.88,36.88,0,0,0-7.93.13,22.69,22.69,0,0,0-3.83.81c-1.26.37-2.52.85-3.85,1.25a30,30,0,0,1-8.28,1.22,30.46,30.46,0,0,1-8.36-.84c-1.37-.34-2.66-.78-3.92-1.11a24.31,24.31,0,0,0-3.77-.71,36,36,0,0,0-7.76,0,22.52,22.52,0,0,0-3.74.75c-1.23.34-2.48.8-3.84,1.22a30.42,30.42,0,0,1-8.44,1.25,30.91,30.91,0,0,1-8.51-.87c-1.4-.35-2.7-.8-3.93-1.14a25.28,25.28,0,0,0-3.7-.75,36.9,36.9,0,0,0-7.65,0,23.78,23.78,0,0,0-3.67.7c-1.21.33-2.45.78-3.81,1.19a28.92,28.92,0,0,1-4.26,1,35,35,0,0,1-4.3.31,32.09,32.09,0,0,1-8.61-.86c-1.42-.36-2.74-.81-4-1.16a24.9,24.9,0,0,0-3.64-.78,36.81,36.81,0,0,0-7.57-.07,23.2,23.2,0,0,0-3.63.66c-1.2.3-2.42.74-3.79,1.16a30.39,30.39,0,0,1-4.29,1,33.74,33.74,0,0,1-4.34.32,41.39,41.39,0,0,1-4.3-.12,29.52,29.52,0,0,1-4.37-.73c-1.44-.35-2.77-.82-4-1.18a24.76,24.76,0,0,0-3.6-.8,37.09,37.09,0,0,0-7.53-.14,25.44,25.44,0,0,0-3.61.62c-1.19.29-2.4.71-3.77,1.13a28.64,28.64,0,0,1-4.3,1,36.22,36.22,0,0,1-4.36.35c-1.43,0-2.86,0-4.31-.11a28.7,28.7,0,0,1-4.39-.72c-1.45-.35-2.8-.82-4-1.2a23.41,23.41,0,0,0-3.58-.83,35.46,35.46,0,0,0-7.51-.21,24,24,0,0,0-3.62.57c-1.18.28-2.38.69-3.74,1.11a27.45,27.45,0,0,1-4.3,1,38.07,38.07,0,0,1-13-.51c-1.44-.36-2.8-.83-4-1.22a24.19,24.19,0,0,0-3.6-.88,37.15,37.15,0,0,0-7.55-.31,23.33,23.33,0,0,0-3.67.51c-1.21.26-2.42.65-3.76,1.06a29.7,29.7,0,0,1-8.56,1.29,33.78,33.78,0,0,1-8.56-.83c-1.42-.35-2.77-.82-4-1.22a26.08,26.08,0,0,0-3.67-.95,34.73,34.73,0,0,0-7.65-.36,28.51,28.51,0,0,0-7.54,1.54,28.91,28.91,0,0,1-8.41,1.32,34,34,0,0,1-8.43-.78c-1.4-.33-2.74-.79-4-1.21a28.65,28.65,0,0,0-3.74-1,34.64,34.64,0,0,0-7.77-.41,28.37,28.37,0,0,0-7.65,1.52,28.93,28.93,0,0,1-8.26,1.37,33.87,33.87,0,0,1-8.32-.69c-2.79-.63-5.23-1.74-7.78-2.16a33.24,33.24,0,0,0-7.86-.39,28.06,28.06,0,0,0-7.7,1.57,31.44,31.44,0,0,1-4,1,30.55,30.55,0,0,1-4.15.42,34.5,34.5,0,0,1-8.28-.6c-2.76-.59-5.24-1.68-7.8-2.11a34.45,34.45,0,0,0-7.87-.37,27.85,27.85,0,0,0-7.71,1.58,32.48,32.48,0,0,1-4,1.07,34.45,34.45,0,0,1-4.15.47,35.76,35.76,0,0,1-8.31-.5c-2.79-.55-5.28-1.65-7.81-2.08a34.16,34.16,0,0,0-7.84-.37,26,26,0,0,0-3.86.51,32.08,32.08,0,0,0-3.78,1.08,34.26,34.26,0,0,1-4,1.13,33.07,33.07,0,0,1-4.19.52,35.84,35.84,0,0,1-8.38-.43,33.48,33.48,0,0,1-4.06-1.06,31,31,0,0,0-3.78-1,33.16,33.16,0,0,0-7.73-.37,27.93,27.93,0,0,0-3.81.48,30.55,30.55,0,0,0-3.74,1.06,34.36,34.36,0,0,1-4.06,1.15,29.46,29.46,0,0,1-4.25.56,35.7,35.7,0,0,1-8.49-.38,34.14,34.14,0,0,1-4.13-1.05,31.73,31.73,0,0,0-3.73-1,32.68,32.68,0,0,0-7.62-.39,30.49,30.49,0,0,0-3.75.46,32.27,32.27,0,0,0-3.67,1,38,38,0,0,1-4.1,1.18,27.89,27.89,0,0,1-4.31.59,36.64,36.64,0,0,1-8.6-.37,34.66,34.66,0,0,1-4.19-1.07,33.16,33.16,0,0,0-3.7-1,31.68,31.68,0,0,0-7.52-.45,27.73,27.73,0,0,0-3.7.42,29.34,29.34,0,0,0-3.63,1c-1.26.41-2.66.87-4.11,1.19a28.67,28.67,0,0,1-4.37.6,37.25,37.25,0,0,1-8.67-.34,35.5,35.5,0,0,1-4.24-1,37.63,37.63,0,0,0-3.68-1,30.42,30.42,0,0,0-7.44-.5,25.77,25.77,0,0,0-3.67.38,27.38,27.38,0,0,0-3.6.94c-1.25.4-2.65.86-4.11,1.18a27.93,27.93,0,0,1-4.4.63A38.78,38.78,0,0,1,374,376a32.65,32.65,0,0,1-4.28-1.06c-1.33-.41-2.5-.79-3.68-1a29.85,29.85,0,0,0-7.38-.53,24.75,24.75,0,0,0-7.23,1.27c-1.23.4-2.63.87-4.1,1.2a28.39,28.39,0,0,1-4.43.66,39.13,39.13,0,0,1-8.76-.3,30.16,30.16,0,0,1-4.31-1c-1.35-.42-2.53-.8-3.69-1.06a29.37,29.37,0,0,0-7.33-.55,23.87,23.87,0,0,0-7.17,1.22c-1.23.39-2.62.86-4.1,1.21a28.49,28.49,0,0,1-4.45.67,40,40,0,0,1-8.79-.29,30.71,30.71,0,0,1-4.35-1c-1.36-.43-2.54-.82-3.7-1.09a28.93,28.93,0,0,0-7.29-.61,26.81,26.81,0,0,0-3.64.3,23.3,23.3,0,0,0-3.52.84c-1.22.38-2.6.85-4.08,1.21a31.27,31.27,0,0,1-4.46.69,39.33,39.33,0,0,1-8.79-.27,28.61,28.61,0,0,1-4.36-1c-1.37-.43-2.56-.84-3.71-1.12a28.9,28.9,0,0,0-7.29-.68,29.2,29.2,0,0,0-3.67.27,24.53,24.53,0,0,0-3.53.81c-1.21.37-2.57.84-4,1.19a31.16,31.16,0,0,1-4.45.7,40.77,40.77,0,0,1-8.75-.25,28.86,28.86,0,0,1-4.36-1c-1.37-.42-2.57-.85-3.74-1.13a24.5,24.5,0,0,0-3.56-.61c-1.22-.1-2.49-.16-3.75-.14a29.74,29.74,0,0,0-3.7.24,23.32,23.32,0,0,0-3.57.78c-1.21.35-2.55.81-4,1.16a28.93,28.93,0,0,1-4.41.71,40.83,40.83,0,0,1-8.69-.24,28.9,28.9,0,0,1-4.32-1c-1.37-.42-2.59-.86-3.77-1.16a27.57,27.57,0,0,0-7.39-.81,30.84,30.84,0,0,0-3.75.22,26,26,0,0,0-3.6.77c-1.22.35-2.55.81-4,1.16a28,28,0,0,1-4.35.73,40.77,40.77,0,0,1-8.62-.2,28.74,28.74,0,0,1-4.29-1c-1.37-.41-2.61-.86-3.8-1.18a27.38,27.38,0,0,0-7.46-.85,26.51,26.51,0,0,0-7.46.94c-1.22.34-2.54.78-3.94,1.14a27.57,27.57,0,0,1-4.3.72,39.91,39.91,0,0,1-8.53-.2,27.16,27.16,0,0,1-4.22-.95c-1.36-.41-2.61-.87-3.83-1.21a27.93,27.93,0,0,0-7.58-.95,26.83,26.83,0,0,0-7.6.91c-1.24.34-2.54.78-3.91,1.13A26.42,26.42,0,0,1,64,375a38.77,38.77,0,0,1-8.41-.16,26.44,26.44,0,0,1-4.15-.9c-1.34-.41-2.6-.88-3.85-1.24a27.87,27.87,0,0,0-7.71-1.05,27.75,27.75,0,0,0-7.77.85c-1.27.33-2.55.77-3.9,1.11a24.18,24.18,0,0,1-4.12.72,37.93,37.93,0,0,1-8.25-.16,24.37,24.37,0,0,1-4.05-.88c-1.31-.4-2.58-.88-3.85-1.26A28.7,28.7,0,0,0,0,370.87Z"/></g><g id="Boden"><path class="cls-18" d="M40.64,271.36a64.66,64.66,0,0,1,6,8.06l1.35,2.12,1.27,2.16c.87,1.43,1.63,2.92,2.43,4.39s1.49,3,2.22,4.51,1.41,3,2.07,4.59,1.31,3.09,1.87,4.67S59,305,59.53,306.58c2.12,6.36,4.46,12.75,5.22,19.46.1.83.24,1.66.31,2.5l.18,2.52c.1,1.68.2,3.36.22,5a72.91,72.91,0,0,1-.67,10.1l-.56,0a97.28,97.28,0,0,1-2.69-9.65c-.45-1.59-.83-3.19-1.21-4.78s-.7-3.19-1.12-4.77-.73-3.18-1-4.78c-.14-.8-.3-1.6-.48-2.39l-.46-2.4c-.51-3.23-1.25-6.4-2-9.58-.41-1.58-.89-3.14-1.33-4.71s-.95-3.13-1.47-4.68-1-3.12-1.59-4.64-1.1-3.09-1.75-4.59a99,99,0,0,0-8.88-17.55Z"/><path class="cls-18" d="M69.22,280.05a188.25,188.25,0,0,0-1.72,19.09c-.09,1.6-.15,3.19-.18,4.78s-.1,3.19-.1,4.78-.06,3.19,0,4.78l0,4.77c0,1.59.12,3.18.21,4.77s.18,3.18.33,4.76S68,331,68,332.54s.11,3.17.12,4.75c0,3.18,0,6.36-.15,9.57a94.46,94.46,0,0,1-.66,9.71l-.56.07a78.57,78.57,0,0,1-4.24-19c-.82-6.46-.11-13,.2-19.43l.33-4.85c.12-1.61.29-3.22.43-4.83s.36-3.22.56-4.82.41-3.21.65-4.8a158.21,158.21,0,0,1,4-18.95Z"/><path class="cls-18" d="M90.74,266.49A138,138,0,0,0,82.08,290c-.61,2-1.1,4-1.6,6.07l-.75,3-.64,3.06c-1,4.07-1.6,8.19-2.32,12.29-.5,4.15-1.14,8.26-1.36,12.43-.16,2.08-.4,4.14-.59,6.21s-.38,4.14-.62,6.21l-.39,3.1-.3,3.12c-.24,2.07-.43,4.15-.73,6.24-.47,4.17-.85,8.35-1.65,12.58l-.56,0c-.44-2.1-.74-4.21-1.06-6.32s-.59-4.24-.68-6.36-.19-4.26-.28-6.39l-.07-3.2L68.6,339c.12-8.55,2.06-16.94,3.74-25.27,1-4.14,1.91-8.3,3.12-12.38l.88-3.06,1-3c.66-2,1.31-4,2.07-6s1.48-4,2.32-5.93L83,280.31l1.32-2.89a94.32,94.32,0,0,1,6-11.22Z"/><path class="cls-18" d="M102.15,270.38a184.17,184.17,0,0,0-8.23,21c-1.15,3.58-2.25,7.16-3.18,10.79L90,304.9l-.64,2.73c-.4,1.82-.89,3.62-1.2,5.46s-.67,3.67-1,5.5l-.65,5.54c-.28,1.84-.39,3.68-.59,5.52l-.34,2.75-.2,1.37-.11,1.38c-1,7.37-1.18,14.7-1.82,22.39l-.56.08c-.61-1.82-1.09-3.69-1.58-5.57-.22-.94-.48-1.88-.64-2.83s-.26-1.91-.38-2.87-.25-1.92-.34-2.89-.24-1.93-.24-2.89c0-1.93,0-3.87,0-5.81.22-7.75,2-15.33,4.09-22.7.44-1.87,1.07-3.68,1.61-5.52l.84-2.74.93-2.71c1.25-3.61,2.66-7.16,4.12-10.68s3.12-7,4.84-10.34,3.53-6.73,5.53-10Z"/><path class="cls-18" d="M91.22,289.15a31.12,31.12,0,0,1,8.33,6.44,49,49,0,0,1,3.46,4c1.06,1.41,2,2.89,3,4.36s1.74,3.09,2.58,4.66l2.18,4.86A82.3,82.3,0,0,1,114,323.64l.65,2.58c.1.43.24.86.33,1.29l.23,1.31,1,5.24a39.14,39.14,0,0,1,.51,5.29c.09,1.77.13,3.54.13,5.31-.28,3.52-.56,7-1.14,10.51A87.94,87.94,0,0,1,113,365.41l-.56-.07a93,93,0,0,1-.74-10.41c-.24-3.43-.47-6.83-.54-10.21-.13-1.69-.28-3.37-.35-5.05,0-.85,0-1.69-.07-2.53l0-1.27-.11-1.25-.33-5.05a42,42,0,0,0-.69-5,69.1,69.1,0,0,0-6-19.24c-.8-1.48-1.58-3-2.44-4.44a50,50,0,0,0-2.91-4.16A32.55,32.55,0,0,0,91,289.65Z"/><path class="cls-18" d="M70.39,291.08a30.64,30.64,0,0,1,9.6,3.69c1.55.78,2.92,1.83,4.39,2.76s2.74,2.11,4.08,3.21,2.53,2.36,3.76,3.59l3.46,3.89a85.32,85.32,0,0,1,6,8.5l1.38,2.2c.22.38.48.73.69,1.11l.61,1.14,2.48,4.58a39.34,39.34,0,0,1,2.09,4.75c.62,1.61,1.2,3.25,1.74,4.88.84,3.36,1.65,6.71,2.18,10.11a82.8,82.8,0,0,1,.68,10.32l-.55.11a87.1,87.1,0,0,1-4-9.41c-1.3-3.1-2.56-6.18-3.67-9.3-.65-1.52-1.3-3-1.88-4.58-.3-.77-.56-1.55-.85-2.32l-.4-1.18-.48-1.13a75.8,75.8,0,0,0-4-9,70.4,70.4,0,0,0-11.23-16.19c-1.15-1.17-2.33-2.34-3.54-3.46s-2.51-2.18-3.9-3.07a32.34,32.34,0,0,0-8.78-4.61Z"/><path class="cls-18" d="M32,287.2a31.35,31.35,0,0,1,8.09,6.44c1.24,1.22,2.25,2.63,3.37,4s2,2.84,3,4.29,1.72,3,2.54,4.56l2.17,4.75a84.48,84.48,0,0,1,3.24,9.92l.68,2.53.34,1.26.25,1.28,1,5.12a39.16,39.16,0,0,1,.62,5.18c.13,1.73.2,3.47.25,5.2-.18,3.46-.39,6.93-.86,10.35a85.22,85.22,0,0,1-2.36,10.11l-.56,0a90.42,90.42,0,0,1-1-10.2c-.34-3.36-.65-6.69-.8-10-.18-1.65-.36-3.3-.47-4.95-.06-.83-.08-1.66-.13-2.49,0-.41,0-.83,0-1.24L51.16,332l-.42-5a45.13,45.13,0,0,0-.76-4.91,72.12,72.12,0,0,0-6-18.87c-.76-1.46-1.54-2.93-2.37-4.37s-1.76-2.83-2.82-4.11a33,33,0,0,0-7-7.07Z"/><path class="cls-18" d="M31.41,300.7a30.65,30.65,0,0,1,9.53,3.89,49.72,49.72,0,0,1,4.33,2.85q2,1.59,4,3.29c1.22,1.22,2.48,2.42,3.69,3.67l3.38,4a83.38,83.38,0,0,1,5.8,8.63l1.34,2.23c.21.38.46.74.67,1.12l.59,1.15,2.39,4.63a40,40,0,0,1,2,4.79c.59,1.63,1.13,3.27,1.64,4.92.77,3.37,1.52,6.74,2,10.15a83,83,0,0,1,.48,10.34l-.55.1a87.61,87.61,0,0,1-3.77-9.5c-1.24-3.12-2.44-6.23-3.49-9.37-.61-1.53-1.23-3.06-1.79-4.62-.28-.77-.53-1.56-.8-2.34l-.38-1.18L62,338.26a75.89,75.89,0,0,0-3.8-9.12A70.84,70.84,0,0,0,47.3,312.72c-1.13-1.19-2.28-2.38-3.47-3.53A48.32,48.32,0,0,0,40,306a32.37,32.37,0,0,0-8.69-4.79Z"/><path class="cls-18" d="M26.77,256.57a158.17,158.17,0,0,0-7,18.22c-1,3.09-1.9,6.19-2.68,9.33l-.63,2.34L16,288.82c-.34,1.57-.76,3.13-1,4.72s-.56,3.17-.81,4.75l-.52,4.78c-.23,1.58-.31,3.17-.49,4.76-.1.79-.18,1.58-.29,2.37l-.18,1.18-.1,1.18c-.87,6.34-1.16,12.65-1.92,19.32l-.56.09c-.59-1.57-1-3.18-1.5-4.81-.21-.81-.45-1.63-.61-2.45s-.24-1.66-.37-2.49-.24-1.66-.34-2.5S7,318.05,7,317.21c0-1.67-.07-3.35-.08-5,.13-6.72,1.79-13.29,3.62-19.66.39-1.62.94-3.19,1.41-4.77l.74-2.38.82-2.34c1.1-3.12,2.35-6.19,3.63-9.22s2.74-6,4.25-8.92,3.1-5.8,4.86-8.59Z"/><path class="cls-18" d="M11.3,256.84a47.76,47.76,0,0,1,4.38,9.57c1.12,3.32,2.15,6.68,3,10.09a154.74,154.74,0,0,1,3.47,20.72q.33,2.61.57,5.22l.52,5.24a91.81,91.81,0,0,1,.16,10.49c-.24,3.5-.54,7-1.05,10.46A90.91,90.91,0,0,1,20.11,339l-.56,0a89.31,89.31,0,0,1-1.19-10.43c-.31-3.46-.53-6.91-.62-10.34s-.21-6.86-.11-10.3l.07-5.15,0-2.58-.09-2.57-.22-5.15L17,287.27c-.1-1.72-.33-3.42-.49-5.13s-.41-3.41-.65-5.11c-1-6.77-2.29-13.62-5.05-19.89Z"/><path class="cls-18" d="M35.43,280.12A119.56,119.56,0,0,0,31.35,296c-.54,2.66-1,5.35-1.37,8l-.55,4-.43,4c-.15,1.34-.21,2.69-.26,4s-.14,2.7-.12,4.05c0,2.7-.21,5.37-.41,8.06s-.47,5.37-.83,8.08a78.78,78.78,0,0,1-1.24,8.25l-.56.05a52.82,52.82,0,0,1-3-16.54c0-1.4-.07-2.8.05-4.2s.26-2.78.44-4.17.48-2.76.71-4.14.46-2.75.76-4.11a125.45,125.45,0,0,1,4.08-16.17,101.69,101.69,0,0,1,6.29-15.36Z"/><path class="cls-18" d="M56.75,261.67a89.49,89.49,0,0,0-10.56,18.46,104.66,104.66,0,0,0-3.74,9.9,97.77,97.77,0,0,0-2.72,10.17,77.79,77.79,0,0,0-1.47,10.39c-.34,3.47-.55,6.93-.86,10.4-.1,1.74-.28,3.48-.34,5.23l-.15,2.64c0,.87,0,1.76-.09,2.64-.1,1.77-.09,3.54-.16,5.33s0,3.59-.2,5.43l-.56.1a52.61,52.61,0,0,1-3-10.56c-.17-.91-.33-1.81-.47-2.72l-.31-2.74c-.23-1.83-.24-3.67-.32-5.52a55.62,55.62,0,0,1,1-11c.7-3.62,1.6-7.19,2.62-10.71a104,104,0,0,1,3.58-10.37,106.09,106.09,0,0,1,4.73-9.85,99.64,99.64,0,0,1,5.78-9.22,68.11,68.11,0,0,1,6.88-8.38Z"/><path class="cls-18" d="M16.42,252.92a79.23,79.23,0,0,0-5.25,9.67c-.78,1.66-1.54,3.33-2.24,5s-1.39,3.4-2,5.12S5.65,276.2,5.07,278l-.87,2.62-.78,2.65c-1.07,3.53-1.87,7.12-2.75,10.7C.45,295,.23,296,0,297.1v40.5c.77-3.59,1.17-7.13,1.61-10.66.3-1.8.47-3.59.7-5.38l.29-2.69L3,316.19c.21-1.78.41-3.56.54-5.35s.37-3.57.49-5.36c.17-3.6.7-7.15,1.1-10.73.61-3.55,1.15-7.11,2-10.62l.53-2.65.64-2.63c.42-1.76.83-3.51,1.35-5.24a119.29,119.29,0,0,1,7.33-20.4Z"/><path class="cls-18" d="M57.82,271.48a83.06,83.06,0,0,0-7.1,14.83A97.58,97.58,0,0,0,46.3,302c-1,5.33-1.15,10.72-1.78,16l-.25,2-.15,1L44,322c-.11,1.34-.23,2.69-.42,4s-.27,2.73-.41,4.11-.32,2.78-.6,4.21l-.56.08a44.59,44.59,0,0,1-3.15-16.77,33.89,33.89,0,0,1,.19-4.28c.18-1.42.41-2.84.67-4.24s.69-2.78,1-4.16l.53-2.07c.19-.68.41-1.36.61-2,.42-1.36.78-2.73,1.26-4.06l1.45-4L46.32,289c.56-1.29,1.23-2.54,1.83-3.8a74.9,74.9,0,0,1,9.23-14.05Z"/><path class="cls-19" d="M0,321.17S66.48,315,111.28,331.82c55.46,20.8,91,15.1,108.44,14.36,93.09-4,138.65,25.75,177.77,55,52.71,39.37,84.3,87.21,201.66,94.14,135,8,184.09-39.81,420.85-22.6V574H0Z"/><path class="cls-20" d="M0,332.42s66.48-6.16,111.28,10.64c55.46,20.8,91,15.11,108.44,14.36,93.09-4,138.65,25.75,177.77,55,52.71,39.36,84.3,87.2,201.66,94.14,135,8,184.09-39.81,420.85-22.61V574H0Z"/><g class="cls-15"><ellipse class="cls-21" cx="108.45" cy="533.75" rx="1.47" ry="3.2" transform="translate(-428.74 623.66) rotate(-88.02)"/><ellipse class="cls-21" cx="206.77" cy="520.83" rx="3.16" ry="1.48" transform="matrix(1, -0.07, 0.07, 1, -38.25, 16.86)"/><ellipse class="cls-21" cx="206.8" cy="514.97" rx="1.19" ry="1.5" transform="matrix(0, -1, 1, 0, -308.45, 721.08)"/><ellipse class="cls-21" cx="148.54" cy="444.78" rx="1.5" ry="1.19" transform="translate(-24.99 9.14) rotate(-3.25)"/><ellipse class="cls-21" cx="99.81" cy="536" rx="2.24" ry="5.11" transform="translate(-437.44 628.83) rotate(-89.26)"/><ellipse class="cls-21" cx="85.76" cy="445.46" rx="2.7" ry="3.2" transform="translate(-363.83 505.95) rotate(-86.77)"/><path class="cls-21" d="M30.47,464.89a1.2,1.2,0,0,0,0-.33,1.92,1.92,0,0,0-2.14-1.4,1.68,1.68,0,0,0-1.6,1.33,2.64,2.64,0,0,0-1.8,2.79,3.4,3.4,0,0,0,3.8,2.5c1.86-.16,3.16-1.55,2.92-3.09A4,4,0,0,0,30.47,464.89Z"/><ellipse class="cls-21" cx="78.57" cy="443.85" rx="1.35" ry="1.6" transform="translate(-366.59 514.6) rotate(-88.99)"/><ellipse class="cls-21" cx="169.91" cy="502.24" rx="0.97" ry="0.82" transform="translate(-29.01 10.77) rotate(-3.34)"/><ellipse class="cls-21" cx="115.03" cy="470.04" rx="0.97" ry="0.82" transform="translate(-16.57 4.37) rotate(-2.03)"/><ellipse class="cls-21" cx="181.12" cy="509.66" rx="0.82" ry="0.97" transform="translate(-353 594.96) rotate(-79.51)"/><ellipse class="cls-21" cx="160.35" cy="508.81" rx="0.82" ry="0.97" transform="translate(-355.69 644.11) rotate(-87.2)"/><ellipse class="cls-21" cx="159.96" cy="510.22" rx="2.21" ry="1.16" transform="translate(-0.7 0.22) rotate(-0.08)"/><ellipse class="cls-21" cx="171.28" cy="514.12" rx="2.21" ry="1.16" transform="translate(-11.18 3.86) rotate(-1.25)"/><ellipse class="cls-21" cx="140.36" cy="512.17" rx="1.35" ry="1.6" transform="translate(-376.66 633.45) rotate(-87.88)"/><ellipse class="cls-21" cx="155.18" cy="507.77" rx="1.35" ry="2.04" transform="translate(-356.28 650.35) rotate(-88.58)"/><ellipse class="cls-21" cx="75.52" cy="492.29" rx="1.6" ry="1.35" transform="translate(-15.86 2.7) rotate(-1.85)"/><ellipse class="cls-21" cx="78.99" cy="496.66" rx="1.83" ry="2.16" transform="translate(-423.74 509.87) rotate(-82.47)"/><ellipse class="cls-21" cx="164.88" cy="507.2" rx="1.65" ry="1.95" transform="translate(-354.42 628.72) rotate(-85.16)"/><ellipse class="cls-21" cx="159.31" cy="502.14" rx="1.35" ry="2.93" transform="translate(-346.69 648.73) rotate(-88.55)"/><ellipse class="cls-21" cx="68.59" cy="495.83" rx="3.88" ry="1.79" transform="translate(-5.21 0.75) rotate(-0.6)"/><ellipse class="cls-21" cx="273.85" cy="473.74" rx="1.57" ry="3.43" transform="translate(-209.09 731.03) rotate(-88.02)"/><ellipse class="cls-21" cx="316.91" cy="378.2" rx="1.61" ry="1.27" transform="translate(-20.94 18.58) rotate(-3.25)"/><ellipse class="cls-21" cx="264.57" cy="476.15" rx="2.4" ry="5.48" transform="translate(-214.97 734.51) rotate(-89.26)"/><ellipse class="cls-21" cx="249.49" cy="378.93" rx="2.9" ry="3.43" transform="translate(-142.91 606.65) rotate(-86.77)"/><path class="cls-21" d="M190.12,399.79a1.27,1.27,0,0,0,0-.34,2.05,2.05,0,0,0-2.3-1.51,1.81,1.81,0,0,0-1.72,1.43,2.84,2.84,0,0,0-1.93,3c.26,1.65,2.09,2.85,4.08,2.68s3.4-1.66,3.14-3.32A4.34,4.34,0,0,0,190.12,399.79Z"/><ellipse class="cls-21" cx="241.77" cy="377.2" rx="1.45" ry="1.72" transform="translate(-139.62 612.31) rotate(-88.99)"/><ellipse class="cls-21" cx="362.34" cy="417.41" rx="1.04" ry="0.88" transform="translate(-23.74 21.85) rotate(-3.34)"/><ellipse class="cls-21" cx="280.92" cy="405.33" rx="1.04" ry="0.88" transform="translate(-14.18 10.2) rotate(-2.03)"/><ellipse class="cls-21" cx="374.38" cy="425.38" rx="0.88" ry="1.04" transform="translate(-112.06 716.05) rotate(-79.51)"/><ellipse class="cls-21" cx="352.07" cy="424.47" rx="0.88" ry="1.04" transform="translate(-89.09 755.38) rotate(-87.2)"/><ellipse class="cls-21" cx="351.65" cy="425.98" rx="2.37" ry="1.25" transform="translate(-0.59 0.48) rotate(-0.08)"/><ellipse class="cls-21" cx="363.81" cy="430.17" rx="2.38" ry="1.25" transform="translate(-9.3 8.04) rotate(-1.25)"/><ellipse class="cls-21" cx="330.61" cy="428.07" rx="1.45" ry="1.72" transform="translate(-109.42 742.59) rotate(-87.88)"/><ellipse class="cls-21" cx="346.52" cy="423.36" rx="1.45" ry="2.19" transform="translate(-85.28 759.3) rotate(-88.58)"/><ellipse class="cls-21" cx="238.49" cy="429.22" rx="1.72" ry="1.45" transform="translate(-13.74 7.93) rotate(-1.85)"/><ellipse class="cls-21" cx="242.23" cy="433.91" rx="1.96" ry="2.32" transform="translate(-219.7 617.17) rotate(-82.47)"/><ellipse class="cls-21" cx="356.94" cy="422.74" rx="1.77" ry="2.1" transform="translate(-94.4 742.75) rotate(-85.16)"/><ellipse class="cls-21" cx="350.95" cy="417.31" rx="1.45" ry="3.15" transform="translate(-75.07 757.62) rotate(-88.55)"/><ellipse class="cls-21" cx="231.06" cy="433.02" rx="4.17" ry="1.92" transform="translate(-4.54 2.45) rotate(-0.6)"/><ellipse class="cls-21" cx="19.62" cy="392.71" rx="1.69" ry="3.67" transform="translate(-373.53 398.72) rotate(-88.02)"/><ellipse class="cls-21" cx="132.62" cy="377.86" rx="3.63" ry="1.71" transform="translate(-27.8 10.94) rotate(-4.28)"/><ellipse class="cls-21" cx="132.66" cy="371.12" rx="1.36" ry="1.73" transform="translate(-238.64 503.28) rotate(-89.92)"/><ellipse class="cls-21" cx="90.27" cy="356.49" rx="1.12" ry="0.94" transform="translate(-20.64 5.87) rotate(-3.34)"/><ellipse class="cls-21" cx="103.15" cy="365.02" rx="0.94" ry="1.12" transform="translate(-274.55 399.99) rotate(-79.51)"/><ellipse class="cls-21" cx="91.84" cy="370.14" rx="2.54" ry="1.33" transform="translate(-8.06 2.09) rotate(-1.25)"/><ellipse class="cls-21" cx="56.31" cy="367.9" rx="1.55" ry="1.84" transform="translate(-313.43 410.53) rotate(-87.88)"/><ellipse class="cls-21" cx="73.33" cy="362.85" rx="1.55" ry="2.35" transform="translate(-291.22 427.18) rotate(-88.58)"/><ellipse class="cls-21" cx="84.48" cy="362.19" rx="1.9" ry="2.24" transform="translate(-283.54 415.83) rotate(-85.16)"/><ellipse class="cls-21" cx="78.08" cy="356.37" rx="1.55" ry="3.37" transform="translate(-280.16 425.44) rotate(-88.55)"/><ellipse class="cls-21" cx="358.92" cy="498.01" rx="1.61" ry="1.27" transform="translate(-27.67 21.16) rotate(-3.25)"/><ellipse class="cls-21" cx="291.5" cy="498.74" rx="2.9" ry="3.43" transform="translate(-222.88 761.65) rotate(-86.77)"/><path class="cls-21" d="M232.14,519.6a1.37,1.37,0,0,0,0-.35,2,2,0,0,0-2.29-1.51,1.83,1.83,0,0,0-1.73,1.43,2.85,2.85,0,0,0-1.93,3,3.65,3.65,0,0,0,4.08,2.68c2-.17,3.4-1.66,3.14-3.32A4.35,4.35,0,0,0,232.14,519.6Z"/><ellipse class="cls-21" cx="283.78" cy="497.01" rx="1.45" ry="1.72" transform="translate(-218.13 772.01) rotate(-88.99)"/><ellipse class="cls-21" cx="416.73" cy="469.75" rx="1.04" ry="0.88" transform="translate(-26.7 25.11) rotate(-3.34)"/><ellipse class="cls-21" cx="322.93" cy="525.13" rx="1.04" ry="0.88" transform="translate(-18.4 11.77) rotate(-2.03)"/><ellipse class="cls-21" cx="383.97" cy="533.03" rx="0.88" ry="1.04" transform="translate(-167.19 890.49) rotate(-87.2)"/><ellipse class="cls-21" cx="383.54" cy="534.54" rx="2.37" ry="1.25" transform="translate(-0.74 0.53) rotate(-0.08)"/><ellipse class="cls-21" cx="378.41" cy="531.92" rx="1.45" ry="2.19" transform="translate(-162.7 897.06) rotate(-88.58)"/><ellipse class="cls-21" cx="280.51" cy="549.02" rx="1.72" ry="1.45" transform="translate(-17.59 9.35) rotate(-1.85)"/><ellipse class="cls-21" cx="284.24" cy="553.72" rx="1.96" ry="2.32" transform="translate(-301.96 762.93) rotate(-82.47)"/><ellipse class="cls-21" cx="388.83" cy="531.3" rx="1.77" ry="2.1" transform="translate(-173.37 873.94) rotate(-85.16)"/><ellipse class="cls-21" cx="405.34" cy="469.64" rx="1.45" ry="3.15" transform="translate(-74.38 863.01) rotate(-88.55)"/><ellipse class="cls-21" cx="273.08" cy="552.82" rx="4.17" ry="1.92" transform="translate(-5.79 2.9) rotate(-0.6)"/><ellipse class="cls-21" cx="724.79" cy="553.23" rx="1.57" ry="3.43" transform="translate(146.8 1258.43) rotate(-88.02)"/><ellipse class="cls-21" cx="849.52" cy="561.85" rx="3.39" ry="1.59" transform="matrix(1, -0.07, 0.07, 1, -39.52, 64.89)"/><ellipse class="cls-21" cx="849.56" cy="555.55" rx="1.27" ry="1.61" transform="translate(292.86 1404.36) rotate(-89.92)"/><ellipse class="cls-21" cx="775.76" cy="511.67" rx="1.61" ry="1.27" transform="translate(-27.77 44.82) rotate(-3.25)"/><ellipse class="cls-21" cx="715.51" cy="555.64" rx="2.4" ry="5.48" transform="translate(150.62 1263.87) rotate(-89.26)"/><ellipse class="cls-21" cx="809.95" cy="541.88" rx="1.04" ry="0.88" transform="translate(-30.23 48.18) rotate(-3.34)"/><ellipse class="cls-21" cx="762.26" cy="515.18" rx="1.04" ry="0.88" transform="translate(-17.77 27.32) rotate(-2.03)"/><ellipse class="cls-21" cx="821.99" cy="549.85" rx="0.88" ry="1.04" transform="translate(131.67 1257.99) rotate(-79.51)"/><ellipse class="cls-21" cx="799.68" cy="548.94" rx="0.88" ry="1.04" transform="translate(212.33 1320.84) rotate(-87.2)"/><ellipse class="cls-21" cx="799.26" cy="550.45" rx="2.37" ry="1.25" transform="translate(-0.76 1.1) rotate(-0.08)"/><ellipse class="cls-21" cx="811.42" cy="554.64" rx="2.38" ry="1.25" transform="translate(-11.91 17.85) rotate(-1.25)"/><ellipse class="cls-21" cx="778.22" cy="552.54" rx="1.45" ry="1.72" transform="matrix(0.04, -1, 1, 0.04, 197.21, 1309.75)"/><ellipse class="cls-21" cx="794.13" cy="547.82" rx="1.45" ry="2.19" transform="translate(226.83 1328.16) rotate(-88.58)"/><ellipse class="cls-21" cx="686.1" cy="508.71" rx="1.72" ry="1.45" transform="translate(-16.08 22.43) rotate(-1.85)"/><ellipse class="cls-21" cx="689.84" cy="513.4" rx="1.96" ry="2.32" transform="translate(90.44 1129.99) rotate(-82.47)"/><ellipse class="cls-21" cx="804.55" cy="547.21" rx="1.77" ry="2.1" transform="translate(191.44 1302.74) rotate(-85.16)"/><ellipse class="cls-21" cx="798.56" cy="541.78" rx="1.45" ry="3.15" transform="translate(236.82 1326.42) rotate(-88.55)"/><ellipse class="cls-21" cx="678.67" cy="512.51" rx="4.17" ry="1.92" transform="matrix(1, -0.01, 0.01, 1, -5.35, 7.16)"/><ellipse class="cls-21" cx="553.18" cy="511.8" rx="1.4" ry="2.98" transform="translate(-20.34 1000.7) rotate(-83.22)"/><ellipse class="cls-21" cx="553.39" cy="506.29" rx="1.12" ry="1.41" transform="matrix(0.04, -1, 1, 0.04, 24.13, 1037.74)"/><ellipse class="cls-21" cx="636.42" cy="544.8" rx="3.01" ry="2.55" transform="translate(-6.88 8.15) rotate(-0.73)"/><ellipse class="cls-21" cx="643.25" cy="543.58" rx="1.27" ry="1.51" transform="translate(83.05 1172.42) rotate(-88.5)"/><ellipse class="cls-21" cx="442.44" cy="507.06" rx="0.77" ry="0.92" transform="translate(-107.07 895.53) rotate(-84.15)"/><ellipse class="cls-21" cx="585.37" cy="533" rx="0.77" ry="0.92" transform="translate(7.77 1074.41) rotate(-85.47)"/><ellipse class="cls-21" cx="476.57" cy="558.57" rx="0.92" ry="0.77" transform="matrix(0.99, -0.14, 0.14, 0.99, -72.99, 71.63)"/><ellipse class="cls-21" cx="496.15" cy="558.62" rx="0.92" ry="0.77" transform="translate(-2.89 2.58) rotate(-0.3)"/><ellipse class="cls-21" cx="496.46" cy="559.96" rx="1.09" ry="2.08" transform="translate(-85.3 1030.69) rotate(-87.42)"/><ellipse class="cls-21" cx="485.64" cy="563.17" rx="1.09" ry="2.08" transform="translate(-108.12 1010.89) rotate(-86.25)"/><ellipse class="cls-21" cx="514.82" cy="562.6" rx="1.27" ry="1.51" transform="translate(-51.18 1073.69) rotate(-89.62)"/><ellipse class="cls-21" cx="501.06" cy="557.86" rx="1.27" ry="1.92" transform="translate(-66.2 1048.25) rotate(-88.91)"/><ellipse class="cls-21" cx="902.04" cy="480.02" rx="1.27" ry="1.51" transform="translate(354.91 1343.01) rotate(-85.64)"/><ellipse class="cls-21" cx="898.59" cy="483.99" rx="2.03" ry="1.72" transform="translate(-38.96 80.63) rotate(-5.03)"/><ellipse class="cls-21" cx="491.95" cy="556.92" rx="1.84" ry="1.55" transform="matrix(1, -0.04, 0.04, 1, -22.27, 20.5)"/><ellipse class="cls-21" cx="452.43" cy="507.41" rx="1.27" ry="2.76" transform="translate(-63.25 950.39) rotate(-88.94)"/><ellipse class="cls-21" cx="908.41" cy="483.64" rx="1.68" ry="3.65" transform="translate(376.27 1364.51) rotate(-86.89)"/><ellipse class="cls-21" cx="976.54" cy="507.79" rx="1.12" ry="1.41" transform="translate(373.4 1428.49) rotate(-84.25)"/><ellipse class="cls-21" cx="889.42" cy="522.25" rx="3.01" ry="2.55" transform="translate(-6.58 11.37) rotate(-0.73)"/><path class="cls-21" d="M996.87,554.05a1.48,1.48,0,0,1,0-.3,1.8,1.8,0,0,1,2.07-1.23,1.59,1.59,0,0,1,1.46,1.31,2.5,2.5,0,0,1,1.57,2.71,3.21,3.21,0,0,1-3.68,2.19,2.73,2.73,0,0,1-2.62-3A3.88,3.88,0,0,1,996.87,554.05Z"/><ellipse class="cls-21" cx="896.25" cy="521.03" rx="1.27" ry="1.51" transform="translate(351.98 1403.36) rotate(-88.5)"/><ellipse class="cls-21" cx="917.08" cy="555.43" rx="0.77" ry="0.92" transform="translate(290.91 1425.74) rotate(-85.47)"/><ellipse class="cls-21" cx="955.6" cy="558.87" rx="1.27" ry="1.51" transform="translate(325.77 1469.27) rotate(-85.64)"/><ellipse class="cls-21" cx="952.15" cy="562.85" rx="2.03" ry="1.72" transform="translate(-45.67 85.62) rotate(-5.03)"/><ellipse class="cls-21" cx="961.97" cy="562.49" rx="1.68" ry="3.65" transform="translate(348.18 1492.56) rotate(-86.89)"/></g><path class="cls-22" d="M0,320.65c5.53-.58,11.07-1,16.61-1.28s11.1-.43,16.66-.45a325.81,325.81,0,0,1,33.34,1.36,204.27,204.27,0,0,1,33,5.65c1.35.36,2.72.66,4.06,1.07l4,1.3,4,1.3,3.92,1.33c2.61.87,5.19,1.84,7.82,2.64l7.89,2.4a238.3,238.3,0,0,0,32.19,6.79l2,.3,2,.23,4.09.45c2.72.3,5.46.43,8.19.66,5.47.24,10.94.43,16.43.26s11-.46,16.48-.83c2.76-.17,5.59-.39,8.37-.44l8.37-.16c2.79,0,5.58-.17,8.37-.11l8.37.25,4.19.12,2.09.07,2.09.16,8.35.66,4.18.32c1.39.15,2.77.37,4.15.54l8.31,1.12,2.08.29,2.06.39,4.12.77,4.12.78c1.37.27,2.75.48,4.1.85,5.42,1.36,10.89,2.52,16.21,4.27l4,1.21,2,.61c.67.21,1.32.47,2,.7l7.87,2.85a239.13,239.13,0,0,1,30.19,14.38,326.48,326.48,0,0,1,28,18.18c4.53,3.21,9,6.53,13.41,9.87s8.75,6.85,13.07,10.33c8.62,7,17,14.24,25.62,21.21A331.25,331.25,0,0,0,465,452.85a214.17,214.17,0,0,0,59.64,27.79A278.6,278.6,0,0,0,556.8,488c10.86,1.82,21.81,3.07,32.8,3.91l8.25.53c2.75.19,5.51.21,8.26.32l16.54.52a566.62,566.62,0,0,0,66-3.75c21.92-2.67,43.77-6.19,65.69-9.61s44-6.4,66.09-8.66l16.61-1.43c2.77-.23,5.54-.51,8.31-.69l8.33-.47,16.64-.94c2.77-.19,5.55-.22,8.33-.29l8.33-.21c44.44-1.06,88.85,1,133,5l0,.56c-44.29-2.09-88.62-3.08-132.84-1.13l-8.29.33c-2.76.11-5.52.18-8.28.42L854,473.52l-8.27.6c-2.76.22-5.51.54-8.26.81L821,476.61c-5.5.57-11,1.39-16.46,2s-11,1.33-16.44,2.17l-16.42,2.39-16.41,2.6-16.43,2.58c-5.47.86-11,1.72-16.46,2.51l-8.24,1.22c-2.75.41-5.49.82-8.26,1.14l-16.56,2.05a568,568,0,0,1-66.75,3.21l-16.7-.66c-2.78-.14-5.57-.18-8.35-.39l-8.34-.65c-11.1-1-22.18-2.45-33.16-4.47a239.94,239.94,0,0,1-63.59-20.52,222.81,222.81,0,0,1-28.79-17c-4.57-3.18-9.07-6.46-13.45-9.89s-8.72-6.89-13-10.44c-8.53-7.11-16.94-14.33-25.49-21.36s-17.43-13.64-26.46-20a299,299,0,0,0-28-17.64A234.68,234.68,0,0,0,327.07,362l-7.83-2.62c-.65-.22-1.29-.46-1.95-.65l-2-.55-4-1.1c-5.26-1.59-10.68-2.6-16-3.81-1.34-.33-2.7-.51-4.06-.74l-4.07-.67-4.06-.67-2-.33-2.05-.23-8.2-.91c-1.36-.14-2.72-.32-4.09-.43l-4.12-.27-8.23-.54-2.06-.13-2.07,0-4.12-.07-8.26-.16c-2.75-.05-5.5.1-8.25.13l-8.26.19c-2.75.05-5.46.27-8.23.45-5.53.39-11.13.68-16.73.77s-11.22-.09-16.82-.37c-2.79-.25-5.59-.41-8.38-.73l-4.18-.48-2.08-.25-2.08-.32a237.4,237.4,0,0,1-32.75-7.34l-8-2.54c-2.66-.85-5.26-1.88-7.89-2.81l-3.93-1.43L106.42,332l-3.87-1.34c-1.3-.42-2.63-.74-4-1.12-5.25-1.56-10.64-2.68-16-3.77l-8.13-1.42-8.19-1.13a391.56,391.56,0,0,0-66.23-2Z"/></g></g></svg>