<svg xmlns="http://www.w3.org/2000/svg" xmlns:xlink="http://www.w3.org/1999/xlink" viewBox="0 0 1020 574"><defs><style>.cls-1,.cls-21{fill:none;}.cls-2{fill:url(#Unbenannter_Verlauf_18);}.cls-3{opacity:0.5;}.cls-4{fill:#fff;}.cls-5{clip-path:url(#clip-path);}.cls-6{fill:#7d7a7b;}.cls-7{fill:url(#Unbenannter_Verlauf_48);}.cls-8{fill:#626061;}.cls-9{fill:#3c3c3d;}.cls-10{fill:#aeacac;}.cls-11{fill:#908d8d;}.cls-12{fill:url(#Unbenannter_Verlauf_49);}.cls-13{fill:url(#Unbenannter_Verlauf_49-2);}.cls-14{fill:#a4a1a1;}.cls-15{fill:#cfcdcd;}.cls-16{fill:#747172;}.cls-17{fill:#9a9797;}.cls-18{fill:#e6e5e5;}.cls-19{fill:#dad9d9;}.cls-20{fill:#c4c1c2;}.cls-21{stroke:#3c3c3d;stroke-miterlimit:10;stroke-width:2.81px;}</style><linearGradient id="Unbenannter_Verlauf_18" x1="510" y1="574" x2="510" gradientUnits="userSpaceOnUse"><stop offset="0" stop-color="#e9f2fb"/><stop offset="1" stop-color="#d3e5f7"/></linearGradient><clipPath id="clip-path"><rect class="cls-1" width="1020" height="574"/></clipPath><linearGradient id="Unbenannter_Verlauf_48" x1="62.63" y1="634.52" x2="62.63" y2="464.54" gradientUnits="userSpaceOnUse"><stop offset="0" stop-color="#908d8d"/><stop offset="1" stop-color="#a4a1a1"/></linearGradient><linearGradient id="Unbenannter_Verlauf_49" x1="477.34" y1="219.81" x2="477.34" y2="219.61" gradientUnits="userSpaceOnUse"><stop offset="0" stop-color="#a4a1a1"/><stop offset="1" stop-color="#908d8d"/></linearGradient><linearGradient id="Unbenannter_Verlauf_49-2" x1="223.46" y1="492.19" x2="223.46" y2="-46.46" xlink:href="#Unbenannter_Verlauf_49"/></defs><title>Frame 1</title><g id="Himmel"><rect class="cls-2" width="1020" height="574"/></g><g id="Figur"><g class="cls-3"><path class="cls-4" d="M516.65,324.17c19.64-4.65,39.37-8.76,59.12-12.68,9.88-2,19.78-3.83,29.67-5.74l29.71-5.43q29.73-5.28,59.61-9.65l29.89-4.35,29.87-4.42L874,264l59.77-8.75,29.88-4.38,29.89-4.3.16,1L964,252.93l-29.73,5.33-59.45,10.65-119,20.89-29.74,5.28-29.72,5.36q-29.73,5.32-59.6,9.75l-29.9,4.27c-10,1.33-20,2.75-30,4-20,2.55-40,4.91-60.09,6.73Z"/><path class="cls-4" d="M516.77,324.16c16.17-.28,32.3,0,48.42.42,8.07.17,16.12.55,24.17.82l24.15,1.13q24.13,1.28,48.21,3.48l24.07,2.23,24.08,2.14,96.32,8.35,48.15,4.39,24.07,2.19,24.07,2.27-.07,1-24.15-1.15-24.14-1.24-48.28-2.47-96.54-5.36-24.14-1.28L661,339.88q-24.13-1.23-48.22-3.37l-24.06-2.3c-8-.87-16-1.64-24-2.61-16-1.84-32-3.87-48-6.44Z"/><path class="cls-4" d="M516.83,324.3c20.16,4.54,40.21,9.47,60.22,14.55,10,2.49,20,5.14,30,7.71L637,354.5c10,2.7,19.92,5.41,29.85,8.21l29.75,8.54L756,388.66l118.91,34.53L993.7,458.08l-.2.72-119.62-32L754.36,394.44l-59.81-16-29.85-8.17c-9.94-2.78-19.85-5.64-29.76-8.51l-29.69-8.79c-9.87-3-19.77-5.93-29.62-9-19.73-6.07-39.42-12.29-59-18.9Z"/><path class="cls-4" d="M516.84,324.44q19.67,8.93,39.08,18.31c6.49,3.1,12.93,6.28,19.4,9.43l19.33,9.56q9.63,4.83,19.24,9.73L633,381.41l38.18,20.08,76.43,40L824,481.65l-.23.44-77.23-38.41-77.12-38.63-38.6-19.23-19.25-9.71q-9.62-4.91-19.15-9.92L573.31,356.1c-6.33-3.4-12.69-6.77-19-10.22q-19-10.26-37.7-21Z"/><path class="cls-4" d="M516.55,324.2c15.65-7.44,31.48-14.36,47.38-21.11,7.93-3.42,15.94-6.65,23.91-10l24-9.68q24.07-9.56,48.46-18.24l24.4-8.65,24.38-8.74,97.41-35.16,48.78-17.38,24.39-8.69L904.09,178l.36.94-24,9.66-24,9.59-48.1,19.18-96.36,38-24.07,9.54-24,9.62q-24.06,9.6-48.43,18.33L591,301.37c-8.18,2.77-16.32,5.63-24.54,8.3-16.39,5.45-32.85,10.71-49.5,15.46Z"/><path class="cls-4" d="M516.45,324.25c17.95-13.61,36.2-26.77,54.55-39.76,9.15-6.55,18.41-12.92,27.61-19.37L626.39,246q27.87-19,56.24-37.2L711,190.61l28.35-18.26L852.62,99.11l56.74-36.45,56.78-36.38.56.83L911.06,65.23l-55.68,38L743.79,179l-27.87,19L688.1,217.05q-27.84,19-56.18,37.29l-28.43,18.13c-9.54,6-19,12-28.61,17.88-19.12,11.83-38.34,23.51-57.87,34.73Z"/><path class="cls-4" d="M516.47,324.4c11-12.27,22.24-24.25,33.6-36.12,5.66-6,11.42-11.83,17.13-17.74L584.48,253q17.37-17.49,35.22-34.48l35.69-34,71.16-68.21C750.37,93.66,774.1,70.94,798,48.37l.53.53c-23,23.43-46.23,46.72-69.33,70.08l-69.59,69.81-34.69,35q-17.34,17.52-35.17,34.53l-17.9,16.94c-6,5.59-12,11.24-18.06,16.77-12.1,11.13-24.29,22.16-36.78,32.89Z"/><path class="cls-4" d="M516.53,324.52q12.62-19.86,25.68-39.43c4.33-6.55,8.73-13,13.1-19.54l13.22-19.46,13.39-19.34,13.56-19.21,27.31-38.3,54.47-76.71L731.93,16l.41.28L679.31,94l-53.24,77.57-26.53,38.84-13.36,19.36L572.63,249l-13.7,19.11c-4.61,6.35-9.18,12.72-13.83,19q-13.86,19-28.16,37.71Z"/></g><g class="cls-5"><path class="cls-6" d="M-105.27,634.52C-34,496.06,31.15,499.74,110.66,498.11c100.76-2.05,103.51-32.21,103.51-32.21L215,461c-20.33-36.43-39.19-63-39.19-63L554.5,465.18c15.16,4.39,36.58,7.77,66.84,8.43,79.52,1.73,144.64-2.2,215.93,145.83Z"/><path class="cls-7" d="M125.05,527.93c100.7,4.38,104.68-30.9,104.68-30.9l.81-4.92c-5.62-10.06-11.13-19.37-16.15-27.57l-.22,1.36s-2.75,30.16-103.51,32.21C31.15,499.74-34,496.06-105.27,634.52L-72,634c18.69-52.59,50.56-96.29,110.2-109.14C87.46,514.22,101.4,526.9,125.05,527.93Z"/><path class="cls-8" d="M198.06,430.25s82,188.85,239.32,204.27c147,14.41,308-13.61,271.21-152.24-27.72-8.18-56.4-8-87.25-8.67-30.26-.66-51.68-4-66.84-8.43L195.82,401.59Z"/><path class="cls-9" d="M190.32,375.41l-40.58-63.27L144.25,336c-23,38.53-44.68-5.24-70.06-29.17-3.29,5.79-14.09,29.56,14.53,52.82,0,0-11,34.27,15.08,30.84,0,0,17.14,27.42,38.39,2.06,0,0,4.8,28.1,32.22,15.08l17.28-13.71Z"/><path class="cls-8" d="M604.89-99.63S638.48-153.1,583.64-173l-514.11,4.8C25.66-162,46.91-136.65,46.91-136.65c-92.54-.68-76.78,67.18-76.78,67.18-38.38,15.77,2.75,54.84,2.75,54.84C-66.2,9.36-29.87,43-29.87,43c-15.08,9.6,14.4,16.45,14.4,16.45-60.32,54.16,9.6,106.25,9.6,106.25-15.08,31.54,22.62,39.76,22.62,39.76-6.68,26.23,14.5,38.19,28,43-2.91-25.26,2.47-49.91,17.37-55.17,27.46-9.69,44.34,3.05,44.34,3.05L143,236.26l.39,1.63,344.06-52.41c7.43-19.58,19-40.92,35.16-44.5,0,0,1.38-29.48,20.57-30.17,0,0,11.65-.68,18.51,8.92l2.91,1.54-3.43,21.28c3.15-1.33,10.48-3,26.44-1.17a13.31,13.31,0,0,1,5.63,2c2.81-4.28,12.16-21.68-6.88-40.12,0,0,20.57-16.45,6.17-37,0,0,43.19-30.16,17.83-75.41,0,0,17.82-7.54,5.48-26.73C615.86-35.88,659.73-61.24,604.89-99.63Z"/><path class="cls-10" d="M144.25,336c-24.58,41.09-47.54-11.4-75.15-33.63-29.57-23.82-34.42-99.4-7-109.09s44.34,3.05,44.34,3.05L143,236.26l12.34,51.41Z"/><path class="cls-11" d="M111.34,232.15s-9.25-26.4-33.93-25.37-17.13,53.47-7.2,63.41c13.39,13.38,25.54,19.71,28.62,29s16.46,36,30.85,19C129.68,318.17,109.63,263.33,111.34,232.15Z"/><path class="cls-10" d="M553.17,292.58c20.52,2.88,29-31.84,46.41-52.18,18.44-21.55,12.88-96.25-12-99-24.36-2.73-28.61,2.5-28.61,2.5l-11.56,4.64-7.54,139.84Z"/><path class="cls-11" d="M407.47,374s14.4-63.75,28.11-100.08c0,0,13.71-69.92,41.81-54.15,0,0,14.4-72,45.24-78.83,0,0,1.24-26.33,17.59-29.79l.24-1.06c2.74-61-36.33-76.09-54.84-144.64l.6-2.47c-22.38-3.57-22.62-13.63-21.72-17.71-16.58-6.5-19.44-28.43-19.65-30.32-5.62,1.79-12.12,2.8-18.18,1.15a17.9,17.9,0,0,1-6.07-3l-.1.21s-7.59,6.34-17.76,5.65C374.23-59,346.8-67.89,332.13-75.85l-.15.47c-22.62,16.19-37.61-15.34-37.61-15.34-12.26,2.23-19.54-4.15-21.83-6.61-4.1,10.19-11,21-22,23.06-12.41,2.33-21.31-1.27-26.7-4.83l0,0c-25.63,32.35-49.13,35.63-64.44,32.6-2.83,11.24-9.82,15.71-17.16,17-1.73,14.3-10,35.87-25.12,46.7a3.89,3.89,0,0,1,.47,1s10.14,25.83-.05,49.93l3.82,7c-40.78,34.27-18.85,93.23-18.85,93.23s8.23,19.19,8.91,63.75c.84,54.15,25.34,101.72,58.27,155.6,37.7,61.69,76,74.89,121.33,93.91,55.53,23.31,100.77.69,100.77.69l1.17-.64C388.9,445.84,388.45,407.9,407.47,374Z"/><path class="cls-8" d="M261.29,260.08s10.26,7.6,21.6-4.11c10.11-10.46,20.05-2.06,28.79,3.59s35.47,15.94,51.41,0,19.12-21.21,30.85-19c15.59,2.92,23.13-1.54,24.16-6.68s3.08,19-7.71,23.65-25.71,9.77-30.34,13.37-25.7,16.45-51.41,10.79S269,280.13,261.29,260.08Z"/><path class="cls-12" d="M477.24,219.73l.15.08a1.81,1.81,0,0,0,0-.2Z"/><path class="cls-13" d="M306.51,481.66c-45.32-19-83.63-32.22-121.33-93.91-32.93-53.88-57.44-101.45-58.27-155.6-.69-44.56-8.91-63.75-8.91-63.75s-21.94-59,18.85-93.23l-3.83-7c10.2-24.1.06-49.93.06-49.93a3.89,3.89,0,0,0-.47-1c15.13-10.83,23.39-32.4,25.11-46.7,7.25-1.29,14.13-5.67,17-16.57a46.78,46.78,0,0,1-15.44-.45c-2.83,11.24-9.82,15.71-17.16,17-1.73,14.3-10,35.87-25.12,46.7a3.89,3.89,0,0,1,.47,1s10.14,25.83-.05,49.93l3.82,7c-40.78,34.27-18.85,93.23-18.85,93.23s8.23,19.19,8.91,63.75c.84,54.15,25.34,101.72,58.27,155.6,37.7,61.69,76,74.89,121.33,93.91A132.29,132.29,0,0,0,350.37,492,133.17,133.17,0,0,1,306.51,481.66Z"/><path class="cls-6" d="M492.35-13.87a210.41,210.41,0,0,1-6.73-20.64l.6-2.47c-22.38-3.57-22.62-13.63-21.72-17.71-16.58-6.5-19.44-28.43-19.65-30.32-5.62,1.79-12.12,2.8-18.18,1.15a17.9,17.9,0,0,1-6.07-3l-.1.21s-7.59,6.34-17.76,5.65C374.23-59,346.8-67.89,332.13-75.85l-.15.47c-22.62,16.19-37.61-15.34-37.61-15.34-12.26,2.23-19.54-4.15-21.83-6.61-4.1,10.19-11,21-22,23.06-12.41,2.33-21.31-1.27-26.7-4.83l0,0c-25.63,32.35-49.13,35.63-64.44,32.6-2.83,11.24-9.82,15.71-17.16,17-1.73,14.3-10,35.87-25.12,46.7a3.89,3.89,0,0,1,.47,1s10.14,25.83-.05,49.93l3.82,7a66.41,66.41,0,0,0-17.21,22c55.65-18.73,33.63-66.35,33.63-66.35a3.17,3.17,0,0,0-.45-.82c14.48-8.81,22.38-26.34,24-38,7-1.07,13.72-4.71,16.43-13.84,14.65,2.46,37.14-.21,61.67-26.51l0,0c5.15,2.9,13.67,5.82,25.55,3.93,10.59-1.69,17.17-10.46,21.09-18.75,2.2,2,9.16,7.19,20.89,5.38,0,0,14.35,25.63,36,12.47l.14-.39c14,6.48,40.29,13.69,67.58-4.15a29.11,29.11,0,0,0,17-4.59l.1-.18a18.53,18.53,0,0,0,5.81,2.41c5.8,1.34,12,.53,17.39-.93.21,1.53,3,19.36,18.81,24.65C468.89-25.08,469.17-16.55,492.35-13.87Z"/><path class="cls-8" d="M311.68,436.42s25.19,23.13,55,12.34c0,0,12.34,22.11-2.57,44.73l28.27-5.14s-2.57-59.64,2.06-81.23C394.45,407.12,354.86,453.9,311.68,436.42Z"/><path class="cls-11" d="M574.73,160.17l10.63-3.09s23,29.82,2,61.7-11.65,35.3-25.36,41.13c0,0,4.8-44.22,11.31-74.38C576,173.25,574.73,160.17,574.73,160.17Z"/><path class="cls-6" d="M400.1,308.58c6.07,8.08,14.36,15.49,18.86,19.27,3.15-11.72,6.71-24.25,10.39-35.79C426,285.3,418.23,273.87,402.67,270c-12.59-3.17-23.64-.3-45.24,8.61-16.71,6.9-35.13,1-55.86,2.53-19.25,1.43-55.19,29-37.19,76.3,0,0,5.25,12.88,8.68,16.65s2.11-5.34,2.11-5.34c-4.62-19.57,10.8-37.28,15.94-41.48S318.87,317,336.87,316.5s30.33-9.32,43.7-7.46S400.1,308.58,400.1,308.58Z"/><path class="cls-9" d="M559.23,292.29c-.29,16.86-.83,41.64-3.69,50.22,0,0,11.9,2,7.11,24.19l2.48.49c37,13,26.74-27.42,26.74-27.42,25.51-.69,18.65-31.54,18.65-31.54,17.82-18.5-11-30.84-11-30.84s23.08-14.63,5.49-46.48a34.19,34.19,0,0,1-5.46,9.49C584,258.61,575.55,288.33,559.23,292.29Z"/><path class="cls-14" d="M412.09,351.76s-13.69,4.66-29.48,19C356.56,394.41,339.94,397,321.94,397s-37.53-6.17-47.81-21.08c0,0-3.88-10.57-4.91-7s1.16,16.42,1.16,16.42,3.77,37.36,38.05,49.79c35.51,12.88,60-5.26,75.61-20,6.11-5.78,10.57-9.2,10.57-9.2s15.9-27.6,16.42-29.65S412.09,351.76,412.09,351.76Z"/><path class="cls-8" d="M404.39,314.4s23.1-13.91,19.33-31.74l6,8.09-11,38.39Z"/><path class="cls-15" d="M313.73,396.46c-22.87-8.74-31.87-30.07-31.87-30.07s-4.23-4.26-7.57-2.46c0,0,1.28,12.08,6.94,18.25,0,0,6.68,9,28,14.4Z"/><path class="cls-11" d="M409.25,350.77c-1,1-7.23-2.92-10.2-8.19l-1,.13a24.6,24.6,0,0,1-1.52,6.61c-1.07,2.42-8.86,3.76-18.8,0l-.32-3.77-.85.12a40.84,40.84,0,0,1,.36,10.06c-10.73,4.93-25.28,4-25.28,4a100.17,100.17,0,0,1-2.48-10.32l-3.09.42a37.57,37.57,0,0,1-.66,10.27c-11,4.11-23.65,1-23.65,1-.66-2.68-1.28-5.28-1.71-7.72l-3,.41c.41,2.08.3,3.66-1.11,4.31l-.63.28a3,3,0,0,1-1.12.66s-11.66,10.63-10,31.45l.4,4s35.73,10,63.24-10.28,42.41-31.11,42.41-31.11l-.85-2.55Z"/><path class="cls-16" d="M365.66,384s.29.46.77,1.25c.48-.33,1-.65,1.43-1,27.5-20.31,42.41-31.11,42.41-31.11l-.85-2.55-.17.19c-1,1-7.23-2.92-10.2-8.19l-1,.13a24.6,24.6,0,0,1-1.52,6.61c-1.07,2.42-8.86,3.76-18.8,0l-.32-3.77-.85.12a40.84,40.84,0,0,1,.36,10.06c-10.73,4.93-25.28,4-25.28,4a100.17,100.17,0,0,1-2.48-10.32l-3.09.42a37.57,37.57,0,0,1-.66,10.27c-11,4.11-23.65,1-23.65,1-.66-2.68-1.28-5.28-1.71-7.72l-3,.41c.41,2.08.3,3.66-1.11,4.31l-.63.28a3,3,0,0,1-1.12.66s-5.73,5.25-8.59,15.56C320.17,372.17,352.86,367.46,365.66,384Z"/><path class="cls-8" d="M278.24,344.69a54,54,0,0,1,12.87-17.47c5.14-4.19,27.76-10.25,45.76-10.72s30.33-9.32,43.7-7.46,19.53-.46,19.53-.46c8.74,11.65,22.11,21.9,22.11,21.9l.4,6.72s-28.28,7.71-31.36,8-64.78,8.23-84.32,9.52c-13.54.89-24.24-4.89-29.53-8.52Z"/><path class="cls-17" d="M644.65,656.46s-24-41.81-55.52-70.6-43.87-76.09-37.7-96,10.28-62.38,8.22-69.92-2.74-28.79,2.74-52.1-6.85-25.36-6.85-25.36c4.11-12.34,3.43-58.27,4.11-65.81s4.8-43.18,6.86-56.89,13.71-58.27,6.17-66.5-12.34-5.48-12.34-5.48l4.28-26.56-2.91-1.54c-6.86-9.6-18.51-8.92-18.51-8.92C524,111.5,522.63,141,522.63,141c-30.84,6.85-45.24,78.83-45.24,78.83C449.29,204,435.58,274,435.58,274,421.87,310.29,407.47,374,407.47,374c-28.1,50-13.71,109-8.22,157s48,78.83,65.12,90.48,24,31.53,24,31.53Z"/><path class="cls-14" d="M589.13,585.86c-30.14-27.52-42.73-71.93-38.4-93.16L440.46,603a219.42,219.42,0,0,0,23.91,18.54c17.14,11.65,24,31.53,24,31.53l156.29,3.43S620.66,614.65,589.13,585.86Z"/><path class="cls-9" d="M214.45,465.92a14.27,14.27,0,0,1-2.24,5.83,28.25,28.25,0,0,1-3.93,4.86,48.11,48.11,0,0,1-10,7.4,79.71,79.71,0,0,1-11.21,5.22,116.94,116.94,0,0,1-11.72,3.82c-15.86,4.26-32.18,6.17-48.44,6.76s-32.46-.57-48.62,0c-8.07.25-16.14.75-24.14,1.76q-6,.72-11.93,1.87c-4,.76-7.88,1.62-11.75,2.64A153.1,153.1,0,0,0-32.29,539.3c-3,2.61-5.92,5.32-8.79,8.08S-46.71,553-49.42,556a327.2,327.2,0,0,0-29.79,37.71c-9.12,13.26-17.58,27-25.81,41l-.5-.25a375.1,375.1,0,0,1,22.6-43.14,263.76,263.76,0,0,1,29.09-39.35A181.07,181.07,0,0,1-36.1,534.83,162.34,162.34,0,0,1-16,520.49,136.84,136.84,0,0,1,6.14,509.66,148.43,148.43,0,0,1,29.78,503,230.46,230.46,0,0,1,54,499.61c8.09-.76,16.19-1.23,24.28-1.63,16.18-.78,32.41-1.52,48.43-2.8,8-.65,16-1.38,24-2.33l6-.8c2-.28,3.95-.63,5.93-.94l5.9-1.06q2.94-.6,5.86-1.25c1.93-.49,3.88-.92,5.79-1.47l2.88-.79,2.85-.89a96.58,96.58,0,0,0,11.08-4.31,50.24,50.24,0,0,0,10-6.2,28.7,28.7,0,0,0,4.17-4.15,14.2,14.2,0,0,0,2.77-5.12Z"/><path class="cls-9" d="M554.57,464.91c14.39,2.45,28.7,4,43.13,5,7.21.46,14.41,1.09,21.64,1.71s14.54.84,21.81,1.25c14.56.77,29.14,1.35,43.66,3.2s29,5,42.67,10.76A144.9,144.9,0,0,1,765,510.33c2.84,2.38,5.55,4.9,8.23,7.44,1.33,1.29,2.61,2.61,3.91,3.92s2.56,2.66,3.8,4a213.64,213.64,0,0,1,14.07,17,308.93,308.93,0,0,1,23.64,37.06,406.14,406.14,0,0,1,18.89,39.51l-.51.25c-14.1-25.48-28.83-50.59-46.59-73.32-4.43-5.68-9.1-11.15-13.92-16.47-1.21-1.33-2.46-2.61-3.68-3.93s-2.51-2.56-3.79-3.81c-2.55-2.52-5.13-5-7.82-7.36a160.53,160.53,0,0,0-16.94-13.15A149.41,149.41,0,0,0,725.64,491a153.26,153.26,0,0,0-41.14-12.8,261.12,261.12,0,0,0-43.4-3c-7.28,0-14.55.14-21.86.31a165.87,165.87,0,0,1-22-.57,190.81,190.81,0,0,1-21.78-3.18,117.83,117.83,0,0,1-21.09-6.27Z"/><path class="cls-9" d="M106.31,196.56a37,37,0,0,0-7.66-3.09,48.45,48.45,0,0,0-8-1.63,53.93,53.93,0,0,0-8.13-.31,60.56,60.56,0,0,0-8.06.88,62.7,62.7,0,0,0-7.86,2c-1.29.38-2.6.85-3.82,1.29a15.12,15.12,0,0,0-3.2,1.7c-4,2.8-6.88,7.3-9,12.17a68.49,68.49,0,0,0-4.35,15.65,85.59,85.59,0,0,0-1,16.56,94,94,0,0,0,7,32.46A79.49,79.49,0,0,0,60,288.69a58.91,58.91,0,0,0,5,6.36,43.25,43.25,0,0,0,5.82,5.43,109,109,0,0,1,12.57,11.78c1.94,2.08,3.83,4.2,5.69,6.32L94.5,325c3.61,4.27,7.06,8.64,10.8,12.65s7.59,7.88,12,10.5a16.34,16.34,0,0,0,7,2.26,13.08,13.08,0,0,0,7.12-1.79,27.32,27.32,0,0,0,6.25-5,61.36,61.36,0,0,0,5.31-6.42l.48.29a47.91,47.91,0,0,1-4.31,7.37,27.25,27.25,0,0,1-6.12,6.3,17.44,17.44,0,0,1-4.06,2.2,15.09,15.09,0,0,1-4.67.93,19.28,19.28,0,0,1-9.1-2.06,39.18,39.18,0,0,1-7.52-4.85,83.56,83.56,0,0,1-6.44-5.83c-2-2.05-3.94-4.15-5.83-6.27s-3.74-4.24-5.53-6.41c-7.25-8.54-14-17.45-22.27-24.47a46.83,46.83,0,0,1-6.18-6.34,57.76,57.76,0,0,1-4.91-7.22,84.45,84.45,0,0,1-6.84-15.74,149.08,149.08,0,0,1-6.47-33.26,121.12,121.12,0,0,1-.31-17.05,60,60,0,0,1,3.25-17,43.14,43.14,0,0,1,1.75-4.1,33.61,33.61,0,0,1,2.3-3.91,23.86,23.86,0,0,1,6.59-6.54,20.31,20.31,0,0,1,4.27-2.14c1.43-.48,2.76-.92,4.18-1.3a63.93,63.93,0,0,1,8.55-1.67,50.18,50.18,0,0,1,17.33.79,42.73,42.73,0,0,1,8.21,2.72,31.4,31.4,0,0,1,7.32,4.48Z"/><path class="cls-9" d="M104.92,247.92a9.38,9.38,0,0,0-.64,7,26.09,26.09,0,0,0,2.59,6.53c2.16,3.9,5.78,7.31,9,11.52a37,37,0,0,1,4.2,6.94,24,24,0,0,1,1.32,4,16.28,16.28,0,0,1,.44,2.05L122,288a11,11,0,0,1,0,2.07c0,.69-.06,1.37-.12,2.05-.28,1.34-.49,2.67-.89,3.95a34.78,34.78,0,0,1-1.46,3.68c-.62,1.16-1.25,2.3-2,3.38.11-1.31.28-2.57.46-3.81s.13-2.5.23-3.71a15.58,15.58,0,0,0,0-1.81l0-1.78-.26-1.74a12.23,12.23,0,0,0-.3-1.71,21.55,21.55,0,0,0-1-3.26,26,26,0,0,0-1.39-3.1c-.27-.5-.58-1-.87-1.49l-.44-.75-.5-.72-1-1.47-1.08-1.44c-1.46-1.95-3-3.87-4.58-6a29.2,29.2,0,0,1-3.94-7.18,21.85,21.85,0,0,1-1.29-8.06,11.83,11.83,0,0,1,.88-4.06A6.66,6.66,0,0,1,104.92,247.92Z"/><path class="cls-9" d="M109,233.15a32.41,32.41,0,0,0-1.55-3.23c-.59-1.09-1.22-2.16-1.91-3.2a48.31,48.31,0,0,0-4.54-6,43.15,43.15,0,0,0-11.75-9.34,41.18,41.18,0,0,0-14.48-4.59,53.92,53.92,0,0,0-15.47.45,54.22,54.22,0,0,1,15.58-1.71,43.3,43.3,0,0,1,15.48,3.57,46.71,46.71,0,0,1,13.37,9,54.57,54.57,0,0,1,5.42,6c.84,1.08,1.63,2.19,2.37,3.34a35.8,35.8,0,0,1,2.13,3.65Z"/><path class="cls-9" d="M66,264.41c-.88-2.43-1.64-4.91-2.41-7.39s-1.21-5-1.76-7.59a38.73,38.73,0,0,1-.61-3.86l-.51-3.88c-.12-1.3-.14-2.61-.21-3.92s-.16-2.61-.08-3.93A49.07,49.07,0,0,1,63,218.3a31,31,0,0,1,3.51-7.11,17.27,17.27,0,0,1,5.62-5.44,20.9,20.9,0,0,0-4.44,6.15,37,37,0,0,0-2.59,7,33.46,33.46,0,0,0-.82,3.67,36.08,36.08,0,0,0-.56,3.73c-.11,1.25-.29,2.5-.38,3.76l-.11,3.78c-.1,1.26,0,2.53,0,3.8l.12,3.8c.22,2.53.36,5.08.63,7.62.16,1.27.34,2.53.47,3.81s.23,2.56.48,3.82C65.36,259.28,65.76,261.82,66,264.41Z"/><path class="cls-9" d="M560.85,142.47a10.73,10.73,0,0,1,2.92-1.76,21.78,21.78,0,0,1,3.19-1.08,37,37,0,0,1,6.59-1.11,68.62,68.62,0,0,1,13.22.3l.82.09.41.05.47.08a13.23,13.23,0,0,1,1.86.44A16.06,16.06,0,0,1,593.8,141a21,21,0,0,1,5.52,4.7,37.62,37.62,0,0,1,6.56,11.95c3,8.44,4,17.16,4.78,25.78a184.9,184.9,0,0,1,.42,26,103,103,0,0,1-1.53,13,54.64,54.64,0,0,1-3.88,12.8,32.23,32.23,0,0,1-3.54,6c-.76,1-1.34,1.7-2,2.56s-1.23,1.68-1.81,2.54a124.65,124.65,0,0,0-6.45,10.8c-4.06,7.42-7.93,15.12-12.74,22.52a44.48,44.48,0,0,1-8.74,10.21,17.37,17.37,0,0,1-6.11,3.27,12.32,12.32,0,0,1-6.76,0l.09-.56a12.47,12.47,0,0,0,5.94-1.33,16.49,16.49,0,0,0,4.66-3.7,35.67,35.67,0,0,0,3.64-4.91c1.11-1.75,2.14-3.57,3.1-5.43,3.92-7.45,7.28-15.42,11.7-23a103.7,103.7,0,0,1,7.32-11c.67-.89,1.37-1.76,2.09-2.61l2.11-2.44a27.48,27.48,0,0,0,3.29-5c3.83-7.19,6-15.57,7.21-24a97.21,97.21,0,0,0,.06-25.56,86.82,86.82,0,0,0-6.91-24.36A44,44,0,0,0,595.49,149a17.78,17.78,0,0,0-4.23-3.67,11.43,11.43,0,0,0-2.41-1.12l-.63-.19-.63-.14-.32-.08-.39-.06-.78-.13A118.13,118.13,0,0,0,573.59,142a52.49,52.49,0,0,0-6.27-.12,20.29,20.29,0,0,0-6.13,1Z"/><path class="cls-9" d="M574,156.58a38,38,0,0,1,10.42-1.64,47.94,47.94,0,0,1,10.13,1,45.78,45.78,0,0,0-9.78,1.55,33.86,33.86,0,0,0-8.72,3.76Z"/><path class="cls-9" d="M583.54,154.83a10.31,10.31,0,0,1,1.71,1.09c.5.39,1,.79,1.43,1.21s.87.87,1.28,1.32l1.15,1.42a30.55,30.55,0,0,1,3.57,6.21l.7,1.63c.23.54.38,1.12.57,1.67a31.8,31.8,0,0,1,1,3.38c.26,1.14.56,2.28.78,3.42l.53,3.46c.21,1.15.25,2.31.35,3.47s.19,2.31.25,3.47c0,2.32.09,4.64,0,6.94s-.21,4.62-.44,6.92l-.79,6.87.44-6.9c.11-2.29.05-4.6.08-6.89s-.23-4.59-.34-6.87c-.11-1.14-.28-2.27-.41-3.41s-.26-2.27-.52-3.38l-.68-3.34c-.28-1.11-.62-2.19-.93-3.28a32.58,32.58,0,0,0-1.12-3.19c-.22-.52-.38-1.06-.63-1.56l-.74-1.51a28.68,28.68,0,0,0-3.58-5.58l-1.09-1.21c-.39-.38-.79-.73-1.18-1.1s-.84-.66-1.26-1l-.64-.42c-.2-.09-.48-.26-.59-.3Z"/><path class="cls-9" d="M485.62-34.51c1.85,6.27,3.93,12.46,6.3,18.54s5.06,12,8,17.84c5.83,11.66,12.8,22.66,19.75,33.74s13.68,22.53,18,35.19a103.71,103.71,0,0,1,4.58,19.48,125.93,125.93,0,0,1,1,20l-5.62-.26a119.88,119.88,0,0,0-.3-19.14,99.46,99.46,0,0,0-3.71-18.77c-3.7-12.28-9.89-23.75-16.4-35S504.07,14.41,498.63,2.48c-2.72-6-5.22-12-7.37-18.21S487.24-28.18,485.62-34.51Z"/><path class="cls-9" d="M391.71,482.35a100.85,100.85,0,0,1-17.5,6.21,130.18,130.18,0,0,1-18.3,3.4,132,132,0,0,1-37.18-1.2,138.33,138.33,0,0,1-18.13-4.49c-6-1.89-11.68-4.37-17.41-6.67-11.46-4.67-23-9.32-34.16-14.82a190.24,190.24,0,0,1-31.89-19.52A177.59,177.59,0,0,1,190,419.45q-6.08-7.14-11.56-14.74c-3.62-5.08-7.06-10.29-10.36-15.58-6.52-10.55-12.91-21.19-19-32S137.2,335.26,132,324a283.65,283.65,0,0,1-13.62-34.87,212.14,212.14,0,0,1-8.1-36.66c-.78-6.23-1.25-12.5-1.41-18.77l-.27-9.25c-.17-3.07-.28-6.14-.51-9.2a217.59,217.59,0,0,0-5.22-36.27,86.92,86.92,0,0,0-2.54-8.62,81.65,81.65,0,0,1-2.86-9.13c-.78-3.07-1.46-6.17-2-9.29s-.91-6.27-1.17-9.43-.4-6.34-.4-9.51.24-6.36.58-9.52a76.91,76.91,0,0,1,4.32-18.57,64.71,64.71,0,0,1,3.93-8.69,59,59,0,0,1,5.15-8,62.43,62.43,0,0,1,13.45-13,73.46,73.46,0,0,0-11.41,14.41,75.21,75.21,0,0,0-4.16,8.08,79.26,79.26,0,0,0-3.09,8.5,71.35,71.35,0,0,0-2,8.79,89.66,89.66,0,0,0-1.12,9c-.22,3-.28,6-.22,9s.19,6,.49,9,.7,6,1.23,9,1.09,5.95,1.81,8.88a72.17,72.17,0,0,0,2.59,8.62,91.81,91.81,0,0,1,2.69,9.19,220.11,220.11,0,0,1,5.21,37.22c.21,3.11.31,6.23.47,9.35l.22,9.32q.19,9.15,1.28,18.27A208,208,0,0,0,123,287.65c7.21,23.46,18,45.76,29.89,67.35,6,10.81,12.26,21.45,18.66,32q4.82,7.86,10.09,15.44c3.55,5,7.26,9.9,11.19,14.61a175.65,175.65,0,0,0,26.3,25.64,188.88,188.88,0,0,0,31.16,19.58c11,5.62,22.36,10.45,33.75,15.3,5.73,2.41,11.34,5,17.16,6.92A135.33,135.33,0,0,0,319,489.26a132.37,132.37,0,0,0,55.09-1.12A100.83,100.83,0,0,0,391.71,482.35Z"/><path class="cls-9" d="M175.78,398a327.36,327.36,0,0,1,21.7,29q10.1,15,19,30.87c5.95,10.52,11.39,21.33,16.38,32.34a283.5,283.5,0,0,1,12.86,33.9c-1.46-2.65-2.85-5.33-4.23-8l-2.05-4-2.13-4c-1.4-2.67-2.74-5.35-4.16-8s-2.86-5.28-4.26-7.93c-5.69-10.57-11.41-21.1-17.32-31.54s-11.81-20.89-17.81-31.3S181.71,408.57,175.78,398Z"/><path class="cls-9" d="M296.42,515.94C300,522.59,303.88,529,308,535.28a189.91,189.91,0,0,0,13.41,18A128.45,128.45,0,0,0,337.19,569a104.18,104.18,0,0,0,9,6.6,95.13,95.13,0,0,0,9.85,5.46,63.87,63.87,0,0,1-10.54-4.26,78.34,78.34,0,0,1-9.67-6.07,96.22,96.22,0,0,1-8.75-7.36q-4.11-4-7.84-8.32c-2.43-2.93-4.77-5.93-7-9s-4.26-6.29-6.15-9.58A118.92,118.92,0,0,1,296.42,515.94Z"/><path class="cls-14" d="M59.93,515.25a276.62,276.62,0,0,1,32,3.39c10.59,1.74,21.12,3.84,31.55,6.39s20.77,5.47,31,8.7,20.34,6.95,30.34,10.89c2.49,1,5,2,7.45,3.07l7.4,3.19q7.32,3.23,14.66,6.36c9.78,4.24,19.66,8.22,29.59,12s20,7.37,30.18,10.33c5.1,1.5,10.25,2.84,15.46,3.85a77.39,77.39,0,0,0,7.87,1.18c1.32.14,2.65.22,4,.23a15.1,15.1,0,0,0,4-.4,15.11,15.11,0,0,1-3.94.82c-1.34.13-2.69.2-4,.2a75,75,0,0,1-8.06-.49,150.17,150.17,0,0,1-15.91-2.72c-5.25-1.18-10.45-2.55-15.62-4s-10.28-3.14-15.36-4.85c-2.55-.85-5.08-1.75-7.62-2.62L227.24,568q-7.52-2.85-15-5.86c-5-2-9.9-4.14-14.82-6.23l-7.35-3.1-7.39-3c-9.85-4-19.84-7.64-29.91-11.06-5-1.74-10.09-3.37-15.17-5L130,531.51q-3.81-1.15-7.65-2.25c-5.12-1.46-10.27-2.82-15.43-4.15s-10.33-2.59-15.53-3.76C81,519,70.51,516.87,59.93,515.25Z"/><path class="cls-9" d="M640.54,491.94c-7.78.84-15.5,2.12-23.18,3.56s-15.32,3.11-22.92,4.94c-3.79,1-7.59,1.86-11.35,2.9l-5.65,1.53-5.63,1.63c-3.76,1.05-7.47,2.27-11.2,3.41s-7.42,2.43-11.12,3.65l-.87-2.68c3.76-1.11,7.51-2.27,11.28-3.33s7.54-2.14,11.35-3.08l5.69-1.47,5.72-1.36c3.81-.94,7.65-1.73,11.47-2.58q11.5-2.4,23.11-4.26C625,493.6,632.74,492.54,640.54,491.94Z"/><path class="cls-9" d="M477.25,221.38a12,12,0,0,1,4.24,1.77,14.83,14.83,0,0,1,1.86,1.4,14.46,14.46,0,0,1,1.64,1.68l.19.22-.06.37c-.55,3.11-1.14,6.22-1.74,9.32s-1.22,6.2-1.89,9.29l0-.63A36.3,36.3,0,0,1,483,254a31.52,31.52,0,0,1-.95,9.22,30.7,30.7,0,0,1-1.5,4.39c-.32.71-.66,1.41-1,2.09l-1.09,2a37,37,0,0,0-3.75,8,53.63,53.63,0,0,0-1.5,8.79c-.3,3-.52,6-.69,9-.4,6-.63,12-1.13,18-1,12-2.56,23.92-4.66,35.73l-3.15,17.68c-.52,2.94-1,5.89-1.38,8.85a64.73,64.73,0,0,0-.71,8.91l-.28,0c-.76-6-.15-12.08.41-18.05s1.46-11.93,2.3-17.86c1.68-11.86,3.68-23.65,5.08-35.52.69-5.93,1.45-11.9,2.19-17.84l1.13-8.94c.18-1.49.38-3,.62-4.47a40.27,40.27,0,0,1,.89-4.45,49.59,49.59,0,0,1,3.37-8.43l.93-2c.3-.67.57-1.34.81-2a27.91,27.91,0,0,0,1.1-4.2,38.6,38.6,0,0,0,.49-8.66,40.32,40.32,0,0,0-1.31-8.54l-.09-.34.06-.29c.7-3.09,1.48-6.15,2.22-9.22s1.56-6.13,2.38-9.18l.13.58a16,16,0,0,0-2.89-3.2,13.11,13.11,0,0,0-1.79-1.26,10.68,10.68,0,0,0-2-1Z"/><path class="cls-9" d="M483.34,228.2a9.88,9.88,0,0,0-1.26-1.4,14.64,14.64,0,0,0-1.54-1.27,13.49,13.49,0,0,0-3.61-1.83,13.65,13.65,0,0,0-4.08-.7,16.71,16.71,0,0,0-2.12.09c-.71.07-1.41.24-2.12.36.68-.23,1.35-.52,2.05-.71a17.06,17.06,0,0,1,2.15-.44,14.45,14.45,0,0,1,4.45,0,15,15,0,0,1,4.35,1.37,17.33,17.33,0,0,1,2,1.16,12.91,12.91,0,0,1,1.89,1.54Z"/><path class="cls-9" d="M481.78,246.21a19.51,19.51,0,0,1-2.06,4.14,9.82,9.82,0,0,1-3.45,3.35,5.29,5.29,0,0,1-2.54.6,5.82,5.82,0,0,1-2.45-.65,11.61,11.61,0,0,1-3.46-3,20.92,20.92,0,0,1-2.35-3.72,23.12,23.12,0,0,1-1.64-4,13,13,0,0,1,0-8.52,12.66,12.66,0,0,0,.62,8.3,23.21,23.21,0,0,0,1.89,3.76,19.66,19.66,0,0,0,2.48,3.32,10.29,10.29,0,0,0,3.17,2.34,3.39,3.39,0,0,0,3.24-.22,7.67,7.67,0,0,0,2.38-2.8,17.37,17.37,0,0,0,1.46-3.66Z"/><path class="cls-9" d="M521.14,142.86a16.91,16.91,0,0,1,6.33-.81,16,16,0,0,1,6.28,1.63,16.62,16.62,0,0,1,5.16,4,24,24,0,0,1,3.51,5.53l-.22-.31,2.62,2.53.53.51-.31.7c-1.47,3.27-2.89,6.56-4.38,9.82s-2.94,6.54-4.46,9.79-3,6.5-4.59,9.73l-4.74,9.65.07-.23c-2.76,14.16-5.14,28.39-7,42.7l-2.71,21.46L516,270.32c-.43,3.57-.83,7.15-1.17,10.72l-1,10.77c-.32,3.59-.72,7.2-1.15,10.79s-1,7.18-1.49,10.73L509.73,324c-.91,7.14-1.76,14.29-2.47,21.45-.36,3.58-.64,7.16-.87,10.75a99.47,99.47,0,0,0-.24,10.78l-.28,0a85.34,85.34,0,0,1-.62-10.84c0-3.62.1-7.23.25-10.85.3-7.22.88-14.43,1.61-21.62s1.72-14.37,2.58-21.49,1.53-14.28,2.36-21.48c1.6-14.39,4.22-28.59,6.69-42.8s4.62-28.47,6.45-42.79v-.1l.06-.13,4.25-9.88c1.44-3.28,2.9-6.56,4.41-9.81s3-6.5,4.54-9.75,3.08-6.47,4.62-9.71l.21,1.21-2.52-2.62-.15-.15-.06-.16a22,22,0,0,0-3-5.23,15.37,15.37,0,0,0-4.47-4,15.2,15.2,0,0,0-5.72-2,16.61,16.61,0,0,0-3.08-.16,16.81,16.81,0,0,0-3.08.36Z"/><path class="cls-9" d="M563.05,122.32a12.45,12.45,0,0,0-2.4-1.57,16.1,16.1,0,0,0-2.79-1.12,16.79,16.79,0,0,0-6-.59,20.93,20.93,0,0,0-6,1.46,30,30,0,0,0-5.59,3l.2-.21a30.85,30.85,0,0,0-2.36,5.41,41.08,41.08,0,0,0-1.52,5.79,45.55,45.55,0,0,0-.73,6,50.56,50.56,0,0,0,0,6,50.74,50.74,0,0,1-.37-6,43.83,43.83,0,0,1,1.62-12,31.64,31.64,0,0,1,2.15-5.79l.06-.1.14-.11a31,31,0,0,1,5.69-3.46,22.54,22.54,0,0,1,6.47-2,19,19,0,0,1,6.88.29,18.63,18.63,0,0,1,3.31,1.1,14.71,14.71,0,0,1,3.13,1.84Z"/><path class="cls-9" d="M536.55,354.48,539,328.54c.41-4.31.79-8.63,1.1-12.94s.59-8.61.55-12.89a98,98,0,0,1,1.24-13.12c.65-4.31,1.4-8.6,2.14-12.88,1.48-8.57,2.9-17.15,4.43-25.72.78-4.28,1.52-8.57,2.44-12.82.44-2.14.91-4.26,1.39-6.39l.74-3.19.7-3.13a143.38,143.38,0,0,0,2.42-25.63c.13-4.32.09-8.65.14-13,0-2.18.06-4.36.19-6.58,0-1.09.18-2.23.3-3.32l.4-3.22,3-25.89.28,0q-.21,13-1.08,26.08l-.26,3.26c-.07,1.07-.14,2.1-.15,3.18,0,2.13,0,4.29,0,6.45.1,4.34.16,8.7.13,13.07A124,124,0,0,1,556.32,226c-.52,2.16-1,4.27-1.61,6.35s-1.1,4.19-1.62,6.3c-1,4.2-2.11,8.41-3.11,12.63-2,8.45-3.77,17-5,25.55-.34,2.14-.58,4.3-.86,6.45s-.46,4.31-.62,6.47a101.36,101.36,0,0,0-.46,12.88,99.16,99.16,0,0,1-.4,13.14q-.55,6.52-1.42,13-1.7,12.94-4.35,25.74Z"/><path class="cls-9" d="M543.07,158a22.17,22.17,0,0,0-3.89-2.37,20.59,20.59,0,0,0-4.34-1.54,14.71,14.71,0,0,0-4.53-.33A12.61,12.61,0,0,0,526,155l.42-.49-11.1,29,9.45-29.6.1-.31.32-.17a14.29,14.29,0,0,1,4.93-1.65,16.48,16.48,0,0,1,5.2.09,22.07,22.07,0,0,1,4.94,1.44,24.62,24.62,0,0,1,4.58,2.48Z"/><path class="cls-9" d="M562.14,147.75a6.16,6.16,0,0,1-.46.63c-.15.19-.31.33-.46.5a9.67,9.67,0,0,1-1,.84,11.89,11.89,0,0,1-2.12,1.29,15.54,15.54,0,0,1-4.58,1.32,23.76,23.76,0,0,1-4.61.15l-2.26-.23-2.23-.39,2.25,0,2.23-.11a22.76,22.76,0,0,0,4.32-.83,13.89,13.89,0,0,0,3.84-1.77,10.86,10.86,0,0,0,1.54-1.31,7,7,0,0,0,.62-.73c.08-.13.18-.26.25-.38a1.52,1.52,0,0,0,.16-.31Z"/><path class="cls-9" d="M504.81,201.64a26.54,26.54,0,0,0,3.5,4,22.4,22.4,0,0,0,4.12,3.09,21.94,21.94,0,0,0,2.29,1.19l1.19.52,1.23.43c.81.33,1.67.49,2.52.76s1.74.37,2.63.64a20.78,20.78,0,0,1-2.74.18,17,17,0,0,1-8-2.27,15.75,15.75,0,0,1-4.23-3.65A12.5,12.5,0,0,1,504.81,201.64Z"/><path class="cls-9" d="M537.37,179.36A3.5,3.5,0,0,0,539,180a9.82,9.82,0,0,0,1.71.1,29.55,29.55,0,0,0,3.48-.44l3.54-.71a34.44,34.44,0,0,1,3.68-.61,15.15,15.15,0,0,1-3.29,1.87,16.6,16.6,0,0,1-3.63,1.11,11.41,11.41,0,0,1-3.87.08,6.14,6.14,0,0,1-1.9-.62A2.84,2.84,0,0,1,537.37,179.36Z"/><path class="cls-9" d="M445.52,323a23.75,23.75,0,0,1,5.21-1.52,34.91,34.91,0,0,1,5.41-.53,28.22,28.22,0,0,1,5.43.43,19.64,19.64,0,0,1,5.2,1.62c-1.83-.1-3.57-.26-5.34-.31s-3.51-.11-5.27-.05C452.64,322.64,449.14,322.86,445.52,323Z"/><path class="cls-9" d="M444.15,330.17a48,48,0,0,0,5.33,1.29,44.09,44.09,0,0,0,5.36.67c.89.07,1.79.12,2.69.12h1.35l1.36,0c1.81,0,3.62-.23,5.5-.34a20.51,20.51,0,0,1-5.37,1.65,23.74,23.74,0,0,1-5.65.29,23.31,23.31,0,0,1-5.56-1.09A15.85,15.85,0,0,1,444.15,330.17Z"/><path class="cls-9" d="M529.83,244.14a9.85,9.85,0,0,1,3.65-1.7,16.9,16.9,0,0,1,4-.5,22,22,0,0,1,4,.37,17,17,0,0,1,3.82,1.15c-1.35.14-2.65.15-3.94.16s-2.57,0-3.84,0-2.53,0-3.79.1S531.18,244,529.83,244.14Z"/><path class="cls-9" d="M492.13,286a33.23,33.23,0,0,0,4.27.54c1.41.09,2.82.17,4.23.18s2.84,0,4.28.1c.71,0,1.43,0,2.16.05s1.45.06,2.2.15a19.93,19.93,0,0,1-2.11.68c-.72.16-1.44.31-2.17.43a25.82,25.82,0,0,1-4.4.28,20,20,0,0,1-4.41-.58A10.33,10.33,0,0,1,492.13,286Z"/><path class="cls-9" d="M459.07,155.81c3.16-.81,6.27-1.38,9.43-1.87s6.32-.86,9.49-1.12,6.34-.44,9.52-.47,6.34,0,9.5.16c-3.16.06-6.33.15-9.48.4s-6.29.6-9.42,1-6.22,1-9.3,1.66-6.15,1.42-9.08,2.36Z"/><path class="cls-9" d="M374.53,181.05a34.28,34.28,0,0,0,10.14,6.61q1.36.59,2.76,1.08l2.94.91a45.76,45.76,0,0,1,5.95,2.48A61.34,61.34,0,0,1,407.14,199a48.3,48.3,0,0,1,9.06,9.38,30.39,30.39,0,0,1,5.4,12.31,22.75,22.75,0,0,1,.18,6.89,45.76,45.76,0,0,1-1.24,6.38,24,24,0,0,1-2.59,6.2,12.62,12.62,0,0,1-5.07,4.78,14.65,14.65,0,0,1-6.49,1.35,31.66,31.66,0,0,1-6.26-.67,52.38,52.38,0,0,0,6.1-.84,13.8,13.8,0,0,0,5.28-2.17c3-2.1,4.12-5.82,4.77-9.61a51.46,51.46,0,0,0,.62-5.86,20.22,20.22,0,0,0-.5-5.43,28.24,28.24,0,0,0-4.76-10.06c-4.54-6.19-10.77-11.39-17.48-15.67-1.69-1.06-3.42-2.05-5.18-2.94l-2.82-1.35c-1-.51-1.9-1-2.81-1.62A27.3,27.3,0,0,1,374.53,181.05Z"/><path class="cls-9" d="M280.66,194.93a28.75,28.75,0,0,1,.73,6.43,24.63,24.63,0,0,1-.83,6.6,14.69,14.69,0,0,1-3.43,6.18c-1,1-1.64,1.51-2.43,2.23s-1.51,1.41-2.24,2.14a72.34,72.34,0,0,0-8,9.27,48.23,48.23,0,0,0-5.88,10.41,21.81,21.81,0,0,0-1.78,10.93,12,12,0,0,0,.66,2.49,11.11,11.11,0,0,0,.53,1.16,12.29,12.29,0,0,0,.7,1.15,35.52,35.52,0,0,0,3.67,4.68c2.69,2.85,5.9,5.32,9.67,6.17a12.83,12.83,0,0,0,5.85.07,19.85,19.85,0,0,0,5.79-2.32,16.71,16.71,0,0,1-5.3,3.81,14.41,14.41,0,0,1-6.72,1.19,18.38,18.38,0,0,1-6.69-1.87,25.75,25.75,0,0,1-5.68-3.86,34.85,34.85,0,0,1-4.62-5c-.34-.42-.71-1-1.06-1.5a15.18,15.18,0,0,1-.9-1.69,17.09,17.09,0,0,1-1.16-3.59,21.6,21.6,0,0,1-.06-7.26,32.31,32.31,0,0,1,1.88-6.69,46.51,46.51,0,0,1,6.87-11.55,60.52,60.52,0,0,1,9.34-9.32c.85-.69,1.73-1.34,2.61-2l2.52-1.76A12.08,12.08,0,0,0,278,207,33.61,33.61,0,0,0,280.66,194.93Z"/><path class="cls-9" d="M279.18,259A15.82,15.82,0,0,1,285,252.5a15.3,15.3,0,0,1,8.82-2.35,24.38,24.38,0,0,1,8.82,2.5,63.43,63.43,0,0,1,7.67,4.45c2.42,1.59,4.79,3.25,7.12,4.74a27.25,27.25,0,0,0,7.23,2.83,47.81,47.81,0,0,0,16.11,1.26,40.39,40.39,0,0,0,7.83-1.57,32,32,0,0,0,7.15-3.28,28.4,28.4,0,0,0,6-5c1.94-2.08,3.87-4.19,5.88-6.29a59.41,59.41,0,0,1,6.53-6.08,20,20,0,0,1,8.44-4,27.21,27.21,0,0,1,9,0,62.29,62.29,0,0,1,8.5,1.92c-2.89-.11-5.77-.22-8.6-.12a28.55,28.55,0,0,0-8.11,1.25c-5,1.63-8.5,5.94-12.16,10.28-1.82,2.18-3.64,4.41-5.53,6.6a32.19,32.19,0,0,1-7,6.14,37.94,37.94,0,0,1-17.43,5.78,49.63,49.63,0,0,1-18-1.76,30.13,30.13,0,0,1-8.57-3.82c-2.44-1.73-4.65-3.53-6.92-5.25a76.87,76.87,0,0,0-6.84-4.8,21.85,21.85,0,0,0-7.39-3,13.87,13.87,0,0,0-7.82,1A16.94,16.94,0,0,0,279.18,259Z"/><path class="cls-9" d="M414.55,354.42c-1.32.45-2.85,1.09-4.27,1.73s-2.86,1.36-4.28,2.09q-4.23,2.24-8.25,4.9c-2.67,1.77-5.29,3.64-7.8,5.65-1.28,1-2.49,2-3.72,3.07s-2.5,2.17-3.77,3.22a134.4,134.4,0,0,1-16.13,11.76,77.09,77.09,0,0,1-18.24,8.31A72.31,72.31,0,0,1,328.32,398c-3.3,0-6.62,0-9.93-.27a77.54,77.54,0,0,1-9.84-1.45,62.42,62.42,0,0,1-18.49-7,43.65,43.65,0,0,1-14.37-13.32,43.16,43.16,0,0,0,14.72,12.71,61.68,61.68,0,0,0,18.41,6.25,75,75,0,0,0,9.68,1.07c3.24.15,6.49.07,9.75-.09a69.42,69.42,0,0,0,19-3.37,73.65,73.65,0,0,0,17.21-8.59,129.8,129.8,0,0,0,15.25-12c1.22-1.08,2.36-2.18,3.6-3.3s2.46-2.27,3.75-3.33c2.54-2.19,5.19-4.24,7.93-6.19s5.56-3.78,8.49-5.46c1.47-.83,2.95-1.64,4.48-2.39a50.68,50.68,0,0,1,4.79-2.13Z"/><path class="cls-9" d="M419,327.85a92.64,92.64,0,0,1-10.36-8.72c-1.64-1.57-3.23-3.18-4.76-4.86s-3-3.42-4.4-5.19l1,.28a19.13,19.13,0,0,1-2.53.68c-.84.17-1.67.29-2.51.4a44.86,44.86,0,0,1-5,.33,74.12,74.12,0,0,1-10-.6,31.51,31.51,0,0,0-9.48.41,91.91,91.91,0,0,0-9.43,2.42c-6.28,1.9-12.75,3.8-19.46,4.55-1.68.18-3.36.3-5.05.36s-3.24.12-4.86.24c-3.25.24-6.49.61-9.72,1.09a149.74,149.74,0,0,0-19.13,4.13,63.4,63.4,0,0,0-9.09,3.32,16.29,16.29,0,0,0-2,1.14,17.27,17.27,0,0,0-1.78,1.5,46.11,46.11,0,0,0-3.34,3.5,55.12,55.12,0,0,0-10,16.59,35.66,35.66,0,0,0-1.81,19.28,34.85,34.85,0,0,1,.7-19.66,47.32,47.32,0,0,1,4-9.18,56.87,56.87,0,0,1,5.63-8.3,45.94,45.94,0,0,1,3.38-3.75,21.07,21.07,0,0,1,2-1.74,16.81,16.81,0,0,1,2.25-1.38,58.75,58.75,0,0,1,9.39-3.68,136.48,136.48,0,0,1,19.44-4.46q4.92-.78,9.92-1.18c1.66-.13,3.33-.22,5-.27s3.21-.15,4.81-.32c6.43-.67,12.68-2.5,19-4.32a93.59,93.59,0,0,1,9.75-2.33,32.65,32.65,0,0,1,10.21-.23,68.65,68.65,0,0,0,9.69.85,45.86,45.86,0,0,0,4.84-.16,24.4,24.4,0,0,0,4.65-.79l.62-.19.34.47a117,117,0,0,0,8.5,10.39c1.52,1.66,3.09,3.26,4.71,4.82S417.23,326.4,419,327.85Z"/><path class="cls-9" d="M397.88,408.14c-2.6,1.93-5.24,4.09-7.77,6.25s-5,4.55-7.7,6.76A98.25,98.25,0,0,1,365.29,433a67.53,67.53,0,0,1-19.66,7,62.44,62.44,0,0,1-20.77.25,68.08,68.08,0,0,1-10.1-2.3,70.07,70.07,0,0,1-9.68-3.63,59.91,59.91,0,0,1-17-11.62A60.78,60.78,0,0,1,276.22,406a62.26,62.26,0,0,1-5.91-19.47,62,62,0,0,0,6.5,19.16,59.72,59.72,0,0,0,12.23,16,58.46,58.46,0,0,0,16.85,10.75,69,69,0,0,0,9.5,3.22,66,66,0,0,0,9.82,1.91,60,60,0,0,0,19.78-.87,63.62,63.62,0,0,0,18.38-7.2,95.2,95.2,0,0,0,16-11.81c2.5-2.22,4.84-4.59,7.34-7s5-4.69,7.74-7Z"/><path class="cls-9" d="M405.63,294a15.82,15.82,0,0,1,.37,4.4,14,14,0,0,1-.94,4.35,13.58,13.58,0,0,1-1,2,14.08,14.08,0,0,1-1.38,1.8,15,15,0,0,1-3.56,2.82l-.52-1a13.66,13.66,0,0,0,3.47-2.41,12.54,12.54,0,0,0,1.4-1.6,13.19,13.19,0,0,0,1.07-1.86,13.5,13.5,0,0,0,1.17-4.16A15.62,15.62,0,0,0,405.63,294Z"/><path class="cls-9" d="M378.25,296.11a18.08,18.08,0,0,1,.22,6.88,12.63,12.63,0,0,1-1.09,3.35,10.48,10.48,0,0,1-2.19,2.86l-.71-.87a9.36,9.36,0,0,0,2.16-2.4,11.66,11.66,0,0,0,1.28-3.06A17.65,17.65,0,0,0,378.25,296.11Z"/><path class="cls-9" d="M263.61,347.75a9.58,9.58,0,0,0,1.74,3.14,9.24,9.24,0,0,0,2.72,2.27,10.29,10.29,0,0,0,3.31,1.12,17,17,0,0,0,1.75.17c.59,0,1.17-.05,1.76-.06l.06,1.12c-.63,0-1.26,0-1.88-.08a16.25,16.25,0,0,1-1.85-.32,11,11,0,0,1-3.44-1.47,10,10,0,0,1-4.17-5.89Z"/><path class="cls-9" d="M268.43,359.17a12.46,12.46,0,0,0,6.07.49l.06,1.12A13,13,0,0,1,268.43,359.17Z"/><path class="cls-9" d="M264.89,334.25a16.12,16.12,0,0,0,.95,4.82,12.71,12.71,0,0,0,2.46,4.17,10.54,10.54,0,0,0,3.86,2.79,12.54,12.54,0,0,0,2.26.77c.77.19,1.58.25,2.36.39l-.13,1.12c-.83-.19-1.68-.31-2.49-.56a14.34,14.34,0,0,1-2.37-1,11.25,11.25,0,0,1-3.92-3.19,13.07,13.07,0,0,1-2.3-4.44A16,16,0,0,1,264.89,334.25Z"/><path class="cls-18" d="M321.79,361.16s12.68,3.08,23.65-1c0,0,5.82-25.36-14.4-23.65C316.29,337.73,318.7,348.48,321.79,361.16Z"/><path class="cls-9" d="M321.79,361.16a54.19,54.19,0,0,0,6,.48,53.08,53.08,0,0,0,5.92-.12,40.35,40.35,0,0,0,5.82-.81,33.12,33.12,0,0,0,5.55-1.65l-.72.82a38.76,38.76,0,0,0,.59-7.84,22.84,22.84,0,0,0-1.38-7.52,10.26,10.26,0,0,0-4.53-5.38,11.06,11.06,0,0,0-3.42-1.16,12.89,12.89,0,0,0-1.87-.2c-.31,0-.62,0-.94,0l-1,0a16.62,16.62,0,0,0-7.32,1.68,7.73,7.73,0,0,0-3.95,5.75,26.49,26.49,0,0,0,0,7.9C320.89,355.77,321.36,358.46,321.79,361.16Zm0,0c-.85-2.6-1.67-5.2-2.28-7.88a25.2,25.2,0,0,1-.76-8.35,10.33,10.33,0,0,1,1.35-4.24,9.22,9.22,0,0,1,3.21-3.24,14,14,0,0,1,4.1-1.66,22.17,22.17,0,0,1,4.26-.65,15.81,15.81,0,0,1,8.65,1.56,12,12,0,0,1,3.55,2.9,13.77,13.77,0,0,1,2.23,3.91,23.41,23.41,0,0,1,1.41,8.49,37.24,37.24,0,0,1-1,8.39l-.15.63-.56.18a35.31,35.31,0,0,1-6,1.42,43.26,43.26,0,0,1-6.11.35A44.68,44.68,0,0,1,321.79,361.16Z"/><path class="cls-19" d="M351.67,359.76s14.55.9,25.28-4c0,0,3-26.69-17.09-23.84C345.2,334,347.91,346.45,351.67,359.76Z"/><path class="cls-9" d="M351.67,359.76c2.16-.06,4.3-.23,6.43-.45s4.25-.52,6.34-.91a55.57,55.57,0,0,0,6.18-1.47,39.25,39.25,0,0,0,5.85-2.24l-.66.91a40.89,40.89,0,0,0-.31-8.34,25.28,25.28,0,0,0-2.28-7.81,11.61,11.61,0,0,0-5.33-5.37,14.43,14.43,0,0,0-7.73-.91,13.88,13.88,0,0,0-7.31,2.74,10,10,0,0,0-3.22,6.94,34.75,34.75,0,0,0,.44,8.42C350.51,354.1,351.09,356.92,351.67,359.76Zm0,0c-1-2.72-1.92-5.46-2.63-8.28a32.2,32.2,0,0,1-1.19-8.75,13.64,13.64,0,0,1,.84-4.54,10.13,10.13,0,0,1,2.62-4,12.44,12.44,0,0,1,4.05-2.48,21.34,21.34,0,0,1,4.44-1.15,16.36,16.36,0,0,1,9.23,1,12.85,12.85,0,0,1,4,2.76,15.73,15.73,0,0,1,2.7,3.88,25.83,25.83,0,0,1,2.42,8.74,40.31,40.31,0,0,1,0,8.92l-.08.67-.58.24a43.31,43.31,0,0,1-6.31,2,59.26,59.26,0,0,1-6.47,1A62.46,62.46,0,0,1,351.67,359.76Z"/><path class="cls-15" d="M377.23,343.14s7.25-9.93,15.3-10.74,5.69,13.18,4,16.92c-1.07,2.42-8.86,3.76-18.8,0"/><path class="cls-9" d="M377.11,343.06a28.06,28.06,0,0,1,4.5-6.09,22.77,22.77,0,0,1,6.21-4.67,13.94,13.94,0,0,1,1.88-.76l1-.3,1-.18a6.29,6.29,0,0,1,4.54.73,6.58,6.58,0,0,1,2.57,3.76,14.36,14.36,0,0,1,.5,4,28.51,28.51,0,0,1-1.1,7.61c-.18.62-.38,1.23-.62,1.85a4.58,4.58,0,0,1-.5,1,1.76,1.76,0,0,1-.4.48,3.19,3.19,0,0,1-.46.38,9,9,0,0,1-3.84,1.27,24.25,24.25,0,0,1-7.57-.44,36.71,36.71,0,0,1-7.13-2.25l.1-.26a39,39,0,0,0,7.17,1.65,23.52,23.52,0,0,0,7.21-.09,7.67,7.67,0,0,0,3.1-1.18,2,2,0,0,0,.7-1.15c.18-.55.33-1.12.47-1.7a26.6,26.6,0,0,0,.62-7.09,11.93,11.93,0,0,0-.62-3.3,3.31,3.31,0,0,0-4.3-2.38l-.8.13-.79.23a12,12,0,0,0-1.59.55c-.53.2-1,.48-1.57.71s-1,.56-1.52.87a34.24,34.24,0,0,0-3,2,65.48,65.48,0,0,0-5.59,4.78Z"/><path class="cls-20" d="M399.08,337s7.82-8.6,12.25-9.12,4.7,8.34,4.17,12-5.21,9.91-6.25,10.95-7.56-3.13-10.43-8.6"/><path class="cls-9" d="M399.08,337a44.94,44.94,0,0,1,4.63-5.42,34.64,34.64,0,0,1,2.71-2.4,14.22,14.22,0,0,1,3.23-2,4.33,4.33,0,0,1,1-.34l.53-.13a4,4,0,0,1,.6,0,3.32,3.32,0,0,1,.63,0l.62.17a3.72,3.72,0,0,1,1.13.6,7.26,7.26,0,0,1,2.21,3.63,17.57,17.57,0,0,1,.65,3.74,27.15,27.15,0,0,1,0,3.72,12.94,12.94,0,0,1-.25,1.93,11.55,11.55,0,0,1-.6,1.91,24.1,24.1,0,0,1-1.71,3.32c-.65,1-1.33,2-2.06,3-.36.49-.72,1-1.11,1.44s-.76.9-1.3,1.42a1.72,1.72,0,0,1-1.09.44,3,3,0,0,1-.72-.07,5.39,5.39,0,0,1-1-.37,9.67,9.67,0,0,1-1.66-1,20.73,20.73,0,0,1-2.77-2.41,18.16,18.16,0,0,1-3.92-6,23.08,23.08,0,0,0,4.84,5,20.43,20.43,0,0,0,2.83,1.88,12.56,12.56,0,0,0,1.46.67,4.2,4.2,0,0,0,.65.17h.16s-.1,0-.28.14c.27-.33.65-.84,1-1.29s.65-.94,1-1.41c.63-1,1.23-1.94,1.77-2.93a24.84,24.84,0,0,0,1.45-3,8.6,8.6,0,0,0,.61-3,21.67,21.67,0,0,0-.45-6.56,5,5,0,0,0-1.19-2.43,1.43,1.43,0,0,0-.89-.35,2.23,2.23,0,0,0-.27,0l-.33.06a2.52,2.52,0,0,0-.71.17,14.12,14.12,0,0,0-2.93,1.43,33.45,33.45,0,0,0-2.86,1.94C402.72,333.94,400.91,335.44,399.08,337Z"/><path class="cls-15" d="M299.42,344.79a5.58,5.58,0,0,1,4-2.94c5.79-1.19,10.16-1.6,11.5,4s4,11,1.07,12.3-9.36,4.28-14.71,0S299.42,344.79,299.42,344.79Z"/><path class="cls-9" d="M299.42,344.79a5.8,5.8,0,0,1,2.79-2.63,8.93,8.93,0,0,1,1.86-.59l1.91-.43a16.61,16.61,0,0,1,3.95-.45,5.85,5.85,0,0,1,4,1.48,8,8,0,0,1,2.08,3.75c.37,1.21.84,2.4,1.25,3.63s.87,2.47,1.18,3.82a10.53,10.53,0,0,1,.3,2.19,4.38,4.38,0,0,1-.68,2.67,3.39,3.39,0,0,1-1.2,1.07c-.26.14-.39.19-.54.26l-.45.2c-.62.26-1.25.5-1.89.73a19.45,19.45,0,0,1-4,.93,12.77,12.77,0,0,1-4.22-.23,10.7,10.7,0,0,1-3.81-1.76,8.57,8.57,0,0,1-2.7-3.1,9.67,9.67,0,0,1-1-3.87,16,16,0,0,1,.25-3.91A22.09,22.09,0,0,1,299.42,344.79Zm0,0a16.28,16.28,0,0,0-.84,7.63,8.5,8.5,0,0,0,1.32,3.49,7.3,7.3,0,0,0,2.73,2.35,10.06,10.06,0,0,0,6.92.79A18.16,18.16,0,0,0,313,358q.86-.34,1.71-.75l.43-.2a2.28,2.28,0,0,0,.34-.16.72.72,0,0,0,.24-.21,2,2,0,0,0,.21-1,10.55,10.55,0,0,0-.19-1.67c-.23-1.18-.53-2.43-.86-3.68s-.61-2.54-.86-3.85a6.89,6.89,0,0,0-1.19-3.21,4.66,4.66,0,0,0-3-1.57,15,15,0,0,0-3.79,0c-.64.07-1.28.16-1.92.26a9.75,9.75,0,0,0-1.87.42A5.3,5.3,0,0,0,299.42,344.79Z"/><path class="cls-20" d="M281.9,345.66s.55-2.72,4.9-2.45,7.61-.81,8.15,5.17.55,9-2.72,11.42-3.53,6.25-7.88,1.09S279.73,350.55,281.9,345.66Z"/><path class="cls-9" d="M281.9,345.66a3.53,3.53,0,0,1,2.5-2.28,11.56,11.56,0,0,1,3.51-.32,30.2,30.2,0,0,1,3.57,0,4.56,4.56,0,0,1,1.87.55,3.81,3.81,0,0,1,1.46,1.44,10.35,10.35,0,0,1,1.15,3.64c.18,1.17.37,2.34.46,3.56a14.25,14.25,0,0,1-.15,3.83,7.64,7.64,0,0,1-1.9,3.74c-.25.24-.5.49-.76.7l-.72.58a12.08,12.08,0,0,0-1.16,1c-.38.4-.76.81-1.25,1.27a4.2,4.2,0,0,1-2.14,1.24l-.39.05-.37,0-.38-.05-.31-.12a4.29,4.29,0,0,1-1-.59c-.28-.22-.52-.45-.77-.68l-.64-.71a23.54,23.54,0,0,1-2.06-3,15,15,0,0,1-2-6.92A16.08,16.08,0,0,1,281.9,345.66Zm0,0a12.87,12.87,0,0,0-1.09,6.82,12.65,12.65,0,0,0,2.75,6.17,21.5,21.5,0,0,0,2.31,2.45l.61.52.61.41c.41.23.71.24.79.19a2.22,2.22,0,0,0,.75-.65c.33-.38.7-.87,1.12-1.32a11.37,11.37,0,0,1,1.4-1.37l.64-.53c.19-.16.35-.33.53-.5a5.44,5.44,0,0,0,1.31-2.42,13.48,13.48,0,0,0,.38-3.16c0-1.12,0-2.28,0-3.45a9.16,9.16,0,0,0-.44-3.16,2.9,2.9,0,0,0-2.23-1.81,23.64,23.64,0,0,0-3.44-.4,10.69,10.69,0,0,0-3.48,0A3.36,3.36,0,0,0,281.9,345.66Z"/><path class="cls-9" d="M281.86,366.39a111,111,0,0,0,6.62,9,86.5,86.5,0,0,0,7.47,8.06c1.28,1.3,2.71,2.44,4.06,3.67s2.83,2.32,4.34,3.36c2.94,2.22,6.15,4,9.38,6a38.08,38.08,0,0,1-10.56-4.17,45.89,45.89,0,0,1-4.81-3.11,51.66,51.66,0,0,1-4.36-3.73,48.32,48.32,0,0,1-7.29-8.8A38,38,0,0,1,281.86,366.39Z"/><path class="cls-9" d="M315.19,360.14a25.44,25.44,0,0,0-2.69,2.92,31.82,31.82,0,0,0-2.35,3.38,38.74,38.74,0,0,0-3.55,7.5c-.24.65-.42,1.33-.63,2l-.3,1-.23,1L305,380l-.31,2.09c-.26,1.38-.27,2.8-.4,4.2s0,2.83,0,4.25c-.1-1.41-.27-2.83-.31-4.25s-.09-2.85,0-4.27l.14-2.14.3-2.13.15-1.07.23-1.05c.16-.7.28-1.41.47-2.11a40.66,40.66,0,0,1,3.06-8.12,31.11,31.11,0,0,1,5-7.35Z"/><path class="cls-9" d="M430.21,294.27a36.76,36.76,0,0,0-12.71-16.41,42.85,42.85,0,0,0-4.4-2.78,41.2,41.2,0,0,0-4.73-2.17,45.37,45.37,0,0,0-5-1.58,17,17,0,0,0-2.54-.5c-.85-.17-1.71-.23-2.57-.34a57.8,57.8,0,0,0-10.28-.22,61.28,61.28,0,0,0-10.31,1.84c-6.81,1.8-13.54,4.15-20.22,6.58l-.11-.26a183.33,183.33,0,0,1,19.82-8.1,69.75,69.75,0,0,1,10.53-2.57,30.46,30.46,0,0,1,11,0c.89.2,1.8.35,2.68.61l2.63.77a43.1,43.1,0,0,1,5.14,1.84,40.1,40.1,0,0,1,9.33,5.59,37.4,37.4,0,0,1,7.35,7.94,32.37,32.37,0,0,1,4.64,9.68Z"/><path class="cls-9" d="M239.36,134.44a38.7,38.7,0,0,1,14-2.22,32.82,32.82,0,0,1,7.15,1,28.72,28.72,0,0,1,3.47,1.14c.57.22,1.13.47,1.69.74l1.54.74A25.67,25.67,0,0,0,280,138.43a13.86,13.86,0,0,0,6.13-2,14.91,14.91,0,0,0,4.66-4.9,12.21,12.21,0,0,1-3.72,6.13,13.92,13.92,0,0,1-6.72,3.17,20.11,20.11,0,0,1-7.42-.15,27.15,27.15,0,0,1-6.9-2.4c-.54-.25-1.11-.57-1.59-.82s-1-.51-1.49-.74a26,26,0,0,0-3.12-1.18,35,35,0,0,0-6.63-1.39A53,53,0,0,0,239.36,134.44Z"/><path class="cls-9" d="M344.64,113.79a72.67,72.67,0,0,0,5.55,5.68,43.76,43.76,0,0,0,6.15,4.78,20.16,20.16,0,0,0,6.87,2.87,10.79,10.79,0,0,0,6.91-.83c.55-.22,1-.57,1.58-.85l1.74-1.07c1.15-.71,2.36-1.34,3.55-2a68.76,68.76,0,0,1,7.46-3.18,57.88,57.88,0,0,1,15.71-3.37,117.37,117.37,0,0,0-14.9,5.4c-2.38,1.11-4.75,2.22-7,3.51-1.12.66-2.28,1.26-3.37,2l-1.65,1a15.38,15.38,0,0,1-1.91,1.07,13.26,13.26,0,0,1-8.65.89,20.49,20.49,0,0,1-7.56-3.67,35.81,35.81,0,0,1-5.9-5.63A40.24,40.24,0,0,1,344.64,113.79Z"/><path class="cls-9" d="M376,143.6a103.82,103.82,0,0,0-10.88,8.53,69,69,0,0,0-9.2,10,45.23,45.23,0,0,0-3.67,5.66c-.57,1-1.05,2-1.54,3-.24.51-.44,1-.66,1.56a15,15,0,0,0-.63,1.56,46.09,46.09,0,0,0-2.72,13.4,30.91,30.91,0,0,1,.63-14.07,38.35,38.35,0,0,1,6.34-12.78,52.12,52.12,0,0,1,4.69-5.37,51.23,51.23,0,0,1,5.37-4.63A47.92,47.92,0,0,1,376,143.6Z"/><path class="cls-9" d="M292,160.57a21.06,21.06,0,0,1,7.79,2.31,24.85,24.85,0,0,1,6.65,4.89,25.57,25.57,0,0,1,2.63,3.23c.36.59.72,1.19,1.06,1.8a11,11,0,0,1,.87,1.88,19.46,19.46,0,0,1,1.57,8,55.12,55.12,0,0,0-3.52-7c-.62-1.11-1.44-2.09-2.14-3.13s-1.58-2-2.5-2.82a43,43,0,0,0-5.75-5A69.67,69.67,0,0,0,292,160.57Z"/><path class="cls-9" d="M383.52,141.06c8.83-1.06,17.51-1.68,26.17-2.28l25.89-1.64c8.62-.49,17.21-1.12,25.84-1.68s17.24-1.34,26.16-1.67c-2,1-4.06,1.79-6.13,2.61-1,.42-2.06.83-3.11,1.2l-3.16,1c-2.11.65-4.23,1.33-6.37,1.88s-4.3,1.05-6.46,1.53a175,175,0,0,1-26.25,3.52,196,196,0,0,1-26.44-.16A135.63,135.63,0,0,1,383.52,141.06Z"/><path class="cls-9" d="M164.52,182.23c4.42-.59,8.75-.74,13.06-1.18s8.58-.74,12.82-1.38c2.12-.3,4.25-.49,6.36-.79l6.3-1c1.05-.17,2.11-.28,3.15-.49s2.08-.42,3.13-.61c2.08-.41,4.17-.73,6.24-1.2s4.13-1,6.2-1.37,4.1-1.07,6.16-1.56,4.07-1.14,6.12-1.68c1-.3,2.06-.55,3.06-.88s2-.65,3-1A198.1,198.1,0,0,0,264,160.08l.49-.23h0a14.65,14.65,0,0,1,2.8,0,18.56,18.56,0,0,1,2.67.43,10,10,0,0,1,4.64,2.43,10.76,10.76,0,0,0-2.41-.64,13.91,13.91,0,0,0-2.41-.08,14.26,14.26,0,0,0-2.36.32,15.37,15.37,0,0,0-2.19.62l.52-.23a92.32,92.32,0,0,1-23,13.49c-2.05.89-4.12,1.71-6.23,2.42s-4.19,1.5-6.34,2.08-4.28,1.22-6.44,1.76-4.36.92-6.53,1.38a31,31,0,0,1-3.29.56l-3.3.47c-2.2.34-4.41.6-6.63.73l-6.64.42q-3.33,0-6.65-.05l-3.32-.07c-1.1,0-2.21-.18-3.31-.26-2.2-.22-4.4-.44-6.59-.71l-1.64-.2-1.63-.3c-1.09-.2-2.17-.43-3.25-.66C168.8,183.27,166.65,182.79,164.52,182.23Z"/><path class="cls-9" d="M275.62,168.3a22.34,22.34,0,0,1-5.53,11.81,30.79,30.79,0,0,1-10.76,7.82,47.39,47.39,0,0,1-12.8,3.63c-4.35.63-8.64,1.07-13,1.58l-12.94,1.42c-4.3.45-8.59,1-12.86,1.64a110.25,110.25,0,0,0-12.65,2.56c-4.11,1.15-8.24,2.64-11.53,5.52a19.26,19.26,0,0,1,5.11-4.11,39.57,39.57,0,0,1,6-2.73A89,89,0,0,1,207.39,194c8.58-1.72,17.24-2.7,25.87-3.68,4.31-.45,8.65-.9,12.91-1.41a49.92,49.92,0,0,0,12.31-3,31.31,31.31,0,0,0,10.62-6.75A23.85,23.85,0,0,0,275.62,168.3Z"/><path class="cls-9" d="M381.48,154.57a55,55,0,0,0,13.94,5.85c2.43.67,4.88,1.23,7.36,1.66s5,.7,7.47.92a91.86,91.86,0,0,0,15-.14,113,113,0,0,0,14.83-2.46c1.22-.29,2.44-.59,3.65-.93l3.66-1c2.47-.7,5-1.25,7.5-1.79a102,102,0,0,1,15.28-1.94,88.67,88.67,0,0,1,15.37.55,73.58,73.58,0,0,1,14.93,3.37,105.7,105.7,0,0,0-30.14-1.55,122.25,122.25,0,0,0-14.88,2.25c-2.45.56-4.9,1.13-7.31,1.82s-4.94,1.37-7.44,1.9a89.92,89.92,0,0,1-30.67,2,70.48,70.48,0,0,1-15-3.42A48.9,48.9,0,0,1,381.48,154.57Z"/><path class="cls-9" d="M208.89,196.22a77.71,77.71,0,0,0-9.45-.62,84.27,84.27,0,0,0-9.52.45,66.82,66.82,0,0,0-9.4,1.67,52.08,52.08,0,0,0-9,3.21,52,52,0,0,1,8.86-3.75,66,66,0,0,1,9.41-2.24,86.31,86.31,0,0,1,9.64-1,81.42,81.42,0,0,1,9.75.07Z"/><path class="cls-9" d="M378.68,140.78a47.08,47.08,0,0,0-11.76,1.09,19.12,19.12,0,0,0-5.35,2.1,32.19,32.19,0,0,1-5.53,2.62c-7.76,2.85-16.27,2.46-24.07,1.58a50.51,50.51,0,0,0-5.77-.1,41.1,41.1,0,0,0-5.73.69,90.75,90.75,0,0,0-11.34,3.06c-1.91.59-3.83,1.18-5.8,1.66a36.9,36.9,0,0,1-6,.93,26.59,26.59,0,0,1-11.84-2,30.44,30.44,0,0,0,11.7.57,56.39,56.39,0,0,0,11.24-3.31A78.63,78.63,0,0,1,320,146.11a43,43,0,0,1,12.25-.72c2.08.19,3.95.47,5.92.59s3.89.23,5.84.23a46.65,46.65,0,0,0,5.79-.38,34.24,34.24,0,0,0,5.66-1.16,37.12,37.12,0,0,0,5.41-2.1,19.19,19.19,0,0,1,5.87-1.84,34.83,34.83,0,0,1,6-.42A44.08,44.08,0,0,1,378.68,140.78Z"/><path class="cls-9" d="M290.89,64.87a114,114,0,0,0,12.68-.21c2.1-.15,4.19-.4,6.27-.68s4.15-.62,6.21-1,4.09-.9,6.11-1.45,4-1.11,6-1.75,4-1.33,5.94-2.07S338,56.15,340,55.33c3.87-1.65,7.65-3.53,11.36-5.53s7.33-4.2,11-6.36c1.84-1.09,3.79-2.08,5.66-3l5.66-2.92c3.79-1.94,7.59-3.86,11.44-5.7a161.31,161.31,0,0,1,23.78-9.41A105.74,105.74,0,0,1,434.08,18a111.54,111.54,0,0,1,12.8.11c4.25.31,8.49.79,12.68,1.51a172.23,172.23,0,0,1,24.73,6.26l-.09.27a172.54,172.54,0,0,0-24.74-5.91c-4.19-.65-8.41-1.08-12.63-1.32a109.63,109.63,0,0,0-12.69.06,104.54,104.54,0,0,0-24.86,4.66,164.17,164.17,0,0,0-23.47,9.59C382,35.1,378.23,37.05,374.48,39l-5.64,3c-.93.5-1.89,1-2.8,1.49s-1.8,1.06-2.7,1.61a201.8,201.8,0,0,1-22.26,12.68,87.63,87.63,0,0,1-24.6,7.62c-2.13.32-4.27.58-6.41.75s-4.3.21-6.44.2a72.58,72.58,0,0,1-12.77-1.2Z"/><path class="cls-9" d="M171.14,53.28a123.18,123.18,0,0,1,25.39-4.49,158.26,158.26,0,0,1,25.85.23,179.89,179.89,0,0,1,25.49,4.18A185.32,185.32,0,0,1,272.43,61c-8.34-2-16.65-4-25-5.63q-3.15-.53-6.3-1.11c-2.09-.36-4.21-.63-6.31-.95s-4.22-.55-6.33-.83-4.23-.45-6.34-.64A216.83,216.83,0,0,0,196.64,51,207,207,0,0,0,171.14,53.28Z"/><path class="cls-9" d="M353.06,91.65s10.29,6.61,29.34-6.08,45.81-22.27,85.51-20.68c0,0,24.79,8.62,39.19,16.48,0,0-37.51-2.82-66.64,5.9S396.07,120,370,116.3,353.06,91.65,353.06,91.65Z"/><path class="cls-9" d="M287.69,102.35s-8.43,8.86-29.94,1.05-49.79-10.79-88,.15c0,0-22,14.25-34.16,25.31,0,0,35.77-11.63,66.13-10.06s50.89,21.33,75.37,11.51S287.69,102.35,287.69,102.35Z"/><path class="cls-9" d="M348.05,93.65a25.89,25.89,0,0,0,1.8,6,23,23,0,0,0,3.18,5.27,16.37,16.37,0,0,0,4.52,3.92,17.42,17.42,0,0,0,5.49,2.07l-.68,2.73a19.83,19.83,0,0,1-6-3.05,18.24,18.24,0,0,1-4.48-4.84,23.9,23.9,0,0,1-2.7-5.86A26.26,26.26,0,0,1,348.05,93.65Z"/><path class="cls-9" d="M152.13,112a100.63,100.63,0,0,1,12.9-6.42,54.62,54.62,0,0,1,14.1-3.9l.16,2.81a44.18,44.18,0,0,0-6.92.73c-2.3.44-4.6,1-6.88,1.69A100.53,100.53,0,0,0,152.13,112Z"/><path class="cls-9" d="M232.16,95.53A60.41,60.41,0,0,1,240.59,97a77.63,77.63,0,0,1,16.17,5.83,76.16,76.16,0,0,1,7.57,4.25l-1.62,2.3a74.9,74.9,0,0,0-6.95-4.7,76.13,76.13,0,0,0-15.36-7A58.32,58.32,0,0,0,232.16,95.53Z"/><path class="cls-9" d="M146.13,128.78a22,22,0,0,1,3.2-3.42,27.82,27.82,0,0,1,3.82-2.81,30,30,0,0,1,4.26-2.19,32.94,32.94,0,0,1,4.59-1.53l.48,2.77a31.64,31.64,0,0,0-4.4.76,28.67,28.67,0,0,0-4.28,1.43,27.34,27.34,0,0,0-4,2.13A21.66,21.66,0,0,0,146.13,128.78Z"/><path class="cls-9" d="M140.31,118.84a12.42,12.42,0,0,0,4.42-.38,37.24,37.24,0,0,0,4.25-1.31c1.38-.52,2.75-1.11,4.09-1.73s2.67-1.3,4-2l1.12,2.58c-1.44.48-2.89,1-4.36,1.38s-2.95.79-4.45,1.1a36.6,36.6,0,0,1-4.53.65A12.47,12.47,0,0,1,140.31,118.84Z"/><path class="cls-9" d="M346.51,105.29a17.45,17.45,0,0,0,6,5.66,27.18,27.18,0,0,0,7.6,3c2.66.71,5.43.68,8.13,1.16,1.37.15,2.74.32,4.13.55a30.66,30.66,0,0,1,4.24.69l0,.28a31.11,31.11,0,0,1-4.24,1c-1.44.18-2.9.24-4.36.28a24.44,24.44,0,0,1-4.34-.56,40.94,40.94,0,0,1-4.22-1.26,26.44,26.44,0,0,1-7.76-4,22,22,0,0,1-3.14-3,13.33,13.33,0,0,1-2.28-3.68Z"/><path class="cls-9" d="M295.53,102.7a20.22,20.22,0,0,1,.27,9.6,23.13,23.13,0,0,1-4.1,8.91,23.61,23.61,0,0,1-7.36,6.57,39.51,39.51,0,0,1-4.51,1.9,36.08,36.08,0,0,1-4.78.95l-.09-.27a38.87,38.87,0,0,1,4.06-2.49c.64-.45,1.3-.85,1.94-1.27s1.34-.75,1.93-1.23c1.19-.94,2.54-1.65,3.68-2.62a22.29,22.29,0,0,0,1.78-1.39l1.62-1.58a21.43,21.43,0,0,0,4.47-7.83,22.14,22.14,0,0,0,.94-4.52,21.37,21.37,0,0,0-.12-4.66Z"/><path class="cls-9" d="M302.91,105.82a30.46,30.46,0,0,1-1,8.15,28.19,28.19,0,0,1-3.3,7.66,35.56,35.56,0,0,1-2.4,3.5A16.28,16.28,0,0,1,293,128a17,17,0,0,1-7.86,3l-.1-.27c.54-.47,1.1-.87,1.64-1.27a18.3,18.3,0,0,0,1.6-1.18c.5-.43,1-.81,1.54-1.2s1-.86,1.45-1.27c1-.79,1.86-1.74,2.86-2.54a25.15,25.15,0,0,0,2.58-2.87,30.3,30.3,0,0,0,3.82-6.84,31.91,31.91,0,0,0,2.07-7.72Z"/><path class="cls-9" d="M454.54,65.8c2.06-.32,4-.52,6.06-.66s4-.2,6-.19,4,.16,6,.39a38.64,38.64,0,0,1,5.87,1.19,39.29,39.29,0,0,0-5.92-.49,58.15,58.15,0,0,0-5.9.32c-1.95.21-3.9.51-5.83.87s-3.86.8-5.69,1.31Z"/><path class="cls-9" d="M437.07,84.56c2.38-.38,4.71-.64,7.07-.84s4.71-.32,7.07-.32a46.34,46.34,0,0,1,7.06.45,20.45,20.45,0,0,1,6.74,2,20.12,20.12,0,0,0-6.81-1.26,45.72,45.72,0,0,0-6.92.26c-2.3.23-4.59.57-6.86,1s-4.55.92-6.74,1.5Z"/><path class="cls-9" d="M481.38,70.59c1.68.63,3.49,1.2,5.28,1.71s3.61,1,5.45,1.32,3.69.66,5.56.87a48.19,48.19,0,0,0,5.64.27,48.67,48.67,0,0,1-5.67.43c-1.91,0-3.82,0-5.72-.18s-3.81-.36-5.71-.65-3.76-.63-5.69-1.09Z"/><path class="cls-21" d="M555.2,339.42s-3.09,36.68,1.37,62.38"/><path class="cls-9" d="M91.47,53.23a33.36,33.36,0,0,1-2.58-13.08,20.77,20.77,0,0,1,1.24-6.68,16.71,16.71,0,0,1,3.72-5.79,19.33,19.33,0,0,1,5.7-3.9,13.89,13.89,0,0,1,1.6-.67,15.73,15.73,0,0,1,1.63-.57l3.19-1a34,34,0,0,0,5.9-2.58,39.31,39.31,0,0,0,5.34-3.6c6.71-5.44,11.65-12.82,15.3-20.65A77.75,77.75,0,0,0,139.4-30l5.58.64a82.54,82.54,0,0,1-8.7,26c-4.27,8-9.89,15.57-17.36,21A42.71,42.71,0,0,1,113,21.19a36.28,36.28,0,0,1-6.45,2.41l-3.25.8a13.59,13.59,0,0,0-1.54.45,13.73,13.73,0,0,0-1.52.54,17.81,17.81,0,0,0-5.43,3.31,15.37,15.37,0,0,0-3.72,5.17,20.16,20.16,0,0,0-1.51,6.31A32.88,32.88,0,0,0,91.47,53.23Z"/><path class="cls-9" d="M55.09,251.62a70,70,0,0,1-16.49-4.68,50.73,50.73,0,0,1-14.71-9.2,35.25,35.25,0,0,1-5.69-6.82c-.38-.64-.8-1.27-1.14-1.94l-1-2a30.39,30.39,0,0,1-1.46-4.28,31.79,31.79,0,0,1-.86-4.43,35.74,35.74,0,0,1-.19-4.5,43.07,43.07,0,0,1,1.13-8.86l1.61,2.59a47.37,47.37,0,0,1-6.81-2.12,47.93,47.93,0,0,1-6.41-3,32,32,0,0,1-10.86-9.56A23.58,23.58,0,0,1-11,186a25.83,25.83,0,0,1-.88-7.46,35.82,35.82,0,0,1,3.74-14l.77,3.1c-2.21-1.71-4.17-3.43-6.15-5.26s-3.84-3.7-5.63-5.67a97.63,97.63,0,0,1-9.91-12.55c-5.89-8.87-10.39-18.93-11.77-29.61a53.7,53.7,0,0,1,.28-16,59.42,59.42,0,0,1,5-15.09C-30.74,74-23.83,65.81-16.06,58.74l.39,1.53c-2.48-.61-4.89-1.31-7.28-2.14A41.52,41.52,0,0,1-30,55a16.31,16.31,0,0,1-3.22-2.36A8.29,8.29,0,0,1-34.53,51a7.24,7.24,0,0,1-.5-1.05,6.78,6.78,0,0,1-.24-1.19,4.51,4.51,0,0,1,.07-1.22l.13-.6a5.09,5.09,0,0,1,.22-.54l.24-.53c.09-.16.2-.31.3-.47a5.85,5.85,0,0,1,.66-.87,16,16,0,0,1,3.1-2.64l-.18,2a58.36,58.36,0,0,1-6-6.53,59.4,59.4,0,0,1-5-7.31,37.93,37.93,0,0,1-5.42-17.13A28,28,0,0,1-46,3.7a31.21,31.21,0,0,1,4.16-8.3A47.11,47.11,0,0,1-28.42-16.74l-.41,3.91a84.59,84.59,0,0,1-6-6.44c-1.88-2.22-3.68-4.54-5.35-7a54,54,0,0,1-7.86-16.08,26.94,26.94,0,0,1-.86-9.43A20.9,20.9,0,0,1-45.73-61a24.42,24.42,0,0,1,3-3.8l1.77-1.61a19.42,19.42,0,0,1,1.87-1.44,33.13,33.13,0,0,1,3.94-2.46c1.34-.73,2.74-1.3,4.12-1.95l-1.78,3.45c-.31-1.45-.49-2.68-.65-4s-.27-2.61-.34-3.92a62,62,0,0,1,0-7.83,56.25,56.25,0,0,1,3.08-15.4,50.73,50.73,0,0,1,7.44-13.94,50.84,50.84,0,0,1,11.38-10.88,66.28,66.28,0,0,1,6.67-4.1A74.7,74.7,0,0,1,1.91-132a70.45,70.45,0,0,1,7.31-2.45c1.22-.41,2.48-.63,3.72-.94l3.74-.84c2.52-.39,5-.88,7.54-1.18l3.78-.4c1.27-.11,2.52-.3,3.79-.32,2.53-.09,5.05-.26,7.57-.28l7.56.05-1.35,2.86a25.08,25.08,0,0,1-1.89-2.85,25.37,25.37,0,0,1-1.51-3,21.21,21.21,0,0,1-1.74-6.56,14.5,14.5,0,0,1,.93-6.85,15.23,15.23,0,0,1,4-5.53,25.27,25.27,0,0,1,5.55-3.58A40.83,40.83,0,0,1,57-166.14a71.77,71.77,0,0,1,12.53-2.32l.08.56a81.14,81.14,0,0,0-12.15,3.15,39.89,39.89,0,0,0-5.66,2.51,23.46,23.46,0,0,0-4.85,3.57,13.41,13.41,0,0,0-3.1,4.82,11.67,11.67,0,0,0-.49,5.6,18.13,18.13,0,0,0,1.76,5.55,25.15,25.15,0,0,0,3.16,4.93L50.51-135l-3.61.14-7.4.29c-2.46.13-4.91.41-7.36.61s-4.86.63-7.3.94-4.8.92-7.19,1.37l-3.53.92c-1.17.33-2.37.58-3.5,1l-3.44,1.16-.86.28-.83.35-1.67.69a68.8,68.8,0,0,0-6.49,3.08,58.28,58.28,0,0,0-6,3.88,47.51,47.51,0,0,0-10,9.88A44.58,44.58,0,0,0-25.07-98l-.55,1.68c-.17.56-.3,1.14-.45,1.7-.32,1.13-.55,2.29-.77,3.45s-.38,2.33-.57,3.5-.28,2.35-.33,3.53a56.39,56.39,0,0,0,0,7.12c.06,1.18.16,2.36.3,3.53s.32,2.39.53,3.37l.49,2.36-2.27,1.09c-1.19.57-2.44,1.07-3.59,1.69a31.34,31.34,0,0,0-3.31,2,15.91,15.91,0,0,0-1.53,1.13l-1.4,1.24a17.51,17.51,0,0,0-2.31,2.81,14.91,14.91,0,0,0-2.43,6.67,21,21,0,0,0,.59,7.47,48.2,48.2,0,0,0,6.86,14.5A89.09,89.09,0,0,0-25.42-16.43l2.28,2.32-2.69,1.59A43.89,43.89,0,0,0-38.18-1.94,26.12,26.12,0,0,0-42,5a24,24,0,0,0-1.28,7.81,34.28,34.28,0,0,0,4.31,15.69,55.14,55.14,0,0,0,4.49,7.11A56.87,56.87,0,0,0-29,42l1.14,1.13-1.32.87a13.36,13.36,0,0,0-2.66,2.09A3.66,3.66,0,0,0-33,48.6a4.1,4.1,0,0,0,1.34,2.56,13.91,13.91,0,0,0,2.75,2.11,39.47,39.47,0,0,0,6.61,3.08,64.4,64.4,0,0,0,7,2.19l1.57.38-1.18,1.15c-1.86,1.79-3.77,3.54-5.59,5.38l-2.6,2.87-1.31,1.43c-.44.48-.79,1-1.2,1.52l-2.34,3.08A13.24,13.24,0,0,0-29,75.94l-1,1.63-1,1.63-.52.81-.44.86-1.77,3.42a54.94,54.94,0,0,0-4.41,14.64,50.8,50.8,0,0,0,.4,15.18c1.77,10,6.41,19.35,12.39,27.57a109.88,109.88,0,0,0,9.84,11.71c1.77,1.84,3.62,3.61,5.48,5.35s3.84,3.42,5.76,4.89l1.64,1.26-.87,1.85a33.1,33.1,0,0,0-3.33,12,21.07,21.07,0,0,0,.64,5.94,18.47,18.47,0,0,0,2.5,5.41,28.69,28.69,0,0,0,9.16,8.32,44.22,44.22,0,0,0,5.76,2.88,45.73,45.73,0,0,0,6.07,2.06l2.09.53-.49,2.06a40.18,40.18,0,0,0-1.29,7.95,31.4,31.4,0,0,0,0,4,30.6,30.6,0,0,0,.62,3.93,28.93,28.93,0,0,0,7.75,13.87,50.46,50.46,0,0,0,13.5,9.55,72.47,72.47,0,0,0,7.72,3.34,69,69,0,0,0,8.07,2.49Z"/><path class="cls-9" d="M75.24,305.65a42.3,42.3,0,0,0-3.7,14.45,37.25,37.25,0,0,0,1.69,14.32A45.29,45.29,0,0,0,76.06,341a61.11,61.11,0,0,0,3.85,6.18,74.41,74.41,0,0,0,9.75,11.28l.8.76-.33.84a48.82,48.82,0,0,0-1.58,5,50.89,50.89,0,0,0-1,5.18A27.92,27.92,0,0,0,88,380.61a13.52,13.52,0,0,0,2.17,4.48A9.41,9.41,0,0,0,93.93,388a11.93,11.93,0,0,0,4.68.94,23,23,0,0,0,4.93-.46l1.11-.18.86,1.11a35.86,35.86,0,0,0,3.62,4.05,30.75,30.75,0,0,0,4.15,3.45,18.09,18.09,0,0,0,9.38,3.52,13.34,13.34,0,0,0,4.77-.62,18.37,18.37,0,0,0,4.53-2.1,36.17,36.17,0,0,0,8-7l4.17-4.73.93,6.11a19.41,19.41,0,0,0,.5,2.25c.21.78.46,1.55.72,2.32a25.6,25.6,0,0,0,2,4.38,17.07,17.07,0,0,0,6.46,6.62,14,14,0,0,0,4.43,1.59,19.17,19.17,0,0,0,4.93.3,39,39,0,0,0,10.18-2.14l.24.5a31.19,31.19,0,0,1-10.06,4.27,19.2,19.2,0,0,1-11.47-.79,20.51,20.51,0,0,1-9-7.59,31.34,31.34,0,0,1-2.81-5.1,28.69,28.69,0,0,1-1-2.72,27,27,0,0,1-.79-2.91l5.09,1.38a36.27,36.27,0,0,1-9.32,8.46,21,21,0,0,1-12.86,3.2,23.28,23.28,0,0,1-12-5.1,34.32,34.32,0,0,1-8.17-9.42l2,.93a26.68,26.68,0,0,1-5.78-.2,15,15,0,0,1-5.6-1.88,12.61,12.61,0,0,1-4.25-4.09,16.24,16.24,0,0,1-2.15-5.27,27.11,27.11,0,0,1-.67-5.5,50.07,50.07,0,0,1,.11-5.48q.17-2.73.59-5.44c.25-1.82.57-3.58,1-5.44l.47,1.6A55.64,55.64,0,0,1,76,350.15l-1.25-1.59-1.13-1.67-.57-.85-.5-.88c-.33-.59-.68-1.18-1-1.78a41.81,41.81,0,0,1-3-7.61,37.47,37.47,0,0,1-1.2-8.08,36.22,36.22,0,0,1,.68-8.07,32.83,32.83,0,0,1,6.68-14.29Z"/><path class="cls-9" d="M592.33,144.23a27,27,0,0,0,2.46-5,29.78,29.78,0,0,0,1.5-5.35,27.5,27.5,0,0,0-.14-10.85,30.1,30.1,0,0,0-4.22-9.89,44.3,44.3,0,0,0-7.06-8.26l-1.72-1.62,1.88-1.64a32.2,32.2,0,0,0,3.31-3.46,34.77,34.77,0,0,0,2.83-4,25.71,25.71,0,0,0,3.58-8.76,21.66,21.66,0,0,0,.4-4.61,25.36,25.36,0,0,0-.63-4.58,28.57,28.57,0,0,0-4-8.57l-1.34-2,1.94-1.34c1.29-.9,2.69-2,4-3.12s2.6-2.26,3.84-3.46a77,77,0,0,0,7-7.7,55,55,0,0,0,9.69-18.32A45.37,45.37,0,0,0,616.8,11,51.12,51.12,0,0,0,614,.86a60.89,60.89,0,0,0-4.64-9.41l-.65-1.08,1.23-.63a18.12,18.12,0,0,0,5.66-4.57,12.66,12.66,0,0,0,2.79-6.4,14.06,14.06,0,0,0,0-3.49,17.57,17.57,0,0,0-.88-3.46A28.85,28.85,0,0,0,614-34.7l-1.22-1.8,2-1.27a37.43,37.43,0,0,0,3.73-2.83,44.55,44.55,0,0,0,3.44-3.29,32.53,32.53,0,0,0,5.37-7.61,22.8,22.8,0,0,0,2.39-8.65A22.78,22.78,0,0,0,628.46-69a33.66,33.66,0,0,0-4.24-8.23,58.73,58.73,0,0,0-6.07-7.38A86.12,86.12,0,0,0,611-91.21c-2.5-2.11-5.1-4.11-7.77-6L601-98.86l1.44-2.32c.88-1.4,1.78-3.06,2.58-4.65s1.56-3.27,2.28-4.93A73.43,73.43,0,0,0,610.85-121c1.81-7,2.58-14.25,1.24-21.24a34.57,34.57,0,0,0-3.5-10,36.82,36.82,0,0,0-6.49-8.57c-5.14-5.18-11.71-8.91-18.55-11.89l.19-.53a63.11,63.11,0,0,1,10.56,4.16,47.79,47.79,0,0,1,9.63,6.27,38.8,38.8,0,0,1,7.68,8.8,38.11,38.11,0,0,1,4.58,10.88,51.47,51.47,0,0,1-.29,23.36,77.76,77.76,0,0,1-3.44,11.12c-.7,1.81-1.49,3.58-2.33,5.33s-1.7,3.44-2.77,5.24l-.8-3.93c2.82,1.94,5.6,4,8.28,6.16a91.1,91.1,0,0,1,7.65,7.08c4.82,5,9.11,11,11.35,18a28.25,28.25,0,0,1,1.25,11,28.16,28.16,0,0,1-3.2,10.59,35.84,35.84,0,0,1-6.48,8.61,40.34,40.34,0,0,1-4,3.52A38.64,38.64,0,0,1,617-34l.74-3.07a30.35,30.35,0,0,1,3.46,7.71,21.72,21.72,0,0,1,.78,4.27,17.57,17.57,0,0,1-.26,4.4,16,16,0,0,1-3.94,7.73,20.2,20.2,0,0,1-3.18,2.82A19.69,19.69,0,0,1,610.85-8l.59-1.71A81.63,81.63,0,0,1,615.78.18a63.07,63.07,0,0,1,2.73,10.48,55.86,55.86,0,0,1,.68,10.81,55.11,55.11,0,0,1-1.5,10.76,62.68,62.68,0,0,1-8.83,19.86,71.14,71.14,0,0,1-6.76,8.63c-1.24,1.35-2.51,2.66-3.86,3.91A53.78,53.78,0,0,1,594,68.25l.59-3.39A30.34,30.34,0,0,1,599.41,75a26.61,26.61,0,0,1,.77,5.7,27.36,27.36,0,0,1-.59,5.72,30.46,30.46,0,0,1-4.42,10.3,39.2,39.2,0,0,1-3.39,4.37,35.57,35.57,0,0,1-4,3.88l.16-3.26a44.41,44.41,0,0,1,7.26,9.45,31.17,31.17,0,0,1,3.93,11.32,28,28,0,0,1-.9,11.81,28.59,28.59,0,0,1-5.42,10.29Z"/><path class="cls-9" d="M120.13,17.25c.52,1.47.9,2.77,1.27,4.16s.7,2.75,1,4.13a84.19,84.19,0,0,1,1.35,8.34,78.08,78.08,0,0,1,.1,16.88,61.36,61.36,0,0,1-4.08,16.39A52.14,52.14,0,0,1,111,81.55a62.38,62.38,0,0,1-12.54,11,73.75,73.75,0,0,1-7.22,4.12l-1.85.93a17.82,17.82,0,0,1-1.88.87l-3.83,1.57c-10.28,4-21.15,6.09-32,7.31,10.79-1.68,21.52-4.21,31.47-8.61l3.69-1.71a16.2,16.2,0,0,0,1.81-.92l1.77-1a74.15,74.15,0,0,0,6.84-4.3,60.14,60.14,0,0,0,11.56-11.08c6.63-8.38,10.1-18.85,10.79-29.39a73.87,73.87,0,0,0-.78-15.86,79.08,79.08,0,0,0-1.6-7.79c-.33-1.28-.69-2.55-1.09-3.81s-.83-2.54-1.27-3.63Z"/><path class="cls-9" d="M566.78,366.92a46.14,46.14,0,0,0,12.61,1.28,16,16,0,0,0,5.63-1.38,10.24,10.24,0,0,0,4-3.4c2-2.93,2.71-6.9,2.77-10.88a49.55,49.55,0,0,0-.33-6.06c-.13-1-.25-2-.42-3s-.38-2.05-.57-2.93l-.83-3.67,3.66-.09a26.85,26.85,0,0,0,4.71-.49,16.34,16.34,0,0,0,4.24-1.52,14.09,14.09,0,0,0,6.06-6.48,29.77,29.77,0,0,0,2.56-9.47,42.68,42.68,0,0,0,0-10.29l-.09-.69.36-.38a25.87,25.87,0,0,0,2.85-3.7,15.93,15.93,0,0,0,1.81-4.23,12.52,12.52,0,0,0-1.08-8.91,21.62,21.62,0,0,0-6.12-7,31.48,31.48,0,0,0-3.94-2.64,34.18,34.18,0,0,0-4.2-2.09l-2.35-.95,2.17-1.8a21.54,21.54,0,0,0,2.19-2.11c.71-.77,1.35-1.59,2-2.41a36,36,0,0,0,3.18-5.27,31.23,31.23,0,0,0,3.19-11.71,32.49,32.49,0,0,0-.11-6.23,44.22,44.22,0,0,0-1.07-6.29,86.4,86.4,0,0,0-4.11-12.49l.49-.29A45.84,45.84,0,0,1,612.89,241c.41,1.08.82,2.16,1.13,3.28a33.08,33.08,0,0,1,.88,3.39,36.9,36.9,0,0,1,.69,7.06A28.61,28.61,0,0,1,612,268.58a27.72,27.72,0,0,1-4.35,5.71,28.49,28.49,0,0,1-2.66,2.37,23.34,23.34,0,0,1-3,2l-.18-2.75A45.75,45.75,0,0,1,610,281.9a30.25,30.25,0,0,1,3.48,3.67,22.78,22.78,0,0,1,2.78,4.26,16.76,16.76,0,0,1,1.56,4.91,14.78,14.78,0,0,1-.2,5.18,17.92,17.92,0,0,1-1.78,4.84A27.12,27.12,0,0,1,613,309l.26-1.08a48.08,48.08,0,0,1,1.54,11,28.41,28.41,0,0,1-1.92,11.32,19.16,19.16,0,0,1-7.82,9.32,24,24,0,0,1-11.58,3.17l2.84-3.76c.31,1.23.5,2.3.69,3.45s.34,2.26.43,3.4a43.14,43.14,0,0,1,.1,6.92,29.14,29.14,0,0,1-1.26,7,18,18,0,0,1-3.52,6.57,14,14,0,0,1-6.3,4.22,18.42,18.42,0,0,1-7.12.74,35.46,35.46,0,0,1-12.77-3.88Z"/><path class="cls-9" d="M301.29,358.16a7.54,7.54,0,0,1-2.49-3.74c-1.23-.15-2.44-.34-3.61-.59a7.09,7.09,0,0,1-2.95,6c-3.27,2.44-3.54,6.25-7.89,1.09-3.55-4.22-4.38-8.44-3.39-12.5-1.31-.75-2.46-1.48-3.43-2.15-3,6.68-6.26,15-2.43,22.3-.6-2.69-.81-4.61-.81-4.61,3.34-1.8,7.57,2.46,7.57,2.46a61.77,61.77,0,0,0,22.48,25.37l-.12-1.21c-1.63-20.82,10-31.45,10-31.45a3,3,0,0,0,1.12-.66C312.22,359.85,306.29,362.16,301.29,358.16Z"/><ellipse class="cls-14" cx="327.12" cy="235.81" rx="19.28" ry="11.06" transform="translate(-25.47 40.11) rotate(-6.75)"/><ellipse class="cls-14" cx="323.7" cy="154.38" rx="15.34" ry="4.39" transform="translate(-15.91 39.15) rotate(-6.75)"/><path class="cls-9" d="M488.09,653.12a73.81,73.81,0,0,0-9.69-17,59.75,59.75,0,0,0-13.93-13.47,205.26,205.26,0,0,1-31.12-24.49A149.53,149.53,0,0,1,420,583.46a120.85,120.85,0,0,1-11.12-16.61,103.41,103.41,0,0,1-8-18.39,93.05,93.05,0,0,1-2.54-9.75c-.33-1.65-.66-3.3-.87-5l-.36-2.5-.31-2.43c-3.33-26-8.2-52-8.78-78.62a181,181,0,0,1,3.17-39.84,129.58,129.58,0,0,1,13.71-37.78l-.32.81c2-8.5,4-16.92,6.11-25.35s4.29-16.84,6.59-25.22,4.71-16.74,7.3-25.05,5.32-16.6,8.42-24.79l-.13.45A190,190,0,0,1,438,254.28a132.32,132.32,0,0,1,7.45-18.45,71.42,71.42,0,0,1,5.16-8.71,38,38,0,0,1,7-7.73,19.14,19.14,0,0,1,10.2-4.38,18.69,18.69,0,0,1,10.8,2.6l-3.71,1.7c1.72-7.86,3.85-15.47,6.31-23.06A197.76,197.76,0,0,1,489.87,174a102.05,102.05,0,0,1,12.34-20.69,50.34,50.34,0,0,1,8.72-8.66,28.58,28.58,0,0,1,11.31-5.4l-1.41,1.68A56.16,56.16,0,0,1,522,133a51.54,51.54,0,0,1,2.23-7.6,34.37,34.37,0,0,1,3.65-7.14,21.79,21.79,0,0,1,5.73-5.88,17.51,17.51,0,0,1,7.77-2.9,19,19,0,0,1,4.13,0,26.8,26.8,0,0,1,4,.67,24,24,0,0,1,7.42,3.22,21.69,21.69,0,0,1,5.82,5.64l-.44-.38,2.9,1.57.78.42-.14.85L561.34,148l-1.51-1a4.7,4.7,0,0,1,1-.37,5.25,5.25,0,0,1,.94-.15,7.44,7.44,0,0,1,1.83,0,11.41,11.41,0,0,1,3.35,1.06,21.7,21.7,0,0,1,5.36,4c.38.41.76.77,1.15,1.21a7,7,0,0,1,1,1.54,13.6,13.6,0,0,1,1,3.28,34.82,34.82,0,0,1,.56,6.56,102.85,102.85,0,0,1-.94,12.92c-.54,4.26-1.23,8.5-2,12.72-1.52,8.45-3.29,16.84-4.92,25.22-.82,4.17-1.34,8.39-1.91,12.64s-1.06,8.49-1.55,12.73c-1,8.5-1.95,17-2.83,25.51l-.63,6.39c-.18,2.12-.44,4.26-.5,6.32-.12,4.23-.11,8.52-.15,12.8-.06,8.56-.14,17.13-.45,25.72-.16,4.29-.38,8.59-.74,12.9-.19,2.16-.4,4.31-.71,6.48a43.94,43.94,0,0,1-1.37,6.61l-1.54-2.55c4.8,1.13,7.58,5,8.88,8.82a28.29,28.29,0,0,1,1,11.67,92.1,92.1,0,0,1-1.94,11c-.69,3.52-1.32,7.06-1.78,10.62a152.44,152.44,0,0,0-1.41,21.43,93,93,0,0,0,.61,10.6c.11.86.22,1.72.39,2.55a9.23,9.23,0,0,0,.25,1.23l.31,1.35a21.61,21.61,0,0,1,.39,3.08c.06,1,.09,1.92.11,2.86a204,204,0,0,1-1.28,22.08q-1.15,10.95-3,21.8c-.62,3.62-1.3,7.23-2.09,10.84-.4,1.8-.82,3.6-1.29,5.4-.22.89-.49,1.79-.73,2.69l-.4,1.34-.2.68-.17.6a40,40,0,0,0-1.3,10.17,75.06,75.06,0,0,0,.66,10.56,126.77,126.77,0,0,0,13.3,40.58c.81,1.6,1.71,3.15,2.57,4.73s1.8,3.1,2.79,4.6c1.89,3,4,6,6.12,8.84s4.48,5.59,6.89,8.25c1.24,1.28,2.44,2.62,3.74,3.85l1.93,1.88,2,1.9A263.7,263.7,0,0,1,621,619.7a352.4,352.4,0,0,1,23.92,36.62l-.48.28c-3.8-6.2-7.9-12.21-12.06-18.17s-8.51-11.78-13-17.48-9.19-11.23-14.06-16.6S595.36,593.78,590,588.9l-2-1.82-2-1.89c-1.37-1.24-2.64-2.59-4-3.89-2.53-2.69-5-5.47-7.26-8.38s-4.46-5.9-6.46-9c-1-1.53-2-3.13-3-4.7s-1.87-3.18-2.73-4.82a133.57,133.57,0,0,1-8.93-20.27,117.61,117.61,0,0,1-5.35-21.58,80.54,80.54,0,0,1-.83-11.22,42.87,42.87,0,0,1,1.4-11.44l.19-.71.19-.64.37-1.27c.23-.86.48-1.71.69-2.58.44-1.73.84-3.48,1.22-5.23.75-3.51,1.4-7.06,2-10.62,1.18-7.12,2.1-14.3,2.82-21.49.36-3.6.65-7.2.89-10.79s.39-7.19.36-10.72c0-.88,0-1.75-.09-2.6a17.77,17.77,0,0,0-.28-2.32c0-.24-.2-.86-.3-1.32s-.22-1-.29-1.44c-.19-1-.31-1.91-.43-2.85a96,96,0,0,1-.61-11.19,156.88,156.88,0,0,1,1.7-22.11c.52-3.66,1.19-7.29,2-10.9a91,91,0,0,0,2.09-10.47,24.19,24.19,0,0,0-.61-9.94,11,11,0,0,0-2.18-4,8,8,0,0,0-1.65-1.42,7.81,7.81,0,0,0-.93-.52l-.48-.19-.22-.07-.13,0-1.54-2.55A39.27,39.27,0,0,0,555,336c.34-2.06.59-4.16.82-6.27.44-4.21.74-8.46,1-12.71.49-8.51.75-17.06,1-25.61.13-4.28.22-8.55.43-12.87.12-2.22.42-4.33.65-6.46l.76-6.38c1-8.5,2.07-17,3.18-25.49l1.68-12.74c.59-4.23,1.13-8.52,2-12.73,1.66-8.42,3.51-16.77,5-25.18.74-4.21,1.41-8.42,1.93-12.65a102.1,102.1,0,0,0,.89-12.68,33.52,33.52,0,0,0-.57-6.21,12,12,0,0,0-.93-2.81A5.36,5.36,0,0,0,572,154c-.32-.35-.71-.73-1.07-1.1a19.46,19.46,0,0,0-4.87-3.62,9.71,9.71,0,0,0-2.75-.85,5.73,5.73,0,0,0-1.37,0,4.27,4.27,0,0,0-.64.11,2.79,2.79,0,0,0-.5.17l-1.8.9.29-1.94,4.08-26.6.64,1.28-2.93-1.52-.25-.13-.18-.25a21.11,21.11,0,0,0-19-8.06,14.29,14.29,0,0,0-6.42,2.51c-3.83,2.7-6.34,7.1-8,11.69a53.28,53.28,0,0,0-2.89,14.47l-.08,1.37-1.33.31a25.11,25.11,0,0,0-9.76,4.92,46.57,46.57,0,0,0-7.85,8.13,100.77,100.77,0,0,0-11.52,20,195.3,195.3,0,0,0-8.16,21.88c-2.3,7.44-4.32,15.06-5.88,22.62l-.68,3.35-3-1.65a13.73,13.73,0,0,0-7.87-1.89,13.88,13.88,0,0,0-7.4,3.33,32.19,32.19,0,0,0-6,6.7,63.3,63.3,0,0,0-4.71,8.09,126.15,126.15,0,0,0-7,17.73,182,182,0,0,0-4.86,18.54l0,.23-.08.22c-3,8.05-5.61,16.26-8.12,24.51s-4.8,16.59-7.09,24.92-4.43,16.72-6.54,25.11-4.13,16.81-6,25.21l-.1.44-.21.38a123.86,123.86,0,0,0-13.28,36,183.09,183.09,0,0,0-3.38,38.6,366,366,0,0,0,2.8,39c1.52,13,3.43,26,4.92,39.14l.27,2.46.32,2.39c.18,1.59.47,3.17.77,4.75a95,95,0,0,0,2.28,9.35,99.35,99.35,0,0,0,7.35,17.85,116,116,0,0,0,10.45,16.36,146.46,146.46,0,0,0,12.78,14.73,215.7,215.7,0,0,0,30.14,25,61.34,61.34,0,0,1,13.89,14.24,73.3,73.3,0,0,1,9.22,17.51Z"/><path class="cls-20" d="M332.08,282c-5.37,0-10.75-.13-16.09-.21-2.67,0-5.33,0-8,.1-1.33.05-2.65.14-4,.25s-2.66.28-3.89.42a38.8,38.8,0,0,0-14.37,5.5,54.3,54.3,0,0,0-12,9.9,52,52,0,0,0-13.17,28c-1.45,10.46.21,21.24,3.65,31.36l-.27.1a74.28,74.28,0,0,1-4.67-15.45,58.94,58.94,0,0,1-.69-16.25,52.58,52.58,0,0,1,4.17-15.82,54.14,54.14,0,0,1,21.52-24.34,41.31,41.31,0,0,1,15.53-5.73,34,34,0,0,1,4.13-.16c1.36,0,2.71,0,4.06,0,2.71.07,5.4.24,8.09.45,5.37.4,10.68,1.14,16,1.57Z"/></g></g></svg>