<svg xmlns="http://www.w3.org/2000/svg" xmlns:xlink="http://www.w3.org/1999/xlink" viewBox="0 0 1020 574"><defs><style>.cls-1{fill:none;}.cls-2{isolation:isolate;}.cls-3{fill:url(#Unbenannter_Verlauf_18);}.cls-4{fill:#e9f2fb;}.cls-5{fill:#f4f9fd;}.cls-6{clip-path:url(#clip-path);}.cls-7{fill:#fff;}.cls-8{fill:url(#Unbenannter_Verlauf_45);}.cls-9{fill:#626061;}.cls-10,.cls-13{fill:#908d8d;}.cls-11{fill:#e1d3bb;}.cls-12{fill:#94c7ed;}.cls-13,.cls-15,.cls-28,.cls-33{mix-blend-mode:multiply;}.cls-14{fill:#655551;}.cls-15,.cls-18{fill:#3c3c3d;}.cls-15{opacity:0.5;}.cls-16{fill:#f2d5c9;}.cls-17{fill:#e2a797;}.cls-19{fill:#d3554c;}.cls-20{fill:#c4c1c2;}.cls-21{fill:#de8273;}.cls-22{fill:#e6e5e5;}.cls-23{fill:#b3d5f2;}.cls-24{fill:#c6ac7a;}.cls-25{fill:#b68042;}.cls-26{fill:#756b5a;}.cls-27{fill:#b5ada3;}.cls-29{fill:#ece8e5;}.cls-30{fill:#a79f93;}.cls-31{fill:#817767;}.cls-32{fill:#c0915b;}.cls-33{fill:url(#Unbenannter_Verlauf_7);}</style><linearGradient id="Unbenannter_Verlauf_18" x1="510" y1="510" x2="510" gradientUnits="userSpaceOnUse"><stop offset="0" stop-color="#e9f2fb"/><stop offset="1" stop-color="#d3e5f7"/></linearGradient><clipPath id="clip-path"><rect class="cls-1" x="735" width="285" height="285"/></clipPath><radialGradient id="Unbenannter_Verlauf_45" cx="1008.06" cy="11.26" r="100.41" gradientUnits="userSpaceOnUse"><stop offset="0" stop-color="#fff9ef"/><stop offset="0.23" stop-color="#fff8ec"/><stop offset="0.41" stop-color="#fff5e2"/><stop offset="0.57" stop-color="#ffefd1"/><stop offset="0.73" stop-color="#ffe7b9"/><stop offset="0.88" stop-color="#fedd9b"/><stop offset="1" stop-color="#fed37c"/></radialGradient><linearGradient id="Unbenannter_Verlauf_7" x1="510" y1="574" x2="510" y2="416.44" gradientUnits="userSpaceOnUse"><stop offset="0" stop-color="#f0e9dc"/><stop offset="0.1" stop-color="#f6f2eb"/><stop offset="0.24" stop-color="#fbfaf6"/><stop offset="0.44" stop-color="#fefefd"/><stop offset="1" stop-color="#fff"/></linearGradient></defs><title>Frame 8</title><g class="cls-2"><g id="Himmel"><rect class="cls-3" width="1020" height="510"/></g><g id="Wolken"><path class="cls-4" d="M581.47,222.59c0-11.26-31.9-20.77-75.72-23.89a50.35,50.35,0,0,0-44.36-26.48c-.68,0-1.36,0-2,.05C447,156.5,429,146.54,408.93,146.54c-25.7,0-48,16.3-59.36,40.24a35.88,35.88,0,0,0-33.76,35.81Z"/><path class="cls-5" d="M475.12,222.59c0-6-23.42-11.12-55.6-12.79-6.24-8.44-18.48-14.17-32.56-14.17l-1.5,0c-9-8.44-22.28-13.77-37-13.77-18.87,0-35.26,8.72-43.58,21.54-13.82.59-24.79,8.94-24.79,19.17Z"/></g><g id="Sonne"><g class="cls-6"><circle class="cls-7" cx="1008.06" cy="11.26" r="107.58"/><circle class="cls-8" cx="1008.06" cy="11.26" r="100.41"/><polygon class="cls-7" points="1012.28 118.83 1008.06 262.27 1003.84 118.83 1012.28 118.83"/><polygon class="cls-7" points="900.58 15.57 757.14 11.35 900.58 7.13 900.58 15.57"/><polygon class="cls-7" points="935.04 90.33 830.63 188.78 929.08 84.37 935.04 90.33"/><polygon class="cls-7" points="910.37 56.38 776.24 107.38 907.15 48.59 910.37 56.38"/><polygon class="cls-7" points="970.82 112.27 912.04 243.17 963.03 109.04 970.82 112.27"/><polygon class="cls-7" points="903.19 35.08 832.3 46.31 902.1 29.56 903.19 35.08"/><polygon class="cls-7" points="950.68 102.28 908.5 160.35 946.01 99.16 950.68 102.28"/><polygon class="cls-7" points="920.25 73.4 859.06 110.91 917.13 68.73 920.25 73.4"/><polygon class="cls-7" points="989.85 117.32 973.1 187.11 984.33 116.22 989.85 117.32"/></g></g><g id="Archäologe"><path class="cls-9" d="M42.24,453.12H66.31a7.09,7.09,0,0,1,7.09,7.09v40.71a0,0,0,0,1,0,0H35.16a0,0,0,0,1,0,0V460.21A7.09,7.09,0,0,1,42.24,453.12Z" transform="translate(-41.37 6.55) rotate(-5)"/><rect class="cls-10" x="44.84" y="357.79" width="6.37" height="95.6" transform="translate(-35.17 5.73) rotate(-5)"/><polygon class="cls-9" points="47.89 367.4 41.05 362.36 40.69 358.25 47.04 357.69 47.89 367.4"/><path class="cls-10" d="M69.13,461a6.37,6.37,0,0,0-6.84-5.32l-5,.44.42,4.77a4.78,4.78,0,0,1-9.53.83L47.73,457l-5,.44a6.37,6.37,0,0,0-5.82,6.42l.44,38.65,38.1-3.34Z"/><path class="cls-10" d="M50.14,338.32l1,11.71a3.17,3.17,0,0,1-2.89,3.45l-9.53.84a3.19,3.19,0,0,1-3.45-2.9l-1-11.71-4,.35,1,11a8,8,0,0,0,8.63,7.24l7.94-.69A8,8,0,0,0,55.07,349l-1-11Z"/><rect class="cls-9" x="34.54" y="340.33" width="15.93" height="4.34" transform="translate(-29.69 5.01) rotate(-5)"/><ellipse class="cls-11" cx="68.8" cy="485.78" rx="0.78" ry="1.05" transform="translate(-43.7 8.23) rotate(-5.2)"/><ellipse class="cls-11" cx="63" cy="478.4" rx="0.78" ry="1.05" transform="translate(-46.28 8.41) rotate(-5.59)"/><ellipse class="cls-11" cx="42.43" cy="482.99" rx="0.55" ry="1.05" transform="translate(-81.3 14.2) rotate(-9.77)"/><ellipse class="cls-11" cx="40.14" cy="473.96" rx="0.78" ry="1.05" transform="translate(-88.65 16.07) rotate(-10.87)"/><ellipse class="cls-11" cx="58.44" cy="480.93" rx="0.78" ry="1.05" transform="translate(-60.96 11.41) rotate(-7.34)"/><ellipse class="cls-11" cx="59.6" cy="483.1" rx="1.1" ry="2.38" transform="translate(-66.3 12.9) rotate(-7.96)"/><ellipse class="cls-11" cx="53.91" cy="488.77" rx="2.44" ry="5.29" transform="translate(-437.03 516.82) rotate(-86.98)"/><ellipse class="cls-11" cx="52.77" cy="485.52" rx="2.87" ry="5.29" transform="translate(-434.86 512.59) rotate(-86.98)"/><ellipse class="cls-11" cx="46.15" cy="488.28" rx="3.19" ry="5.29" transform="translate(-443.89 508.61) rotate(-86.98)"/><ellipse class="cls-11" cx="49.02" cy="477.86" rx="1.1" ry="2.39" transform="translate(-86.55 17.02) rotate(-10.54)"/><ellipse class="cls-11" cx="59.89" cy="487.75" rx="4.35" ry="5.87" transform="translate(-428.07 545.85) rotate(-89.79)"/><ellipse class="cls-11" cx="65.98" cy="489.41" rx="4.06" ry="5.48" transform="translate(-423.67 553.6) rotate(-89.79)"/><ellipse class="cls-11" cx="66.24" cy="482.17" rx="1.28" ry="2.2" transform="translate(-51.81 10.01) rotate(-6.21)"/><ellipse class="cls-11" cx="53.91" cy="483.43" rx="1.56" ry="2.11" transform="translate(-89.47 18.61) rotate(-10.78)"/><polygon class="cls-12" points="142.47 230.84 161.87 232.15 158.32 241.19 161.1 246.28 155.83 276.05 142.47 230.84"/><polygon class="cls-13" points="142.47 230.84 161.87 232.15 158.32 241.19 161.1 246.28 155.83 276.05 142.47 230.84"/><path class="cls-14" d="M175.21,195.62a10.09,10.09,0,0,0,2.28-5.14c.83-6.61-5.27-12.82-13.62-13.87s-15.8,3.45-16.63,10.06,5.26,12.83,13.62,13.88h0l-.14.79c8.56,1.61,16.54-2.57,17.82-9.35a8.87,8.87,0,0,0,.16-1.35A10.92,10.92,0,0,1,175.21,195.62Z"/><path class="cls-15" d="M175.21,195.62a10.09,10.09,0,0,0,2.28-5.14c.83-6.61-5.27-12.82-13.62-13.87s-15.8,3.45-16.63,10.06,5.26,12.83,13.62,13.88h0l-.14.79c8.56,1.61,16.54-2.57,17.82-9.35a8.87,8.87,0,0,0,.16-1.35A10.92,10.92,0,0,1,175.21,195.62Z"/><rect class="cls-16" x="125.94" y="206.67" width="37.72" height="20.41" transform="translate(-88.46 333.46) rotate(-82.83)"/><path class="cls-17" d="M171.32,201.21l3.89,13.07s.9,2.31-7.45,1.57Z"/><path class="cls-17" d="M137.15,196.91l20.13,2.53-4,31.7L153,231c-8.73-5.28-16.54-16.61-16.9-27l.81-6.44c.06-.22.13-.43.2-.64"/><polygon class="cls-16" points="171.85 423.8 169.23 477.72 153.34 478.42 153.14 427.34 171.85 423.8"/><polygon class="cls-7" points="169.99 462.04 169.23 477.72 153.34 478.42 153.28 462.04 169.99 462.04"/><polygon class="cls-7" points="171.85 459.82 171.4 465.81 151.18 466.04 150.92 460.29 171.85 459.82"/><path class="cls-16" d="M148.76,223.92c-9.66-5.83-18.18-19.06-16.77-30.24a20.41,20.41,0,1,1,40.5,5.1c-3.11,24.68-11.58,32.47-23.73,25.14"/><path class="cls-17" d="M132,193.68a22.23,22.23,0,0,0,.32,7h39.92c.09-.63.18-1.27.26-1.92a20.31,20.31,0,0,0-4.34-15.31H136.34A20.24,20.24,0,0,0,132,193.68Z"/><path class="cls-14" d="M159,169.94a18.58,18.58,0,0,0-9.59,1.26,10.26,10.26,0,0,0-1.13-.22,11.53,11.53,0,0,0-9.88,4.07c-4.08.73-8,7.57-9.11,16.33-.05.36-.08.72-.11,1.08-3.3,5.67-3.16,12.25.82,16.15a9.57,9.57,0,0,0,1,.88,12.14,12.14,0,0,1-1.86-10.27c.6,5.9,2.85,10.19,6,10.59,3,.37,6-2.75,8.07-7.71a9,9,0,0,0,1.06.21c4.93.62,9.64-2.5,12.3-7.51,8.33.73,15.62-3.85,16.46-10.49C174,177.46,167.63,171,159,169.94Z"/><polygon class="cls-9" points="157.17 325.75 175.22 396.82 174.85 432.76 148.71 433.45 149.77 400.36 121.45 325.75 157.17 325.75"/><polygon class="cls-16" points="137.82 400.41 133.69 477.72 117.8 478.42 118.95 398.19 137.82 400.41"/><polygon class="cls-10" points="155.34 325.75 139.86 398.63 139.17 432.76 115.55 433.45 113.39 325.75 155.34 325.75"/><polygon class="cls-9" points="113.82 355.6 134.15 355.6 137.59 347.73 138.44 355.6 150.55 355.6 148.07 367.27 130.79 367.27 129.75 357.66 125.55 367.27 113.98 367.27 113.82 355.6"/><path class="cls-12" d="M138,233.53c-23.62,1.66-25.71,112.8-25.71,112.8l-3.11,9.27h24.93l3.44-7.87.85,7.87h25.75S179.15,230.65,138,233.53Z"/><polygon class="cls-18" points="169.23 477.72 201.06 495.43 148.19 494.3 153.34 478.42 169.23 477.72"/><polygon class="cls-9" points="133.69 477.72 156.11 494.3 112.65 494.3 117.8 478.42 133.69 477.72"/><path class="cls-19" d="M159.35,346.33s11.59-73.57-12.09-111.14a22.66,22.66,0,0,0-19.79-1.66s-34.08,18-15.14,112.8Z"/><ellipse class="cls-12" cx="133.4" cy="262.54" rx="12.9" ry="18.92"/><polygon class="cls-13" points="154.55 233.18 126.96 230.84 125.89 234.39 133.48 236.87 149.54 247.04 154.55 233.18"/><polygon class="cls-12" points="154.55 233.18 127.22 227.53 125.66 232.03 148.83 244.1 154.55 233.18"/><rect class="cls-10" x="111.12" y="398.19" width="18.75" height="26.08"/><rect class="cls-9" x="111.12" y="398.19" width="18.75" height="4.44"/><polygon class="cls-20" points="108.03 398.94 129.88 398.94 131.42 388.32 109.58 388.32 108.03 398.94"/><path class="cls-21" d="M110.71,337.65q.74,4.23,1.62,8.68h47s.51-3.24,1.09-8.68Z"/><polygon class="cls-9" points="129.88 398.94 129.88 424.27 131.42 416.74 131.42 388.32 129.88 398.94"/><polygon class="cls-7" points="134.31 466.04 133.69 477.72 117.8 478.42 117.98 465.66 134.31 466.04"/><polygon class="cls-7" points="137.1 464.58 136.55 470.15 134.84 470.12 118.68 469.8 116.4 469.76 116.4 465.17 137.1 464.58"/><polygon class="cls-22" points="117.92 469.81 134.1 470.11 133.99 472.04 117.92 471.05 117.92 469.81"/><polygon class="cls-22" points="153.28 466.04 169.81 465.83 169.69 468.27 153.3 467.37 153.28 466.04"/><polygon class="cls-17" points="118.45 433.36 136.09 432.85 135.87 437.01 118.45 435.72 118.45 433.36"/><polygon class="cls-17" points="153.14 433.33 171.44 432.85 171.29 435.24 153.14 437.64 153.14 433.33"/><path class="cls-14" d="M168.27,216.53a7.68,7.68,0,0,0-9.55-.43s-8.56,6.93-6.06-.75c3.09-9.53-.25-16.58-.25-16.58l-4,1.41s2.46,7-1.29,11.65c-4.69,5.75-2.92,8.72-2.92,8.72S162.51,242.15,168.27,216.53Z"/><path class="cls-15" d="M159,169.94a18.58,18.58,0,0,0-9.59,1.26,10.26,10.26,0,0,0-1.13-.22,11.53,11.53,0,0,0-9.88,4.07c-4.08.73-8,7.57-9.11,16.33-.05.36-.08.72-.11,1.08a16.24,16.24,0,0,0-2.32,8.24h2c.07-.49.15-1,.27-1.48.05.51.12,1,.19,1.48h21.92a15.39,15.39,0,0,0,5.36-5.9c8.33.73,15.62-3.85,16.46-10.49C174,177.46,167.63,171,159,169.94Z"/><path class="cls-16" d="M144,209.71c-2.8,0-5.09-2.92-5.11-6.57s2.23-6.6,5-6.62,5.09,2.92,5.11,6.57-2.23,6.61-5,6.62"/><path class="cls-17" d="M148.18,199.58a4.51,4.51,0,0,0-8.54,0Z"/><polygon class="cls-20" points="126.51 193.81 129.74 167.09 160.67 157.38 177.72 182.07 126.51 193.81"/><polygon class="cls-10" points="126.51 193.81 127.89 182.44 170.85 172.12 177.72 182.07 126.51 193.81"/><polygon class="cls-20" points="107.36 205.52 151.94 188.76 197.51 182.96 192.56 179.57 151.02 180.88 114.18 193.18 107.36 205.52"/><circle class="cls-17" cx="180.61" cy="357.5" r="3.44"/><rect class="cls-10" x="178.78" y="333.8" width="3.19" height="39.83" transform="translate(399.16 22.38) rotate(60.46)"/><polygon class="cls-20" points="162.86 365.48 161.29 362.71 166.28 358.59 168.96 363.31 162.86 365.48"/><path class="cls-10" d="M201.83,348.89l-6.29-11.09L190,340.94,196.28,352c.22.38,1.64,0,3.17-.88S202,349.27,201.83,348.89Z"/><ellipse class="cls-20" cx="192.77" cy="339.37" rx="3.19" ry="0.8" transform="translate(-142.28 139.18) rotate(-29.54)"/><polygon class="cls-9" points="192.35 345.1 193.92 347.87 192.53 348.66 191.66 345.49 192.35 345.1"/><polygon class="cls-9" points="173.44 355.82 175.75 358.17 172.41 360.07 171.38 356.99 173.44 355.82"/><path class="cls-16" d="M188.67,355l-11.51,4.69s-9.28-4.57-7.43-12l-41.4-28.73c-4-2.83-4.78-8.67-1.71-13s9.52-6.44,12.84-2.8c1.95,2.14,36.44,36.32,36.44,36.32L186.41,345Z"/><polygon class="cls-17" points="134.92 323.47 148.35 312.01 152.01 315.67 140.75 327.52 134.92 323.47"/><path class="cls-12" d="M143.56,255.5a10.18,10.18,0,0,0-20.32.49l1.35,55.46a10.18,10.18,0,0,0,20.32-.5Z"/><polygon class="cls-12" points="145.56 304.96 150.93 313.4 133.14 328.3 121.45 312.87 145.56 304.96"/><polygon class="cls-23" points="145.56 304.96 146.82 306.94 123.57 315.67 121.45 312.87 145.56 304.96"/></g><g id="Boden"><circle class="cls-11" cx="810.43" cy="259.6" r="21.45"/><circle class="cls-11" cx="825.98" cy="235.24" r="21.45"/><circle class="cls-11" cx="859.5" cy="247.26" r="21.45"/><circle class="cls-11" cx="843.23" cy="219.95" r="11.29"/><circle class="cls-11" cx="859.34" cy="232.04" r="15.4"/><circle class="cls-11" cx="806.07" cy="224.8" r="6.87"/><circle class="cls-11" cx="803.7" cy="239.91" r="13.49"/><circle class="cls-11" cx="836.75" cy="259.69" r="15.62"/><circle class="cls-11" cx="878.33" cy="265.13" r="15.62"/><path class="cls-24" d="M710.56,270c26.14-17.54,64.21-18.29,82.39-15.37,55,8.81,85.4,17.07,148.27,9.58,39.48-4.7,78.78,6.93,78.78,6.93v89.94H709.61Z"/><path class="cls-25" d="M1020,276.75s-39.17-10.36-78.78-6.93c-51.49,4.46-92.57,7.08-147.53-1.73-18.18-2.92-46.46-12.62-80.2.74l-4,1.6a40.32,40.32,0,0,0-11.92,9.31c-38.49,45.53-100,83.79-128.07,82.33a27.53,27.53,0,0,0-3.83.64c4.35,3.09,7.22,5,7.22,5l447.15-1Z"/><path class="cls-26" d="M888.74,320.07c-37.29,5.3-59.78-5.94-98-4.46-40,1.56-74.63,1.49-83.72-2.27-9.56-3.94-23.63-4.37-39.41-3.53-35.41,30.7-78.73,51.57-98.13,52.26,0,0-15.49,1.46-21.63,15.22a184.2,184.2,0,0,1-19.9,34.37H1020l0-99.39C971.17,310,959.29,310,888.74,320.07Z"/><path class="cls-27" d="M579.77,360.34a42.53,42.53,0,0,1-9.49.73S554,362.14,547.92,375.9C538.51,397,517,430.57,484,456.63h536V355s-36.51-10-73.2-1.48C905,363.22,849,360.82,794.11,352c-18.15-2.92-51.52-4.08-80.06.74C660.67,361.77,618,362.24,579.77,360.34Z"/><path class="cls-11" d="M599.15,426.21c-39-2-64-1.95-83.06-1.6-29,34.87-75.09,70.17-137.51,70.87C105.69,498.52,5.71,483.5,0,482.6V574H1020V406.41C783.24,391.33,734.19,433.2,599.15,426.21Z"/><g class="cls-28"><ellipse class="cls-29" cx="108.42" cy="538.56" rx="1.29" ry="3.2" transform="translate(-433.02 631.54) rotate(-88.36)"/><ellipse class="cls-29" cx="195.48" cy="546.94" rx="3.16" ry="1.3" transform="translate(-33.19 13.03) rotate(-3.52)"/><ellipse class="cls-29" cx="195.51" cy="541.81" rx="1.5" ry="1.04"/><ellipse class="cls-29" cx="99.78" cy="540.52" rx="1.96" ry="5.11" transform="translate(-441.79 634.46) rotate(-89.38)"/><ellipse class="cls-29" cx="169.87" cy="510.95" rx="0.97" ry="0.72" transform="translate(-16.45 5.77) rotate(-1.86)"/><ellipse class="cls-29" cx="181.08" cy="517.45" rx="0.72" ry="0.97" transform="translate(-352.08 645.07) rotate(-84.17)"/><ellipse class="cls-29" cx="160.31" cy="516.71" rx="0.72" ry="0.97" transform="translate(-360.55 662.95) rotate(-88.45)"/><ellipse class="cls-29" cx="159.92" cy="517.94" rx="2.21" ry="1.02" transform="translate(-0.57 0.18) rotate(-0.06)"/><ellipse class="cls-29" cx="171.24" cy="521.36" rx="2.21" ry="1.02" transform="translate(-9.14 3.09) rotate(-1.01)"/><ellipse class="cls-29" cx="140.33" cy="519.65" rx="1.18" ry="1.6" transform="translate(-382.09 649.26) rotate(-88.82)"/><ellipse class="cls-29" cx="155.14" cy="515.8" rx="1.18" ry="2.04" transform="translate(-363.42 661.44) rotate(-88.95)"/><ellipse class="cls-29" cx="75.5" cy="502.23" rx="1.6" ry="1.18" transform="translate(-8.99 1.43) rotate(-1.03)"/><ellipse class="cls-29" cx="78.97" cy="506.06" rx="1.6" ry="2.16" transform="translate(-431.5 547.94) rotate(-85.82)"/><ellipse class="cls-29" cx="164.84" cy="515.3" rx="1.45" ry="1.95" transform="translate(-357.61 655.83) rotate(-87.32)"/><ellipse class="cls-29" cx="159.27" cy="510.86" rx="1.18" ry="2.93" transform="translate(-354.8 659.47) rotate(-88.81)"/><ellipse class="cls-29" cx="68.58" cy="505.33" rx="3.88" ry="1.57" transform="translate(-4.38 0.61) rotate(-0.5)"/><ellipse class="cls-29" cx="601.85" cy="463.99" rx="3.63" ry="1.49" transform="translate(-27.34 37.8) rotate(-3.52)"/><ellipse class="cls-29" cx="601.89" cy="458.09" rx="1.73" ry="1.19"/><ellipse class="cls-29" cx="832.22" cy="452.21" rx="1.12" ry="0.83" transform="translate(-14.2 27.18) rotate(-1.86)"/><ellipse class="cls-29" cx="845.1" cy="459.69" rx="0.83" ry="1.11" transform="translate(302.01 1253.76) rotate(-84.17)"/><ellipse class="cls-29" cx="833.79" cy="464.17" rx="2.54" ry="1.17" transform="translate(-8.03 14.73) rotate(-1.01)"/><ellipse class="cls-29" cx="798.27" cy="462.21" rx="1.36" ry="1.84" transform="translate(319.74 1250.81) rotate(-88.82)"/><ellipse class="cls-29" cx="815.29" cy="457.79" rx="1.36" ry="2.35" transform="translate(342.61 1264.53) rotate(-88.95)"/><ellipse class="cls-29" cx="826.44" cy="457.21" rx="1.66" ry="2.24" transform="translate(331.03 1261.33) rotate(-87.32)"/><ellipse class="cls-29" cx="820.03" cy="452.11" rx="1.36" ry="3.37" transform="translate(350.96 1262.56) rotate(-88.81)"/><path class="cls-29" d="M243.32,536a1,1,0,0,0,0-.3,2.05,2.05,0,0,0-2.29-1.32,1.76,1.76,0,0,0-1.73,1.25,2.49,2.49,0,0,0-1.93,2.62c.26,1.46,2.09,2.51,4.08,2.35s3.4-1.45,3.14-2.9A3.86,3.86,0,0,0,243.32,536Z"/><ellipse class="cls-29" cx="300.37" cy="531.01" rx="1.04" ry="0.77" transform="translate(-10.37 6) rotate(-1.13)"/><ellipse class="cls-29" cx="395.11" cy="547.78" rx="0.77" ry="1.04" transform="translate(-163.17 927.9) rotate(-88.45)"/><ellipse class="cls-29" cx="394.69" cy="549.1" rx="2.37" ry="1.09" transform="translate(-0.61 0.44) rotate(-0.06)"/><ellipse class="cls-29" cx="389.56" cy="546.8" rx="1.27" ry="2.19" transform="translate(-164.3 926.26) rotate(-88.95)"/><ellipse class="cls-29" cx="280.44" cy="551.94" rx="1.72" ry="1.27" transform="translate(-9.85 5.11) rotate(-1.03)"/><ellipse class="cls-29" cx="284.17" cy="556.05" rx="1.72" ry="2.32" transform="translate(-291.12 798.94) rotate(-85.82)"/><ellipse class="cls-29" cx="399.98" cy="546.26" rx="1.55" ry="2.09" transform="translate(-164.41 920.23) rotate(-87.32)"/><ellipse class="cls-29" cx="273.01" cy="555.27" rx="4.17" ry="1.68" transform="translate(-4.8 2.39) rotate(-0.5)"/><ellipse class="cls-29" cx="724.62" cy="457.1" rx="1.38" ry="3.43" transform="translate(246.99 1168.36) rotate(-88.36)"/><ellipse class="cls-29" cx="826.83" cy="553.32" rx="3.39" ry="1.4" transform="translate(-32.39 51.78) rotate(-3.52)"/><ellipse class="cls-29" cx="826.87" cy="547.81" rx="1.61" ry="1.12"/><ellipse class="cls-29" cx="764.33" cy="499.51" rx="1.61" ry="1.12" transform="translate(-17.44 27.76) rotate(-2.06)"/><ellipse class="cls-29" cx="715.34" cy="459.21" rx="2.1" ry="5.48" transform="translate(248.43 1169.55) rotate(-89.38)"/><ellipse class="cls-29" cx="787.27" cy="535.83" rx="1.04" ry="0.77" transform="translate(-16.93 25.77) rotate(-1.86)"/><ellipse class="cls-29" cx="750.84" cy="502.58" rx="1.04" ry="0.77" transform="translate(-9.73 14.85) rotate(-1.13)"/><ellipse class="cls-29" cx="799.31" cy="542.81" rx="0.78" ry="1.04" transform="translate(178.16 1282.89) rotate(-84.17)"/><ellipse class="cls-29" cx="777" cy="542.01" rx="0.77" ry="1.04" transform="translate(214.13 1304.04) rotate(-88.45)"/><ellipse class="cls-29" cx="776.58" cy="543.34" rx="2.37" ry="1.09" transform="translate(-0.6 0.86) rotate(-0.06)"/><ellipse class="cls-29" cx="788.74" cy="547" rx="2.37" ry="1.09" transform="translate(-9.49 13.95) rotate(-1.01)"/><ellipse class="cls-29" cx="771.45" cy="541.04" rx="1.27" ry="2.19" transform="translate(216.35 1302.42) rotate(-88.95)"/><ellipse class="cls-29" cx="663.45" cy="506.76" rx="1.72" ry="1.27" transform="translate(-8.97 11.97) rotate(-1.03)"/><ellipse class="cls-29" cx="667.19" cy="510.88" rx="1.72" ry="2.32" transform="translate(109.03 1139.05) rotate(-85.82)"/><ellipse class="cls-29" cx="781.87" cy="540.5" rx="1.55" ry="2.09" transform="matrix(0.05, -1, 1, 0.05, 205.36, 1296.2)"/><ellipse class="cls-29" cx="775.88" cy="535.74" rx="1.27" ry="3.15" transform="translate(224.12 1300.31) rotate(-88.81)"/><ellipse class="cls-29" cx="656.02" cy="510.09" rx="4.17" ry="1.68" transform="matrix(1, -0.01, 0.01, 1, -4.4, 5.71)"/><ellipse class="cls-29" cx="575.53" cy="539.03" rx="1.23" ry="2.97" transform="translate(-16.93 1059.39) rotate(-84.42)"/><ellipse class="cls-29" cx="575.74" cy="534.2" rx="0.98" ry="1.41" transform="translate(26.31 1095.42) rotate(-88.46)"/><ellipse class="cls-29" cx="636.26" cy="548.24" rx="3.01" ry="2.23" transform="translate(-3.86 4.51) rotate(-0.4)"/><ellipse class="cls-29" cx="643.1" cy="547.17" rx="1.12" ry="1.51" transform="translate(86.66 1182.27) rotate(-89.17)"/><ellipse class="cls-29" cx="585.23" cy="537.9" rx="0.68" ry="0.92" transform="translate(22.17 1098.97) rotate(-87.49)"/><ellipse class="cls-29" cx="476.45" cy="550.45" rx="0.91" ry="0.68" transform="translate(-41.12 38.47) rotate(-4.43)"/><ellipse class="cls-29" cx="496.03" cy="550.5" rx="0.92" ry="0.68" transform="translate(-1.58 1.43) rotate(-0.16)"/><ellipse class="cls-29" cx="496.34" cy="551.67" rx="0.96" ry="2.08" transform="translate(-72.97 1027.67) rotate(-87.92)"/><ellipse class="cls-29" cx="485.53" cy="554.48" rx="0.96" ry="2.08" transform="translate(-93.8 1010.07) rotate(-86.98)"/><ellipse class="cls-29" cx="514.69" cy="553.99" rx="1.12" ry="1.51" transform="translate(-41.18 1066.64) rotate(-89.79)"/><ellipse class="cls-29" cx="500.94" cy="549.83" rx="1.12" ry="1.92" transform="translate(-55.88 1042.98) rotate(-89.19)"/><ellipse class="cls-29" cx="946.79" cy="442.22" rx="1.12" ry="1.5" transform="translate(465.06 1369.53) rotate(-87.58)"/><ellipse class="cls-29" cx="943.34" cy="445.7" rx="2.03" ry="1.51" transform="translate(-20.57 46.44) rotate(-2.79)"/><ellipse class="cls-29" cx="491.83" cy="549.01" rx="1.84" ry="1.36" transform="translate(-12.28 11.25) rotate(-1.29)"/><ellipse class="cls-29" cx="953.16" cy="445.39" rx="1.48" ry="3.65" transform="translate(465.6 1377.68) rotate(-87.44)"/><ellipse class="cls-29" cx="976.31" cy="515.81" rx="0.98" ry="1.41" transform="translate(399.5 1457.36) rotate(-86.36)"/><ellipse class="cls-29" cx="900.44" cy="498.93" rx="3.01" ry="2.23" transform="translate(-3.5 6.37) rotate(-0.4)"/><path class="cls-29" d="M996.63,556.35a.82.82,0,0,1,0-.27,1.83,1.83,0,0,1,2.07-1.08,1.51,1.51,0,0,1,1.45,1.15,2.17,2.17,0,0,1,1.58,2.37c-.29,1.27-1.94,2.13-3.68,1.92s-2.91-1.39-2.62-2.65A3.41,3.41,0,0,1,996.63,556.35Z"/><ellipse class="cls-29" cx="907.27" cy="497.86" rx="1.12" ry="1.51" transform="translate(396.32 1397.82) rotate(-89.17)"/><ellipse class="cls-29" cx="916.86" cy="557.55" rx="0.68" ry="0.92" transform="translate(319.62 1449.06) rotate(-87.49)"/><ellipse class="cls-29" cx="955.37" cy="560.57" rx="1.12" ry="1.5" transform="translate(355.03 1491.46) rotate(-87.58)"/><ellipse class="cls-29" cx="951.92" cy="564.05" rx="2.03" ry="1.51" transform="matrix(1, -0.05, 0.05, 1, -26.32, 47)"/><ellipse class="cls-29" cx="961.73" cy="563.74" rx="1.48" ry="3.65" transform="translate(355.57 1499.3) rotate(-87.44)"/></g><path class="cls-26" d="M516.09,424.47q7.89-.36,15.79-.59c5.26-.16,10.53-.29,15.8-.31,10.53-.07,21.07,0,31.6.3s21.07.86,31.55,1.2,21,.43,31.51.21l3.94,0,3.94-.11,7.88-.23c5.25-.24,10.5-.46,15.74-.83s10.49-.76,15.73-1.18,10.47-1,15.7-1.65c10.46-1.15,20.88-2.6,31.3-4.08s20.83-3.09,31.26-4.56c20.83-3.07,41.76-5.65,62.76-7.5s42.06-3,63.13-3.51,42.16-.23,63.22.48,42.08,2.06,63.07,3.81l0,.28c-21-.82-42.07-1.56-63.11-1.89l-15.77-.18H925.33c-10.51.08-21,.17-31.54.48-21,.55-42,1.51-63,3.16s-41.89,3.86-62.78,6.39-41.75,5.46-62.65,8.07-41.89,4.77-63,5.41c-10.55.38-21.1.26-31.65-.07s-21-1.1-31.54-1.51c-21-.95-42.05-1.23-63.11-1.28Z"/><path class="cls-30" d="M557.73,375.58s.28-3.9-1.79-4.63-6.25,3.43-7.18,6.48S553.81,383.11,557.73,375.58Z"/><path class="cls-30" d="M566,376.24s-4.7-1-6.93.74-2.72,6.19-2.47,6.68,19.31,5.45,19.8,1S566,376.24,566,376.24Z"/><path class="cls-30" d="M560.09,368.56s3.72-1.73,4.95.25-1.23,5.2-4.2,4.46S560.09,368.56,560.09,368.56Z"/><path class="cls-30" d="M570.74,370.84s6.19-.22,6.19,3-9.66,1.92-10.15.21S570.74,370.84,570.74,370.84Z"/><path class="cls-30" d="M563.57,396.91s3.45-.16,3.45,2.23-5.39,1.44-5.67.16S563.57,396.91,563.57,396.91Z"/><path class="cls-30" d="M549.2,386.14a10.45,10.45,0,0,1,4.95-.25c3,.5,10.89.74,10.89,3.22s-3.71,6.19-9.65,5.69S546.23,388.61,549.2,386.14Z"/><path class="cls-30" d="M546.67,390.72s-.81-3.81-2.61-3.21-4.21,3.21-4,5.21,8,3,8.42,1.81S546.67,390.72,546.67,390.72Z"/><path class="cls-30" d="M575.19,389.36s-5.69-1.74-6.93.74-4.21,5.94.5,6.93,13.61-.74,13.36-2.72S575.19,389.36,575.19,389.36Z"/><path class="cls-30" d="M549.41,396.56s-4,2.63-1,3,10.56.72,10.73-1.46S549.41,396.56,549.41,396.56Z"/><path class="cls-30" d="M526.57,417s-4.87,3.15-1.22,3.64,12.71.87,12.9-1.76S526.57,417,526.57,417Z"/><path class="cls-30" d="M539.46,395.86s-3.3,1.33-3,3.24,8.54,1.91,8.38-.22S539.46,395.86,539.46,395.86Z"/><path class="cls-30" d="M637.44,363.8s-4.24,1.7-3.83,4.15,11.13,2.43,10.74-.28C643.64,362.75,637.44,363.8,637.44,363.8Z"/><path class="cls-30" d="M630.06,370.34s-4.23,1.71-3.83,4.15,11.14,2.43,10.75-.28C636.26,369.29,630.06,370.34,630.06,370.34Z"/><path class="cls-30" d="M577.73,376.42s1.18-2.66,8.17-1.11c3.13.69,8.35,2.6,6.87,5s-4.83,4.46-9.28,3S575.69,380.69,577.73,376.42Z"/><path class="cls-30" d="M579.59,384.59a5.37,5.37,0,0,0-1.86,2.6c-.19,1.3,3.34,3.34,5.76,3.16s5.94-2.6,4.08-4.46S579.59,384.59,579.59,384.59Z"/><path class="cls-30" d="M588.68,390.35s-5.19,2-3.89,4.64,12.25,4.45,14.48,3,3.34-8.91-.19-9.1S588.68,390.35,588.68,390.35Z"/><path class="cls-30" d="M582.92,396.32s-3.34,0-3.23,1.07,6.21,2.55,6.47.73S582.92,396.32,582.92,396.32Z"/><path class="cls-30" d="M570.76,369.54s3.49-.23,3.3-1.33-6.65-2.24-6.8-.33S570.76,369.54,570.76,369.54Z"/><path class="cls-30" d="M601.33,371.58s-4.14.92-4.35,2.47,9.3,2.34,10.62.77C610.77,371,601.33,371.58,601.33,371.58Z"/><path class="cls-30" d="M595.37,382.18s-4.83.49-4.83,2.78c0,1.49,7.06,3.72,11.7,2.6S603.91,381.62,595.37,382.18Z"/><path class="cls-30" d="M582.37,368.19s-4.83.59-5,1.32,3.2,3.91,5.57,4.27c2.91.44,14.58,2.79,12.25-.44C590.66,367.06,582.37,368.19,582.37,368.19Z"/><path class="cls-30" d="M598.9,376.7s-6.14,1.39-2.57,2.87c2.64,1.1,8.84,1.75,8.45-.63C604.21,375.47,598.9,376.7,598.9,376.7Z"/><path class="cls-30" d="M669.87,365.16a2.4,2.4,0,0,0,.19,2.79c1.11,1.48,12.81,5.19,13,2S679.53,364.42,669.87,365.16Z"/><path class="cls-30" d="M644.79,363.66a3.79,3.79,0,0,0,1.4,4.22c2.31,1.84,21.81,2.9,20.84-2S659.37,358.66,644.79,363.66Z"/><path class="cls-30" d="M610.68,370.6s5.2-2.22,9.41-1,5.69,4.71,3.47,5.94-8.71,2.44-10.65,1.24C607.71,373.57,610.68,370.6,610.68,370.6Z"/><path class="cls-30" d="M623.3,378a18,18,0,0,1,7.82.1c3.82,1,3.85,4.59,2.58,5.84s-5.61,3.9-8.75,2S620.33,378.93,623.3,378Z"/><path class="cls-30" d="M608.64,379.44s5.08-.64,5.71.95,0,7-3.81,6.66-5.71-1.59-4.76-4.12A6.63,6.63,0,0,1,608.64,379.44Z"/><path class="cls-30" d="M616.62,383.23s-2.47,3.46-1.73,4.95,4.21,2.72,5.2.49S620.83,383.72,616.62,383.23Z"/><path class="cls-30" d="M690.06,397.61s-4.59,1.21-4.28,3,7.35,3.42,11.33,3S700.78,397.81,690.06,397.61Z"/><path class="cls-30" d="M645.7,378.81s-4.7-1-6.93.74-2.72,6.19-2.48,6.68,19.31,5.45,19.81,1S645.7,378.81,645.7,378.81Z"/><path class="cls-30" d="M639.88,371.56s3.71-1.74,5,.24-1.24,5.2-4.21,4.46S639.88,371.56,639.88,371.56Z"/><path class="cls-30" d="M651,371.84s6.19-.25,6.19,3.47-9.65,2.22-10.15.24S651,371.84,651,371.84Z"/><path class="cls-30" d="M614.5,394.76S618,394.6,618,397s-5.4,1.44-5.67.16S614.5,394.76,614.5,394.76Z"/><path class="cls-30" d="M630.49,389.22a11.44,11.44,0,0,1,5-.22c3,.45,10.89.67,10.89,2.92s-3.71,5.62-9.66,5.17S627.52,391.47,630.49,389.22Z"/><path class="cls-30" d="M627,392.14s-1-4.7-3.22-4-5.2,4-4.95,6.43,9.9,3.72,10.4,2.23S627,392.14,627,392.14Z"/><path class="cls-30" d="M656.39,392.06s-5.57-2.08-7,.31-4.57,5.67.07,6.95,13.63.09,13.51-1.9S656.39,392.06,656.39,392.06Z"/><path class="cls-30" d="M607.25,366.72s-3.06,2.55-.53,2.58,8.72-.45,8.64-2.26S607.25,366.72,607.25,366.72Z"/><path class="cls-30" d="M683.43,372.05s4.71-1.73,5.2.25,3,4.95-2.23,4S683.43,372.05,683.43,372.05Z"/><path class="cls-30" d="M691.25,390.27s6.06-1.73,5.81,1,.5,6.68-3.71,5.2-9.12-2.63-6.68-4.21A17.35,17.35,0,0,1,691.25,390.27Z"/><path class="cls-30" d="M606.39,389.26s-4.23,2.92-3.19,5.5,12.64,0,11.75-2.95S606.39,389.26,606.39,389.26Z"/><path class="cls-30" d="M658,380.91s1.18-2.66,8.17-1.12c3.13.7,8.36,2.6,6.87,5s-4.83,4.45-9.28,3S656,385.18,658,380.91Z"/><path class="cls-30" d="M662.2,389s-1.67,1.3-1.85,2.6,3.34,3.34,5.75,3.16,5.94-2.6,4.09-4.46S662.2,389,662.2,389Z"/><path class="cls-30" d="M671.39,393.8s-5.2,2-3.9,4.64,12.25,4.46,14.48,3,3.34-8.91-.19-9.09S671.39,393.8,671.39,393.8Z"/><path class="cls-30" d="M671.31,359.49s-4.06.64-3.58,2.23,8.35,2.71,8.08-.1S671.31,359.49,671.31,359.49Z"/><path class="cls-30" d="M625.44,369.73s3.49-.23,3.3-1.33-6.65-2.24-6.8-.33S625.44,369.73,625.44,369.73Z"/><path class="cls-30" d="M675.42,372s-1.53.7-1.3,2,4.35,2.14,4.57.84C679.23,371.72,675.42,372,675.42,372Z"/><path class="cls-30" d="M677.08,385.85s-4.82.49-4.82,2.78c0,1.48,7,3.71,11.69,2.6S685.62,385.29,677.08,385.85Z"/><path class="cls-30" d="M678.2,377.31s-4.64,1.52-4.67,2.47,4,4.34,6.38,4.4c3,.07,15,1.08,12-2.56A12.82,12.82,0,0,0,678.2,377.31Z"/><path class="cls-30" d="M691.39,385s-4,1.45-1.37,2.85c2,1,6.37,1.6,5.76-.73C694.89,383.71,691.39,385,691.39,385Z"/><path class="cls-30" d="M597.82,366.43s-4,1.44-1.36,2.85c2,1,6.36,1.6,5.75-.74C601.33,365.15,597.82,366.43,597.82,366.43Z"/><path class="cls-30" d="M659.64,373.28a2.38,2.38,0,0,0,.43,2.76c1.24,1.38,13.22,4,13.13.89S669.19,371.69,659.64,373.28Z"/><path class="cls-30" d="M759.64,367.07s5.55-1.07,9.4,1,4.56,5.8,2.12,6.54-9,.53-10.66-1.05C756.1,369.34,759.64,367.07,759.64,367.07Z"/><path class="cls-30" d="M730.77,372.72a17.89,17.89,0,0,1-7.68,1.49c-4-.25-4.7-3.71-3.71-5.2s4.7-4.95,8.17-3.71S733.49,371.24,730.77,372.72Z"/><path class="cls-30" d="M714.73,375.18s-4.6.58-5.18-.86,0-6.33,3.46-6,5.17,1.44,4.31,3.74A6,6,0,0,1,714.73,375.18Z"/><path class="cls-30" d="M666,416s2.47-2.81,1.73-4-4.21-2.2-5.2-.4S661.83,415.61,666,416Z"/><path class="cls-30" d="M677,411.3s4.37-1.74,4.08-4.37-7-4.95-10.77-4.36S666.85,411,677,411.3Z"/><path class="cls-30" d="M641.66,417.4s4.7,1,6.93-.74,2.72-6.19,2.47-6.68-19.31-5.45-19.8-1S641.66,417.4,641.66,417.4Z"/><path class="cls-30" d="M640.65,401.05s3.85,1.4,3.33,3.68-4.55,2.8-6.13.17S640.65,401.05,640.65,401.05Z"/><path class="cls-30" d="M704.76,402.41s3.85,1.4,3.33,3.68-4.55,2.8-6.13.17S704.76,402.41,704.76,402.41Z"/><path class="cls-30" d="M719.5,365.42s-6.18.25-6.18-3.46,9.65-2.23,10.14-.25S719.5,365.42,719.5,365.42Z"/><path class="cls-30" d="M709.22,380.52s-3.45.16-3.45-2.24,5.39-1.44,5.67-.16S709.22,380.52,709.22,380.52Z"/><path class="cls-30" d="M683.86,420a11.63,11.63,0,0,1-5,.22c-3-.44-10.89-.66-10.89-2.84s3.71-5.46,9.65-5S686.83,417.79,683.86,420Z"/><path class="cls-30" d="M686.83,415.77s1,4,3.22,3.39,5.2-3.39,5-5.51-9.9-3.18-10.4-1.91S686.83,415.77,686.83,415.77Z"/><path class="cls-30" d="M659.94,409.25s5.95.06,6.44-2.66,2.37-6.88-2.42-6.51-12.86,4.54-12.07,6.37S659.94,409.25,659.94,409.25Z"/><path class="cls-30" d="M736.89,364.6s3.58-2.33.89-2.68-9.35-.64-9.5,1.29S736.89,364.6,736.89,364.6Z"/><path class="cls-30" d="M632.47,364.72s3-2.55.53-2.58-8.73.46-8.65,2.26S632.47,364.72,632.47,364.72Z"/><path class="cls-30" d="M687.17,403.89s1.73,4.71-.25,5.2-4.95,3-4-2.23S687.17,403.89,687.17,403.89Z"/><path class="cls-30" d="M749.14,368.77s5.47-3.15,5.88-.44,2.09,6.37-2.35,5.94-9.48-.36-7.5-2.48A17.31,17.31,0,0,1,749.14,368.77Z"/><path class="cls-30" d="M696,411.65s4.23-1.71,3.83-4.15-11-2.45-10.74.28S696,411.65,696,411.65Z"/><path class="cls-30" d="M747.36,367.59s4.24-1.71,3.83-4.15-11.14-2.43-10.74.28C741.16,368.64,747.36,367.59,747.36,367.59Z"/><path class="cls-30" d="M691.12,369.83s4.24-1.7,3.83-4.14-11.13-2.43-10.74.27C684.92,370.89,691.12,369.83,691.12,369.83Z"/><path class="cls-30" d="M707.33,373.82s-.37,2.88-7.52,3.37c-3.2.22-8.75-.14-8-2.87s3.37-5.64,8.07-5.47S708.09,369.14,707.33,373.82Z"/><path class="cls-30" d="M652,422.26s1.41-.93,1.56-1.87-2.81-2.4-4.85-2.27-5,1.87-3.44,3.21S652,422.26,652,422.26Z"/><path class="cls-30" d="M628.66,407s5.2-2,3.9-4.64-12.25-4.46-14.48-3-3.34,8.91.18,9.09S628.66,407,628.66,407Z"/><path class="cls-30" d="M635.16,400.91s3.35,0,3.24-1.07-6.21-2.55-6.47-.73S635.16,400.91,635.16,400.91Z"/><path class="cls-30" d="M607.35,422.28s4.31-.29,4.07-1.64-8.21-2.77-8.39-.4S607.35,422.28,607.35,422.28Z"/><path class="cls-30" d="M713.9,358.57s4.22-1.69,4.21-3.26-10.17-.57-11.33,1.24C704,360.88,713.9,358.57,713.9,358.57Z"/><path class="cls-30" d="M660.17,417.87s-4,1.29-4.1,2.85,9.47,1.5,10.64-.19C669.53,416.49,660.17,417.87,660.17,417.87Z"/><path class="cls-30" d="M638.06,422.53s4.8-.65,4.7-2.41c-.06-1.14-7.2-2.46-11.79-1.34S629.56,423.44,638.06,422.53Z"/><path class="cls-30" d="M707.75,367.22s4.82-.75,5-1.67-3.2-4.93-5.57-5.39c-2.91-.55-14.58-3.52-12.25.56A12.8,12.8,0,0,0,707.75,367.22Z"/><path class="cls-30" d="M593.2,366.32s6.13-1.39,2.56-2.87c-2.63-1.09-8.84-1.75-8.45.63C587.88,367.55,593.2,366.32,593.2,366.32Z"/><path class="cls-30" d="M692.24,361.06a1.56,1.56,0,0,0-.68-2.09c-1.35-.88-13.41-1-13,1.42S683,363.83,692.24,361.06Z"/><path class="cls-30" d="M734.39,358.8s-5.2,2.23-9.41,1-5.69-4.7-3.47-5.94,8.71-2.44,10.65-1.23C737.36,355.83,734.39,358.8,734.39,358.8Z"/><path class="cls-30" d="M630.31,418.09a18,18,0,0,1-7.82-.1c-3.83-1.05-3.85-4.59-2.58-5.85s5.61-3.89,8.75-2S633.27,417.18,630.31,418.09Z"/><path class="cls-30" d="M657.84,417.79s-5.08.64-5.71-1,0-7,3.81-6.66,5.71,1.59,4.75,4.12A6.59,6.59,0,0,1,657.84,417.79Z"/><path class="cls-30" d="M649.36,406.82s2.47-3.46,1.73-4.95-4.21-2.72-5.2-.49S645.15,406.33,649.36,406.82Z"/><path class="cls-30" d="M587.6,416.47s4.77.28,6.79-1.53,2-5.81,1.71-6.21-19.77-2.39-19.76,1.61S587.6,416.47,587.6,416.47Z"/><path class="cls-30" d="M621.15,366.51s-3.71,1.74-4.95-.24,1.24-5.2,4.21-4.46S621.15,366.51,621.15,366.51Z"/><path class="cls-30" d="M595.19,416.43s6.19-.25,6.19,3.46-9.66,2.23-10.15.25S595.19,416.43,595.19,416.43Z"/><path class="cls-30" d="M612.62,410.76s-3.46.16-3.46-2.24,5.4-1.44,5.67-.16S612.62,410.76,612.62,410.76Z"/><path class="cls-30" d="M597.25,406.63a12.51,12.51,0,0,1-5,.2c-3-.4-10.89-.61-10.89-2.64s3.72-5.08,9.66-4.68S600.22,404.6,597.25,406.63Z"/><path class="cls-30" d="M604.67,412.83s3.71-2.58,2.26-4.21-5.32-3-7.38-1.86.38,9.83,1.85,9.7S604.67,412.83,604.67,412.83Z"/><path class="cls-30" d="M572.45,407.72s5.9.76,6.71-1.89,3.16-6.56-1.64-6.75-13.3,3-12.73,4.91S572.45,407.72,572.45,407.72Z"/><path class="cls-30" d="M577.65,421.3s7.25-4.29,2-5.22-18.4-2-18.85,1.78S577.65,421.3,577.65,421.3Z"/><path class="cls-30" d="M625.05,422.5s3.51-1.86,1.05-2.41-8.63-1.36-8.92.42S625.05,422.5,625.05,422.5Z"/><path class="cls-30" d="M830.33,362.56s-4.7,1.73-5.2-.25-3-4.95,2.23-4S830.33,362.56,830.33,362.56Z"/><path class="cls-30" d="M539.74,414.52s-7.47,2.14-7.17-1.22-.61-8.23,4.58-6.4,11.23,3.24,8.23,5.18A21.26,21.26,0,0,1,539.74,414.52Z"/><path class="cls-30" d="M613.23,419.08s4.77-1.92,4.32-4.68-12.34-2.76-12.11.32S613.23,419.08,613.23,419.08Z"/><path class="cls-30" d="M614.15,404.44S613,407.1,606,405.55c-3.13-.69-8.35-2.59-6.87-5s4.83-4.45,9.28-3S616.19,400.17,614.15,404.44Z"/><path class="cls-30" d="M571.43,413.66a5.29,5.29,0,0,0,1.52-2.81c0-1.31-3.72-2.91-6.09-2.43s-5.58,3.31-3.51,4.92S571.43,413.66,571.43,413.66Z"/><path class="cls-30" d="M551.55,401.78s-5.48,1.08-4.66,3.87,11.27,6.56,13.72,5.5,4.87-8.18,1.43-9S551.55,401.78,551.55,401.78Z"/><path class="cls-30" d="M552.2,413.87s3.35,0,3.23-1.07-6.21-2.55-6.47-.73S552.2,413.87,552.2,413.87Z"/><path class="cls-30" d="M549.72,384.51s3.35,0,3.24-1.06-6.21-2.55-6.47-.73S549.72,384.51,549.72,384.51Z"/><path class="cls-30" d="M604,362.65s-3.49.23-3.3,1.33,6.65,2.24,6.8.32S604,362.65,604,362.65Z"/><path class="cls-30" d="M554.37,420.54s4.83-.49,4.83-2.78c0-1.49-7.06-3.71-11.7-2.6S545.83,421.1,554.37,420.54Z"/><path class="cls-30" d="M831.1,372s4.64-1.52,4.67-2.47-4-4.34-6.37-4.39c-3-.08-15-1.09-12,2.55A12.78,12.78,0,0,0,831.1,372Z"/><path class="cls-30" d="M963,366.33s4.64-1.52,4.67-2.47-4-4.34-6.38-4.4c-3-.07-15-1.08-12,2.56A12.82,12.82,0,0,0,963,366.33Z"/><path class="cls-30" d="M542.53,420.83s2.88-1.13.81-2.7c-1.53-1.16-4.79-2-4.18.32C540.05,421.85,542.53,420.83,542.53,420.83Z"/><path class="cls-30" d="M585.3,366.89a2.37,2.37,0,0,0-.43-2.75c-1.24-1.38-13.22-4.05-13.12-.89S575.75,368.48,585.3,366.89Z"/><path class="cls-30" d="M821.78,363.61s-5.2,2.22-9.41,1-5.69-4.71-3.47-5.94,8.71-2.44,10.65-1.24C824.75,360.64,821.78,363.61,821.78,363.61Z"/><path class="cls-30" d="M804.62,366.42s-4.44,1.34-5.25,0-1-6.24,2.4-6.54,5.34.56,4.87,3A5.91,5.91,0,0,1,804.62,366.42Z"/><path class="cls-30" d="M543.52,407.63s2.19-3.06,1.53-4.37-3.71-2.41-4.59-.44S539.8,407.19,543.52,407.63Z"/><path class="cls-30" d="M776.79,362.63s4.49,1.72,7,.36,3.67-5.67,3.51-6.2-18.2-8.44-19.4-4.12S776.79,362.63,776.79,362.63Z"/><path class="cls-30" d="M759.27,355.19s-6.18.2-6.18-2.81,9.65-1.8,10.15-.2S759.27,355.19,759.27,355.19Z"/><path class="cls-30" d="M791.59,358.69s4.51,4.41,5.59,1.9,3.62-5.64-.79-6.34-9.27-2-7.88.51A17.47,17.47,0,0,0,791.59,358.69Z"/><path class="cls-30" d="M585.36,418.82s-3.49.23-3.3,1.33,6.65,2.24,6.8.33S585.36,418.82,585.36,418.82Z"/><path class="cls-30" d="M566.11,366.36s3.91-1.39,1.32-2.75c-1.91-1-6.15-1.55-5.56.71C562.72,367.6,566.11,366.36,566.11,366.36Z"/><path class="cls-30" d="M699.07,383.58s6.36-2.43,11.51-1.08,7,5.13,4.25,6.48-10.66,2.66-13,1.35C695.43,386.82,699.07,383.58,699.07,383.58Z"/><path class="cls-30" d="M715.09,391.75a18,18,0,0,1,7.67-1.49c4,.25,4.71,3.72,3.72,5.2s-4.71,5-8.17,3.72S712.37,393.23,715.09,391.75Z"/><path class="cls-30" d="M701.3,392.38s4.6-.57,5.17.87,0,6.32-3.45,6-5.17-1.44-4.31-3.74A6,6,0,0,1,701.3,392.38Z"/><path class="cls-30" d="M709.15,395.46s-2.48,3.47-1.73,5,4.2,2.73,5.19.5S713.36,396,709.15,395.46Z"/><path class="cls-30" d="M722,382.1s-3.71,1.48-3.46,3.71,5.94,4.21,9.15,3.71S730.68,382.34,722,382.1Z"/><path class="cls-30" d="M738.85,390.26s-4.7-1-6.93.75-2.72,6.19-2.47,6.68,19.3,5.45,19.8,1S738.85,390.26,738.85,390.26Z"/><path class="cls-30" d="M847.15,361.3s-4.71-1-6.93.75-2.73,6.18-2.48,6.68,19.31,5.44,19.8,1S847.15,361.3,847.15,361.3Z"/><path class="cls-30" d="M732.91,382.59s3.72-1.73,5,.25-1.23,5.2-4.21,4.45S732.91,382.59,732.91,382.59Z"/><path class="cls-30" d="M743.56,384.08s6.18-.25,6.18,3.46-9.65,2.23-10.14.25S743.56,384.08,743.56,384.08Z"/><path class="cls-30" d="M698.61,413.83s4-.19,4,2.58-6.23,1.66-6.55.18S698.61,413.83,698.61,413.83Z"/><path class="cls-30" d="M722,400.17a10.3,10.3,0,0,1,5-.25c3,.49,10.89.74,10.89,3.22s-3.71,6.18-9.65,5.69S719.05,402.64,722,400.17Z"/><path class="cls-30" d="M719.05,404.62s-1-4.7-3.22-4-5.2,4-5,6.44,9.9,3.71,10.4,2.22S719.05,404.62,719.05,404.62Z"/><path class="cls-30" d="M748,403.38s-5.69-1.73-6.93.75-4.21,5.94.5,6.93,13.61-.75,13.36-2.73S748,403.38,748,403.38Z"/><path class="cls-30" d="M720.73,411.71s-3.34,2.65-.64,2.75,9.38-.24,9.34-2.18S720.73,411.71,720.73,411.71Z"/><path class="cls-30" d="M695.56,379.7s-3,2.55-.53,2.58,8.73-.46,8.65-2.26S695.56,379.7,695.56,379.7Z"/><path class="cls-30" d="M713.36,376.65s4.7-1.73,5.2.25,3,5-2.23,4S713.36,376.65,713.36,376.65Z"/><path class="cls-30" d="M726.85,375.91s6.06-1.74,5.81,1,.5,6.68-3.71,5.2-9.11-2.64-6.68-4.21A17.35,17.35,0,0,1,726.85,375.91Z"/><path class="cls-30" d="M707.88,409.06s-4.79,2.77-3.89,5.64,13.57,1.07,12.86-2.17S707.88,409.06,707.88,409.06Z"/><path class="cls-30" d="M742.55,375.84s-4.23,1.71-3.82,4.15,11.13,2.43,10.74-.27C748.75,374.79,742.55,375.84,742.55,375.84Z"/><path class="cls-30" d="M802.88,384.37s-4.24,1.7-3.83,4.14,11.14,2.43,10.74-.27C809.08,383.32,802.88,384.37,802.88,384.37Z"/><path class="cls-30" d="M750.55,390.45s1.17-2.66,8.17-1.11c3.13.69,8.35,2.6,6.87,5s-4.83,4.45-9.29,3S748.51,394.72,750.55,390.45Z"/><path class="cls-30" d="M752.41,398.62s-1.68,1.3-1.86,2.6,3.34,3.34,5.75,3.15,5.94-2.6,4.09-4.45S752.41,398.62,752.41,398.62Z"/><path class="cls-30" d="M760.46,404.71s-4.92,2.18-3.36,3.73,12.57,1.11,14.62-.24,2.36-6.52-1.15-6.1A72.83,72.83,0,0,0,760.46,404.71Z"/><path class="cls-30" d="M735.32,410.6s-3.35,0-3.23,1.06,6.21,2.55,6.47.74S735.32,410.6,735.32,410.6Z"/><path class="cls-30" d="M755.83,379.11s3.5-.23,3.3-1.33-6.65-2.24-6.79-.33S755.83,379.11,755.83,379.11Z"/><path class="cls-30" d="M774.14,385.61s-4.13.92-4.34,2.46,9.3,2.34,10.62.77C783.59,385.07,774.14,385.61,774.14,385.61Z"/><path class="cls-30" d="M768.19,396.2s-4.83.44-4.83,2.49c0,1.33,7,3.32,11.69,2.32S776.73,395.7,768.19,396.2Z"/><path class="cls-30" d="M755.19,380.42s-4.83.75-5,1.68,3.2,4.93,5.57,5.38c2.91.56,14.58,3.52,12.25-.56A12.8,12.8,0,0,0,755.19,380.42Z"/><path class="cls-30" d="M771.72,390.73s-6.14,1.39-2.57,2.87c2.64,1.09,8.84,1.74,8.45-.64C777,389.5,771.72,390.73,771.72,390.73Z"/><path class="cls-30" d="M762.24,377.45a2.4,2.4,0,0,0,.19,2.79c1.11,1.48,12.81,5.2,13,2S771.9,376.71,762.24,377.45Z"/><path class="cls-30" d="M783.5,384.63s5.2-2.23,9.41-1,5.69,4.7,3.46,5.94-8.7,2.44-10.64,1.24C780.53,387.6,783.5,384.63,783.5,384.63Z"/><path class="cls-30" d="M796.12,392.06a17.81,17.81,0,0,1,7.81.1c3.83,1,3.86,4.59,2.59,5.84s-5.61,3.9-8.75,2S793.15,393,796.12,392.06Z"/><path class="cls-30" d="M781.46,393.46s5.07-.63,5.71,1,0,7-3.81,6.67-5.71-1.59-4.76-4.13A6.58,6.58,0,0,1,781.46,393.46Z"/><path class="cls-30" d="M790.06,395.27s-2.47,3.47-1.73,5,4.21,2.73,5.2.5S794.27,395.77,790.06,395.27Z"/><path class="cls-30" d="M748.65,358.64s3.6-3.19,2.43-5-8.36-.66-11.79,1.42S738.79,362.84,748.65,358.64Z"/><path class="cls-30" d="M819.85,402.52s4.75.67,6.86-1.2,2.31-6.36,2-6.84-19.62-4.15-19.82.32S819.85,402.52,819.85,402.52Z"/><path class="cls-30" d="M812.7,385.58s3.71-1.73,4.95.25-1.24,5.2-4.21,4.46S812.7,385.58,812.7,385.58Z"/><path class="cls-30" d="M823.85,385.87s6.19-.25,6.19,3.46-9.66,2.23-10.15.25S823.85,385.87,823.85,385.87Z"/><path class="cls-30" d="M807.43,399.86s5.28-.53,5.47,2.31-8.15,2.25-8.67.76S807.43,399.86,807.43,399.86Z"/><path class="cls-30" d="M752.68,356.84a11.33,11.33,0,0,1,5-.23c3,.45,10.9.68,10.9,2.92s-3.72,5.63-9.66,5.18S749.71,359.08,752.68,356.84Z"/><path class="cls-30" d="M739.71,373.87s4.31-2.12,3-4.1-5.12-4.06-7.46-3.21-1.15,10.52.41,10.63S739.71,373.87,739.71,373.87Z"/><path class="cls-30" d="M784.31,370.61s-5.7-1.73-6.93.75-4.21,5.94.49,6.93,13.61-.75,13.37-2.73S784.31,370.61,784.31,370.61Z"/><path class="cls-30" d="M800.25,405.38s3.29-2.72.58-2.77-9.36.44-9.29,2.38S800.25,405.38,800.25,405.38Z"/><path class="cls-30" d="M780.06,380.75s-3,2.55-.53,2.58,8.73-.46,8.65-2.26S780.06,380.75,780.06,380.75Z"/><path class="cls-30" d="M860.58,387.93s4.71-1.73,5.2.25,3,4.95-2.23,4S860.58,387.93,860.58,387.93Z"/><path class="cls-30" d="M798.57,370.12s6.89-2.73,7,0,1.53,6.54-3.63,5.77-11.1-1.07-8.46-3A22.94,22.94,0,0,1,798.57,370.12Z"/><path class="cls-30" d="M780.74,401.66s-4.81,1.69-4.45,3.85,12.16,1.75,12-.67S780.74,401.66,780.74,401.66Z"/><path class="cls-30" d="M830.84,394.93s1.18-2.66,8.17-1.11c3.13.69,8.35,2.6,6.87,5s-4.83,4.46-9.28,3S828.8,399.2,830.84,394.93Z"/><path class="cls-30" d="M914.27,363s-.71,1.91-7.72,2.74c-3.14.37-8.5.53-7.44-1.31s4-3.93,8.5-4.15S915.57,359.89,914.27,363Z"/><path class="cls-30" d="M793.67,377.06s-1.87,1.45-2.07,2.9,3.73,3.74,6.43,3.53,6.64-2.9,4.57-5S793.67,377.06,793.67,377.06Z"/><path class="cls-30" d="M808.66,375.91s-5,2.5-3.48,5,12.6,3.36,14.69,1.68,2.54-9.17-1-9S808.66,375.91,808.66,375.91Z"/><path class="cls-30" d="M737.59,351.12s-3.28.62-3,1.64,6.57,1.38,6.49-.46S737.59,351.12,737.59,351.12Z"/><path class="cls-30" d="M774.05,364.41s-4.52-.75-4.61.71,7.82,4.86,8.58,2.46S774.05,364.41,774.05,364.41Z"/><path class="cls-30" d="M804.45,358.14s3.49-.23,3.3-1.33-6.65-2.24-6.8-.33S804.45,358.14,804.45,358.14Z"/><path class="cls-30" d="M848.36,397.9s-1.53.7-1.3,2,4.35,2.14,4.57.84C852.18,397.62,848.36,397.9,848.36,397.9Z"/><path class="cls-30" d="M787.52,364.23s-4.82.49-4.82,2.78c0,1.49,7,3.71,11.69,2.6S796.06,363.67,787.52,364.23Z"/><path class="cls-30" d="M854.49,392.57s-4.64,1.53-4.67,2.47,4,4.34,6.37,4.4c3,.07,15,1.09,12-2.56A12.8,12.8,0,0,0,854.49,392.57Z"/><path class="cls-30" d="M852.66,391.44s3.76-2.08.88-3c-2.12-.71-6.54-.55-5.56,1.66C849.41,393.27,852.66,391.44,852.66,391.44Z"/><path class="cls-30" d="M832.46,387.31a2.37,2.37,0,0,0,.43,2.75c1.24,1.39,13.22,4.06,13.13.89S842,385.72,832.46,387.31Z"/><path class="cls-30" d="M856.6,361.69a2.37,2.37,0,0,0,.43,2.75c1.24,1.39,13.21,4.06,13.12.9S866.15,360.1,856.6,361.69Z"/><path class="cls-30" d="M875.47,367.48s5.22-2.16,9.41-.87,5.64,4.78,3.39,6-8.73,2.32-10.65,1.1C872.46,370.41,875.47,367.48,875.47,367.48Z"/><path class="cls-30" d="M967.36,353.5a24.54,24.54,0,0,1,10.54-1.9c5.42.41,6.38,5.17,5,7.18s-6.53,6.7-11.26,5S963.61,355.49,967.36,353.5Z"/><path class="cls-30" d="M886.65,376.79a20.18,20.18,0,0,1,8.08-1.34c4.15.29,4.89,3.67,3.83,5.1s-5,4.75-8.62,3.5S883.78,378.2,886.65,376.79Z"/><path class="cls-30" d="M873.43,377s4.61-.51,5.17.93-.08,6.33-3.53,6-5.16-1.51-4.26-3.8A6,6,0,0,1,873.43,377Z"/><path class="cls-30" d="M881.25,380.18s-2.52,3.43-1.8,4.93,4.17,2.77,5.19.56S885.45,380.73,881.25,380.18Z"/><path class="cls-30" d="M894.29,367s-3.74,1.44-3.52,3.67,5.89,4.28,9.11,3.82S903,367.33,894.29,367Z"/><path class="cls-30" d="M936.08,359s-3.46,1.44-3.26,3.67,5.46,4.28,8.45,3.82S944.11,359.34,936.08,359Z"/><path class="cls-30" d="M911,375.36s-4.69-1.05-6.94.65-2.8,6.16-2.56,6.65,19.24,5.69,19.79,1.24S911,375.36,911,375.36Z"/><path class="cls-30" d="M1019.74,365.66c-5.69-.51-13-2.61-13.15-2.92-.24-.5.31-4.95,2.56-6.65s6.94-.66,6.94-.66a38.89,38.89,0,0,1,3.65,1.66Z"/><path class="cls-30" d="M904.92,368.11s3.74-1.69,5,.31-1.3,5.18-4.26,4.4S904.92,368.11,904.92,368.11Z"/><path class="cls-30" d="M915.79,369.23s6.2-.17,6.15,3.54-9.68,2.11-10.15.12S915.79,369.23,915.79,369.23Z"/><path class="cls-30" d="M872.51,396.16s3.46-.12,3.43,2.28-5.41,1.37-5.67.09S872.51,396.16,872.51,396.16Z"/><path class="cls-30" d="M861.62,367.69s3.46-.11,3.43,2.29-5.41,1.37-5.67.08S861.62,367.69,861.62,367.69Z"/><path class="cls-30" d="M908.28,396s3.46-.11,3.43,2.29-5.41,1.37-5.67.08S908.28,396,908.28,396Z"/><path class="cls-30" d="M894.06,385.05a10.38,10.38,0,0,1,5-.19c3,.53,10.88.88,10.85,3.36s-3.79,6.14-9.72,5.57S891.06,387.48,894.06,385.05Z"/><path class="cls-30" d="M891,389.46s-.93-4.71-3.17-4-5.24,3.9-5,6.38,9.86,3.83,10.37,2.35S891,389.46,891,389.46Z"/><path class="cls-30" d="M920,388.59s-5.68-1.8-6.94.66-4.29,5.88.4,6.93,13.63-.57,13.4-2.55S920,388.59,920,388.59Z"/><path class="cls-30" d="M894.13,395.47s-4.08,2.57-1,3,10.56.85,10.75-1.33S894.13,395.47,894.13,395.47Z"/><path class="cls-30" d="M868.92,386.7s8.34-2.79,9.17.53,5.14,8.35-4,6.58S868.92,386.7,868.92,386.7Z"/><path class="cls-30" d="M865.92,374.14s0-6.31,2.53-5.33,6.57,1.35,4,5-5,8.06-5.87,5.29A17.51,17.51,0,0,1,865.92,374.14Z"/><path class="cls-30" d="M894.22,365.36s-4.4,2.89-4.88.66-2.05-5.2,1.67-5.06,7.91-.17,6.36,1.69A14.72,14.72,0,0,1,894.22,365.36Z"/><path class="cls-30" d="M881.8,394.24s-4.25,1.65-3.88,4.09,10.91,2.59,10.75-.14S881.8,394.24,881.8,394.24Z"/><path class="cls-30" d="M981.7,376s4.25-1.65,3.88-4.1-11.1-2.57-10.75.14C975.49,377,981.7,376,981.7,376Z"/><path class="cls-30" d="M961.25,386.11s-4.26,1.65-3.88,4.1,11.1,2.57,10.74-.14C967.46,385.14,961.25,386.11,961.25,386.11Z"/><path class="cls-30" d="M922.71,375.69s1.21-2.64,8.18-1c3.12.73,8.32,2.71,6.8,5.1s-4.88,4.39-9.32,2.85S920.61,379.94,922.71,375.69Z"/><path class="cls-30" d="M924.46,383.88s-1.69,1.28-1.89,2.58,3.3,3.38,5.71,3.23,6-2.53,4.14-4.41S924.46,383.88,924.46,383.88Z"/><path class="cls-30" d="M933.46,390.79s-6.12,2.8-4.39,5.84,15,4.57,17.62,2.64,3.45-10.94-.81-10.94S933.46,390.79,933.46,390.79Z"/><path class="cls-30" d="M984.83,360.35s-6.13,2.79-4.39,5.83,15,4.57,17.61,2.64,3.45-10.94-.81-10.93S984.83,360.35,984.83,360.35Z"/><path class="cls-30" d="M922,397.14s-3.34,0-3.24,1,6.17,2.63,6.46.81S922,397.14,922,397.14Z"/><path class="cls-30" d="M916.46,367.86s3.5-.19,3.32-1.29-6.62-2.32-6.8-.41S916.46,367.86,916.46,367.86Z"/><path class="cls-30" d="M946.2,366.42s-4.62,1.16-4.68,4.2,11,6.16,12.27,3.26C957,366.88,946.2,366.42,946.2,366.42Z"/><path class="cls-30" d="M941.12,381s-4.81.67-4.72,3c.06,1.49,7.19,3.44,11.79,2.15S949.63,380.15,941.12,381Z"/><path class="cls-30" d="M949.48,354s-7.27,2-6.86,3.93c.26,1.26,11.42.9,18.29-1.54S962.39,350.81,949.48,354Z"/><path class="cls-30" d="M926.13,364.26s4.68-1.27,4.31-3.53c-.24-1.47-7.56-2.52-12-.67S917.79,366.19,926.13,364.26Z"/><path class="cls-30" d="M989.89,351.87s-4.55.64-4.46,2.8c.05,1.41,6.8,3.26,11.14,2S997.94,351,989.89,351.87Z"/><path class="cls-30" d="M876.43,361.32s-4.78.74-4.65,2.35c.09,1,7.25,2,11.81.86S884.91,360.23,876.43,361.32Z"/><path class="cls-30" d="M927.47,365.73s-4.83.68-5,1.6,3.14,5,5.5,5.46c2.9.59,14.54,3.7,12.26-.41A12.8,12.8,0,0,0,927.47,365.73Z"/><path class="cls-30" d="M943.87,376.24s-6.15,1.31-2.6,2.83c2.62,1.13,8.82,1.86,8.45-.52C949.2,375.08,943.87,376.24,943.87,376.24Z"/><path class="cls-30" d="M1019.74,382c-3.51.19-8-.48-8.83-1.18a2.39,2.39,0,0,1-.79-2.68c4.23-1.28,7.39-1.66,9.62-1.39Z"/><path class="cls-30" d="M1001.19,367.38a5.72,5.72,0,0,0,1.38,4.67c1.92,2.21,17.09,5.17,16-.25S1012.13,363.35,1001.19,367.38Z"/><path class="cls-30" d="M969.42,377.45s5.11-1.31,8.7.61,4.3,5.58,2,6.43-8.33.93-9.86-.58C966.19,379.87,969.42,377.45,969.42,377.45Z"/><path class="cls-30" d="M968,392.39a17.8,17.8,0,0,1,7.81.1c3.83,1,3.86,4.59,2.59,5.84s-5.61,3.9-8.75,2S965,393.29,968,392.39Z"/><path class="cls-30" d="M953.7,392.68s5.07-.63,5.71.95,0,7-3.81,6.66-5.71-1.58-4.76-4.12A6.58,6.58,0,0,1,953.7,392.68Z"/><path class="cls-30" d="M957.6,368.75s-2.48,3.46-1.73,4.95,4.2,2.72,5.19.49S961.81,369.24,957.6,368.75Z"/><path class="cls-30" d="M841.44,377.6s4.37-1.85,3.81-3.6-7.76-2.34-11.64-1.38S830.8,378.93,841.44,377.6Z"/><path class="cls-30" d="M989.33,392.48s-4.77-.57-6.84,1.35-2.16,6.41-1.87,6.88,19.71,3.72,19.81-.76S989.33,392.48,989.33,392.48Z"/><path class="cls-30" d="M950.53,386.9s3.71-1.73,5,.25-1.24,5.2-4.21,4.46S950.53,386.9,950.53,386.9Z"/><path class="cls-30" d="M1000.55,388.92s6.18-.25,6.18,3.47-9.65,2.22-10.15.24S1000.55,388.92,1000.55,388.92Z"/><path class="cls-30" d="M1002.75,355.53s3.46-.16,3.46,2.24-5.39,1.44-5.67.16S1002.75,355.53,1002.75,355.53Z"/><path class="cls-30" d="M833.09,361.85s.91-3.34,3.19-2.6-.28,5.57-1.59,5.44S833.09,361.85,833.09,361.85Z"/><path class="cls-30" d="M983,383.53a11.33,11.33,0,0,1,4.95-.23c3,.45,10.89.68,10.89,2.93s-3.71,5.62-9.65,5.17S980,385.78,983,383.53Z"/><path class="cls-30" d="M968.71,374.88s4.78-.46,4.29-2.75-3.35-5.62-5.83-5.65-4.81,9.42-3.39,10.08S968.71,374.88,968.71,374.88Z"/><path class="cls-30" d="M960.73,377.2s-5.58-2.08-7,.32-4.57,5.67.07,7,13.63.09,13.51-1.9S960.73,377.2,960.73,377.2Z"/><path class="cls-30" d="M1003,377s-1.88,2.74-.12,3,6,.28,5.8-1.87S1003,377,1003,377Z"/><path class="cls-30" d="M860.83,383.23s3.27-3.79,4.67-2.3,5,2.88,0,4.54S860.83,383.23,860.83,383.23Z"/><path class="cls-30" d="M857.05,373s6.07-1.73,5.82,1,.49,6.68-3.71,5.2-9.12-2.64-6.69-4.21A17.49,17.49,0,0,1,857.05,373Z"/><path class="cls-30" d="M810.15,367.14s-3,2.26-2,4.53,9.35.7,8.52-1.87S810.15,367.14,810.15,367.14Z"/><path class="cls-30" d="M1018.36,401.18s-.78,2.8-7.92,2.29c-3.2-.23-8.65-1.35-7.53-4s4.13-5.11,8.75-4.29S1019.75,396.65,1018.36,401.18Z"/><path class="cls-30" d="M1001.55,381.78a5.31,5.31,0,0,0-1.71,2.6c-.18,1.3,3.09,3.34,5.32,3.16s5.49-2.6,3.77-4.46S1001.55,381.78,1001.55,381.78Z"/><path class="cls-30" d="M987.61,375.17s-4.91,2.66-3.3,5.08,12.7,2.92,14.73,1.17,2.22-9.25-1.3-9S987.61,375.17,987.61,375.17Z"/><path class="cls-30" d="M1013.72,383.88s-4.1.51-3.51,2.48,8.69,3.83,8.24.39S1013.72,383.88,1013.72,383.88Z"/><path class="cls-30" d="M973,390.15s3.49-.23,3.3-1.33-6.65-2.24-6.8-.32S973,390.15,973,390.15Z"/><path class="cls-30" d="M975.7,368.25s3.49-.24,3.3-1.34-6.65-2.24-6.8-.32S975.7,368.25,975.7,368.25Z"/><path class="cls-30" d="M961.69,396.75s-1.53.69-1.3,2,4.35,2.13,4.57.84C965.5,396.47,961.69,396.75,961.69,396.75Z"/><path class="cls-30" d="M945.63,361.84s-1.53.7-1.3,2,4.35,2.14,4.57.85C949.45,361.57,945.63,361.84,945.63,361.84Z"/><path class="cls-30" d="M833.67,385.82s5.15-.5,5.15-2.79c0-1.48-7.52-3.71-12.48-2.6S824.56,386.37,833.67,385.82Z"/><path class="cls-30" d="M844,378.82s-4.64,1.53-4.67,2.47,4,4.34,6.38,4.4c3,.07,15,1.08,12-2.56A12.8,12.8,0,0,0,844,378.82Z"/><path class="cls-30" d="M825.63,375.24s-4,1.44-1.36,2.85c2,1,6.36,1.6,5.75-.73C829.14,374,825.63,375.24,825.63,375.24Z"/><path class="cls-30" d="M978.4,389s-4,1.45-1.36,2.86c2,1,6.36,1.59,5.75-.74C981.91,387.67,978.4,389,978.4,389Z"/><path class="cls-30" d="M1019.75,395c-3.37-.36-7.26-1.5-7.93-2.25a2.36,2.36,0,0,1-.43-2.76,28.76,28.76,0,0,1,8.36-.39Z"/><path class="cls-31" d="M628.65,348.12s6.73-2.88,12.18-1.28,7.36,6.08,4.48,7.69-11.26,3.15-13.78,1.6C624.81,352,628.65,348.12,628.65,348.12Z"/><path class="cls-31" d="M714.17,336.65s-4.14,5.8-2.89,8.28,7,4.55,8.69.83S721.21,337.48,714.17,336.65Z"/><path class="cls-31" d="M642.88,332.75s-4.13,5.8-2.89,8.28,7,4.55,8.69.83S649.92,333.58,642.88,332.75Z"/><path class="cls-31" d="M763.47,319.39s6.19-.25,6.19,3.46-9.65,2.23-10.15.25S763.47,319.39,763.47,319.39Z"/><path class="cls-31" d="M680.3,314.19s6.19-.25,6.19,3.47-9.65,2.22-10.15.24S680.3,314.19,680.3,314.19Z"/><path class="cls-31" d="M609.91,353.46s-4.94,3.2-1.24,3.69,12.9.89,13.1-1.78S609.91,353.46,609.91,353.46Z"/><path class="cls-31" d="M690.82,322.92s4.71-1.74,5.2.24,3,4.95-2.23,4S690.82,322.92,690.82,322.92Z"/><path class="cls-31" d="M937.14,333.87s-4.14,5.79-2.9,8.28,7,4.55,8.69.82S944.17,334.7,937.14,333.87Z"/><path class="cls-31" d="M1010.63,342s6.19-.25,6.19,3.46-9.65,2.23-10.15.25S1010.63,342,1010.63,342Z"/><path class="cls-31" d="M855.52,330.44s-4.94,3.2-1.24,3.69,12.91.89,13.11-1.78S855.52,330.44,855.52,330.44Z"/><path class="cls-31" d="M734.48,342.32s-4.94,3.2-1.24,3.7,12.9.88,13.1-1.79S734.48,342.32,734.48,342.32Z"/><path class="cls-31" d="M935.51,317.53s4.7-1.73,5.2.25,3,5-2.23,4S935.51,317.53,935.51,317.53Z"/><path class="cls-31" d="M976.79,313.22s4.6-.58,5.18.86,0,6.33-3.45,6-5.18-1.44-4.32-3.74A6,6,0,0,1,976.79,313.22Z"/><path class="cls-31" d="M955,340.09s-4.94,3.21-1.24,3.7,12.9.88,13.1-1.79S955,340.09,955,340.09Z"/><path class="cls-31" d="M664.31,338.34s-6.09-1.28-9,1-3.53,8-3.21,8.65,25,7.05,25.63,1.28S664.31,338.34,664.31,338.34Z"/><path class="cls-31" d="M653.7,321.69s1.52-3.45,10.57-1.45c4.05.9,10.81,3.37,8.89,6.49s-6.24,5.77-12,3.85S651.06,327.21,653.7,321.69Z"/><path class="cls-31" d="M686.32,334.88s-6.73,2.64-5.05,6,15.86,5.76,18.74,3.84,4.33-11.53-.24-11.77S686.32,334.88,686.32,334.88Z"/><path class="cls-31" d="M714.91,321.58s-6.25,1-6.49,2.17,4.14,6.38,7.21,7c3.76.72,18.87,4.56,15.86-.72A16.57,16.57,0,0,0,714.91,321.58Z"/><path class="cls-31" d="M739.71,327.86s6.73-2.88,12.18-1.28,7.36,6.09,4.48,7.69-11.26,3.16-13.78,1.6C735.87,331.71,739.71,327.86,739.71,327.86Z"/><path class="cls-31" d="M763.42,338.39a43.49,43.49,0,0,1,12.73-1.6c6.57.27,7.8,4,6.16,5.61s-7.81,5.35-13.55,4S758.9,340,763.42,338.39Z"/><path class="cls-31" d="M813.2,335.68s-6.09-1.28-9,1-3.53,8-3.21,8.65,25,7,25.63,1.28S813.2,335.68,813.2,335.68Z"/><path class="cls-31" d="M783.9,323.42s1.52-3.44,10.57-1.44c4,.89,10.82,3.36,8.89,6.48s-6.24,5.77-12,3.85S781.26,329,783.9,323.42Z"/><path class="cls-31" d="M838.76,345.44s-5.92,2.23-5.9,3.46,5.37,5.38,8.5,5.32c3.83-.07,19.4.55,15.36-4A16.55,16.55,0,0,0,838.76,345.44Z"/><path class="cls-31" d="M823.08,326.16s-6.25,1-6.49,2.16,4.14,6.39,7.21,7c3.76.72,18.87,4.56,15.86-.72A16.57,16.57,0,0,0,823.08,326.16Z"/><path class="cls-31" d="M882.66,329.78s6.73-2.88,12.17-1.28,7.37,6.09,4.49,7.69-11.26,3.15-13.78,1.6C878.82,333.63,882.66,329.78,882.66,329.78Z"/><path class="cls-31" d="M865.9,342.85a29.75,29.75,0,0,1,12.72-2.46c6.57.41,7.81,6.16,6.16,8.62s-7.8,8.22-13.55,6.16S861.38,345.32,865.9,342.85Z"/><path class="cls-31" d="M908.94,341.22s-6.22.22-8.48,3.09-1.48,8.63-1,9.17,25.95.81,25.18-4.94S908.94,341.22,908.94,341.22Z"/><path class="cls-31" d="M910.27,324.41s1.52-3.44,10.57-1.44c4,.89,10.81,3.36,8.89,6.48s-6.25,5.77-12,3.85S907.62,329.94,910.27,324.41Z"/><path class="cls-31" d="M951.42,320.89s-6.72,2.65-5,6,15.86,5.77,18.74,3.85,4.32-11.54-.24-11.78S951.42,320.89,951.42,320.89Z"/><path class="cls-31" d="M982.74,333.09s-6.25,1-6.49,2.17,4.14,6.38,7.21,7c3.76.72,18.87,4.56,15.85-.72A16.55,16.55,0,0,0,982.74,333.09Z"/><path class="cls-31" d="M1008.71,324.69s5.2-3.6,4.89-4.78-6.52-3.93-9.53-3.12c-3.7,1-19,4.15-14,7.58A16.56,16.56,0,0,0,1008.71,324.69Z"/><path class="cls-31" d="M1019.24,325.42c-2-.22-5.48-.34-7.46,1.2-2.88,2.24-3.52,8-3.2,8.64.14.29,5.12,1.72,10.66,2.71Z"/><ellipse class="cls-32" cx="831.02" cy="290.84" rx="1.12" ry="0.83" transform="translate(-8.98 27.05) rotate(-1.86)"/><ellipse class="cls-32" cx="843.9" cy="298.32" rx="0.83" ry="1.11" transform="translate(461.46 1107.58) rotate(-84.17)"/><ellipse class="cls-32" cx="832.59" cy="302.81" rx="2.54" ry="1.17" transform="matrix(1, -0.02, 0.02, 1, -5.19, 14.68)"/><ellipse class="cls-32" cx="797.07" cy="300.84" rx="1.36" ry="1.84" transform="translate(479.9 1091.55) rotate(-88.82)"/><ellipse class="cls-32" cx="814.08" cy="296.42" rx="1.36" ry="2.35" transform="translate(502.77 1104.92) rotate(-88.95)"/><ellipse class="cls-32" cx="825.23" cy="295.84" rx="1.66" ry="2.24" transform="translate(491.08 1106.32) rotate(-87.32)"/><ellipse class="cls-32" cx="818.83" cy="290.74" rx="1.36" ry="3.37" transform="translate(511.11 1103.35) rotate(-88.81)"/><ellipse class="cls-32" cx="723.41" cy="295.73" rx="1.38" ry="3.43" transform="translate(407.12 1010.4) rotate(-88.36)"/><ellipse class="cls-32" cx="881.84" cy="313.26" rx="3.39" ry="1.4" transform="translate(-17.56 54.7) rotate(-3.52)"/><ellipse class="cls-32" cx="881.87" cy="307.74" rx="1.61" ry="1.12"/><ellipse class="cls-32" cx="763.13" cy="281.93" rx="1.61" ry="1.12" transform="translate(-9.63 27.58) rotate(-2.06)"/><ellipse class="cls-32" cx="714.14" cy="297.84" rx="2.1" ry="5.48" transform="translate(408.6 1008.72) rotate(-89.38)"/><ellipse class="cls-32" cx="770.33" cy="295.76" rx="1.04" ry="0.77" transform="translate(-9.17 25.09) rotate(-1.86)"/><ellipse class="cls-32" cx="749.63" cy="285" rx="1.04" ry="0.77" transform="translate(-5.45 14.78) rotate(-1.13)"/><ellipse class="cls-32" cx="782.36" cy="302.75" rx="0.78" ry="1.04" transform="translate(401.76 1050.34) rotate(-84.17)"/><ellipse class="cls-32" cx="760.06" cy="301.95" rx="0.77" ry="1.04" transform="translate(437.62 1053.54) rotate(-88.45)"/><ellipse class="cls-32" cx="759.64" cy="303.27" rx="2.37" ry="1.09" transform="translate(-0.34 0.84) rotate(-0.06)"/><ellipse class="cls-32" cx="771.8" cy="306.94" rx="2.37" ry="1.09" transform="translate(-5.28 13.62) rotate(-1.01)"/><ellipse class="cls-32" cx="754.51" cy="300.97" rx="1.27" ry="2.19" transform="matrix(0.02, -1, 1, 0.02, 439.74, 1049.83)"/><ellipse class="cls-32" cx="722.42" cy="279.64" rx="1.72" ry="2.32" transform="translate(390.87 979.75) rotate(-85.82)"/><ellipse class="cls-32" cx="764.93" cy="300.43" rx="1.55" ry="2.09" transform="translate(429.01 1050.45) rotate(-87.32)"/><ellipse class="cls-32" cx="758.94" cy="295.67" rx="1.27" ry="3.15" transform="translate(447.54 1048.3) rotate(-88.81)"/><ellipse class="cls-32" cx="711.25" cy="278.85" rx="4.17" ry="1.68" transform="translate(-2.39 6.18) rotate(-0.5)"/><ellipse class="cls-32" cx="945.59" cy="292.1" rx="1.12" ry="1.5" transform="matrix(0.04, -1, 1, 0.04, 613.9, 1224.53)"/><ellipse class="cls-32" cx="942.14" cy="295.58" rx="2.03" ry="1.51" transform="translate(-13.27 46.2) rotate(-2.79)"/><ellipse class="cls-32" cx="951.96" cy="295.26" rx="1.48" ry="3.65" transform="translate(614.43 1233.07) rotate(-87.44)"/><ellipse class="cls-32" cx="975.1" cy="298.23" rx="0.98" ry="1.41" transform="translate(615.51 1252.41) rotate(-86.36)"/><ellipse class="cls-32" cx="899.24" cy="281.35" rx="3.01" ry="2.23" transform="translate(-1.96 6.36) rotate(-0.4)"/><path class="cls-32" d="M995.42,282.56a1.22,1.22,0,0,1,0-.27,1.84,1.84,0,0,1,2.07-1.08,1.52,1.52,0,0,1,1.46,1.15,2.16,2.16,0,0,1,1.57,2.37c-.29,1.27-1.93,2.13-3.67,1.92s-2.92-1.39-2.62-2.65A3.33,3.33,0,0,1,995.42,282.56Z"/><ellipse class="cls-32" cx="906.07" cy="280.28" rx="1.12" ry="1.51" transform="translate(612.69 1182.19) rotate(-89.17)"/><ellipse class="cls-32" cx="870.69" cy="297.25" rx="0.68" ry="0.92" transform="translate(535.52 1154.06) rotate(-87.49)"/><ellipse class="cls-32" cx="909.19" cy="300.27" rx="1.12" ry="1.5" transform="translate(570.87 1196) rotate(-87.58)"/><ellipse class="cls-32" cx="905.74" cy="303.75" rx="2.03" ry="1.51" transform="translate(-13.71 44.44) rotate(-2.79)"/><ellipse class="cls-32" cx="915.56" cy="303.44" rx="1.48" ry="3.65" transform="translate(571.5 1204.52) rotate(-87.44)"/><path class="cls-20" d="M1020,355.11c-4.48-1-9-1.76-13.58-2.39s-9.13-1-13.7-1.35a170.08,170.08,0,0,0-27.46.34c-2.27.26-4.55.41-6.81.8s-4.52.62-6.75,1.14l-13.53,2.86-6.84,1.18c-2.29.36-4.59.62-6.89.93s-4.59.54-6.9.74-4.6.45-6.91.56l-6.92.39-6.93.19c-2.31.09-4.62.06-6.93.07s-4.62.05-6.92,0l-6.93-.16c-2.3-.06-4.61-.19-6.91-.28-4.61-.14-9.21-.5-13.81-.73-18.4-1.25-36.76-3-55-5.6-18.17-2.93-36.58-3.46-54.91-2.77a250.16,250.16,0,0,0-27.36,2.54l-13.63,2.2c-4.57.66-9.13,1.39-13.72,1.94a539.87,539.87,0,0,1-55.22,4.26c-18.45.45-36.92-.05-55.3-1.41v-.28c18.42.44,36.84.39,55.21-.51q13.79-.6,27.52-1.92c9.15-.87,18.29-1.84,27.39-3.11,4.56-.57,9.1-1.28,13.65-1.93s9-1.47,13.67-2.14a256.72,256.72,0,0,1,27.68-2.29c9.25-.32,18.51-.11,27.74.45,4.61.3,9.22.71,13.82,1.3l3.44.47,3.43.55,6.81,1.13c9.09,1.47,18.2,2.84,27.35,3.83s18.32,1.82,27.51,2.38a400.67,400.67,0,0,0,55.12-.87c9.14-.81,18.26-1.89,27.27-3.51l13.55-2.7c2.27-.5,4.59-.74,6.88-1.08s4.62-.51,6.93-.73c4.62-.41,9.26-.49,13.89-.44,2.32,0,4.63.16,6.94.24s4.62.3,6.92.53a157,157,0,0,1,27.25,4.93Z"/><path class="cls-20" d="M667.58,309.67c3.68-.32,7.36-.55,11.06-.67s7.4-.14,11.11.08a74.68,74.68,0,0,1,11.1,1.39A42.42,42.42,0,0,1,706.3,312c.44.16.91.34,1.32.47l1.23.39c.82.26,1.74.39,2.6.59A152.3,152.3,0,0,0,733.3,315c7.35.12,14.71.14,22.07,0s14.73-.26,22.1-.43,14.72-.52,22.17-.41c14.9.11,29.55,2.66,44.11,4.76a190.41,190.41,0,0,0,22,2,129.5,129.5,0,0,0,22-1.22c7.3-1,14.59-2.23,21.88-3.34s14.6-2.2,21.92-3.18,14.67-1.77,22.06-2.26,14.78-.85,22.18-.91c14.8,0,29.54.93,44.26,2.09l0,.28c-14.76-.14-29.51-.59-44.21-.22s-29.34,1.83-44,3.34q-11,1.14-22,2.41l-11,1.3-11,1.39-5.52.63-5.53.41-1.39.11-1.38,0-2.78.09c-1.84.09-3.69,0-5.54,0-7.4-.13-14.79-.64-22.14-1.46-14.69-1.57-29.28-3.71-43.94-3.65-7.3,0-14.68.46-22.06.7s-14.77.42-22.16.5-14.78,0-22.18-.31a155.86,155.86,0,0,1-22.2-2.13c-.93-.24-1.85-.39-2.78-.71l-1.39-.48c-.47-.17-.85-.33-1.27-.5a40.62,40.62,0,0,0-5.15-1.64,72.11,72.11,0,0,0-10.78-1.76,195.37,195.37,0,0,0-22.06-.55Z"/><path class="cls-33" d="M599.15,439.2c-38.7-2-69.21-2.18-94.34-2.07-29.09,30.18-71.29,57.37-126,58C99.67,498.22,1.46,482.43,0,482.19V574H1020V419.69C783.24,404.83,734.19,446.09,599.15,439.2Z"/></g><g id="Skelett"><path class="cls-11" d="M540.25,492.39a38,38,0,0,0-4.88-8.17,13.69,13.69,0,0,1,7.07,10.53c0-.51.08-1,.08-1.54a13.66,13.66,0,0,0-13.4-13.7,2.71,2.71,0,0,0-1.51.17h0a22.1,22.1,0,0,0-2.88-1.95,12.7,12.7,0,0,0-4.56-4.1,4.82,4.82,0,0,0-6.28,1.32l-8.68-4.81s-4.08-3-6.23,2.65c-2,0-4,.15-6.33.38-3.82.37-11,11.25-10.27,15.92a34.16,34.16,0,0,0,1.72,6.73l-6.51-.07c-3.7-9.72-13-20-32.73-22.13-22.68-2.4-29.36.32-52.74-2.45l-76.82-4-4.84,3.71L253,479.79l-6-8.34-5.58-15.9-3.76.93-4.49,18.66-7.22-13.05-4.71,3.11,6.67,47.28,15.53-7.3,50.37-3.49,11.43-3.2L345.7,504l-15.82,11.82,6,5.4,12.86-4.29s12.86.42,15.56-4.87L407,513.15c18.95,5.41,48.86,12.18,63.68,6.24l28.33,0a2.39,2.39,0,0,0,.13.28c.16.26,30.28,4.93,31.53,1.38a4.44,4.44,0,0,0,2.17.07c3.24-.76,5.09-5.38,5-11.39a3.85,3.85,0,0,0,3.51.58C544.57,508.86,544.06,500.85,540.25,492.39Z"/><path class="cls-10" d="M514.05,476.57l-5.76-3.19a29.42,29.42,0,0,1-9.18,2.19Z"/><path class="cls-10" d="M535.58,495.12c-2-7.38-6.41-13.18-11.61-16.09a12,12,0,0,0-4.34-3.93,4.59,4.59,0,0,0-6.07,1.4,32.93,32.93,0,0,0-6.38-1.62,49.86,49.86,0,0,0-13.69-.21c-3.63.35-10.46,10.68-9.75,15.12,1.52,9.41,5.42,16.38,18.41,18.35.78.12,1.55.2,2.31.27,4.23,9.19,12.64,13.75,20.48,11.65C534,517.65,538.83,507.32,535.58,495.12Z"/><polygon class="cls-10" points="224.47 465 226.93 469.68 224.18 470.74 223.19 466.32 224.47 465"/><polygon class="cls-10" points="232.96 508 236.38 508.27 239.26 501.07 231.82 499.39 232.96 508"/><polygon class="cls-10" points="227.41 471.19 231.56 479.02 239.85 487.81 229.85 492.41 224.86 471.89 227.41 471.19"/><ellipse class="cls-7" cx="311.63" cy="482.76" rx="4.5" ry="2.6" transform="translate(-138.79 125.98) rotate(-18.77)"/><polygon class="cls-10" points="312.03 484.89 242.88 493.98 242.67 498.06 311.75 490.38 312.03 484.89"/><polygon class="cls-10" points="311.67 491.93 288.27 500.59 242.57 499.92 242.74 496.67 284.96 496.14 311.89 487.54 311.67 491.93"/><polygon class="cls-10" points="230.36 493.27 240.31 489.58 240.52 499.28 231.42 498.07 230.36 493.27"/><ellipse class="cls-11" cx="512.81" cy="480.71" rx="2.6" ry="4.5" transform="translate(-19.29 939.98) rotate(-83.95)"/><rect class="cls-10" x="504.45" y="510.06" width="7.55" height="5.94" transform="matrix(0.05, -1, 1, 0.05, -30.15, 994.32)"/><rect class="cls-10" x="489.94" y="511.56" width="7.55" height="5.94" transform="translate(-45.44 981.24) rotate(-87.06)"/><rect class="cls-10" x="497.08" y="510.81" width="7.55" height="5.94" transform="translate(-37.9 987.66) rotate(-87.06)"/><rect class="cls-10" x="482.88" y="511.2" width="7.55" height="5.94" transform="translate(-51.77 973.86) rotate(-87.06)"/><rect class="cls-10" x="448.35" y="493.7" width="18.86" height="2.16" transform="translate(-59.8 926.62) rotate(-87.06)"/><rect class="cls-10" x="455.03" y="495.12" width="16.61" height="2.16" transform="translate(-55.94 933.51) rotate(-87.06)"/><rect class="cls-10" x="434.99" y="490.88" width="23.35" height="2.16" transform="translate(-67.53 912.85) rotate(-87.06)"/><rect class="cls-10" x="422.7" y="489.18" width="25.6" height="2.16" transform="translate(-76.43 900.08) rotate(-87.06)"/><rect class="cls-10" x="411.47" y="488.61" width="25.6" height="2.16" transform="translate(-86.51 888.32) rotate(-87.06)"/><polygon class="cls-10" points="412.45 480.83 411.31 501.84 413.47 501.95 414.61 480.94 412.45 480.83"/><rect class="cls-10" x="406.92" y="489.44" width="23.35" height="2.16" transform="translate(-92.72 883.45) rotate(-87.06)"/><rect class="cls-10" x="417.08" y="488.9" width="25.6" height="2.16" transform="translate(-81.47 894.2) rotate(-87.06)"/><rect class="cls-10" x="428.31" y="489.47" width="25.6" height="2.16" transform="translate(-71.39 905.96) rotate(-87.06)"/><rect class="cls-10" x="441.67" y="492.29" width="21.11" height="2.16" transform="translate(-63.66 919.73) rotate(-87.06)"/><rect class="cls-10" x="475.62" y="509.7" width="7.55" height="5.94" transform="translate(-57.16 965.18) rotate(-87.06)"/><rect class="cls-10" x="403.38" y="496.41" width="7.55" height="5.94" transform="matrix(0.05, -1, 1, 0.05, -112.42, 880.42)"/><rect class="cls-10" x="388.97" y="495.67" width="7.55" height="5.94" transform="matrix(0.05, -1, 1, 0.05, -125.35, 865.34)"/><rect class="cls-10" x="396.12" y="494.91" width="7.55" height="5.94" transform="translate(-117.81 871.75) rotate(-87.06)"/><rect class="cls-10" x="381.86" y="496.43" width="7.55" height="5.94" transform="translate(-132.86 858.95) rotate(-87.06)"/><polygon class="cls-10" points="363.71 502.96 351.53 501.53 356.45 512.29 363.32 510.5 363.71 502.96"/><polygon class="cls-10" points="343.7 507.08 347.43 513.23 334.62 518.07 332.19 515.88 343.7 507.08"/><polygon class="cls-10" points="346.9 512.36 348.46 514.94 337.2 519.49 336.33 518.45 346.9 512.36"/><polygon class="cls-10" points="468.19 499.06 476.1 502.53 474.57 512.43 466.28 514.64 464.59 511.3 416.79 508.32 413.95 509.32 411.84 503.22 417.28 498.65 418.46 500.97 463.95 502.09 468.19 499.06"/><polygon class="cls-10" points="417.28 498.65 365.56 503.06 365.37 506.83 414.44 503.35 417.28 498.65"/><polygon class="cls-10" points="413.95 509.32 365.3 508.26 365.43 505.68 413.08 506.8 413.95 509.32"/><path class="cls-10" d="M350.73,502.33l4.3,10.44s-5.51,2.32-5.48,1.77-4.89-8.11-4.89-8.11Z"/><path class="cls-11" d="M497.21,475.26a14.78,14.78,0,0,0-.71,6.9,10.22,10.22,0,0,0,3.16,5.76,13.38,13.38,0,0,0,1.28,1.09c.46.37.89.63,1.46,1.12a6.76,6.76,0,0,1,1.93,3.66,25.93,25.93,0,0,1,.21,7.44,13.8,13.8,0,0,0,.91,6.52,20.69,20.69,0,0,0,3.35,5.9,20,20,0,0,0,5.15,4.53,20.64,20.64,0,0,0,6.55,2.52,17.45,17.45,0,0,1-7.06-1.55,19,19,0,0,1-6-4.35,20.77,20.77,0,0,1-4-6.28,16.92,16.92,0,0,1-1-3.65,15.24,15.24,0,0,1-.21-1.92c0-.33,0-.66,0-1l.07-.93a25.73,25.73,0,0,0-.06-6.8,4.85,4.85,0,0,0-1.18-2.65c-.31-.31-.88-.71-1.32-1.12a15.28,15.28,0,0,1-1.35-1.32,11,11,0,0,1-3-6.86A13.16,13.16,0,0,1,497.21,475.26Z"/><polygon class="cls-11" points="495.99 486.16 496.32 492.23 496.04 491.67 504.44 496.83 503.17 498.69 495.31 492.72 494.99 492.48 495.04 492.16 495.99 486.16"/><polygon class="cls-10" points="370.82 494.78 362.05 483.56 367.09 473.24 385.95 474.2 390.37 487.82 383.71 507.15 369.46 505.89 370.82 494.78"/><path class="cls-10" d="M312.16,482.32l-.49,9.61,6.24,2.12,1.19-2.27,52.6,7.16,4.28,1.8s2.85-.6,3.25-.76,4.28-13.44,4.28-13.44l-10.19-4-3.7,3.81,2.46,3.19-1,.88-50.16-5.55-2.66-3Z"/><polygon class="cls-10" points="240.4 458.79 241.51 463.79 238.67 464.09 238.87 459.71 240.4 458.79"/><polygon class="cls-10" points="237.47 501.13 240.6 502.25 245.11 496.25 238.58 492.8 237.47 501.13"/><polygon class="cls-10" points="241.58 465.32 243.48 473.69 249.01 484 238.5 485.78 239.02 465.34 241.58 465.32"/><ellipse class="cls-10" cx="318.69" cy="472.24" rx="4.36" ry="2.52" transform="translate(-135.03 127.69) rotate(-18.77)"/><polygon class="cls-10" points="318.93 474.3 252.57 486.92 252.59 490.87 318.96 479.63 318.93 474.3"/><polygon class="cls-10" points="318.97 481.14 296.82 490.79 252.6 492.67 252.59 489.52 293.38 486.68 318.94 476.88 318.97 481.14"/><polygon class="cls-10" points="238.76 486.71 249 485.77 246.74 494.89 238.54 491.46 238.76 486.71"/><polygon class="cls-10" points="319.2 471.82 318.72 481.13 324.77 483.18 325.92 480.98 376.86 487.92 376.25 479.69 327.68 474.32 325.1 471.4 319.2 471.82"/><path class="cls-11" d="M319.11,491.67c4.42.33,8.83.74,13.24,1.19s8.8.93,13.19,1.44,8.79,1.07,13.17,1.66,8.76,1.26,13.14,1.91l.25,0,.19.13,3.68,2.45-.68-.15,3.84-.38-.81.68c1.49-4.77,3.1-9.5,4.65-14.26l.34.69c-3.36-1.42-6.72-2.84-10.12-4.16l.38-.08c-1.25,1.25-2.47,2.53-3.69,3.81l0-.47c.82,1.06,1.68,2.1,2.52,3.15l.25.31-.31.28-1,.91-.15.13-.22,0L358.43,490c-4.2-.35-8.37-.81-12.55-1.32-8.35-1-16.68-2.15-25-3.63l0-.23c8.42.37,16.81,1.08,25.18,1.92,4.18.41,8.36.87,12.53,1.45L371.12,490l-.36.11,1-.85-.06.6c-.8-1.08-1.59-2.17-2.4-3.24l-.2-.25.22-.22c1.24-1.26,2.49-2.52,3.71-3.8l.16-.17.21.09c3.4,1.32,6.84,2.54,10.28,3.76l.47.17-.14.52c-1.29,4.83-2.53,9.67-3.88,14.48l-.17.61-.65.08-3.82.5-.36.05-.32-.2-3.74-2.37.44.17c-4.39-.55-8.78-1.07-13.16-1.68s-8.76-1.24-13.13-1.92-8.75-1.37-13.11-2.14-8.72-1.52-13.07-2.39Z"/><path class="cls-11" d="M468.26,499.15l-4.19,3.11-.05,0H464l-22.76-.17-22.75-.27h-.51l-.25-.47-1.21-2.3.89.49-12.91,1.31c-4.31.43-8.62.78-12.93,1.1s-8.64.57-13,.76l-6.49.28c-2.16.05-4.33.15-6.5.16l0-.22c2.14-.36,4.29-.63,6.44-.95l6.44-.82c4.29-.54,8.59-1,12.9-1.44s8.61-.8,12.93-1.1l12.94-.9.63,0,.26.54,1.15,2.34-.75-.48,22.73.85,22.73.94-.12,0,4.3-3Z"/></g></g></svg>