<svg xmlns="http://www.w3.org/2000/svg" xmlns:xlink="http://www.w3.org/1999/xlink" viewBox="0 0 1020 574"><defs><style>.cls-1{fill:none;}.cls-2{isolation:isolate;}.cls-3{fill:url(#Unbenannter_Verlauf_18);}.cls-4{fill:#fff;}.cls-5{fill:#e9f2fb;}.cls-6{fill:#f4f9fd;}.cls-7{clip-path:url(#clip-path);}.cls-8{clip-path:url(#clip-path-2);}.cls-9{fill:url(#Unbenannter_Verlauf_45);}.cls-10{fill:#626061;}.cls-11{fill:#908d8d;}.cls-12{fill:#3c3c3d;}.cls-13{fill:#c4c1c2;}.cls-14{fill:#a4a1a1;}.cls-15,.cls-20{mix-blend-mode:multiply;}.cls-16{fill:url(#Unbenannter_Verlauf_63);}.cls-17{fill:#94c7ed;}.cls-18{fill:#9dbeb7;}.cls-19{fill:#e1d3bb;}.cls-20{fill:url(#Unbenannter_Verlauf_3);}.cls-21{fill:#ece8e5;}.cls-22{fill:#f3ede3;}.cls-23{clip-path:url(#clip-path-3);}.cls-24{fill:#b9b6b7;}</style><linearGradient id="Unbenannter_Verlauf_18" x1="510" y1="382.5" x2="510" gradientUnits="userSpaceOnUse"><stop offset="0" stop-color="#e9f2fb"/><stop offset="1" stop-color="#d3e5f7"/></linearGradient><clipPath id="clip-path"><rect class="cls-1" x="695" y="110" width="325" height="150"/></clipPath><clipPath id="clip-path-2"><rect class="cls-1" x="735" width="285" height="285"/></clipPath><radialGradient id="Unbenannter_Verlauf_45" cx="1008.06" cy="11.26" r="100.41" gradientUnits="userSpaceOnUse"><stop offset="0" stop-color="#fff9ef"/><stop offset="0.23" stop-color="#fff8ec"/><stop offset="0.41" stop-color="#fff5e2"/><stop offset="0.57" stop-color="#ffefd1"/><stop offset="0.73" stop-color="#ffe7b9"/><stop offset="0.88" stop-color="#fedd9b"/><stop offset="1" stop-color="#fed37c"/></radialGradient><linearGradient id="Unbenannter_Verlauf_63" x1="510" y1="574" x2="510" y2="280.86" gradientUnits="userSpaceOnUse"><stop offset="0" stop-color="#b3d5f2"/><stop offset="1" stop-color="#cee3f7"/></linearGradient><linearGradient id="Unbenannter_Verlauf_3" x1="510" y1="574" x2="510" y2="331.32" gradientUnits="userSpaceOnUse"><stop offset="0" stop-color="#f0e9dc"/><stop offset="0.1" stop-color="#f6f2eb"/><stop offset="0.24" stop-color="#fbfaf6"/><stop offset="0.44" stop-color="#fefefd"/><stop offset="1" stop-color="#fff"/></linearGradient><clipPath id="clip-path-3"><path class="cls-1" d="M465.31,401.27s-9.2-1.09-11.53,7.12-2.87,17.67-.25,20.15c8.65,8.17,13.41,6,13.41,6s7.17-3.55,5.43-7.67c-4.45-10.49-18.08-10.48-12.38-15.61C470.84,401.51,465.31,401.27,465.31,401.27Z"/></clipPath></defs><title>Frame 4</title><g class="cls-2"><g id="Himmel"><rect class="cls-3" width="1020" height="382.5"/><path class="cls-4" d="M1020,574V284.05a27.57,27.57,0,0,1-9.84-1.57,32.76,32.76,0,0,0-20.35,0,31.59,31.59,0,0,1-19.67,0,32.73,32.73,0,0,0-20.34,0,31.59,31.59,0,0,1-19.67,0,32.73,32.73,0,0,0-20.34,0,31.56,31.56,0,0,1-19.66,0,32.76,32.76,0,0,0-20.35,0,31.56,31.56,0,0,1-19.66,0,32.73,32.73,0,0,0-20.34,0,31.56,31.56,0,0,1-19.66,0,32.73,32.73,0,0,0-20.34,0,31.56,31.56,0,0,1-19.66,0,32.73,32.73,0,0,0-20.34,0,31.56,31.56,0,0,1-19.66,0,32.76,32.76,0,0,0-20.35,0,31.56,31.56,0,0,1-19.66,0,32.73,32.73,0,0,0-20.34,0,31.56,31.56,0,0,1-19.66,0,32.73,32.73,0,0,0-20.34,0,31.56,31.56,0,0,1-19.66,0,32.73,32.73,0,0,0-20.34,0,31.56,31.56,0,0,1-19.66,0,32.76,32.76,0,0,0-20.35,0,31.53,31.53,0,0,1-19.65,0,32.73,32.73,0,0,0-20.34,0,31.56,31.56,0,0,1-19.66,0,32.73,32.73,0,0,0-20.34,0,31.56,31.56,0,0,1-19.66,0,32.73,32.73,0,0,0-20.34,0,31.56,31.56,0,0,1-19.66,0,32.73,32.73,0,0,0-20.34,0,31.53,31.53,0,0,1-19.65,0,32.73,32.73,0,0,0-20.34,0,31.56,31.56,0,0,1-19.66,0,32.73,32.73,0,0,0-20.34,0,31.53,31.53,0,0,1-19.65,0,32.73,32.73,0,0,0-20.34,0,31.53,31.53,0,0,1-19.65,0,32.73,32.73,0,0,0-20.34,0,31.53,31.53,0,0,1-19.65,0,32.73,32.73,0,0,0-20.34,0,31.53,31.53,0,0,1-19.65,0,32.73,32.73,0,0,0-20.34,0,31.56,31.56,0,0,1-19.66,0A28.83,28.83,0,0,0,120,280.86a28.83,28.83,0,0,0-10.17,1.62,27.55,27.55,0,0,1-9.83,1.57,27.55,27.55,0,0,1-9.83-1.57A28.79,28.79,0,0,0,80,280.86a28.88,28.88,0,0,0-10.17,1.62A27.46,27.46,0,0,1,60,284.05a27.44,27.44,0,0,1-9.82-1.57A28.88,28.88,0,0,0,40,280.86a28.83,28.83,0,0,0-10.17,1.62A27.55,27.55,0,0,1,20,284.05a27.55,27.55,0,0,1-9.83-1.57A28.83,28.83,0,0,0,0,280.86V574Z"/></g><g id="Wolken"><path class="cls-5" d="M529.47,153.22c0-17.55-49.73-32.39-118-37.24a78.52,78.52,0,0,0-69.16-41.3c-1.07,0-2.12,0-3.18.08-19.22-24.59-47.31-40.11-78.62-40.11-40.07,0-74.88,25.41-92.55,62.74a55.92,55.92,0,0,0-52.62,55.83Z"/><path class="cls-6" d="M363.66,153.22c0-9.4-36.51-17.34-86.68-19.94-9.74-13.16-28.82-22.1-50.77-22.1-.79,0-1.56,0-2.34,0-14.11-13.16-34.73-21.47-57.72-21.47-29.42,0-55,13.6-67.95,33.58-21.55.92-38.64,14-38.64,29.89Z"/><g class="cls-7"><path class="cls-5" d="M1135.79,232.65c0-15.15-43.28-32.15-83.58-32.15-15.71-21.23-46.49-35.66-81.9-35.66-1.26,0-2.51,0-3.76.07-22.76-21.22-56-34.62-93.1-34.62-47.45,0-88.68,21.93-109.6,54.16-34.75,1.48-62.32,22.49-62.32,48.2Z"/></g></g><g id="Sonne"><g class="cls-8"><circle class="cls-4" cx="1008.06" cy="11.26" r="107.58"/><circle class="cls-9" cx="1008.06" cy="11.26" r="100.41"/><polygon class="cls-4" points="1012.28 118.83 1008.06 262.27 1003.84 118.83 1012.28 118.83"/><polygon class="cls-4" points="900.58 15.57 757.14 11.35 900.58 7.13 900.58 15.57"/><polygon class="cls-4" points="935.04 90.33 830.63 188.78 929.08 84.37 935.04 90.33"/><polygon class="cls-4" points="910.37 56.38 776.24 107.38 907.15 48.59 910.37 56.38"/><polygon class="cls-4" points="970.82 112.27 912.04 243.17 963.03 109.04 970.82 112.27"/><polygon class="cls-4" points="903.19 35.08 832.3 46.31 902.1 29.56 903.19 35.08"/><polygon class="cls-4" points="950.68 102.28 908.5 160.35 946.01 99.16 950.68 102.28"/><polygon class="cls-4" points="920.25 73.4 859.06 110.91 917.13 68.73 920.25 73.4"/><polygon class="cls-4" points="989.85 117.32 973.1 187.11 984.33 116.22 989.85 117.32"/></g></g><g id="Figur"><polygon class="cls-10" points="381.58 344.63 310.22 320.82 304.67 323.33 234.7 323.33 227.7 335.23 263.15 336.8 296.28 338.7 367.81 366.61 381.58 344.63"/><polygon class="cls-10" points="241.55 325.56 237.27 308.12 237.13 294.07 233.26 294.12 221.38 338.32 237.74 336.85 241.55 325.56"/><polygon class="cls-11" points="378.52 347.72 304.83 329.25 298.94 331.92 224.67 331.92 217.24 344.55 254.88 346.21 290.04 348.23 365.95 377.85 378.52 347.72"/><polygon class="cls-11" points="231.47 332 222.24 315.32 218.19 300.97 214.24 302.09 214.35 350.67 230.71 344.62 231.47 332"/><path class="cls-11" d="M383.81,348.23l-18.76,30.23s64,71.28,79.44,41.51c5.8-11.22,6.91-29.05-15.48-44.45C410.22,362.6,403.05,361.81,383.81,348.23Z"/><polygon class="cls-11" points="443.64 408.39 420.23 420.64 464.26 452.61 478.1 433.97 443.64 408.39"/><path class="cls-10" d="M466.39,445.55c-2.27,1.88-6.15,1.39-9-1.27-2.54-2.37-5.54-7.06-4.5-9.44-6-7.69-7.65-16.75-5.37-23.56L478.1,434l-9.33,12.57C468,446.25,467.18,445.92,466.39,445.55Z"/><path class="cls-11" d="M488.35,415.49,484,406.08s-1.74-5.57-7.72-.69Z"/><path class="cls-11" d="M487.2,415.75c-9.19-3.55-20.53,3.64-25.31,16s-.4,23.95,8.8,27.5,19.74-2.26,24.52-14.66S496.4,419.29,487.2,415.75Z"/><path class="cls-11" d="M454.35,408c-4.53,9-5.53,17.32,4.32,27s23.4,12,30.27,5,4.46-20.48-5.39-30.2A52.68,52.68,0,0,0,472,401.14C468.71,399.19,456.49,403.76,454.35,408Z"/><path class="cls-11" d="M487.06,415.58c-2.28,1.47-2.86,4.8-1.3,7.44s5.65,4.58,8.07,3.37c1.82-.92,2.09-4.35.19-8.69a4.84,4.84,0,0,0-7-2.12"/><path class="cls-12" d="M500.6,446.69c-.31.42-.63.82-1,1.2a13.68,13.68,0,0,0,.48-12.67,38.85,38.85,0,0,1-.86,9.48c-1.89,9.08-6.2,15.86-9.61,15.15a3.85,3.85,0,0,1-2.51-2.54c-3.48,4.9-7.69,7.55-10.76,6.26a4.42,4.42,0,0,1-1.71-1.34c-3.1,2.15-24.72-19.36-24.69-19.65.18-2.25,1.79-3.92,5.84-5.47a10.88,10.88,0,0,1,11.88-.3c4.18-3.68,9.11-5,12.8-3a7.64,7.64,0,0,1,1.34,1c2.71-2.55,5.54-3.7,7.76-2.76a3.61,3.61,0,0,1,.67.36c1.94-3.67,4.24-5.82,6.23-5.4a2.73,2.73,0,0,1,1.33.74A13.67,13.67,0,0,1,500.6,446.69Z"/><path class="cls-11" d="M458.75,430.64c-2.46,2-2.34,6.25.29,9.46s6.74,4.18,9.21,2.16,2.34-6.25-.28-9.46-6.75-4.17-9.22-2.16"/><path class="cls-12" d="M478.85,419.5a7.8,7.8,0,0,1,.51-.67l.45-.6c.3-.38.54-.74.78-1.08s.41-.68.58-1,.32-.76.43-1l.5-1.12.6.16a13.51,13.51,0,0,1,3.57,1.48,13.11,13.11,0,0,1-3.84.44l1.11-.95a3.78,3.78,0,0,1-.34,1.91,4.27,4.27,0,0,1-1.08,1.5A3.88,3.88,0,0,1,478.85,419.5Z"/><path class="cls-10" d="M466.17,409.19a12.81,12.81,0,0,0,1.52-2,14.76,14.76,0,0,0,1.11-2.12,14,14,0,0,1,.8-2.22,9,9,0,0,1,1.62-2.05l.22,0a4.36,4.36,0,0,1,.27,2.8,6,6,0,0,1-1.36,2.33,10.34,10.34,0,0,1-1.82,2,10,10,0,0,1-2.23,1.4Z"/><path class="cls-10" d="M490.11,416.37a4,4,0,0,1,1,3.6,4.16,4.16,0,0,1-.8,1.76,9.85,9.85,0,0,1-1.32,1.34,10.25,10.25,0,0,1-1.45,1.05c-.51.3-1,.54-1.56.78s-1.08.38-1.62.54-1.09.27-1.64.38l-.07-.21q.72-.42,1.44-.81c.46-.28.9-.6,1.35-.89a11.87,11.87,0,0,0,2.25-2.09,12.89,12.89,0,0,0,1.26-2.48,14.75,14.75,0,0,0,1-2.89Z"/><polygon class="cls-13" points="363.81 382.65 385.31 347.55 381.58 344.63 370.85 340.92 352.69 334.86 350.98 339.9 354.08 347.98 358.22 353.37 357.32 359.23 362.08 368.47 360.04 379.96 363.81 382.65"/><polygon class="cls-10" points="350.98 339.9 351.19 347.39 354.8 351.48 354.61 360.13 357.65 359.73 358.22 353.37 354.08 347.98 350.98 339.9"/><path class="cls-14" d="M442.13,408.1c4.21,3,4.91,9.22,1.56,14s-9.47,6.23-13.69,3.27l-44-30.93c-4.21-3-4.91-9.22-1.56-14s9.48-6.22,13.69-3.26Z"/><path class="cls-14" d="M311.23,351.26l2.32,7.71,13.22,3s10.8,7,15.85,3.88l44.62,28.54c4.37,2.75,10.34,1.13,13.33-3.62s2.39-11.84-2.49-13.59c-2.85-1-50-20.65-50-20.65l-9.67-7.93Z"/><path class="cls-13" d="M443.6,422a11.1,11.1,0,0,0,1.68-7.73,9.18,9.18,0,0,0-1.45-3.6,8,8,0,0,0-1.28-1.44c-.24-.21-.51-.38-.76-.58l-.86-.57c-4.62-3.05-9.19-6.16-13.76-9.28l-6.86-4.68-6.81-4.74c-4.53-3.18-9-6.4-13.52-9.62l-.17-.12,0-.06a3.69,3.69,0,0,0-.45-.36c-.21-.15-.44-.3-.67-.44-.46-.29-.94-.56-1.43-.82s-1-.51-1.47-.74a7.89,7.89,0,0,0-1.35-.51l-.16,0-.07,0L347.89,357l-.07,0-.06-.05-9.58-8,.3.09-27.24,2.39,0-.23,27.18-3,.17,0,.13.11,9.76,7.83-.14-.09,46.61,18.84-.22-.06a8.9,8.9,0,0,1,1.87.62c.55.24,1.08.49,1.6.76s1.05.55,1.56.86l.78.48a5.07,5.07,0,0,1,.87.72l-.19-.18q6.84,4.69,13.64,9.46l6.76,4.8,6.73,4.87c4.48,3.24,9,6.49,13.39,9.81l.83.62c.29.24.59.47.85.73a8.58,8.58,0,0,1,1.39,1.73,9.54,9.54,0,0,1,1.37,4.12,11.36,11.36,0,0,1-2.37,8Z"/><polygon class="cls-10" points="267.75 333.17 276.91 345.67 298.82 341.41 298.97 340.56 291.01 334.05 267.75 333.17"/></g><g id="Wasser"><g class="cls-15"><path class="cls-16" d="M1020,574V284.05a27.57,27.57,0,0,1-9.84-1.57,32.76,32.76,0,0,0-20.35,0,31.59,31.59,0,0,1-19.67,0,32.73,32.73,0,0,0-20.34,0,31.59,31.59,0,0,1-19.67,0,32.73,32.73,0,0,0-20.34,0,31.56,31.56,0,0,1-19.66,0,32.76,32.76,0,0,0-20.35,0,31.56,31.56,0,0,1-19.66,0,32.73,32.73,0,0,0-20.34,0,31.56,31.56,0,0,1-19.66,0,32.73,32.73,0,0,0-20.34,0,31.56,31.56,0,0,1-19.66,0,32.73,32.73,0,0,0-20.34,0,31.56,31.56,0,0,1-19.66,0,32.76,32.76,0,0,0-20.35,0,31.56,31.56,0,0,1-19.66,0,32.73,32.73,0,0,0-20.34,0,31.56,31.56,0,0,1-19.66,0,32.73,32.73,0,0,0-20.34,0,31.56,31.56,0,0,1-19.66,0,32.73,32.73,0,0,0-20.34,0,31.56,31.56,0,0,1-19.66,0,32.76,32.76,0,0,0-20.35,0,31.53,31.53,0,0,1-19.65,0,32.73,32.73,0,0,0-20.34,0,31.56,31.56,0,0,1-19.66,0,32.73,32.73,0,0,0-20.34,0,31.56,31.56,0,0,1-19.66,0,32.73,32.73,0,0,0-20.34,0,31.56,31.56,0,0,1-19.66,0,32.73,32.73,0,0,0-20.34,0,31.53,31.53,0,0,1-19.65,0,32.73,32.73,0,0,0-20.34,0,31.56,31.56,0,0,1-19.66,0,32.73,32.73,0,0,0-20.34,0,31.53,31.53,0,0,1-19.65,0,32.73,32.73,0,0,0-20.34,0,31.53,31.53,0,0,1-19.65,0,32.73,32.73,0,0,0-20.34,0,31.53,31.53,0,0,1-19.65,0,32.73,32.73,0,0,0-20.34,0,31.53,31.53,0,0,1-19.65,0,32.73,32.73,0,0,0-20.34,0,31.56,31.56,0,0,1-19.66,0A28.83,28.83,0,0,0,120,280.86a28.83,28.83,0,0,0-10.17,1.62,27.55,27.55,0,0,1-9.83,1.57,27.55,27.55,0,0,1-9.83-1.57A28.79,28.79,0,0,0,80,280.86a28.88,28.88,0,0,0-10.17,1.62A27.46,27.46,0,0,1,60,284.05a27.44,27.44,0,0,1-9.82-1.57A28.88,28.88,0,0,0,40,280.86a28.83,28.83,0,0,0-10.17,1.62A27.55,27.55,0,0,1,20,284.05a27.55,27.55,0,0,1-9.83-1.57A28.83,28.83,0,0,0,0,280.86V574Z"/></g><path class="cls-17" d="M0,280.89a30,30,0,0,1,8.15.83c1.33.34,2.61.77,3.9,1.1a25.68,25.68,0,0,0,3.9.69,36.24,36.24,0,0,0,7.93-.12,22.8,22.8,0,0,0,3.84-.81c1.26-.37,2.52-.84,3.86-1.25a30.12,30.12,0,0,1,8.26-1.21,30.68,30.68,0,0,1,8.34.85c1.37.35,2.66.78,3.92,1.12a24.44,24.44,0,0,0,3.78.71,36.14,36.14,0,0,0,7.78-.05,22.85,22.85,0,0,0,3.75-.75c1.23-.34,2.48-.81,3.84-1.22a29.94,29.94,0,0,1,8.42-1.23,30.72,30.72,0,0,1,8.49.86c1.4.35,2.7.79,3.93,1.13a24,24,0,0,0,3.7.73,36.42,36.42,0,0,0,7.67,0,22.87,22.87,0,0,0,3.67-.71c1.21-.34,2.45-.79,3.81-1.21a28.92,28.92,0,0,1,4.26-1,35,35,0,0,1,4.3-.31,31.67,31.67,0,0,1,8.61.87c1.42.35,2.74.81,4,1.15a25,25,0,0,0,3.63.77,36.82,36.82,0,0,0,7.57.05,23.44,23.44,0,0,0,3.63-.67c1.19-.31,2.41-.75,3.79-1.17a28.91,28.91,0,0,1,4.3-1,37.79,37.79,0,0,1,4.34-.33c1.43,0,2.86,0,4.31.11a30,30,0,0,1,4.39.72c1.44.36,2.78.81,4,1.17a24.65,24.65,0,0,0,3.58.77,36.83,36.83,0,0,0,7.5.08,25.29,25.29,0,0,0,3.58-.63c1.17-.3,2.38-.73,3.75-1.16a28.9,28.9,0,0,1,4.34-1,36.75,36.75,0,0,1,4.38-.36c1.44,0,2.88,0,4.35.1a29.41,29.41,0,0,1,4.43.72c1.47.35,2.82.82,4,1.18a23.33,23.33,0,0,0,3.54.8,35.4,35.4,0,0,0,7.43.15,24.35,24.35,0,0,0,3.55-.59c1.17-.28,2.36-.7,3.73-1.13a28.87,28.87,0,0,1,4.36-1,33.49,33.49,0,0,1,4.41-.37,34.25,34.25,0,0,1,8.82.79c1.47.35,2.85.82,4.06,1.19a22.12,22.12,0,0,0,3.53.81,35.6,35.6,0,0,0,7.39.2,25.59,25.59,0,0,0,3.54-.54c1.16-.28,2.34-.68,3.7-1.1a28.6,28.6,0,0,1,4.36-1,33.83,33.83,0,0,1,4.43-.38,34.66,34.66,0,0,1,8.82.79c1.48.34,2.87.81,4.09,1.2a25,25,0,0,0,3.52.85,34.25,34.25,0,0,0,7.39.24,24.42,24.42,0,0,0,3.56-.52c1.16-.26,2.33-.65,3.69-1.07a30.25,30.25,0,0,1,4.34-1,31.91,31.91,0,0,1,4.42-.38,34.93,34.93,0,0,1,8.8.77c1.47.34,2.86.81,4.09,1.2a25,25,0,0,0,3.55.9,33.21,33.21,0,0,0,7.42.3,26.52,26.52,0,0,0,7.27-1.54,31.42,31.42,0,0,1,4.3-1,31.84,31.84,0,0,1,4.41-.4,35.3,35.3,0,0,1,8.74.73c1.47.33,2.87.79,4.11,1.19a27,27,0,0,0,3.58.92,32.87,32.87,0,0,0,7.45.34,26.7,26.7,0,0,0,7.31-1.51,32,32,0,0,1,4.26-1.06,31.37,31.37,0,0,1,4.38-.43,35.82,35.82,0,0,1,8.7.69,39.76,39.76,0,0,1,4.12,1.18,29.45,29.45,0,0,0,3.61,1,33.16,33.16,0,0,0,7.49.4,25.92,25.92,0,0,0,3.67-.45,36.15,36.15,0,0,0,3.69-1,33.21,33.21,0,0,1,4.21-1.06,34.44,34.44,0,0,1,4.36-.44,36.63,36.63,0,0,1,8.62.67,42.65,42.65,0,0,1,4.11,1.17,30.28,30.28,0,0,0,3.65,1,32.63,32.63,0,0,0,7.56.44,26.77,26.77,0,0,0,3.73-.42,34.85,34.85,0,0,0,3.71-1,34.17,34.17,0,0,1,4.16-1,31.63,31.63,0,0,1,4.3-.43,36.25,36.25,0,0,1,8.53.64,38.34,38.34,0,0,1,4.08,1.17,30.93,30.93,0,0,0,3.7,1.05,33.6,33.6,0,0,0,7.67.51,28.13,28.13,0,0,0,3.8-.41,31.52,31.52,0,0,0,3.75-1,34,34,0,0,1,4.09-1.06,30.51,30.51,0,0,1,4.24-.45,35.64,35.64,0,0,1,8.41.58,33.54,33.54,0,0,1,4.06,1.14,32.59,32.59,0,0,0,3.75,1.06,33.43,33.43,0,0,0,7.77.55,29.19,29.19,0,0,0,3.86-.4,32,32,0,0,0,3.79-1,36.19,36.19,0,0,1,4-1.06,28.3,28.3,0,0,1,4.18-.47,35.84,35.84,0,0,1,8.32.49c2.8.53,5.31,1.67,7.83,2.17a33,33,0,0,0,7.84.56,28.18,28.18,0,0,0,3.9-.41,32.12,32.12,0,0,0,3.82-1,35.37,35.37,0,0,1,4-1.1,26.5,26.5,0,0,1,4.14-.53,36.06,36.06,0,0,1,8.29.43c2.79.48,5.31,1.62,7.85,2.13a33.65,33.65,0,0,0,7.85.53,26.78,26.78,0,0,0,7.72-1.42,30,30,0,0,1,8.13-1.7,38,38,0,0,1,8.31.33c2.8.44,5.36,1.55,7.87,2.06a32.27,32.27,0,0,0,7.81.52,25.92,25.92,0,0,0,7.65-1.41,30.43,30.43,0,0,1,8.17-1.83,37,37,0,0,1,8.4.24,28.77,28.77,0,0,1,4.12,1c1.32.4,2.56.78,3.8,1a31.19,31.19,0,0,0,7.69.51,26,26,0,0,0,7.52-1.37c1.25-.41,2.6-.88,4-1.22a27,27,0,0,1,4.26-.67,38,38,0,0,1,8.52.21,28.53,28.53,0,0,1,4.2,1c1.34.4,2.55.79,3.77,1.05a30,30,0,0,0,7.55.53,25,25,0,0,0,7.4-1.3c1.23-.4,2.59-.88,4-1.23a29.38,29.38,0,0,1,4.33-.71,38.42,38.42,0,0,1,8.63.19,28.08,28.08,0,0,1,4.28,1c1.35.41,2.56.81,3.75,1.08a29.32,29.32,0,0,0,7.43.6,24.91,24.91,0,0,0,7.31-1.19c1.23-.38,2.58-.85,4-1.2a30.23,30.23,0,0,1,4.38-.7,40.74,40.74,0,0,1,8.68.22,28.62,28.62,0,0,1,4.3,1c1.37.42,2.58.83,3.76,1.12a29.36,29.36,0,0,0,7.39.7,28.34,28.34,0,0,0,3.73-.27,24.68,24.68,0,0,0,3.59-.81c1.22-.37,2.57-.83,4-1.18a29.85,29.85,0,0,1,4.38-.72,41.11,41.11,0,0,1,8.65.22,29.58,29.58,0,0,1,4.3,1c1.37.42,2.59.85,3.78,1.15a28.21,28.21,0,0,0,7.42.76,35.43,35.43,0,0,0,3.75-.24,24.56,24.56,0,0,0,3.61-.79c1.22-.35,2.55-.81,4-1.16a27,27,0,0,1,4.35-.72,40.69,40.69,0,0,1,8.61.2,30.2,30.2,0,0,1,4.28,1c1.37.42,2.6.86,3.8,1.18a27.85,27.85,0,0,0,7.47.83,26.45,26.45,0,0,0,7.45-1c1.23-.34,2.54-.79,4-1.14a27.6,27.6,0,0,1,4.3-.73,40,40,0,0,1,8.54.19,27.26,27.26,0,0,1,4.23.94c1.36.41,2.61.87,3.83,1.2a28.1,28.1,0,0,0,7.55.92,27,27,0,0,0,7.58-.9c1.24-.34,2.54-.78,3.92-1.13a26.55,26.55,0,0,1,4.23-.73,39.5,39.5,0,0,1,8.42.17,26.73,26.73,0,0,1,4.17.92c1.34.41,2.6.88,3.84,1.24a28.1,28.1,0,0,0,7.69,1.05,27.6,27.6,0,0,0,7.76-.85c1.27-.33,2.56-.77,3.91-1.11a25.18,25.18,0,0,1,4.12-.71,37.4,37.4,0,0,1,8.26.17,24.15,24.15,0,0,1,4,.88c1.32.41,2.58.89,3.86,1.28a29.35,29.35,0,0,0,7.89,1.17v.56a29.94,29.94,0,0,1-8.15-.81c-1.33-.34-2.62-.76-3.91-1.09a25.77,25.77,0,0,0-3.89-.69,36.88,36.88,0,0,0-7.93.13,22.69,22.69,0,0,0-3.83.81c-1.26.37-2.52.84-3.85,1.25a34.11,34.11,0,0,1-16.64.38c-1.37-.34-2.66-.78-3.92-1.11a24.34,24.34,0,0,0-3.77-.72,36.6,36.6,0,0,0-7.76.06,23.57,23.57,0,0,0-3.74.74c-1.23.35-2.48.81-3.84,1.22a30.07,30.07,0,0,1-8.44,1.26,30.91,30.91,0,0,1-8.51-.87c-1.4-.35-2.7-.8-3.93-1.14a24,24,0,0,0-3.7-.75,36.9,36.9,0,0,0-7.65,0,22.64,22.64,0,0,0-3.67.7c-1.21.33-2.45.78-3.81,1.19a28.92,28.92,0,0,1-4.26,1,35,35,0,0,1-4.3.31,32.09,32.09,0,0,1-8.61-.86c-1.42-.36-2.74-.81-4-1.16a24.9,24.9,0,0,0-3.64-.78,36.81,36.81,0,0,0-7.57-.07,24.41,24.41,0,0,0-3.63.65c-1.2.31-2.42.75-3.79,1.17a30.39,30.39,0,0,1-4.29,1,35.63,35.63,0,0,1-4.34.32,41.39,41.39,0,0,1-4.3-.12,29.52,29.52,0,0,1-4.37-.73c-1.44-.36-2.77-.82-4-1.18a23.51,23.51,0,0,0-3.6-.8,37.09,37.09,0,0,0-7.53-.14,25.43,25.43,0,0,0-3.61.61c-1.19.3-2.4.72-3.77,1.14a28.64,28.64,0,0,1-4.3,1,36.22,36.22,0,0,1-4.36.35c-1.43,0-2.86,0-4.31-.11a28.7,28.7,0,0,1-4.39-.72c-1.45-.35-2.8-.82-4-1.2a24.7,24.7,0,0,0-3.58-.84,36.14,36.14,0,0,0-7.51-.2,24,24,0,0,0-3.62.57c-1.18.28-2.38.69-3.74,1.11a27.43,27.43,0,0,1-4.3,1,37.57,37.57,0,0,1-13-.5c-1.44-.36-2.8-.83-4-1.22a24.24,24.24,0,0,0-3.6-.89,37.15,37.15,0,0,0-7.55-.3,23.33,23.33,0,0,0-3.67.51c-1.21.26-2.42.65-3.76,1.05a29.71,29.71,0,0,1-8.56,1.3,34.24,34.24,0,0,1-8.56-.83c-1.42-.35-2.77-.82-4-1.22a24.78,24.78,0,0,0-3.67-1,34.73,34.73,0,0,0-7.65-.36,28.11,28.11,0,0,0-7.54,1.54,28.91,28.91,0,0,1-8.41,1.32,34,34,0,0,1-8.43-.79c-1.4-.32-2.74-.78-4-1.2a27.14,27.14,0,0,0-3.74-1,34.06,34.06,0,0,0-7.77-.41,28,28,0,0,0-7.65,1.52,29.28,29.28,0,0,1-8.26,1.37,34.37,34.37,0,0,1-8.32-.69c-2.79-.63-5.23-1.74-7.78-2.17a33.78,33.78,0,0,0-7.86-.39,28.08,28.08,0,0,0-7.7,1.58,31.44,31.44,0,0,1-4,1,30.55,30.55,0,0,1-4.15.42,34,34,0,0,1-8.28-.61c-2.76-.58-5.24-1.67-7.8-2.1a34.45,34.45,0,0,0-7.87-.37,27.85,27.85,0,0,0-7.71,1.58,32.48,32.48,0,0,1-4,1.07,34.45,34.45,0,0,1-4.15.47,35.23,35.23,0,0,1-8.31-.51c-2.79-.54-5.28-1.64-7.81-2.07a34.16,34.16,0,0,0-7.84-.37,26,26,0,0,0-3.86.51,32.08,32.08,0,0,0-3.78,1.08,34.26,34.26,0,0,1-4,1.13,33.07,33.07,0,0,1-4.19.52,35.84,35.84,0,0,1-8.38-.43,33.48,33.48,0,0,1-4.06-1.06A27.85,27.85,0,0,0,518,282.68a27.93,27.93,0,0,0-3.81.48,30.55,30.55,0,0,0-3.74,1.06,36.38,36.38,0,0,1-4.06,1.15,29.46,29.46,0,0,1-4.25.56,36.78,36.78,0,0,1-8.49-.38,34.14,34.14,0,0,1-4.13-1.05,31.73,31.73,0,0,0-3.73-1,32.68,32.68,0,0,0-7.62-.39,30.49,30.49,0,0,0-3.75.46,32.27,32.27,0,0,0-3.67,1,38,38,0,0,1-4.1,1.18,27.89,27.89,0,0,1-4.31.59,37.2,37.2,0,0,1-8.6-.38,32.89,32.89,0,0,1-4.19-1.06,35.62,35.62,0,0,0-3.7-1,32.22,32.22,0,0,0-7.52-.44,27.73,27.73,0,0,0-3.7.42,29.34,29.34,0,0,0-3.63,1,41,41,0,0,1-4.11,1.18,27.51,27.51,0,0,1-4.37.61,37.8,37.8,0,0,1-8.67-.34,33.68,33.68,0,0,1-4.24-1.06c-1.32-.4-2.49-.77-3.68-1a31.44,31.44,0,0,0-7.44-.5,27.3,27.3,0,0,0-3.67.39,25.89,25.89,0,0,0-3.6.94c-1.25.4-2.65.86-4.11,1.18a27.93,27.93,0,0,1-4.4.63,38.22,38.22,0,0,1-8.72-.34,31.13,31.13,0,0,1-4.28-1.05c-1.33-.42-2.5-.79-3.68-1a29.85,29.85,0,0,0-7.38-.53,24.75,24.75,0,0,0-7.23,1.27c-1.23.4-2.63.87-4.1,1.2a27.22,27.22,0,0,1-4.43.65,39.12,39.12,0,0,1-8.76-.29,33.11,33.11,0,0,1-4.31-1c-1.35-.42-2.53-.8-3.69-1.06a29.84,29.84,0,0,0-7.33-.56,24.19,24.19,0,0,0-7.17,1.23c-1.23.39-2.62.86-4.1,1.21a28.49,28.49,0,0,1-4.45.67,40,40,0,0,1-8.79-.29,30.71,30.71,0,0,1-4.35-1c-1.36-.43-2.54-.82-3.7-1.09a28.93,28.93,0,0,0-7.29-.62,28.5,28.5,0,0,0-3.64.31,23.3,23.3,0,0,0-3.52.84c-1.22.38-2.6.85-4.08,1.21a31.27,31.27,0,0,1-4.46.69,39.33,39.33,0,0,1-8.79-.27,28.61,28.61,0,0,1-4.36-1c-1.37-.43-2.56-.84-3.71-1.12a28.44,28.44,0,0,0-7.29-.68,29.2,29.2,0,0,0-3.67.27,24.53,24.53,0,0,0-3.53.81c-1.21.37-2.57.84-4,1.19a31.16,31.16,0,0,1-4.45.7,40.77,40.77,0,0,1-8.75-.25,28.86,28.86,0,0,1-4.36-1c-1.37-.43-2.57-.85-3.74-1.14a25.93,25.93,0,0,0-3.56-.6c-1.22-.1-2.49-.16-3.75-.14a29.74,29.74,0,0,0-3.7.24A23.32,23.32,0,0,0,192,285c-1.21.35-2.55.81-4,1.16a28.93,28.93,0,0,1-4.41.71,41.5,41.5,0,0,1-8.69-.24,28.9,28.9,0,0,1-4.32-1c-1.37-.42-2.59-.86-3.77-1.17a28,28,0,0,0-7.39-.8,30.84,30.84,0,0,0-3.75.22,24.62,24.62,0,0,0-3.6.77c-1.22.35-2.55.8-4,1.16a29.26,29.26,0,0,1-4.35.73,41.44,41.44,0,0,1-8.62-.2,28.74,28.74,0,0,1-4.29-1c-1.37-.41-2.61-.86-3.8-1.18a27.78,27.78,0,0,0-7.46-.86,26.88,26.88,0,0,0-7.46.95c-1.22.34-2.54.78-3.94,1.13a27.6,27.6,0,0,1-4.3.73,40.57,40.57,0,0,1-8.53-.2A28.36,28.36,0,0,1,91.1,285c-1.36-.41-2.61-.87-3.83-1.21a27.55,27.55,0,0,0-7.58-.95,26.83,26.83,0,0,0-7.6.91c-1.24.33-2.54.78-3.91,1.13a26.42,26.42,0,0,1-4.22.73,38.77,38.77,0,0,1-8.41-.16,26.44,26.44,0,0,1-4.15-.9c-1.34-.41-2.6-.89-3.85-1.25a28.25,28.25,0,0,0-7.71-1,28.13,28.13,0,0,0-7.77.86c-1.27.33-2.55.77-3.9,1.11a24.18,24.18,0,0,1-4.12.72,37.93,37.93,0,0,1-8.25-.16,24.37,24.37,0,0,1-4.05-.88c-1.31-.4-2.58-.88-3.85-1.27A29.08,29.08,0,0,0,0,281.45Z"/></g><g id="Boden"><path class="cls-18" d="M40.64,271.36a63.83,63.83,0,0,1,6,8.05l1.35,2.12,1.27,2.16c.87,1.43,1.63,2.92,2.43,4.39s1.49,3,2.22,4.51,1.41,3,2.07,4.59,1.31,3.09,1.87,4.67S59,305,59.53,306.57c2.12,6.36,4.46,12.75,5.22,19.46.1.83.24,1.66.31,2.5l.18,2.52c.1,1.68.2,3.36.22,5a72.91,72.91,0,0,1-.67,10.1l-.56,0a97.28,97.28,0,0,1-2.69-9.65c-.45-1.59-.83-3.19-1.21-4.78s-.7-3.19-1.12-4.77-.73-3.18-1-4.78c-.14-.8-.3-1.6-.48-2.39l-.46-2.4c-.51-3.22-1.25-6.4-2-9.58-.41-1.58-.89-3.14-1.33-4.71S53,300,52.43,298.49s-1-3.11-1.59-4.64-1.1-3.09-1.75-4.59a99,99,0,0,0-8.88-17.55Z"/><path class="cls-18" d="M69.22,280a188.25,188.25,0,0,0-1.72,19.09c-.09,1.6-.15,3.19-.18,4.79s-.1,3.18-.1,4.78-.06,3.18,0,4.77l0,4.77c0,1.59.12,3.19.21,4.77s.18,3.18.33,4.76.21,3.17.25,4.76.11,3.17.12,4.75c0,3.19,0,6.36-.15,9.57a94.46,94.46,0,0,1-.66,9.71l-.56.07a78.57,78.57,0,0,1-4.24-19c-.82-6.46-.11-13,.2-19.43l.33-4.85c.12-1.61.29-3.22.43-4.83s.36-3.22.56-4.82.41-3.2.65-4.8a158.62,158.62,0,0,1,4-18.95Z"/><path class="cls-18" d="M90.74,266.48A137.78,137.78,0,0,0,82.08,290c-.61,2-1.1,4-1.6,6.06l-.75,3-.64,3.06c-1,4.07-1.6,8.2-2.32,12.3-.5,4.14-1.14,8.26-1.36,12.42-.16,2.08-.4,4.14-.59,6.21s-.38,4.14-.62,6.21l-.39,3.1-.3,3.12c-.24,2.07-.43,4.15-.73,6.24-.47,4.17-.85,8.35-1.65,12.58l-.56,0c-.44-2.1-.74-4.2-1.06-6.32s-.59-4.24-.68-6.36-.19-4.26-.28-6.39l-.07-3.2.12-3.19c.12-8.55,2.06-16.94,3.74-25.27,1-4.14,1.91-8.3,3.12-12.38l.88-3.06,1-3c.66-2,1.31-4.05,2.07-6s1.48-4,2.32-5.93L83,280.3l1.32-2.89a94.32,94.32,0,0,1,6-11.22Z"/><path class="cls-18" d="M102.15,270.37a184.9,184.9,0,0,0-8.23,21c-1.15,3.58-2.25,7.16-3.18,10.79L90,304.89l-.64,2.73c-.4,1.82-.89,3.62-1.2,5.46s-.67,3.67-1,5.5l-.65,5.54c-.28,1.84-.39,3.68-.59,5.52l-.34,2.75-.2,1.38-.11,1.37c-1,7.37-1.18,14.7-1.82,22.39l-.56.08c-.61-1.82-1.09-3.69-1.58-5.57-.22-.94-.48-1.88-.64-2.83s-.26-1.91-.38-2.87-.25-1.92-.34-2.89-.24-1.93-.24-2.89c0-1.93,0-3.87,0-5.81.22-7.75,2-15.33,4.09-22.7.44-1.86,1.07-3.68,1.61-5.51l.84-2.75.93-2.71c1.25-3.61,2.66-7.16,4.12-10.68s3.12-6.95,4.84-10.34,3.53-6.73,5.53-10Z"/><path class="cls-18" d="M91.22,289.14a31.12,31.12,0,0,1,8.33,6.44,50.75,50.75,0,0,1,3.46,4c1.06,1.41,2,2.89,3,4.36s1.74,3.09,2.58,4.66l2.18,4.86A82.3,82.3,0,0,1,114,323.63l.65,2.58c.1.43.24.86.33,1.29l.23,1.31,1,5.24a39.14,39.14,0,0,1,.51,5.29c.09,1.77.13,3.54.13,5.31-.28,3.52-.56,7-1.14,10.51A87.94,87.94,0,0,1,113,365.4l-.56-.07a92.87,92.87,0,0,1-.74-10.41c-.24-3.43-.47-6.83-.54-10.21-.13-1.69-.28-3.37-.35-5,0-.84,0-1.69-.07-2.53l0-1.27-.11-1.25-.33-5.05a42,42,0,0,0-.69-5,69.1,69.1,0,0,0-6-19.24c-.8-1.48-1.58-3-2.44-4.44a50,50,0,0,0-2.91-4.16A32.77,32.77,0,0,0,91,289.64Z"/><path class="cls-18" d="M70.39,291.07a30.64,30.64,0,0,1,9.6,3.69c1.55.78,2.92,1.83,4.39,2.76s2.74,2.11,4.08,3.21,2.53,2.37,3.76,3.59l3.46,3.89a85.32,85.32,0,0,1,6,8.5l1.38,2.21c.22.37.48.72.69,1.1l.61,1.14,2.48,4.58a39.34,39.34,0,0,1,2.09,4.75c.62,1.61,1.2,3.25,1.74,4.89.84,3.35,1.65,6.7,2.18,10.1a82.8,82.8,0,0,1,.68,10.32l-.55.11a87.1,87.1,0,0,1-4-9.41c-1.3-3.1-2.56-6.18-3.67-9.3-.65-1.52-1.3-3-1.88-4.58-.3-.77-.56-1.55-.85-2.32l-.4-1.17-.48-1.14a75.8,75.8,0,0,0-4-9,70.4,70.4,0,0,0-11.23-16.19c-1.15-1.17-2.33-2.33-3.54-3.46s-2.51-2.18-3.9-3.07a32.34,32.34,0,0,0-8.78-4.61Z"/><path class="cls-18" d="M32,287.2a31.1,31.1,0,0,1,8.09,6.43c1.24,1.22,2.25,2.63,3.37,4s2,2.84,3,4.29,1.72,3,2.54,4.56l2.17,4.75a85.1,85.1,0,0,1,3.24,9.92l.68,2.53.34,1.26.25,1.28,1,5.12a39.36,39.36,0,0,1,.62,5.18c.13,1.73.2,3.47.25,5.2-.18,3.47-.39,6.93-.86,10.35a85.22,85.22,0,0,1-2.36,10.11l-.56-.05a90.42,90.42,0,0,1-1-10.2c-.34-3.36-.65-6.69-.8-10-.18-1.65-.36-3.3-.47-4.95-.06-.83-.08-1.66-.13-2.48,0-.42,0-.84,0-1.25L51.16,332l-.42-5a45.13,45.13,0,0,0-.76-4.91,72.12,72.12,0,0,0-6-18.87c-.76-1.46-1.54-2.93-2.37-4.37s-1.76-2.83-2.82-4.11a33.19,33.19,0,0,0-7-7.07Z"/><path class="cls-18" d="M31.41,300.69a30.65,30.65,0,0,1,9.53,3.89,49.72,49.72,0,0,1,4.33,2.85q2,1.59,4,3.29c1.22,1.22,2.48,2.42,3.69,3.67l3.38,3.95a83.38,83.38,0,0,1,5.8,8.63l1.34,2.23c.21.38.46.74.67,1.12l.59,1.15,2.39,4.63a40,40,0,0,1,2,4.79c.59,1.63,1.13,3.27,1.64,4.92.77,3.37,1.52,6.74,2,10.15a83,83,0,0,1,.48,10.34l-.55.1a88.28,88.28,0,0,1-3.77-9.49c-1.24-3.13-2.44-6.24-3.49-9.38-.61-1.53-1.23-3.06-1.79-4.61-.28-.78-.53-1.57-.8-2.35l-.38-1.18L62,338.25a75.89,75.89,0,0,0-3.8-9.12A70.84,70.84,0,0,0,47.3,312.71c-1.13-1.19-2.28-2.38-3.47-3.53A48.32,48.32,0,0,0,40,306a32.37,32.37,0,0,0-8.69-4.79Z"/><path class="cls-18" d="M26.77,256.56a158.17,158.17,0,0,0-7,18.22c-1,3.09-1.9,6.19-2.68,9.33l-.63,2.34L16,288.81c-.34,1.57-.76,3.13-1,4.72s-.56,3.17-.81,4.75l-.52,4.78c-.23,1.58-.31,3.18-.49,4.76-.1.79-.18,1.58-.29,2.37l-.18,1.18-.1,1.19c-.87,6.33-1.16,12.64-1.92,19.32l-.56.08c-.59-1.57-1-3.18-1.5-4.81-.21-.81-.45-1.63-.61-2.45s-.24-1.65-.37-2.49-.24-1.66-.34-2.5S7,318,7,317.2c0-1.67-.07-3.35-.08-5,.13-6.73,1.79-13.3,3.62-19.67.39-1.62.94-3.19,1.41-4.77l.74-2.38.82-2.34c1.1-3.12,2.35-6.18,3.63-9.22s2.74-6,4.25-8.92,3.1-5.8,4.86-8.59Z"/><path class="cls-18" d="M11.3,256.84a47.43,47.43,0,0,1,4.38,9.56c1.12,3.32,2.15,6.68,3,10.09a154.74,154.74,0,0,1,3.47,20.72c.22,1.74.41,3.48.57,5.23l.52,5.23a92,92,0,0,1,.16,10.5c-.24,3.49-.54,7-1.05,10.45A90.91,90.91,0,0,1,20.11,339l-.56,0a89.07,89.07,0,0,1-1.19-10.43c-.31-3.46-.53-6.9-.62-10.34s-.21-6.86-.11-10.3l.07-5.15,0-2.58-.09-2.57-.22-5.15L17,287.26c-.1-1.72-.33-3.42-.49-5.13s-.41-3.4-.65-5.1c-1-6.78-2.29-13.63-5.05-19.9Z"/><path class="cls-18" d="M35.43,280.11A119.56,119.56,0,0,0,31.35,296c-.54,2.66-1,5.35-1.37,8l-.55,4L29,312c-.15,1.34-.21,2.69-.26,4s-.14,2.7-.12,4.05c0,2.7-.21,5.37-.41,8.06s-.47,5.37-.83,8.08a78.78,78.78,0,0,1-1.24,8.25l-.56.05a52.82,52.82,0,0,1-3-16.54c0-1.4-.07-2.8.05-4.2s.26-2.78.44-4.17.48-2.76.71-4.14.46-2.75.76-4.11a125.45,125.45,0,0,1,4.08-16.17,101.69,101.69,0,0,1,6.29-15.36Z"/><path class="cls-18" d="M56.75,261.66a89.49,89.49,0,0,0-10.56,18.46,104.66,104.66,0,0,0-3.74,9.9,97.77,97.77,0,0,0-2.72,10.17,77.79,77.79,0,0,0-1.47,10.39c-.34,3.47-.55,6.93-.86,10.4-.1,1.74-.28,3.49-.34,5.24l-.15,2.63c0,.87,0,1.76-.09,2.64-.1,1.77-.09,3.54-.16,5.33s0,3.59-.2,5.43l-.56.1a52.42,52.42,0,0,1-3-10.56c-.17-.91-.33-1.81-.47-2.72l-.31-2.74c-.23-1.83-.24-3.67-.32-5.52a55.62,55.62,0,0,1,1-11c.7-3.62,1.6-7.19,2.62-10.71a104,104,0,0,1,3.58-10.37,106.09,106.09,0,0,1,4.73-9.85,99.64,99.64,0,0,1,5.78-9.22,68.11,68.11,0,0,1,6.88-8.38Z"/><path class="cls-18" d="M16.42,252.91a80,80,0,0,0-5.25,9.67c-.78,1.66-1.54,3.33-2.24,5s-1.39,3.4-2,5.12-1.24,3.46-1.82,5.21l-.87,2.62-.78,2.65c-1.07,3.53-1.87,7.12-2.75,10.7C.45,295,.23,296,0,297.09v40.5c.77-3.59,1.17-7.13,1.61-10.66.3-1.8.47-3.59.7-5.38l.29-2.69L3,316.19c.21-1.79.41-3.57.54-5.36s.37-3.57.49-5.36c.17-3.6.7-7.15,1.1-10.73.61-3.54,1.15-7.11,2-10.62l.53-2.65.64-2.63c.42-1.76.83-3.51,1.35-5.24a119.29,119.29,0,0,1,7.33-20.4Z"/><path class="cls-18" d="M57.82,271.47a83.06,83.06,0,0,0-7.1,14.83A97.58,97.58,0,0,0,46.3,302c-1,5.33-1.15,10.72-1.78,16l-.25,2-.15,1L44,322c-.11,1.34-.23,2.69-.42,4.06s-.27,2.72-.41,4.1-.32,2.78-.6,4.21l-.56.08a44.59,44.59,0,0,1-3.15-16.77,33.89,33.89,0,0,1,.19-4.28c.18-1.42.41-2.84.67-4.24s.69-2.78,1-4.16l.53-2.07c.19-.68.41-1.36.61-2,.42-1.36.78-2.73,1.26-4.06l1.45-4,1.68-3.9c.56-1.29,1.23-2.54,1.83-3.8a74.9,74.9,0,0,1,9.23-14.05Z"/><path class="cls-19" d="M0,321.17S66.48,315,111.28,331.82c55.46,20.8,91,15.1,108.44,14.36,93.09-4,138.65,25.75,177.77,55,52.71,39.37,84.3,87.21,201.66,94.14,135,8,184.09-39.81,420.85-22.6V574H0Z"/><path class="cls-20" d="M0,332.42s66.48-6.16,111.28,10.64c55.46,20.8,91,15.11,108.44,14.36,93.09-4,138.65,25.75,177.77,55,52.71,39.36,84.3,87.2,201.66,94.14,135,8,184.09-39.81,420.85-22.61V574H0Z"/><g class="cls-15"><ellipse class="cls-21" cx="108.45" cy="533.75" rx="1.47" ry="3.2" transform="translate(-428.73 623.65) rotate(-88.02)"/><ellipse class="cls-21" cx="206.77" cy="520.82" rx="3.16" ry="1.48" transform="translate(-38.25 16.86) rotate(-4.28)"/><ellipse class="cls-21" cx="206.8" cy="514.96" rx="1.19" ry="1.5" transform="translate(-308.44 721.07) rotate(-89.92)"/><ellipse class="cls-21" cx="148.54" cy="444.77" rx="1.5" ry="1.19" transform="translate(-24.98 9.14) rotate(-3.25)"/><ellipse class="cls-21" cx="99.81" cy="535.99" rx="2.24" ry="5.11" transform="matrix(0.01, -1, 1, 0.01, -437.43, 628.82)"/><ellipse class="cls-21" cx="85.76" cy="445.45" rx="2.7" ry="3.2" transform="translate(-363.82 505.94) rotate(-86.77)"/><path class="cls-21" d="M30.47,464.88a1.2,1.2,0,0,0,0-.33,1.92,1.92,0,0,0-2.14-1.4,1.68,1.68,0,0,0-1.6,1.33,2.65,2.65,0,0,0-1.8,2.79,3.4,3.4,0,0,0,3.8,2.5c1.86-.16,3.16-1.55,2.92-3.09A4,4,0,0,0,30.47,464.88Z"/><ellipse class="cls-21" cx="78.57" cy="443.84" rx="1.35" ry="1.6" transform="translate(-366.58 514.59) rotate(-88.99)"/><ellipse class="cls-21" cx="169.91" cy="502.23" rx="0.97" ry="0.82" transform="translate(-29.01 10.77) rotate(-3.34)"/><ellipse class="cls-21" cx="115.03" cy="470.03" rx="0.97" ry="0.82" transform="translate(-16.57 4.37) rotate(-2.03)"/><ellipse class="cls-21" cx="181.12" cy="509.65" rx="0.82" ry="0.97" transform="translate(-352.99 594.96) rotate(-79.51)"/><ellipse class="cls-21" cx="160.35" cy="508.8" rx="0.82" ry="0.97" transform="matrix(0.05, -1, 1, 0.05, -355.68, 644.1)"/><ellipse class="cls-21" cx="159.96" cy="510.21" rx="2.21" ry="1.16" transform="translate(-0.7 0.22) rotate(-0.08)"/><ellipse class="cls-21" cx="171.28" cy="514.11" rx="2.21" ry="1.16" transform="translate(-11.18 3.86) rotate(-1.25)"/><ellipse class="cls-21" cx="140.36" cy="512.16" rx="1.35" ry="1.6" transform="translate(-376.65 633.44) rotate(-87.88)"/><ellipse class="cls-21" cx="155.18" cy="507.77" rx="1.35" ry="2.04" transform="translate(-356.27 650.34) rotate(-88.58)"/><ellipse class="cls-21" cx="75.52" cy="492.28" rx="1.6" ry="1.35" transform="translate(-15.86 2.7) rotate(-1.85)"/><ellipse class="cls-21" cx="78.99" cy="496.65" rx="1.83" ry="2.16" transform="translate(-423.73 509.86) rotate(-82.47)"/><ellipse class="cls-21" cx="164.88" cy="507.19" rx="1.65" ry="1.95" transform="translate(-354.41 628.71) rotate(-85.16)"/><ellipse class="cls-21" cx="159.31" cy="502.13" rx="1.35" ry="2.93" transform="translate(-346.68 648.72) rotate(-88.55)"/><ellipse class="cls-21" cx="68.59" cy="495.82" rx="3.88" ry="1.79" transform="translate(-5.21 0.75) rotate(-0.6)"/><ellipse class="cls-21" cx="273.85" cy="473.73" rx="1.57" ry="3.43" transform="translate(-209.08 731.02) rotate(-88.02)"/><ellipse class="cls-21" cx="316.91" cy="378.2" rx="1.61" ry="1.27" transform="translate(-20.94 18.58) rotate(-3.25)"/><ellipse class="cls-21" cx="264.57" cy="476.14" rx="2.4" ry="5.48" transform="translate(-214.96 734.5) rotate(-89.26)"/><ellipse class="cls-21" cx="249.49" cy="378.92" rx="2.9" ry="3.43" transform="translate(-142.9 606.64) rotate(-86.77)"/><path class="cls-21" d="M190.12,399.78a1.27,1.27,0,0,0,0-.34,2.06,2.06,0,0,0-2.3-1.51,1.81,1.81,0,0,0-1.72,1.43,2.84,2.84,0,0,0-1.93,3c.26,1.65,2.09,2.85,4.08,2.68s3.4-1.66,3.14-3.32A4.4,4.4,0,0,0,190.12,399.78Z"/><ellipse class="cls-21" cx="241.77" cy="377.19" rx="1.45" ry="1.72" transform="translate(-139.61 612.3) rotate(-88.99)"/><ellipse class="cls-21" cx="362.34" cy="417.4" rx="1.04" ry="0.88" transform="translate(-23.73 21.85) rotate(-3.34)"/><ellipse class="cls-21" cx="280.92" cy="405.32" rx="1.04" ry="0.88" transform="translate(-14.18 10.2) rotate(-2.03)"/><ellipse class="cls-21" cx="374.38" cy="425.37" rx="0.88" ry="1.04" transform="matrix(0.18, -0.98, 0.98, 0.18, -112.05, 716.05)"/><ellipse class="cls-21" cx="352.07" cy="424.46" rx="0.88" ry="1.04" transform="translate(-89.08 755.37) rotate(-87.2)"/><ellipse class="cls-21" cx="351.65" cy="425.97" rx="2.37" ry="1.25" transform="translate(-0.59 0.48) rotate(-0.08)"/><ellipse class="cls-21" cx="363.81" cy="430.16" rx="2.38" ry="1.25" transform="translate(-9.3 8.04) rotate(-1.25)"/><ellipse class="cls-21" cx="330.61" cy="428.06" rx="1.45" ry="1.72" transform="translate(-109.41 742.58) rotate(-87.88)"/><ellipse class="cls-21" cx="346.52" cy="423.35" rx="1.45" ry="2.19" transform="translate(-85.27 759.29) rotate(-88.58)"/><ellipse class="cls-21" cx="238.49" cy="429.21" rx="1.72" ry="1.45" transform="translate(-13.74 7.93) rotate(-1.85)"/><ellipse class="cls-21" cx="242.23" cy="433.91" rx="1.96" ry="2.32" transform="translate(-219.69 617.16) rotate(-82.47)"/><ellipse class="cls-21" cx="356.94" cy="422.73" rx="1.77" ry="2.1" transform="matrix(0.08, -1, 1, 0.08, -94.39, 742.75)"/><ellipse class="cls-21" cx="350.95" cy="417.3" rx="1.45" ry="3.15" transform="translate(-75.06 757.61) rotate(-88.55)"/><ellipse class="cls-21" cx="231.06" cy="433.01" rx="4.17" ry="1.92" transform="translate(-4.54 2.45) rotate(-0.6)"/><ellipse class="cls-21" cx="19.62" cy="392.7" rx="1.69" ry="3.67" transform="matrix(0.03, -1, 1, 0.03, -373.52, 398.71)"/><ellipse class="cls-21" cx="132.62" cy="377.85" rx="3.63" ry="1.71" transform="translate(-27.8 10.94) rotate(-4.28)"/><ellipse class="cls-21" cx="132.66" cy="371.11" rx="1.36" ry="1.73" transform="translate(-238.63 503.27) rotate(-89.92)"/><ellipse class="cls-21" cx="90.27" cy="356.48" rx="1.12" ry="0.94" transform="translate(-20.64 5.87) rotate(-3.34)"/><ellipse class="cls-21" cx="103.15" cy="365.01" rx="0.94" ry="1.12" transform="translate(-274.54 399.98) rotate(-79.51)"/><ellipse class="cls-21" cx="91.84" cy="370.13" rx="2.54" ry="1.33" transform="translate(-8.06 2.09) rotate(-1.25)"/><ellipse class="cls-21" cx="56.31" cy="367.89" rx="1.55" ry="1.84" transform="translate(-313.42 410.52) rotate(-87.88)"/><ellipse class="cls-21" cx="73.33" cy="362.84" rx="1.55" ry="2.35" transform="translate(-291.21 427.17) rotate(-88.58)"/><ellipse class="cls-21" cx="84.48" cy="362.18" rx="1.9" ry="2.24" transform="translate(-283.53 415.82) rotate(-85.16)"/><ellipse class="cls-21" cx="78.08" cy="356.37" rx="1.55" ry="3.37" transform="translate(-280.15 425.43) rotate(-88.55)"/><ellipse class="cls-21" cx="358.92" cy="498" rx="1.61" ry="1.27" transform="translate(-27.66 21.16) rotate(-3.25)"/><ellipse class="cls-21" cx="291.5" cy="498.73" rx="2.9" ry="3.43" transform="translate(-222.87 761.64) rotate(-86.77)"/><path class="cls-21" d="M232.14,519.59a1.37,1.37,0,0,0,0-.35,2.06,2.06,0,0,0-2.29-1.51,1.83,1.83,0,0,0-1.73,1.43,2.85,2.85,0,0,0-1.93,3,3.65,3.65,0,0,0,4.08,2.68c2-.17,3.4-1.66,3.14-3.31A4.33,4.33,0,0,0,232.14,519.59Z"/><ellipse class="cls-21" cx="283.78" cy="497" rx="1.45" ry="1.72" transform="matrix(0.02, -1, 1, 0.02, -218.12, 772)"/><ellipse class="cls-21" cx="416.73" cy="469.74" rx="1.04" ry="0.88" transform="translate(-26.7 25.11) rotate(-3.34)"/><ellipse class="cls-21" cx="322.93" cy="525.13" rx="1.04" ry="0.88" transform="translate(-18.39 11.77) rotate(-2.03)"/><ellipse class="cls-21" cx="383.97" cy="533.02" rx="0.88" ry="1.04" transform="translate(-167.18 890.48) rotate(-87.2)"/><ellipse class="cls-21" cx="383.54" cy="534.53" rx="2.37" ry="1.25" transform="matrix(1, 0, 0, 1, -0.74, 0.53)"/><ellipse class="cls-21" cx="378.41" cy="531.91" rx="1.45" ry="2.19" transform="translate(-162.69 897.05) rotate(-88.58)"/><ellipse class="cls-21" cx="280.51" cy="549.01" rx="1.72" ry="1.45" transform="translate(-17.59 9.35) rotate(-1.85)"/><ellipse class="cls-21" cx="284.24" cy="553.71" rx="1.96" ry="2.32" transform="translate(-301.95 762.92) rotate(-82.47)"/><ellipse class="cls-21" cx="388.83" cy="531.29" rx="1.77" ry="2.1" transform="translate(-173.36 873.93) rotate(-85.16)"/><ellipse class="cls-21" cx="405.34" cy="469.63" rx="1.45" ry="3.15" transform="translate(-74.37 863) rotate(-88.55)"/><ellipse class="cls-21" cx="273.08" cy="552.81" rx="4.17" ry="1.92" transform="translate(-5.79 2.9) rotate(-0.6)"/><ellipse class="cls-21" cx="724.79" cy="553.22" rx="1.57" ry="3.43" transform="translate(146.81 1258.42) rotate(-88.02)"/><ellipse class="cls-21" cx="849.52" cy="561.84" rx="3.39" ry="1.59" transform="translate(-39.52 64.89) rotate(-4.28)"/><ellipse class="cls-21" cx="849.56" cy="555.54" rx="1.27" ry="1.61" transform="translate(292.87 1404.35) rotate(-89.92)"/><ellipse class="cls-21" cx="775.76" cy="511.66" rx="1.61" ry="1.27" transform="translate(-27.77 44.82) rotate(-3.25)"/><ellipse class="cls-21" cx="715.51" cy="555.63" rx="2.4" ry="5.48" transform="translate(150.63 1263.86) rotate(-89.26)"/><ellipse class="cls-21" cx="809.95" cy="541.87" rx="1.04" ry="0.88" transform="translate(-30.23 48.18) rotate(-3.34)"/><ellipse class="cls-21" cx="762.26" cy="515.17" rx="1.04" ry="0.88" transform="translate(-17.77 27.32) rotate(-2.03)"/><ellipse class="cls-21" cx="821.99" cy="549.84" rx="0.88" ry="1.04" transform="translate(131.68 1257.98) rotate(-79.51)"/><ellipse class="cls-21" cx="799.68" cy="548.93" rx="0.88" ry="1.04" transform="translate(212.34 1320.83) rotate(-87.2)"/><ellipse class="cls-21" cx="799.26" cy="550.44" rx="2.37" ry="1.25" transform="translate(-0.76 1.1) rotate(-0.08)"/><ellipse class="cls-21" cx="811.42" cy="554.63" rx="2.38" ry="1.25" transform="translate(-11.91 17.85) rotate(-1.25)"/><ellipse class="cls-21" cx="778.22" cy="552.53" rx="1.45" ry="1.72" transform="translate(197.22 1309.74) rotate(-87.88)"/><ellipse class="cls-21" cx="794.13" cy="547.81" rx="1.45" ry="2.19" transform="translate(226.84 1328.15) rotate(-88.58)"/><ellipse class="cls-21" cx="686.1" cy="508.7" rx="1.72" ry="1.45" transform="matrix(1, -0.03, 0.03, 1, -16.08, 22.43)"/><ellipse class="cls-21" cx="689.84" cy="513.39" rx="1.96" ry="2.32" transform="translate(90.45 1129.98) rotate(-82.47)"/><ellipse class="cls-21" cx="804.55" cy="547.2" rx="1.77" ry="2.1" transform="translate(191.45 1302.73) rotate(-85.16)"/><ellipse class="cls-21" cx="798.56" cy="541.77" rx="1.45" ry="3.15" transform="matrix(0.03, -1, 1, 0.03, 236.83, 1326.41)"/><ellipse class="cls-21" cx="678.67" cy="512.5" rx="4.17" ry="1.92" transform="translate(-5.35 7.16) rotate(-0.6)"/><ellipse class="cls-21" cx="553.18" cy="511.79" rx="1.4" ry="2.98" transform="translate(-20.33 1000.69) rotate(-83.22)"/><ellipse class="cls-21" cx="553.39" cy="506.28" rx="1.12" ry="1.41" transform="translate(24.14 1037.73) rotate(-87.57)"/><ellipse class="cls-21" cx="636.42" cy="544.79" rx="3.01" ry="2.55" transform="translate(-6.88 8.15) rotate(-0.73)"/><ellipse class="cls-21" cx="643.25" cy="543.57" rx="1.27" ry="1.51" transform="translate(83.06 1172.41) rotate(-88.5)"/><ellipse class="cls-21" cx="442.44" cy="507.06" rx="0.77" ry="0.92" transform="translate(-107.06 895.53) rotate(-84.15)"/><ellipse class="cls-21" cx="585.37" cy="532.99" rx="0.77" ry="0.92" transform="translate(7.78 1074.41) rotate(-85.47)"/><ellipse class="cls-21" cx="476.57" cy="558.56" rx="0.92" ry="0.77" transform="matrix(0.99, -0.14, 0.14, 0.99, -72.99, 71.63)"/><ellipse class="cls-21" cx="496.15" cy="558.61" rx="0.92" ry="0.77" transform="translate(-2.89 2.58) rotate(-0.3)"/><ellipse class="cls-21" cx="496.46" cy="559.95" rx="1.09" ry="2.08" transform="translate(-85.29 1030.68) rotate(-87.42)"/><ellipse class="cls-21" cx="485.64" cy="563.16" rx="1.09" ry="2.08" transform="matrix(0.07, -1, 1, 0.07, -108.11, 1010.88)"/><ellipse class="cls-21" cx="514.82" cy="562.6" rx="1.27" ry="1.51" transform="translate(-51.17 1073.68) rotate(-89.62)"/><ellipse class="cls-21" cx="501.06" cy="557.85" rx="1.27" ry="1.92" transform="translate(-66.19 1048.24) rotate(-88.91)"/><ellipse class="cls-21" cx="902.04" cy="480.01" rx="1.27" ry="1.51" transform="translate(354.92 1343) rotate(-85.64)"/><ellipse class="cls-21" cx="898.59" cy="483.99" rx="2.03" ry="1.72" transform="translate(-38.96 80.63) rotate(-5.03)"/><ellipse class="cls-21" cx="491.95" cy="556.91" rx="1.84" ry="1.55" transform="translate(-22.27 20.5) rotate(-2.33)"/><ellipse class="cls-21" cx="452.43" cy="507.4" rx="1.27" ry="2.76" transform="translate(-63.24 950.38) rotate(-88.94)"/><ellipse class="cls-21" cx="908.41" cy="483.63" rx="1.68" ry="3.65" transform="translate(376.28 1364.5) rotate(-86.89)"/><ellipse class="cls-21" cx="976.54" cy="507.78" rx="1.12" ry="1.41" transform="translate(373.41 1428.48) rotate(-84.25)"/><ellipse class="cls-21" cx="889.42" cy="522.24" rx="3.01" ry="2.55" transform="translate(-6.58 11.37) rotate(-0.73)"/><path class="cls-21" d="M996.87,554.05a1.61,1.61,0,0,1,0-.31,1.8,1.8,0,0,1,2.07-1.23,1.59,1.59,0,0,1,1.46,1.31,2.5,2.5,0,0,1,1.57,2.71,3.21,3.21,0,0,1-3.68,2.19,2.72,2.72,0,0,1-2.62-3A3.77,3.77,0,0,1,996.87,554.05Z"/><ellipse class="cls-21" cx="896.25" cy="521.02" rx="1.27" ry="1.51" transform="translate(351.99 1403.35) rotate(-88.5)"/><ellipse class="cls-21" cx="917.08" cy="555.42" rx="0.77" ry="0.92" transform="translate(290.92 1425.73) rotate(-85.47)"/><ellipse class="cls-21" cx="955.6" cy="558.86" rx="1.27" ry="1.51" transform="translate(325.78 1469.26) rotate(-85.64)"/><ellipse class="cls-21" cx="952.15" cy="562.84" rx="2.03" ry="1.72" transform="translate(-45.67 85.62) rotate(-5.03)"/><ellipse class="cls-21" cx="961.97" cy="562.48" rx="1.68" ry="3.65" transform="translate(348.19 1492.56) rotate(-86.89)"/></g><path class="cls-22" d="M0,320.64c5.53-.58,11.07-1,16.61-1.28s11.1-.43,16.66-.45a325.81,325.81,0,0,1,33.34,1.36,204.27,204.27,0,0,1,33,5.65c1.35.36,2.72.66,4.06,1.07l4,1.3,4,1.3,3.92,1.33c2.61.87,5.19,1.84,7.82,2.64l7.89,2.4a235.27,235.27,0,0,0,32.19,6.79l2,.3,2,.23,4.09.45c2.72.3,5.46.43,8.19.66,5.47.24,10.94.43,16.43.26s11-.46,16.48-.83c2.76-.17,5.59-.39,8.37-.44l8.37-.16c2.79,0,5.58-.17,8.37-.11l8.37.25,4.19.12,2.09.07,2.09.16,8.35.66,4.18.33c1.39.14,2.77.36,4.15.53l8.31,1.12,2.08.29,2.06.39,4.12.77,4.12.78c1.37.27,2.75.49,4.1.85,5.42,1.36,10.89,2.52,16.21,4.27l4,1.21,2,.61c.67.21,1.32.47,2,.7l7.87,2.85a237.82,237.82,0,0,1,30.19,14.39,324,324,0,0,1,28,18.17c4.53,3.21,9,6.53,13.41,9.87s8.75,6.85,13.07,10.33c8.62,7,17,14.25,25.62,21.21A331.25,331.25,0,0,0,465,452.84a221.78,221.78,0,0,0,28.77,16.21,224,224,0,0,0,30.87,11.59A280.66,280.66,0,0,0,556.8,488c10.86,1.82,21.81,3.07,32.8,3.91l8.25.53c2.75.19,5.51.21,8.26.32l16.54.52a564.43,564.43,0,0,0,66-3.75c21.92-2.67,43.77-6.19,65.69-9.61s44-6.4,66.09-8.66l16.61-1.43c2.77-.23,5.54-.51,8.31-.69l8.33-.47,16.64-.94c2.77-.19,5.55-.22,8.33-.29l8.33-.21c44.44-1.06,88.85,1,133,5l0,.56c-44.29-2.09-88.62-3.08-132.84-1.13l-8.29.33c-2.76.11-5.52.19-8.28.42L854,473.51l-8.27.6c-2.76.22-5.51.54-8.26.81L821,476.6c-5.5.57-11,1.39-16.46,2s-11,1.33-16.44,2.17l-16.42,2.39-16.41,2.6-16.43,2.58c-5.47.86-11,1.72-16.46,2.51l-8.24,1.22c-2.75.41-5.49.82-8.26,1.14l-16.56,2.05a568,568,0,0,1-66.75,3.21l-16.7-.66c-2.78-.14-5.57-.17-8.35-.39l-8.34-.65c-11.1-1-22.18-2.45-33.16-4.47a239.94,239.94,0,0,1-63.59-20.52,222.81,222.81,0,0,1-28.79-17c-4.57-3.18-9.07-6.46-13.45-9.89s-8.72-6.89-13-10.44c-8.53-7.1-16.94-14.33-25.49-21.36s-17.43-13.64-26.46-20a301.11,301.11,0,0,0-28-17.64A236.07,236.07,0,0,0,327.07,362l-7.83-2.62c-.65-.22-1.29-.45-1.95-.65l-2-.55-4-1.09c-5.26-1.6-10.68-2.61-16-3.82-1.34-.33-2.7-.51-4.06-.74l-4.07-.67-4.06-.67-2-.33-2.05-.23-8.2-.91c-1.36-.14-2.72-.32-4.09-.43l-4.12-.27-8.23-.54-2.06-.13-2.07,0-4.12-.07-8.26-.16c-2.75,0-5.5.1-8.25.13l-8.26.19c-2.75,0-5.46.27-8.23.45-5.53.39-11.13.68-16.73.77s-11.22-.08-16.82-.37c-2.79-.25-5.59-.4-8.38-.73l-4.18-.48-2.08-.25-2.08-.32a237.4,237.4,0,0,1-32.75-7.34l-8-2.54c-2.66-.85-5.26-1.88-7.89-2.81l-3.93-1.43L106.42,332l-3.87-1.34c-1.3-.42-2.63-.74-4-1.12-5.25-1.56-10.64-2.68-16-3.76l-8.13-1.43-8.19-1.13A391.56,391.56,0,0,0,0,321.2Z"/></g><g id="Skelett"><polygon class="cls-4" points="435.79 392.13 430.5 398.6 432.28 399.83 437.56 393.37 435.79 392.13"/><polygon class="cls-4" points="429.13 382.01 421.28 392.17 423.05 393.41 430.9 383.25 429.13 382.01"/><polygon class="cls-4" points="421.19 373.74 412.05 385.74 413.82 386.98 422.96 374.97 421.19 373.74"/><polygon class="cls-4" points="425.8 376.95 416.66 388.96 418.44 390.19 427.58 378.19 425.8 376.95"/><polygon class="cls-4" points="432.46 387.07 425.89 395.38 427.66 396.62 434.23 388.31 432.46 387.07"/><polygon class="cls-4" points="216.87 302.69 218.38 307.76 215.47 308.28 215.36 303.75 216.87 302.69"/><polygon class="cls-4" points="218.56 309.34 221.12 317.83 227.56 328.05 216.86 330.64 215.92 309.54 218.56 309.34"/><polygon class="cls-4" points="217.2 331.58 227.68 329.88 226.01 339.44 217.31 336.49 217.2 331.58"/><polygon class="cls-4" points="300.07 334.47 268.7 334.47 271.77 338.66 299.09 339.88 300.07 334.47"/><polygon class="cls-4" points="298.97 340.56 276.06 344.5 274.06 341.78 299.6 337.08 298.97 340.56"/><polygon class="cls-4" points="393.49 380.88 353.04 361.28 352.07 367.69 385.17 388.35 385.71 385.74 355.55 366.85 388.64 383.47 393.49 380.88"/><path class="cls-4" d="M428.62,407.25l-35.3-23.64.24-2.59-7,.94L385,388.24l2.94.68,27,19.63C418.34,409.12,423.86,409.52,428.62,407.25Z"/><g class="cls-23"><path class="cls-4" d="M495.23,443.55c2.65-7.17,2.37-14.47-.2-19.84a12.06,12.06,0,0,0-1.28-5.72,4.6,4.6,0,0,0-5.77-2.36,33.67,33.67,0,0,0-4.27-5,50.35,50.35,0,0,0-11.06-8.07c-3.18-1.8-14.72,2.7-16.7,6.73-4.19,8.56-5,16.52,4.45,25.62.57.54,1.15,1.06,1.74,1.55-1.86,9.95,2.39,18.52,10,21.34C480.93,461,490.85,455.39,495.23,443.55Z"/><ellipse class="cls-24" cx="484.94" cy="418.64" rx="2.6" ry="4.5" transform="translate(-149.6 506.85) rotate(-48.72)"/><path class="cls-10" d="M475.34,405.18a14.88,14.88,0,0,0-4.57,5.23,10.29,10.29,0,0,0-.74,6.53,15.6,15.6,0,0,0,.42,1.63c.17.57.37,1,.55,1.76a6.82,6.82,0,0,1-.54,4.1,26.08,26.08,0,0,1-4.11,6.21,13.7,13.7,0,0,0-3,5.85,20.66,20.66,0,0,0-.67,6.75,20,20,0,0,0,1.59,6.67,20.8,20.8,0,0,0,3.9,5.84,17.32,17.32,0,0,1-4.87-5.34,19,19,0,0,1-2.36-7,20.73,20.73,0,0,1,.35-7.44,17.09,17.09,0,0,1,1.25-3.58,14.85,14.85,0,0,1,1-1.69c.19-.26.36-.54.57-.8l.59-.72a25,25,0,0,0,3.88-5.59,4.83,4.83,0,0,0,.57-2.85c-.07-.42-.31-1.09-.44-1.67a16.44,16.44,0,0,1-.33-1.86,11,11,0,0,1,1.5-7.33A13.33,13.33,0,0,1,475.34,405.18Z"/><polygon class="cls-10" points="468.05 413.38 464.82 418.53 464.92 417.91 468.8 426.98 466.69 427.77 463.71 418.36 463.59 417.97 463.81 417.74 468.05 413.38"/></g></g></g></svg>