<svg id="Ebene_1" data-name="Ebene 1" xmlns="http://www.w3.org/2000/svg" width="200" height="72.1" viewBox="0 0 200 72.1">
  <path d="M100.85,58.08a1.74,1.74,0,0,0-.94,1.06c-.08.27,0,.5.3.89.7.91.37,1.58-.47.94a.75.75,0,0,0-1.22.2,6.07,6.07,0,0,1-1.1,1.19,2.6,2.6,0,0,0-1.06,1.47c-.16.61-.44,1-2,2.53a11.15,11.15,0,0,0-1.85,2.08c0,.16.3.46.71.71,1.22.73.78,1.17-.57.56-1.06-.5-1.4-.41-1.87.52a10.53,10.53,0,0,1-3.38,3.41c-1.86,1.25-2.24,1.61-2.24,2.12a1,1,0,0,1-.23.61.64.64,0,0,0-.24.39c0,.29,1.32.82,3.13,1.25.91.22,2.41.6,3.33.85l1.69.44-1.22.25c-2.39.5-4.72.89-10,1.67-2.92.44-7.45,1.14-10.08,1.56s-6.29.94-8.13,1.16-4.52.6-5.95.81c-2.92.47-3.51.43-5.73-.39A44.08,44.08,0,0,0,46,82.72a8.1,8.1,0,0,0-3.54.63,2.11,2.11,0,0,0-1.14,1.56c-.06.58.53.94,2.16,1.31,1.45.33,2.61.74,2.61.94a48.53,48.53,0,0,1-7.38.49,27.06,27.06,0,0,1-7.73-1,16.19,16.19,0,0,1-6.16-3c-.91-.62-2.64-1.68-3.83-2.36A46.1,46.1,0,0,0,7.2,75.89c-2.69-.55-3.85-.58-4.49-.13-.46.32-.46.35-.46,1.75,0,.8,0,2.69,0,4.23,0,3,.11,3.53.83,4l.42.28L3,86.33c-.78.47-.86,1.21-.28,2.38A16.32,16.32,0,0,1,3.52,91c.33,1.21.44,1.43.89,1.71s.61.53.25.92-.22.31,0,.75c.46.88.33,2.19-.45,4.43-.39,1.11-.71,2.12-.71,2.23s.33.44.72.72l.72.5-1.06.36L2.79,103a17.45,17.45,0,0,0-1.22,3.83c-.24,1-.54,2.36-.68,3a8.72,8.72,0,0,1-.61,1.83c-.22.42-.33.75-.26.76A62.74,62.74,0,0,0,7.26,112a30.91,30.91,0,0,0,6.25-1.19c1.77-.47,4.71-1.37,6.54-2s4.89-1.63,6.8-2.19,3.9-1.18,4.41-1.35c3.14-1.08,12.65-.72,16.23.61l1.24.45-.92.41a8.35,8.35,0,0,1-3.32.75c-1.19,0-1.2.05-1.25,3.68a19.3,19.3,0,0,0,1.16,7.89c.37,1.16.73,2.38.78,2.69a1.46,1.46,0,0,0,.33.77.41.41,0,0,1,.12.48.47.47,0,0,0,.24.54c.18.14.33.32.33.45,0,.33,1,.86,1.65.87,1,0,1.52-.14,5.65-2a112.5,112.5,0,0,0,11.7-6,39.24,39.24,0,0,1,6.63-3.42,19.35,19.35,0,0,1,2.36-.25c2.45-.14,11.16.7,20.39,2l2.48.36-.56.38c-.8.54-.94.93-1,3-.09,1.69-.11,1.8-.42,1.84s-.35.16-.41,1.49a9.24,9.24,0,0,1-.48,2.62c-.57,1.6-.6,3.45-.07,4.21a3,3,0,0,0,.85.83c.47.27.51.27,1,0a33.32,33.32,0,0,0,5.92-4.73c1.5-1.42,3-2.81,3.25-3.09l.51-.53.38.42a1.81,1.81,0,0,1,.39.62,2,2,0,0,0,.41.66c.81,1,1.53.63,3.17-1.55.36-.47.94-1.22,1.28-1.64a10.42,10.42,0,0,0,1.11-1.85c.46-1,.52-1.06.9-1,.21.06,3,.14,6.19.18A105.13,105.13,0,0,0,137,116.39c3.46-.42,9.26-1.28,9.95-1.49.22-.06.26.32.33,3.51.09,3.84.09,3.87,1,4.91.46.5,1,.54,1.68.15,1.08-.59,4.64-4.77,7.44-8.72.91-1.28,1.75-2.43,1.86-2.52s2.3-.64,4.83-1.2,5.46-1.29,6.49-1.58a36.65,36.65,0,0,1,5.82-1.18c.7,0,13-3.14,15.87-4.06a19.75,19.75,0,0,0,4.16-1.77c2.75-1.58,3.86-2.77,3.49-3.75-.27-.71-.78-.83-2.17-.52a3.3,3.3,0,0,1-1.88.11c-.36-.11-.63-.25-.58-.33a.32.32,0,0,1,.25-.15,17.88,17.88,0,0,0,3.66-1.9,1.19,1.19,0,0,0,.55-1.09,3.45,3.45,0,0,0-1.24-2.52c-1.23-1.36-4.41-3.31-7.85-4.83A78.5,78.5,0,0,0,181,84.19a15.86,15.86,0,0,1-2.72-.8,28.49,28.49,0,0,0-6.16-1.68c-1-.18-2.63-.51-3.52-.71-7.25-1.75-9.9-2.34-11.87-2.67-3.34-.55-9.83-1.46-11.83-1.64-3.48-.32-9.89-.63-13.14-.63a49.17,49.17,0,0,1-6.16-.33,25.49,25.49,0,0,0-3.22-.23c-.28.08-.36,0-.36-.19s-.6-.91-1.88-1.86c-.47-.35-2.72-2.44-5-4.66-5.65-5.47-8.74-8.06-11.79-9.84C101.82,58.05,101.33,57.87,100.85,58.08Z" transform="translate(0 -58)"/>
</svg>
