<svg id="Ebene_1" data-name="Ebene 1" xmlns="http://www.w3.org/2000/svg" width="110.47" height="200" viewBox="0 0 110.47 200">
  <path d="M61.27,199.23q0-2.41-2.51-6.32c-1.68-2.61-2.51-4.71-2.51-6.32a7.89,7.89,0,0,1,.29-2,69.07,69.07,0,0,0,.38-7.33,66.73,66.73,0,0,0-.67-9.45,96.9,96.9,0,0,1-.58-10.62,29.89,29.89,0,0,1,1.83-10.32,61.35,61.35,0,0,0-2.12-16.21,21.21,21.21,0,0,1-1-3.76q-.68,2.79-1.55,5.31-2.7,10.8-2.7,14.76a29.79,29.79,0,0,0,.48,5.21c-2.31-.65-3.87-1.72-4.68-3.23a8.47,8.47,0,0,1-1.2-3.62,6.19,6.19,0,0,1,1.16-3.48,25.06,25.06,0,0,0,3.81-9,71.41,71.41,0,0,0,1.2-9.55c.2-3.25.5-6.27.92-9.07a24.93,24.93,0,0,1,2.84-8.25,28.3,28.3,0,0,1,12-12.78A48.78,48.78,0,0,1,84,87.51Q91.47,85.1,100,75.64a13.3,13.3,0,0,1,1.55-1.83q11-5.7,13.79-17.18a141.74,141.74,0,0,1,1.89-23.25q1.88-11.39,4.38-22.67c-.32-.77-1.38-1.71-3.18-2.8a3,3,0,0,1-1-.29,8.3,8.3,0,0,1,3.76-1.93c2.19-1,3.28-1.83,3.28-2.41s-.68-1.32-2-2.22A3.06,3.06,0,0,1,124.56,0a7,7,0,0,1,3.18,1.06L130,2.32a8.71,8.71,0,0,1,4.44-1.16,25.08,25.08,0,0,1,5.5.77,19.18,19.18,0,0,0,5,.67,2.84,2.84,0,0,1,1.26.29c4.18,0,7.2.94,9.07,2.8a12.52,12.52,0,0,0-1.84,1.55l.58.67a.26.26,0,0,1,.29.29,22.48,22.48,0,0,1-10.23,5,22.25,22.25,0,0,0-7,2.31,10.45,10.45,0,0,0-4.82,6.08V31l-.1,8.2A235.15,235.15,0,0,0,134,69.37l.1,1.16A11.29,11.29,0,0,1,133,75.64,51.76,51.76,0,0,1,129.77,81a49,49,0,0,0-3.14,5.16,12.15,12.15,0,0,0-1.4,5.74,45.94,45.94,0,0,0,2.22,4.44,11.71,11.71,0,0,1,2.51,6.56,20.42,20.42,0,0,1-3.09,10.9q-4.05,7.43-6.37,28.27-1.16,9.84-1.44,19.49-.39,5.88-1,11.86a34.66,34.66,0,0,0,7.82,19.68l.09.68c0,1.67-1,2.51-3,2.51a9.49,9.49,0,0,1-4.63-1.35A47.6,47.6,0,0,0,116.55,184a48.44,48.44,0,0,1-1.84-11.77,26.59,26.59,0,0,1,.87-6.65h-.67c-1.67,0-2.51,1.09-2.51,3.28a10.47,10.47,0,0,0,.39,2.7,20.5,20.5,0,0,0,.09,2.27,8.16,8.16,0,0,1,.1.91,3.23,3.23,0,0,1-.48,1.74,14.9,14.9,0,0,0-1.07,5.31q0,5.29,4.44,9.74v2.8a18.2,18.2,0,0,1-4.92-.68,32.88,32.88,0,0,1-2.89-13.41,98.7,98.7,0,0,1,1-13.7,126.13,126.13,0,0,0,1-15.63l-.1-2.7A65.36,65.36,0,0,1,111,136.52q.87-6.27,1.16-12.45a37.14,37.14,0,0,1-13.07,5,71.62,71.62,0,0,1-10.66,1,61.94,61.94,0,0,1-6.85-.38,50.44,50.44,0,0,1-9.65,15.24,65.22,65.22,0,0,0-7.82,11,96.83,96.83,0,0,0-.86,12.93c0,3,.12,5.91.38,8.87a38.28,38.28,0,0,0,8.3,20Q67.25,200,64.45,200A7.06,7.06,0,0,1,61.27,199.23Z" transform="translate(-44.77)" style="fill: #282726"/>
</svg>
