<svg id="Ebene_1" data-name="Ebene 1" xmlns="http://www.w3.org/2000/svg" width="150" height="200" viewBox="0 0 150 200">
  <path class="st0" d="M36.1,133.6c-3.2,11.1-4.7,22.3-8.5,33.2c-1.5,2.4-2.4,5.3-4.6,8.2c-3.2,4.4-6,6.9-10,12.6
			C8.4,194,2.7,201.8,0.2,206.2c-1,1.9-1.1,2.2-1.8,3.2c-0.6,0.9-2.3,2.2-3.2,3c-1,2.5-2.2,0.9-3.7,2c-2.4,0.2-0.3-0.8-2.8-3
			c-1.6-6.9-2.1-14.5-3-21.7c-2.3-14.9-2.7-31,3.9-44.9c1.1-3.1,0.9-7,2.7-9.7c1.6-2.4,2.5-4.4,3.5-7.2c0.7-2.2,2-3.7,3.2-5.1
			c2-2.4,4.3-5.5,4.3-5.5s2.2,1.2,3.6,2.1c3.2,2.2,6.1,3.5,12.3,4.6c5.1,0.9,10.8,0.9,15.8-0.5c1.8-0.5,1.7-0.8,2.4-0.4
			C37.6,126.4,36.9,130.5,36.1,133.6L36.1,133.6z M-71.9,76.3c-0.2,0.1-0.5,0.1-0.8,0.2c0.3-0.3,0.6-0.6,1-0.9
			c0.9-0.6,1.8-0.9,2.9-0.8c1,0,1.9,0.3,2.7,0.8c0.1,0,0.1,0.1,0.2,0.1C-68.3,75.4-71.4,76.2-71.9,76.3L-71.9,76.3z M-83.2,90.6
			c-0.7,0.2-1.4,0.3-2.1,0.5c0.7-0.7,1.4-1.5,2.1-2.2c0.7-0.4,1.4-0.9,2.1-1.3c0.1,0,0.2,0,0.3,0c-0.8,0.9-1.5,1.8-2.3,2.7
			c-0.1,0.1-0.1,0.2-0.2,0.2C-83.1,90.6-83.1,90.6-83.2,90.6L-83.2,90.6z M-86.5,88.4c0.9-0.9,1.9-1.8,2.8-2.7
			c0.3-0.3,0.6-0.5,0.8-0.8c0.7,0,1.3,0,2-0.1c-0.1,0.3-0.2,0.6-0.3,0.9c-0.8,0.5-1.5,1.1-2.3,1.6c-1.2,0.7-2.5,1.3-3.8,1.8
			C-87.1,88.9-86.8,88.7-86.5,88.4L-86.5,88.4z M-77,87.7c-0.3,0.3-0.7,0.6-1.1,0.9c-0.9,0.6-1.8,1.1-2.9,1.4
			c0.7-0.8,1.4-1.6,2.1-2.3C-78.2,87.7-77.6,87.7-77,87.7L-77,87.7z M148.5-51.6c-1-1.2-3.9-1.1-5.9-0.3c-1.4,0.6-2.2,1.6-2.7,2.1
			c-1.9,0-2.8-2.5-2.1-4.8c1.1-2,0-3.9-1.4-3.9c-1.6,0-2.2,1.2-1.6,3.6c0.2,0.8-0.8,1.9-1.2,2.4c-1.3,0-3.7,0.7-4.2-0.1
			c-0.4-0.8-1.2-3.8-1.2-3.8s0.6-2.2-1-3.1c-0.7-0.4-2.4,0-2.8,1c-0.3,0.7-0.2,1.8,0.8,2.1c0.6,0.2,2,2.4,1.6,4.3
			c-0.7,0.7-1.4,1.9-1.9,2.7c-2.1,0.2-3.5,0.1-4.5-0.6c-0.8-0.6-1.3-1.6-1.9-2.2c-1.1-1-2.5-1.6-3.2-1.2c-1.5,1-0.9,1-1.4,1.4
			c1.2,4.2,3.4,6.7,2.9,9.5c-0.3,1.4-1.3,2.6-3.6,4.8c-1.5,1.4-2.6,2.5-3.9,4.1c-1.3,1.6-2.3,3.1-3.3,4.5c-1.5,2.3-3.3,5-4.5,6.4
			c-1.2,1.4-1.8,2.7-2.5,3.8c-0.7,1.1-3.9,2.6-4.9,5c-0.3,0.4-1,0.6-1.3,0.9c-0.3,0.4-0.3,1.1-0.6,1.6c-2.6,4.3-6.2,8-9.9,11.5
			c-1,1-1.6,2.6-2.4,3.9c-0.4,0.6-3,2.5-4.6,3.3c-1.1,0.6-1,3.5-3.9,4.6c-0.5,0.2-0.3,0.9-1,1.6c-0.8,0.8-0.4,2.6-0.9,3.5
			c-0.8,0.9-3.5,4-6,4.9c-0.8,0.3-1.3,1.9-3,2.7c-1.2,0.5-2.7,1.7-3.8,2.3c-1.2,0.7-2.8,1-4.8,1.7C50.7,29,51,30,48.6,30.4
			c-0.1,0-0.9,0.1-1.1,0.5c-0.2,1-0.2,2-1.4,2.5c-1.1,0.5-2.2,1.3-3.3,2c-1.4,1-1.4,0.6-2.8,1.1c-0.6,0.2-0.6,1-1,1.5
			c-0.4,0.5-1.2,0.6-1.6,0.8c-0.3,0.1-0.6,0.8-1.1,1.5c-0.8,1.2-1.7,2.7-2.2,3.9c0.6,6.4-5.8,10.8-10.8,13.2c-9,5.9-18.3,7-31.2,8.3
			c-4.2,0.4-7.1,1.1-9.7,2.8c-3.2,2.1-5.8,5.2-10.6,7.9c-2.6,1.5-5,2.5-7.3,3.4c-1.6,0.6-3.3,1.5-4.9,1.9c-3.8,0.9-8.2,1.2-14.2-0.3
			c-3.1-0.8-5.8-2.2-8.2-3.9c-0.4-0.3-0.5-0.5-0.8-0.8c0-0.8-0.7-1.6-1.3-2.1c-1-0.7-2.3-1-3.5-1c-2.2,0.1-4.3,1.4-5.4,3.3
			c-0.6,0.2-1.3,0.6-2,1.1c-0.8,0.6-1.2,0.9-1.9,1.4c-1.4,0.3-2.7,0.8-3.9,1.5c-0.4,0.3-0.9,0.6-1.3,1c-0.7-0.1-1.4-0.3-2-0.5
			c-2.2-0.6-4.3-0.6-6.5-0.2c-2.5,0.5-4.9,1.2-7.4,0.3c-2.3-0.8-4.1-2-5.3-4.3c0-0.1-0.1,0-0.1,0.1c1.5,3.4,4.7,5.8,8.5,5.6
			c1-0.1,2-0.3,3-0.5c1.4-0.2,2.8-0.4,4.2-0.2c1.1,0.2,2.1,0.4,3.2,0.7c0.4,0.1,0.7,0.2,1.1,0.3c0,0,0,0,0,0c-0.6,0-1.3-0.1-1.9-0.2
			c-2.4-0.2-4.7-0.2-7,0.7c-2.1,0.8-4.3,1.3-6.5,0.4c0,0,0,0,0,0c1.3,1.8,3.8,1.5,5.7,1c1.2-0.3,2.5-0.7,3.8-0.8
			c1.4-0.1,2.7,0,4.1,0.1c0.2,0,0.4,0,0.5,0.1c-0.4,0.6-0.8,1.2-1.2,1.8c-0.7,1.1-1.5,2.1-2.4,3.1c0,0-0.1,0.1-0.1,0.1
			c-0.4,0.1-0.8,0.2-1.1,0.3c-2.5,0.5-5.3,0.7-7.5-0.7c-0.1,0-0.1,0.1-0.1,0.1c2.1,1.4,4.5,1.9,7,1.8c-0.5,0.3-1,0.7-1.5,1
			c-2.4,1.5-4.9,2.2-7.5,3c-0.1,0-0.1,0.1,0,0.2c2.5,0.1,5-0.9,7.2-2.1c1.1-0.6,2.1-1.3,3.1-2.1c1.6-0.2,3.2-0.6,4.7-1.3
			c-0.5,0.5-1,1-1.4,1.5c-1,0.3-1.9,0.7-2.9,1.1c-0.2,0.1-0.2,0.4,0,0.4c0.6-0.1,1.1-0.1,1.7-0.1c0,0-0.1,0.1-0.1,0.1
			c-0.7,0.8-1.4,1.7-2,2.6c-0.3,0.4-0.6,0.9-0.9,1.3c-0.3,0.4-0.7,0.9-0.8,1.4c0,0,0,0.1,0.1,0.1c0.8-0.5,1.4-1.6,2-2.3
			c0.7-0.9,1.4-1.7,2.1-2.6c0.2-0.2,0.3-0.4,0.5-0.6c0.2,0,0.4,0,0.5,0c0.5-0.1,1.1-0.1,1.6-0.2c-1.1,1.6-2.2,3.2-3.2,4.9
			c-0.7,1.2-1.3,2.5-1.9,3.8c-0.6,1.2-1.2,2.5-1.6,3.8c0,0.1,0.1,0.1,0.1,0.1c0.8-1.2,1.5-2.5,2.2-3.7c0.7-1.2,1.4-2.3,2.2-3.4
			c1.2-1.9,2.5-3.8,3.9-5.6c1.3-0.3,2.6-0.7,3.8-1.2c-2.4,3.3-4.6,6.8-6.4,10.4c0,0.1,0.1,0.2,0.1,0.1c2.7-3.6,5.3-7.3,8.2-10.8
			c0.6-0.8,1.3-1.5,2-2.3c0.6-0.5,1.1-1.1,1.6-1.7c0.5-0.6,1-1.1,1.5-1.7c-0.3,0.8-0.6,1.6-0.9,2.4c-0.4,1.2-0.7,2.5-1,3.8
			c-0.7,2.6-1.4,5.1-2.8,7.4c-1.5,2.3-3.2,4.4-4.9,6.5c-0.1,0.2,0,0.5,0.3,0.4c2.1-1.4,4.3-3.1,5.7-5.2c1.5-2.1,2.3-4.6,3-7
			c0.7-2.5,1.2-5.1,1.9-7.6c0.2-0.7,0.4-1.4,0.7-2c0.4-0.6,1.4-2.2,2.2-2.9c1-0.9,2-1.2,2-1.2c1-0.3,1.5-0.2,1.7-0.2
			c0.9,0.2,5.3,2.4,9,4.5c3.2,1.8,5.6,2.3,8.9,2.8c3.6,0.6,11.8,0.1,11.8,0.1s0.3,4.7,0.8,7.8c0.8,5.9,2,9.4,2.9,13.8
			c0.7,3.3,1.2,8.1,0.5,14.6c-0.4,4.8-2.8,8.8-4.4,10.3c-1.5,1.5-2,3.2-3.8,4.7c-1.8,1.4-2.9,0.8-5,2.5c-2,1.6-4.5,3.5-5.8,4.9
			c-0.6,0.7,0.7,3.8,1.9,6.4c1.7,3.5,1.9,5.9,2.2,7.1c0.8,7.7-0.2,17.1-1.1,24.6c-0.1,4.6-1.2,9.9-1.6,14.4c0.1,1.2,0,2.6-0.5,3.6
			c-0.2,0.6-0.9,1.1-1.1,1.8c-0.5,1.5-0.7,2.9-1.7,4c-1.1,1.2-2.8,0.8-3.3,1.3c-2,2.1,1.9,12.1,3.7,12.4c0.1-0.1,0.3-0.2,0.5-0.3
			c0.7-2.5,1.4-4.8,3.3-6.6c0.6-3.4,3.2-6.6,6.1-8.5c0.9-2.6-0.6-5.3,0-8.3c1-8.2,1.4-16.9,3-25.1c0.3-5.4,0.9-10.9,3-15.9
			c0.7-1.6,1.5-2.8,2.4-4.2c1.4-2.2,1.4-2.2,2.9-4.2c1.4-1.6,2.3-2.7,2.9-3.6c0.7,0-0.8,2.6-1.1,4.8c-0.6,3.5-4,8.8-3.6,9.9
			c0.9,2.6,3.3,4.6,5.4,10.5c1.2,3.4,2.1,9.7,3.4,13.8c2.6,8.6,1.6,14.4,2.7,22.3c0.8,3.4,0.7,6.5,0.3,9.7c-0.1,1,5.2,5.6,5.7,6.1
			c0.4,0.8,0.1,2.2-0.2,2.8c1.9,1.8,4,1.3,6.9,2c1.9,0.7,4.2,1.4,6,0.3c1.2-0.3,2.1-0.1,2.8-0.8c0.1,0,0.1,0,0.2,0
			c-2-2.3-2.3-5.5-1.3-8.2c0.1-2.9,2.6-4.3,4.2-6.3c8.8-12.8,15.5-27.5,28.1-36.9c4.9-6.1,7-13.8,9.4-21.1
			c1.2-3.6,4.7-12.7,6.5-15.5c2.2-3.4,3.2-7.7,3.2-7.7s1.4,4.6,2.6,7.9c2.7,7.7,5,14.7,5.2,23.1c-0.4,2.1,0.7,6.1,1.4,7.8
			c4.5,8.3,7.2,17,9.7,26.4c3.5,6,3.8,13.6,5.7,19.9c1.1,2.2,4,1.7,5.2,3.5c0.9,1.4,0.4,3.7,1.3,5c0.6,0.8,2.8,3.5,3.8,3.8
			c3.7,0.1,8,0.6,11-1.3c-0.9-9.2-11.7-9.9-13.8-16.5c-5-6.4-6.2-14.5-9.3-22c-2.5-8-4.8-16.2-4.4-24.6c-2.3-7.1-1.7-14-2.8-21.4
			c-1.1-7.6,0.3-17.2-0.2-25.5c3.4-5.4,4.7-5.7,8.9-15.9c1.1-2.7,2.7-8.1,1.9-11.3c-1.3-5.5-4.2-10.8-3.8-16.6
			c1.4-2.6,8.8-15.1,11.2-19.3c1.7-2.8,6.2-9.3,7.1-10.6c0.9-1.3,3.5-5.7,6.5-10.4c3-4.7,5.9-10.7,8.4-16.5c1.6-3.7,3.1-6.1,10-20.3
			c2.9-6.1,4.8-9.5,5.9-12.2c2-4.7,2.4-6.7,6-10.8c1.6,0,1.5,0.5,3.3,0.8c2,0.3,2.4-0.3,3.1,0.3c3.1,2.5,4.9,2.6,7.3,0.7
			c0.9-0.7,0.2-1.4,0.3-2.7c0-1.7,0.2-3.6-0.6-4.7c-2.2-2.8-3.1-3.7-1.5-8.1c0.5-1.2,0.4-0.7,1.2-1.2c0.4-0.3,1.3-0.5,1.4-2
			c0.9-1,1.8-2.6,2.9-3.8C148.1-49.5,149.1-50.8,148.5-51.6L148.5-51.6z" transform="translate(54.77 40) scale(0.7)"/>
</svg>

