<svg version="1.1" id="Ebene_1" xmlns="http://www.w3.org/2000/svg" xmlns:xlink="http://www.w3.org/1999/xlink" x="0px" y="0px"
	 viewBox="0 0 192.3 200" style="enable-background:new 0 0 192.3 200;" xml:space="preserve">
		<path class="st0" d="M12.6,81.3c1-1.4,2.2-2,3.6-4.4c1.4-2.4,2.6-3.8,4.6-5.1c5.4-2.9,7.6-5.7,13.1-8.5c5.4-2.8,22.1-4.2,27.2-5.3
			c1.2-0.3,3.8-0.9,6.4-1.8c6.4-2.4,14.5-6.3,16-6.9c3.1-1.3,5.4-3,7.6-4.1c3-1.4,5.1-2.5,8.2-4.1c7.6-3.5,14.1-10.3,21.1-14.8
			c1.5-2.2,3.9-4.1,6.2-5.2c3.3-2,4.4-6.4,7.6-8.6c0.2-1.6,1.7-1,2.2-2.3c2.9-2.8,8.3-2.7,9.8-7.3c11.2,3,11.2,10,19.1,13.7
			c2.4,0,3.1,2.4,5.2,2.9c0.4,1.3,1.1,2.5,2.1,3.5c0.5,2.3,2.5,3.9,2.8,6.2c1.1,1.2,2.1,2.5,2.5,4.1c-0.3,2-2.5,3.3-3.3,5.1
			c-0.5,1.1-0.1,2.2-1,2.9c2.5,7,3.4,8.4,0.8,15.8c-1.5,1-2.6,2.2-3.3,3.9c-2.1,2.9-5.5,3.4-8.9,2.8c-0.2,2-1.7,2.3-2.6,0.7
			c-0.4,0-0.7,0-1,0.1c-1.3,6.3-0.8,16,0.4,23.5c0.5,3.1,1.3,5,1.9,7.2c0.4,1.6,0.5,3,0.7,4.1c0.2,1.1,0.4,1.7,0.4,2
			c-0.1,1.7,0.9,8.7,1.1,11c0.2,1.5,0.3,2.6,0.4,4.3c0.3,2.8,2.2,9.9,1.4,15.3c-0.7,4.3-1.6,10.3-2.2,16.3
			c-0.6,5.4-0.7,10.9-0.9,15.1c-0.2,5.2,0.5,7.6,0.7,8.2c0.4,1.5,11.7,13.9,12.5,15.7c0.9,1.8-2.1,4-8.4,3c-0.6-0.1-0.8-0.4-1.5-0.4
			c-1.6,0-1,0.3-2.8,0.4c-1,0.1-2,0-2.8-0.1c-0.4,0-2.5-0.4-2.5-0.4s-1,0.2-1.7,0.1c-1.1-0.2-1.5-0.6-1.6-1.2
			c-0.2-1.5,0.3-1.8,0.3-2.8c0-0.6-1-1-1.5-1.8c-0.8-1.2-1.5-2.1-2.7-3.2c-1.2-1.1-1.5-1.8-2.3-2.8c-0.3-0.3-0.3-1.3-0.4-1.6
			c-0.1-0.4-0.4-0.6-0.5-1c-0.1-0.5,0.1-1.3,0.1-1.7c-0.2-0.7-0.6-0.6-0.6-1.4c2.6-8.8-0.5-24.9-0.8-26.1c-0.2-1.2-0.7-1.5-0.7-1.5
			c-0.4,0-0.5,1.6-1.1,4.1c-0.5,2.1-1.3,4.3-1.7,6.9c-0.3,1.8-0.1,3.3-0.5,5.1c-0.4,1.9-1.1,3.2-1.4,4.8c-0.3,1.6-0.4,3.1-0.6,4.1
			c-0.2,1-0.6,1.6-0.9,2.2c-0.3,0.7-0.6,3-0.3,4.5c0.4,2.2,1,4.3,1,5.8c0.1,1.4-0.7,2.1-0.8,3c-0.1,0.7,0.2,1.9-0.5,3.5
			c-0.7,1.7-2.3,3.4-0.1,4.8c0.5,0.4,0.7,1.9-0.4,2.5c-1.8,0.9-1.1,0.2-5.2,0.4c-0.9,0-2.2,0.3-3.7,0.3c-1.5,0-2.8-0.4-4.5-0.5
			c-0.7,0-2,0.3-2.7,0.2c-2.4-0.2-2.9-0.6-4.1-1c-1.1-0.3-2.1-0.8-2.2-1.4c-0.2-0.9,0.2-1.5,0.6-2.3c0.4-0.7,0.8-1.6,1-2.1
			c0.7-1,0.3-2.3,0.6-2.9c0.1-0.4,1.7-3,2.3-5.1c0.4-1.2,0.3-1.6,0.4-2.1c0.1-1.2,1.6-3.9,0.2-5.2c-0.7-0.7,1.3-4.7,1.9-7
			c2.5-17.2-2.6-33.2-1.3-49.8c0-0.1,0-0.2,0-0.3c-1.4,0.2-1.5,1.7-2.5,2.2c-1.3,0.6-2.7,1.4-3.9,2.2c-0.3,0.5-0.6,1.1-0.8,1.7
			c-0.2,0.4-0.5,0.8-0.8,1.2c-0.2,0.3-0.5,0.6-0.9,0.8c-0.1,0-0.2,0-0.3-0.1c-0.2-0.2-0.3-0.4-0.3-0.7c-0.3,0.5-0.6,1.1-1,1.6
			c-0.3,0.4-0.6,0.6-0.9,1c-0.3,0.3-0.6,0.5-1,0.5c-0.1,0-0.2-0.1-0.3-0.2c-0.3-0.4-0.2-0.8-0.1-1.2c0,0,0-0.1,0-0.1
			c-0.3,0.2-0.6,0.4-0.9,0.6c-0.1,0-0.2,0.1-0.3,0.1c-0.2,0.4-0.4,0.8-0.6,1.2c-0.2,0.5-0.5,0.9-0.7,1.4c-0.1,0.2-0.2,0.4-0.4,0.6
			c-0.2,0.2-0.4,0.3-0.6,0.6c-0.1,0.1-0.3,0.1-0.3-0.1c0-0.3-0.1-0.5-0.2-0.8c0-0.2,0-0.5,0-0.7c0-0.4,0.1-0.7,0.2-1
			c0,0-0.1,0-0.1,0c-0.1,0.1-0.1,0.3-0.2,0.4c-0.3,0.6-0.6,1.3-1,1.9c-0.2,0.3-0.5,0.5-0.8,0.7c-0.3,0.2-0.5,0.5-0.8,0.6
			c-0.3,0.2-0.8,0-0.8-0.4c-0.1-0.4,0-0.7,0-1c0-0.3,0-0.6,0.1-0.9c-0.7,0.3-1.3,0.5-2,0.8c0,0.1-0.1,0.1-0.1,0.2
			c-0.3,0.5-0.8,0.8-1.4,0.9c-0.2,0-0.4-0.1-0.4-0.2c0,0,0-0.1,0-0.1c-0.7,0.3-1.2,0.5-1.7,0.6c-0.5,0.5-1,0.9-1.6,1.4
			c-1.2,1-2.4,2.2-3.9,2.6c-0.7,0.1-1.1-0.6-0.8-1.1c0.3-0.6,0.8-1.1,1.3-1.6c-0.7,0.1-1.5,0.2-2.3,0.4c-0.7,0.4-1.3,0.9-2,1.2
			c-0.4,0.2-0.7,0.3-1.1,0.4c-0.4,0.1-1,0.3-1.3,0.2c-0.6-0.3-0.4-0.7-0.2-1.1c-0.3,0-0.6,0.1-1,0.1c-0.1,0.1-0.2,0.2-0.3,0.3
			c-0.6,0.5-1.2,1-1.8,1.4c-0.7,0.5-1.6,1.3-2.6,1.1c-0.6-0.1-1-0.6-0.8-1.2c0.1-0.5,0.4-0.8,0.8-1.1c0.1-0.1,0.1-0.1,0.2-0.1
			c-0.3,0-0.5,0-0.8,0c-0.1,0.1-0.1,0.1-0.2,0.1c-0.1,0.2-0.2,0.3-0.4,0.4c-0.1,0-0.2,0-0.2,0.1c0,0.1,0,0.2,0,0.3
			c0,0.4-0.1,0.7-0.3,1c-0.2,0.2-0.5,0.3-0.8,0.2c-0.2-0.1-0.4-0.2-0.6-0.5c-0.1-0.2-0.2-0.4-0.2-0.6c0-0.1,0-0.3,0-0.4c0,0,0,0,0,0
			c-0.1,0.1-0.3,0.2-0.4,0.3c-0.3,0.1-0.6,0.1-0.9,0c-0.3-0.2-0.5-0.5-0.4-0.8c0,0,0-0.1,0-0.1c-0.1,0-0.1,0-0.2,0
			c-0.1,0.1-0.3,0.2-0.4,0.3c-0.1,0.1-0.2,0.1-0.3,0.1c-0.2,0.1-0.4,0.1-0.6,0c-0.3,0-0.5-0.2-0.6-0.5c0,0,0,0-0.1,0c0,0,0,0-0.1,0
			c-0.3,0.2-0.8,0.2-1.1,0c-0.1-0.1-0.2-0.2-0.3-0.3c0,0,0-0.1-0.1-0.1c-0.3,0-0.6-0.1-0.9-0.1c0,0.1,0,0.2,0,0.3
			c0,0.2-0.1,0.5-0.1,0.7c-0.1,0.4-0.5,0.7-0.9,0.7c-0.4,0-0.8-0.2-1-0.5c-0.1-0.2-0.2-0.3-0.2-0.5c-0.1-0.2-0.1-0.4-0.1-0.6
			c0-0.2-0.1-0.5-0.1-0.7c-0.1,0-0.2-0.1-0.2-0.1c-0.4-0.2-0.7-0.4-1.1-0.5c0.2,0.6,0.3,1.5-0.4,1.8c-0.8,0.4-1.4-0.5-1.8-1.1
			c-0.3-0.4-0.6-0.9-0.8-1.3c-0.2-0.4-0.4-0.9-0.5-1.3c-0.5-0.3-1-0.5-1.6-0.8c-1.3,0.1-0.6,1.9-0.9,3.7c-0.1,0.5-0.3,1.6-1.2,2.3
			c-1.6,1.4-2,2.2-2,5.1c0,2.8-0.1,5.8-0.1,8.7c0,1.8,0.5,3,0.7,4.5c0.2,1.5,0,4.7,0,7.2c0.1,5.7,0,11.9,0.7,17.1
			c0.7,1,1.3,2,1.6,3.2c0.9,1.5,4.3,0.8,5.8,1.8c1,0.7,2.2,1.6,3.6,2c3,0.8,4,2.6,6.2,3.8c3.6,2,6.8,2.1,9.3,4.9
			c0,3.5-2.6,2.2-5.5,2.5c-2.8,0.3-6-0.1-9,0.4c-10.7-0.5-21.7,0.2-32.3-0.7c-4-1.9-1.6-5.4-3.8-6.7c-5.3-0.1-11.4-1-11.5-7.6
			c0.2-1.2,1.6-2.5,1.9-3.3c0.3-0.9-0.9-1.4-0.7-1.7c0.2-0.5,4.9-9.6,5.5-15.8c0.5-2.7,1.4-5.8,2.3-8.7c1-3.5,1.9-6.9,2-9.1
			c0.1-1,0.9-2.3,0.5-3.5c-0.1-0.4-0.2-1.2-0.4-1.5c-0.4-0.6-1.1-1.2-1.6-1.6c-1.1-1-2.2-2.1-2.8-3.4c-2.2-4.2-7.2-11.3-7.7-12.6
			c-0.5-1.3-4.2-16.5-5.4-19.8c-0.6-1.5-1.8-5-2.3-8.9C11.1,88,11.3,83.1,12.6,81.3L12.6,81.3z" transform="scale(0.9)"/>
</svg>
