<svg id="Ebene_1" data-name="Ebene 1" xmlns="http://www.w3.org/2000/svg" width="192.29" height="200" viewBox="0 0 192.29 200">
  <g id="layer1">
    <path id="path3185" d="M62.42,199.88c-10.62-2-12-2-16.89-.9-5.17,1.22-7.53,1-8.39-.93a22.19,22.19,0,0,1-.37-5.46c0-5.64-.55-8.07-3.49-15.35l-2-4.85-.11-4.22a84.86,84.86,0,0,1,.34-8.89c.37-3.85.38-4.87.05-5.79-.23-.62-3.42-7.18-7.09-14.58-7.21-14.49-10.61-22.09-11.58-25.81-.8-3.09-.85-9.54-.1-13.92a47.36,47.36,0,0,1,3.53-11.29c1.9-3.78,9-12.87,13.34-17.18,4.94-4.88,8-6.36,18.25-8.95,7.18-1.8,16.39-3.4,20.09-3.48a11.21,11.21,0,0,1,5.32.91A22.57,22.57,0,0,0,82,60.79a21.8,21.8,0,0,0,4.57-1.46,44.94,44.94,0,0,1,6.26-2.06c8.55-2,20.56-7.33,24.4-10.78a98.53,98.53,0,0,0,6.44-7.67c13.8-17.71,22.19-25.92,31-30.37,3.29-1.65,4.57-2.08,6.89-2.31l2-.2.15-1.47L164,3l1.56.92,1.57.92.32-2.41L167.73,0l1.06,1.49L169.86,3l.95-1.4A6,6,0,0,1,172,.17c.12,0,.34.51.5,1.16s.42,1.15.58,1.13l1.3-.26c.94-.2,1-.15,1,.59,0,.53.76,1.74,2.27,3.59,2.76,3.41,4.17,5.7,5.08,8.26a35.17,35.17,0,0,0,3,5.54c4.6,7,9.51,16.31,10.33,19.47.33,1.31.3,1.74-.28,3.6a52,52,0,0,1-2.08,5.24,21.32,21.32,0,0,0-2.06,7.2c-.33,2.24-.74,5.61-.9,7.49-.26,3.13-.35,3.47-1.11,4.12-.46.4-.75.91-.65,1.16.17.45-.61,1.47-1.13,1.47A10.85,10.85,0,0,0,186,72.27c-1.55,2.3-2.78,3.29-4.07,3.29a6.68,6.68,0,0,0-4.38,2.53l-1.42,1.58-1.53-.38a6.48,6.48,0,0,1-4.41-4.38,32.26,32.26,0,0,1-.9-5.49,23.83,23.83,0,0,0-.56-4c-.12-.11-.79.25-1.49.81a4.56,4.56,0,0,1-3,1.17c-2.15.18-2.65-.22-4.91-4a58.79,58.79,0,0,0-3.76-5.32c-3.42-4.24-3.87-5.17-5.58-11.4-1.21-4.44-2.66-7.33-3.34-6.66a6.56,6.56,0,0,0,.5,2.34c.38,1.18,1.18,4.17,1.79,6.64a32.4,32.4,0,0,0,1.92,5.9c1.18,2,4.29,6.64,6.4,9.49,3.82,5.15,6,11.74,7,21.49a72.1,72.1,0,0,1-1,22.22,106.19,106.19,0,0,0-1.87,15.64c-.26,3.87-.63,8.15-.81,9.5a43.91,43.91,0,0,1-5,15.37,16.09,16.09,0,0,0-1.73,4.38c-1.26,6-6,14.13-10.72,18.37L141.31,173l-.34,4.53c-.46,6.32-1.64,12.82-2.64,14.51s-2.94,3-4.29,3a7,7,0,0,0-2.74,1.08c-2.37,1.45-4.92,1.86-10.33,1.66-4.73-.18-7.16-.76-8.39-2-.63-.63-.74-1-.66-2.25l.09-1.48,3.11-.22c3.83-.27,4.2-.53,3.63-2.56a3.63,3.63,0,0,1,.83-3.95c.74-.89.86-1.37,1.08-4.33a36.17,36.17,0,0,1,.75-5.21c.27-1,.61-2.48.75-3.22.23-1.19.2-1.33-.25-1.14-.28.11-.77.28-1.09.38-.51.14-.54.08-.24-.49.73-1.37.4-3.31-2-11.65-1.36-4.74-1.38-5.54-.15-6.72s1.19-1.49.13-1.09c-1.23.47-1.3.41-1.08-1a3.72,3.72,0,0,1,1.44-2.49c1.19-1.11,1.07-1.52-.23-.83-.86.46-1,.26-.72-1.38a5.16,5.16,0,0,1,1.3-2.69c1.11-1.31,1.13-1.51.07-.95-.76.41-.76.43.19-3.11,1.09-4.08,1.57-5,4.51-8.94,3.59-4.79,3.81-5.28,4.19-9.59.43-4.8,0-7.62-2.79-16.85s-4.37-15.84-5-20.63a25.46,25.46,0,0,0-.78-4.2c-.38-.44-.91,2-.91,4.23,0,4.16,2.2,14.68,4.46,21.22a32.23,32.23,0,0,1,2.1,11.58c0,5.53-.89,9.33-2.87,12.14-.9,1.27-1.58,1.74-4.94,3.42a65.87,65.87,0,0,1-27.89,6.65,54.48,54.48,0,0,1-15.84-2.53c-1.85-.61-2-.7-2-1.64a100.46,100.46,0,0,0-2.32-13.82c-3.5-14.2-9.91-25.83-17.43-31.63-2.2-1.69-4.59-2.82-5-2.38s.43,1.6,3,3.32c4.15,2.74,7.37,6.79,10.71,13.48,2.69,5.38,4.56,11.58,7,23.31,1.81,8.67,1.35,13.84-1.52,17.2-.92,1.07-2.47,2.2-3,2.2a5.33,5.33,0,0,1-.65-1.52,9.17,9.17,0,0,0-6.65-5.85c-2.73-.44-3.94.69-1.73,1.62,3.65,1.53,5.44,3.41,7.77,8.1,2.43,4.9,3,9.75,2.9,24.58-.07,9.82-.06,9.89.68,11.42,1.73,3.58,5.79,6.35,10.32,7a18.87,18.87,0,0,1,3.36.79c.9.38,1,.57,1,1.65,0,1.43-.77,2.34-1.1,1.3-.26-.82-1.3-1.51-3.11-2.05s-1.81,0,.15.64A4.21,4.21,0,0,1,78.29,195c.46.7.47.88.06,1.61-.66,1.19-1.58,1.2-2.23,0-.54-1-1.71-1.61-3.61-2-1.51-.32-1.23.27.33.69s3,1.64,3,2.39c0,1.31-2.42,1.88-4.91,1.16a2.75,2.75,0,0,0-2.29.36,13.54,13.54,0,0,1-6.26.67ZM182.88,69.31c0-.17-.4-.51-.89-.76a5.2,5.2,0,0,1-1.29-1c-.55-.66-.26-.65,3.67.19,2.41.51,3.31.59,3.57.32.42-.41.6-.34-3.34-1.32-2.88-.71-7.09-2.45-7.49-3.08s-1.12-.42-1.12.17c0,.83,2.45,3.76,4,4.79,1.39.92,2.89,1.25,2.89.64Zm6.3-9.24c1.56-4.48,1.59-7.33.07-6.06-.41.33-.58.28-1.06-.37a5.4,5.4,0,0,1-1-4.39c.78-2.23.22-3.1-2-3.1-.72,0-1.19.17-1.31.48a7.74,7.74,0,0,0,.8,2.81C185.8,52,186,54,185.19,54a4.55,4.55,0,0,1-1.72-1c-.78-.62-1.41-.9-1.79-.78a7.62,7.62,0,0,0-2.55,3.36c0,.6.62,1.57,1.81,2.9.82.94,1.11,1.09,1.47.8.62-.52,1-.17,1.45,1.28s2.21,3.17,3.32,3c.73-.09.93-.45,2-3.54ZM183.6,58c-2.66-3.73-2.55-5.07.25-2.94,2.48,1.88,2.76,2,3.55,1,.47-.57.87-.8,1.21-.66.65.24.68,1.57,0,2.09a1.33,1.33,0,0,0-.46.81c0,.48-1.07,1.15-1.37.85a1.75,1.75,0,0,1-.2-.93c0-.57-.17-.73-.78-.73s-.78.15-.78.94c0,1.27-.35,1.18-1.47-.39Zm-11.24.71c1-1.51,2.9-3.37,3.7-3.62.47-.15,0-.51-2.15-1.55-6.58-3.23-7.9-6.3-4.59-10.71l.76-1h-.76c-.95,0-2.95,2.76-3.23,4.44-.42,2.63,1.77,5.29,6,7.36l2.55,1.23A5.89,5.89,0,0,1,173.52,56a13.12,13.12,0,0,0-3.31,6.24c-.19,1.17-.15,1.14.58-.57a22,22,0,0,1,1.57-3Zm19-11.38A2,2,0,0,0,190.7,46c-.5-.46-.7-.49-1.09-.17a1.74,1.74,0,0,0-.27,2,2.27,2.27,0,0,0,1.1.21c.72,0,.88-.14.88-.74Zm-12.08-1.41c.49-.54.49-.62-.06-1.3s-.76-.68-1.69-.5c-1.67.31-2,.92-1,1.72s2.06.84,2.75.08Zm15.53-3.33A3.06,3.06,0,0,0,193.55,40a18.43,18.43,0,0,0-2.54-.57c-2-.35-2-.37-2.78-1.85l-.74-1.51-.67.61c-1.53,1.4-2.73,1.75-6.49,1.87-3.51.12-3.66.15-4.24,1-.79,1.08-1.07,1.87-.75,2.07a4.4,4.4,0,0,0,1.73-.34,11.84,11.84,0,0,1,6,.06c.86.17,1,.1,1.18-.62s.4-.81,1.1-.81c1.78,0,2.89.39,3.16,1.11.37,1,.68,1.11,3.07,1.41a4.33,4.33,0,0,1,2.39.72c.4.63.8.34.8-.58ZM158,42.83c.77-.3.59-.82-.63-1.85a2.94,2.94,0,0,1-1.29-2.42C155.9,37.2,156,37,157,36c1.46-1.47,2.56-1.72,3.52-.82s1.44.64,1.2-.28a2.38,2.38,0,0,0-2.54-1.76,8.6,8.6,0,0,0-4,3.32,5.13,5.13,0,0,0,1.52,6c.8.63.67.59,1.28.36Zm.53-5.75c.76,0,1-.48.44-.93-1.06-.88-2.59.6-2.19,2.13l.22.83.49-1c.28-.57.73-1,1-1ZM18.59,198.54c-2.1-.66-3.24-2.09-4-5-.51-1.9-1.49-3.09-4.47-5.4C8.69,187.05,7,185.62,6.22,185c-3.49-3.14-2.84-8.37,1.78-14.49,2.2-2.92,4-5.88,9.87-16.43,2.53-4.53,5-8.84,5.42-9.56l.82-1.31,1.37,2.56c.76,1.41,2.19,4,3.18,5.71l1.8,3.15-.59,2.49c-2.28,9.72-1.28,18.41,2.63,22.58l.94,1-.65,1.17a17.9,17.9,0,0,0-1.22,3.72L31,188.1l-1-.4a1.71,1.71,0,0,0-1.72,0,5.48,5.48,0,0,0-2.18,4c0,1.56.68,1.92,2.78,1.48a10.11,10.11,0,0,1,2.6-.24c.88.08,1.05.23,1.14,1,.32,2.83-.88,4.09-4.15,4.38-3.95.34-9.13.45-9.91.21Zm139.41-7a6.24,6.24,0,0,1-1.4-2.39c-.37-1.37-.2-3.45.28-3.45A4.22,4.22,0,0,1,158,187c1.14,1.64,1.66,1.9,3,1.53,2.32-.64,3.89-2.67,3.54-4.56-.27-1.43-1-1.75-3.48-1.49a7.75,7.75,0,0,0-4.37,1.73c-2.75,1.81-3.58,1.94-3.58.57s1-3.1,2.92-5.28a9.18,9.18,0,0,0,2.36-4.16c1.09-3.58,1.58-4.83,2.38-6,.68-1,.69-1.12.21-1.54a8.42,8.42,0,0,0-2.14-1c-1.94-.63-2.51-1.17-1.83-1.74,1.32-1.09-.23-3-2.68-3.36-.69-.09-1.2-.26-1.14-.36a46.41,46.41,0,0,0,3.07-7.7,26.72,26.72,0,0,1,2.22-5.32c3.21-5.16,4.3-10.43,5.74-27.73.43-5.27,1.14-11.81,1.57-14.55,2-13,1.69-20.32-1.6-32.14a36.42,36.42,0,0,1-1-4.12,13.57,13.57,0,0,1,2-.32l1.9-.21.17,2.66c.37,5.92,3.78,9.9,8.5,9.92,1.77,0,1.89,0,3-1.27,3-3.36,3-3.42,4.34-3.42h1.25l.16,9.78c.09,5.38.32,10.69.52,11.81a26.27,26.27,0,0,0,1.73,5c5.27,11.53,6.05,19.42,3.28,32.87-.37,1.8-.72,3.32-.78,3.38a5.81,5.81,0,0,1-1.53-.88c-.79-.54-1.43-.9-1.43-.8a12.06,12.06,0,0,0,1.27,1.87c1.24,1.64,1.26,1.72.92,3-.7,2.69-.54,2.57-1.9,1.49-.68-.53-1.23-.87-1.23-.74a9.51,9.51,0,0,0,1,1.77c1,1.5,1,1.56.6,3.25l-.38,1.72-.76-.49-1.53-1q-1.6-1,.25,1.26c.57.7,1.14,1.44,1.25,1.64a24.26,24.26,0,0,1-1,5c-2,7.45-2.22,8.91-1.85,13a53.71,53.71,0,0,0,.88,5.92l.56,2.4L183.1,178c-2.49-.88-4.75-.34-5.5,1.32a16.6,16.6,0,0,0-.69,3.49c-.51,4.44-.81,4.74-7.33,7.31-5,2-6.7,2.45-8.87,2.46a2.84,2.84,0,0,1-2.71-1Z" transform="translate(-4)" style="fill: #040404"/>
  </g>
</svg>
