<svg id="Ebene_1" data-name="Ebene 1" xmlns="http://www.w3.org/2000/svg" width="84.13" height="200" viewBox="0 0 84.13 200">
  <path d="M103.13,114.34c-.29,3.47,2.06,21.84,3.28,29,.58,3.42,2.17,9,1.59,11.93a43.39,43.39,0,0,0-.6,12.53c.29,1.89,1.18,10.57-.1,13.74-.67,1.67-1.89,10.2-1.89,10.2-3.18,8-1.38,7.65-1.38,7.65,1,1.21,2.67.09,2.67.09a1.66,1.66,0,0,0,2.18-.19,2,2,0,0,0,2.39-.11,2.44,2.44,0,0,0,2.67-.61c.8.4,1-.11,1-.11,2.39-.15-1.33-7.8-1.33-7.8-.89-6.87.88-10.7.88-10.7,5.82-17.25,6.12-21.83,3.79-28.34-.65-1.88-.82-2.62-.52-3.44.7-1.88.19-9.44,1-12.45,1.64-5.8,3.26-20.49,4.1-27.35,1.14-9.24-4-21.63-4-21.63-1.13-5,.53-23,.53-23,2.3,3.6,2.22,9.94,2.22,9.94-.37,6.64,5.37,16.81,5.37,16.81A27.2,27.2,0,0,1,130.8,99c0,1.2-.27,4.13-.27,4.13l.11,2.55a35.74,35.74,0,0,1,.35,4c-.43,6.65.63,5.4.63,5.4.89,0,1.87-5.35,1.87-5.35,0,1.38-.34,5.51.41,7.07.89,1.86,1.54-.32,1.56-.76.23-8.47.74-6.25.74-6.25.5,6.87,1.1,8.43,2.2,7.89.82-.4.07-8.25.07-8.25,1.41,4.67,2.49,5.41,2.49,5.41,2.33,1.64.89-2.89.56-3.79-1.73-4.77-1.78-6.42-1.78-6.42,2.16,4.28,3.79,4.12,3.79,4.12,2.11-.67-1.84-6.74-4.16-9.64a23.46,23.46,0,0,1-3.14-4.65c-.72-2-1.27-8.4-1.27-8.4-.21-7.57-2.08-10.86-2.08-10.86-3.2-5.12-3.8-14.67-3.8-14.67l-.15-16.12c-1.12-11-9.22-11.08-9.22-11.08-8.19-1.22-9.33-3.87-9.33-3.87-1.74-2.5-.75-7.28-.75-7.28,1.44-1.17,2-4.28,2-4.28,2.39-1.84,2.27-4.52,1.17-4.49-.89,0-.69-.71-.69-.71C113.61.62,102.89,0,102.89,0h-1.64S90.53.62,92,12.69c0,0,.2.73-.69.71-1.11,0-1.21,2.65,1.17,4.48,0,0,.56,3.11,2,4.28,0,0,1,4.79-.75,7.29,0,0-1.13,2.64-9.33,3.86,0,0-8.12.08-9.22,11.08l-.15,16.13s-.59,9.55-3.8,14.67c0,0-1.87,3.29-2.08,10.85,0,0-.55,6.42-1.26,8.41a23.38,23.38,0,0,1-3.15,4.64c-2.34,2.9-6.26,9-4.16,9.65,0,0,1.63.16,3.79-4.13,0,0,0,1.65-1.77,6.43-.34.88-1.79,5.42.55,3.79,0,0,1.08-.75,2.49-5.41,0,0-.75,7.85.09,8.25,1.09.53,1.69-1,2.19-7.89,0,0,.51-2.22.74,6.25,0,.44.66,2.62,1.55.76.76-1.56.42-5.69.42-7.08,0,0,1,5.36,1.87,5.36,0,0,1.06,1.25.63-5.4a33.08,33.08,0,0,1,.36-4l.1-2.55s-.27-2.92-.27-4.14a27.2,27.2,0,0,1,3.8-8.48s5.74-10.16,5.37-16.81c0,0-.08-6.34,2.22-9.93,0,0,1.64,18,.53,23,0,0-5.15,12.39-4,21.63.84,6.87,2.46,21.55,4.1,27.35.86,3,.35,10.56,1,12.45.31.82.15,1.58-.52,3.44-2.31,6.5-2,11.08,3.8,28.34,0,0,1.79,3.83.89,10.7,0,0-3.72,7.65-1.34,7.8,0,0,.19.51,1,.11a2.46,2.46,0,0,0,2.68.6,2,2,0,0,0,2.39.12,1.63,1.63,0,0,0,2.16.19s1.69,1.14,2.7-.09c0,0,1.78.39-1.4-7.65,0,0-1.21-8.52-1.88-10.2-1.28-3.17-.38-11.87-.1-13.74a44.15,44.15,0,0,0-.6-12.54c-.59-2.94,1-8.5,1.59-11.92,1.2-7.19,3.57-25.56,3.27-29l1,.34A1.91,1.91,0,0,0,103.13,114.34Z" transform="translate(-60)"/>
</svg>
