<svg id="Ebene_1" data-name="Ebene 1" xmlns="http://www.w3.org/2000/svg" width="84.13" height="200" viewBox="0 0 84.13 200">
  <path class="st0" d="M78.6,106.9C78.7,106.9,78.7,106.8,78.6,106.9c0.1,0,0.1,0.1,0.1,0.1c0,0.1,0,0.1,0.1,0.2L78.6,106.9
			L78.6,106.9z M56.4,66C56.4,66,56.4,66,56.4,66C56.4,66,56.4,66,56.4,66C56.4,66,56.4,66,56.4,66L56.4,66z M93.6,82.8
			C93.6,82.8,93.6,82.8,93.6,82.8C93.6,82.8,93.6,82.8,93.6,82.8C93.6,82.7,93.6,82.7,93.6,82.8C93.6,82.7,93.6,82.7,93.6,82.8
			L93.6,82.8L93.6,82.8z M94.9,79.5l-0.7-0.8C94.4,79,94.7,79.2,94.9,79.5L94.9,79.5z M95.3,86.7c0.2,0.3,0.5,0.5,0.9,0.8
			c0.2,0.1,0.4,0.2,0.5,0.3c0.1,0.1,0.2,0.1,0.2,0.3c0,0.1,0,0.2,0,0.4c-0.2,0-0.3,0-0.5,0c-0.4,0-0.8-0.1-1.2-0.2
			C95.3,87.8,95.3,87.3,95.3,86.7L95.3,86.7z M128.1,189.3c-0.8-0.2-1.5-0.4-2.1-0.9c-0.6-0.5-1.1-1.1-1.7-1.6
			c-1.1-0.9-3.5-2.7-3.5-2.7c-0.7-0.6-1.3-1.1-1.9-1.8c-0.6-0.6-1.1-1.3-1.6-2.1c-0.9-1.4-1.9-2.8-3-4.1c-1.2-1.5-2.6-2.8-3.9-4.2
			c-1.3-1.4-2.4-2.9-3.4-4.5c-0.6-0.9-1.1-1.7-1.7-2.5c-0.3-0.4-1.7-2.6-2-3.2c-0.4-0.8-0.8-1.6-1.2-2.4c-0.8-1.7-1.5-3.3-2.3-5
			c-1.5-3.4-3-6.9-4.5-10.4c-0.4-1-0.8-1.9-1.2-2.9c-0.1-0.3-0.2-0.6-0.3-0.8c0-1,0-2-0.1-2.9c-0.2-1.8-0.5-3.5-1.1-5.2
			c-0.5-1.4-1.1-2.9-2.2-3.9c-0.1-0.3-0.1-0.6-0.2-0.9c-0.3-1.2-0.8-2.4-1.3-3.6c-0.7-1.6-1.4-3.1-2.2-4.6l0,0l0,0
			c-0.4-0.8-0.8-1.5-1.2-2.3c-1.8-3.4-5.8-10.1-5.8-10.1c-0.2-0.5-0.5-0.9-0.8-1.3c-0.2-0.2-0.8-1-0.9-1.2c-0.7-1.1-1.5-2.1-2.4-3.1
			c-0.4-0.4-1.6-1.9-1.8-2.2c-0.9-1.2-1.9-2.5-2.9-3.6c-0.5-0.6-1.1-1.2-1.6-1.7c0-0.1-0.1-0.1-0.1-0.2c0.4-1,0.9-2.1,1.3-3.1
			c1.2-3,2.3-6.2,2.9-9.5c0.3-1.5,0.4-3,0.6-4.5c0.6-1.7,1.1-3.5,1.6-5.2c0.3,0.3,0.5,0.4,0.6,0.5c0,0,0,0,0,0
			c0.9,0.7,1.8,1.4,2.7,2c1.6,1.1,3.2,2.2,4.9,3.2c0.3,0.2,0.5,0.3,0.8,0.4c0,0,0,0,0,0l0,0c0.6,0.3,1.2,0.5,1.8,0.8
			c0.8,0.4,1.6,0.8,2.3,1.3c0.7,0.5,1.5,1,2.2,1.4c0.5,0.3,1.1,0.7,1.6,0.9c0.1,0.4,0.1,0.7,0.2,1.1c0,0,0,0.1,0,0.1
			c-0.1,0.7,0.2,1.3,0.6,1.8c0,0,0.1,0.1,0.1,0.1c0,0,0,0.1,0,0.1c0,0.5,0,0.9-0.1,1.4c-0.1,0.6-0.1,1.1,0,1.7c0,0,0,0,0,0.1
			c0,0.2,0,0.5,0.1,0.7c-0.3,0.2-0.5,0.4-0.8,0.6c0,0,0,0.1-0.1,0.1c-0.1,0.1-0.1,0.2-0.1,0.3c0,0.1,0.1,0.2,0.2,0.3
			c0,0,0.1,0,0.1,0.1c0,0,0,0,0,0c0.1,0.1,0.3,0.2,0.5,0.3c0.2,0.1,0.3,0.2,0.5,0.3c0.1,0.1,0.3,0.2,0.4,0.2c0.1,0,0.2,0,0.2,0.1
			c0,0,0,0,0,0c0.1,0.2,0.3,0.3,0.6,0.3c0.2,0,0.3-0.1,0.5-0.1c0.2,0,0.4,0,0.6,0.1c0.1,0,0.1,0,0.2,0c0.1,0.1,0.1,0.1,0.2,0.1
			c0.4,0,0.7,0,1.1-0.1c0,0,0,0.1,0,0.1c0,0.2,0.2,0.4,0.4,0.3c0.9-0.7,1.3-2,1.6-3.1c0.3-1.1,0.6-2.5,0.5-3.6
			c-0.1-0.6-0.3-1-0.7-1.4C99,83,98.5,82.5,98,82c-0.5-0.5-1-1-1.5-1.5c-0.1-0.1-0.3-0.3-0.4-0.4c-0.6-0.9-1.2-1.7-2-2.4
			c-1.3-1.4-2.9-2.6-4.3-3.9c-3.1-2.7-6.1-5.5-9.2-8.2c-0.9-0.8-1.8-1.5-2.6-2.3c-0.4-0.4-0.9-0.9-1.4-1.2c0.1-0.8,0.3-3.2,0.3-2.7
			c0,0.5,3-6.2,1.4-9.4c-0.7-1.4-1.9-2.5-3-3.5c-1.1-1.1-1.9-2.4-2.5-3.8c-0.2-0.9-0.4-1.7-0.5-2.5c-0.3-1.9-0.4-4.1-1.5-5.8
			c-0.9-1.5-2.3-1.9-3.9-2.2C65.7,32.2,64.3,32,63,32c-0.1-0.5-0.1-1-0.2-1.3c-0.1-1.4-0.3-2.8-0.3-4.2c0.4-0.1,0.9-0.2,1.3-0.2
			c0.6,0,1.2,0.1,1.5-0.5c0.4-0.6,0.6-1.4,0.8-2.1c0.3-0.7,0.6-1.5,0.9-2.3c0.9-2.6,0.8-5.4,0.8-8.2c0.1-0.3,0.2-0.5,0.3-0.8
			c0.3-1.2,0.1-2.4-0.2-3.6c0.2-0.3,0.5-1,0.6-1.6c0.2-0.7-0.1-1.2-0.1-1.2l-0.6-0.9c0,0-0.3-0.4-0.7-1c-0.4-0.6-1.9-1.2-2.1-1.5
			c-0.2-0.3-1.1-0.7-1.8-0.9c-0.6-0.2-2.5-0.7-4-0.7c-1.5-0.1-1.6,0.2-1.6,0.2S56.7,1,56.4,1c-0.3,0-2.6,0.3-2.9,0.4
			c-0.3,0.1-1.1,0.4-1.8,0.7c-0.6,0.3-0.4,0.7-0.4,0.7L50.5,3c0,0-0.3,0.2-0.6,0.5c-0.2,0.1-0.2,0.3-0.3,0.4l0.1-0.5l0.1-0.4
			c0,0-0.7,0.2-0.9,0.6c-0.2,0.4-0.4,1.1-0.4,1.1s-0.3-0.4-0.4-0.5c0-0.1,0-0.4,0-0.4s0.1-0.4,0.2-0.6c0-0.1-0.2,0-0.2,0l-0.2,0.2
			c0,0,0-0.3,0-0.4c0-0.1,0.2-0.5,0.6-0.9C48.7,2,48.8,2,48.9,1.9C48.7,2,48,2.2,47.6,2.6c-0.5,0.4-0.9,1.1-1.1,1.6
			c-0.2,0.5-0.2,2.7-0.2,2.7l0.1,0.8l-1.1,1.1l-0.6,1.6v0.2v0.8c0,0-0.1,0.3-0.2,0.6c-0.1,0.3-0.1,0.9-0.1,1.4
			c0-0.2,0.1-0.8,0.2-1.1C44.8,11.9,45,12,45,12s0.1,0.1-0.1,0.3c-0.2,0.2-0.3,1.1-0.3,1.1v0.4c0,0,0.2-0.4,0.6-0.8
			c0.1-0.1-0.1,0.5-0.1,0.5L45,13.8l0.2,0L45.1,14l0,0.1c0,0,0,0.6,0,0.7c0,0.1,0.2,0.7,0.2,0.7l0.1-0.1l0.3,0.3l0.2,0.1v0.4
			l0.1,1.1l0.3-0.7l0.3,0.3v0.3v0.4l0.2,0.3v0.2l0.3,0.3l0,0.4c0,0,0.2,0.2,0.2,0.4c0,0.2,0.2,0.2,0.2,0.2l0.2,0l0.5,0.7l-0.1-0.4
			l0.3,0.2c0,0,0.4,0.3,0.7,0.5c0.2,0.2,0.6,0.4,0.9,0.6c0.4,0.2,0.8,0.5,1.1,0.8c0.3,0.4,0.5,0.6,0.5,0.6l0.1,0.4
			c0.1,0.7,0.1,1.4,0.1,2.1c0,1.7-0.4,3.3-0.9,4.9c-0.4,0.5-0.7,0.9-1.1,1.3c-1.4,1.6-2.9,3.1-4.5,4.5c-0.1,0.1-0.2,0.2-0.3,0.3
			c-1.6,0.9-3,2.6-3.8,4.2c-0.8,1.6-1.3,3.2-2.2,4.6c-1.1,1.6-2.3,3.1-3.4,4.8c-1.1,1.8-2.4,3.5-3.5,5.3c-1,1.6-1.8,3.2-2.9,4.7
			c-1,1.4-3.3,4.1-3.6,6.3c-0.2,0.2-0.3,0.6-0.3,0.9c-0.1,0.8,0,1.7,0,2.5c-0.1,1.9,0.1,3.8,0.3,5.7c0.2,1.9,0.4,3.7,0.6,5.6
			c0.1,0.9,0.2,1.8,0.3,2.7c0.1,0.6,0.5,2.3,0.5,2.4c0.1,0.3,0.1,0.7,0.2,1c0,0.1,0.1,0.4,0.1,0.5c0,0.1,0.1,0.2,0.1,0.3
			c0.3,1.3,0.5,2.5,0.7,3.8c0.2,1.2,0.3,2.5,0.3,3.7c0,0.5,0,0.9,0,1.4c0,0,0,0,0,0c-0.1,0.3-0.3,0.5-0.4,0.8
			c-0.2,0.6-0.4,1.3-0.5,1.9c-0.3,1.3-0.4,2.6-0.4,4c0,0,0,0,0,0c0,0,0,0-0.1,0.1c0,0,0,0.1-0.1,0.1c0,0.1-0.1,0.1-0.1,0.2
			c0,0.1,0,0.1-0.1,0.2c0,0,0,0,0,0c0,0,0,0-0.1,0c-0.1,0-0.2,0-0.2,0c-0.1,0-0.2,0.2-0.2,0.3c0,0,0,0,0,0.1c0,0,0,0.1-0.1,0.1
			c0,0.2-0.1,0.3-0.1,0.5c0,0.2-0.1,0.3,0,0.5c0,0.4,0.2,0.6,0.6,0.8c0.2,0.1,0.3,0.1,0.5,0.1c0.2,0,0.4-0.1,0.5-0.2
			c0.3-0.2,0.5-0.4,0.7-0.6c0.1,0,0.2,0.1,0.2,0.1c0,0,0,0,0,0c0,0.2-0.1,0.3-0.1,0.5c0,0,0,0.1,0,0.1c0,0,0,0.1,0,0.1
			c0,0.1,0,0.2,0,0.3c0,0,0,0,0,0c-0.1,0-0.3,0-0.4,0.2c-0.4,0.6-0.3,1.4,0.3,1.8c0.6,0.4,1.4,0.2,1.8-0.3c0.4-0.5,0.3-1.2,0.4-1.9
			c0-0.1,0-0.1,0-0.2c0,0,0,0,0,0c0,0,0,0,0,0c0.1,0,0.1,0,0.1,0c0,0,0,0,0.1,0c0,0,0,0,0.1,0c0,0,0,0,0.1,0c0,0.4,0,0.7,0,1.1
			c0,0.5,0,0.9,0,1.4c0,0.2,0,0.5,0,0.8c0,0.3,0,0.5,0,0.8c0,0.1,0.1,0.2,0.2,0.2c0.1,0.3,0.5,0.7,0.9,0.5c0.3-0.1,0.5-0.5,0.6-0.8
			c0.1-0.3,0.2-0.7,0.3-1c0.1-0.4,0.3-0.7,0.3-1.1c0-0.2,0-0.4-0.1-0.5c0,0,0,0,0,0c0-0.2,0.1-0.4,0.1-0.6c0-0.2,0-0.4,0-0.6
			c0,0,0.1,0,0.1,0c0,0,0.1,0,0.1,0c0,0,0.1,0,0.1,0c0,0,0,0,0,0c0,0,0,0,0,0c0,0,0.1,0,0.1,0c0,0,0,0,0.1,0c0,0.1,0,0.1,0,0.2
			c0,0.6,0,1.3,0.1,2c0,0.6,0.1,1.2,0.4,1.8c0.2,0.5,0.6,1.4,1.3,1c0,0,0,0,0.1-0.1c0.1-0.1,0.3-0.2,0.4-0.3
			c0.3-0.5,0.2-1.2,0.2-1.7c0-0.1,0-0.2,0-0.3c0.6-0.1,1.2-0.8,1.3-1.3c0.1-0.4,0-0.9-0.1-1.4v0v0c0-0.2-0.1-0.5-0.1-0.7
			c-0.1-0.8-0.2-1.6-0.2-2.4c0-0.6,0.1-1.2,0-1.9c-0.1-0.6-0.5-1.3-0.9-1.8c-0.8-1.2-1.3-2.4-1.8-3.7c-0.1-0.9-0.1-1.7-0.2-2.6
			c-0.1-2.3-0.3-4.7-0.4-7c-0.1-2.4-0.3-4.7-0.4-7.1c-0.1-1.1-0.1-2.2-0.1-3.4c0-1.1,0.1-2.3,0.1-3.4c0-1.2-0.1-2.5-0.3-3.7
			c-0.1-0.3-0.1-0.6-0.2-1c0.4-0.6,0.8-1.2,1.2-1.8c1.8-2.5,3.6-4.8,5.5-7.1c1.8-2.1,3.4-4.3,5.1-6.3c0.2-0.2,0.4-0.5,0.6-0.8
			c0.7,1.9,1.9,3.9,2.8,5.5c1.3,2.3,2.9,4.4,4.6,6.5c1.9,2.5,1,6.7,0.7,9.7c-0.4,3.1-1.8,6.8-2.6,8c-1,1.1-2,2.2-2.8,3.4
			c-1.4,2-2.5,4.4-2.9,6.8c-0.5,2.4-0.5,4.8,0.1,7.1c0.1,0.6,0.3,1.3,0.6,2c0.5,2.7,1.6,5.1,0.6,7.9c-1.1,3.1-2.6,6.1-3.7,9.3
			c-2,5.7-3.3,11.7-6,17.1c-0.8,1-1.6,2-2.3,3c-1,1.2-2.3,2.2-3.4,3.3c-2.1,2.1-4.2,4.3-5.9,6.8c-0.2,0.3-0.4,0.6-0.6,0.9
			c-0.4,0.4-0.7,1-1,1.5c-0.4,0.8-0.8,1.5-1.1,2.4c-0.1,0.3-0.2,0.7-0.4,1c-0.1,0.1-0.1,0.2-0.2,0.3c-0.2,0.5-0.5,1-0.7,1.5
			c-0.2,0.4-0.4,0.9-0.6,1.3c0,0,0,0,0,0c-0.8,1.7-1.4,3.5-2.1,5.3c-0.3,0.9-0.6,1.8-1,2.7c-0.2,0.4-0.4,1.1-0.6,1.6
			c-0.3,0.6-0.8,1.7-1,2.3c-0.5,1.2-1,2.4-1.6,3.6c-0.6,1.1-1.2,2.2-2,3.2c-0.3,0.4-0.6,0.7-0.9,1.1c-0.1,0-0.2,0.1-0.4,0.1
			c-0.3,0.1-0.6,0.3-0.9,0.4c-0.2,0.1-0.4,0.1-0.6,0.2c-0.5,0.2-1,0.5-1.4,0.8c-0.5,0.3-0.9,0.6-1.3,1c-0.2,0.2-0.4,0.4-0.5,0.7
			c-0.1,0.2-0.2,0.5-0.2,0.7c-0.1,0.4,0,0.9,0.1,1.2c0.3,1,0.8,2,1.5,2.8c0.7,0.8,1.5,1.5,2.3,2.2c0.4,0.4,0.7,0.8,1.1,1.2
			c0.3,0.4,0.6,0.9,0.9,1.3c0.2,0.4,0.7,1.7,1,2.2c0.4,1,1,2,1.4,3.1c0.2,0.5,0.4,1,0.5,1.6c0.1,0.5,0.2,1,0.5,1.5
			c0.1,0.1,0.1,0.2,0.3,0.3c0,0,0,0.1,0.1,0.1c0.2,0.3,0.5,0.5,0.8,0.5c0.4,0,0.7,0,1.1,0c0.1,0,0.1,0,0.2,0c0.1,0,0.3,0.1,0.4,0.1
			c0.5,0.1,1.1,0,1.6,0.1c0.5,0.1,1,0.3,1.5,0.3c0.3,0,0.6-0.1,0.9-0.2c0,0,0,0,0,0l0,0c0.2-0.1,0.3-0.2,0.4-0.3
			c0,0,0.1-0.1,0.1-0.1c0.4-0.1,0.7-0.6,0.5-1c-0.3-0.6-0.9-1-1.5-1.4c-0.6-0.4-1.4-0.6-1.9-1.1c-0.5-0.5-0.7-1.2-0.9-1.8
			c-0.3-1.6,0.1-3.3,0.2-4.9c0.1-0.8,0.1-1.7,0.2-2.5c0-0.5,0.1-0.9,0.1-1.4c0.1-0.3,0.1-0.5,0.2-0.8c0.4-1.5,0.7-2.9,1.1-4.4
			c0.5-1.5,1.1-2.9,1.7-4.3c0.3-0.7,0.6-1.4,0.9-2.1c0.1-0.4,0.8-2,1.1-2.4c1-1.7,2-3.3,3.1-4.9c1.9-2.7,4.3-5.1,5.9-8.1
			c0.8-1.1,1.5-2.2,2.2-3.3c0.8-1.1,1.6-2.3,2.4-3.4c0.4-0.5,0.8-1.1,1.2-1.6c0.1-0.2,0.3-0.3,0.4-0.5c1.9-0.4,4.4-3.3,5.1-4
			c1.1-1.1,2.2-2.1,3.1-3.3c1.1-1.4,1.6-3.1,2.6-4.5c0.8-1.2,1.9-2.2,2.8-3.5c1-1.5,1.9-2.9,2.8-4.5c0.3-0.5,2-3.5,2.7-4.5
			c1-1.6,2-3.3,2.9-5c0.8-1.2,1.6-2.4,2.2-3.7c0.3,0.3,0.5,0.7,0.8,1c2,2.3,3.9,4.7,5.9,7.1c2.1,2.4,4.1,4.8,6,7.4
			c0.8,1.1,1.6,2.3,2.4,3.5c0.8,1.2,2.5,3.3,2.5,3.4c0.3,1.8,1.9,8.5,2.4,10.1c1.2,4,3.1,7.9,5.5,11.4c0.7,0.9,1.3,1.8,2.1,2.7
			c0,0,0,0,0,0c0,0,0.1,0.1,0.1,0.1c2,2.4,4.2,4.6,6.3,6.9c1.5,1.6,3,3.4,4.2,5.3c0.9,1.4,1.6,2.9,2.3,4.3c-0.3,1.1-0.6,2.1-1,3.2
			c-0.3,0.7-0.4,1.5-0.3,2.2c0.1,0.6,0.3,1.2,0.7,1.7c0.3,0.4,0.7,0.7,1.1,0.8c0.1,0.1,0.2,0.1,0.4,0.2c0.2,0.1,0.4,0.1,0.5,0.1
			c1.6,0.8,3.9,0.2,5.5,0.5c1.3,0.3,2.6,1,3.8,1.5c0.4,0.1,0.7,0.3,1.1,0.4c0.4,0.1,0.7,0.4,1,0.5c0.5,0.3,2.9,0.5,3.5,0.4
			c0.3,0,0.6-0.1,0.9-0.1c0.1,0,0.1,0,0.2,0c0,0,0,0,0,0c0.5,0.2,0.8,0.4,1.2,0.7c0.4,0.3,0.9,0.7,1.3,0.3c0,0,0,0,0,0
			c0,0,0.1,0,0.1-0.1c0.2,0.1,0.4,0.3,0.6,0.4c0.2,0.2,0.4,0.2,0.6,0.1c0.3-0.2,0.8,0.3,1.1,0.3c0.4,0.1,0.8,0.1,1.1-0.2
			c0,0,0.1-0.1,0.1-0.1c0,0,0.2-0.1,0.2-0.1c0.2-0.1,0.4-0.3,0.5-0.4c0.3-0.3,0.4-0.7,0.4-1.1C128.4,189.5,128.3,189.3,128.1,189.3
			L128.1,189.3z"/></svg>





