<svg id="Ebene_1" data-name="Ebene 1" xmlns="http://www.w3.org/2000/svg" width="200" height="90.7" viewBox="0 0 200 90.7">
  <path d="M85.13,65.39c6.79,0,11.79-5.8,23-5.8s12,1.2,20,1.2,19.58-1.2,25.57-1.2,5.8,2.9,8.79,2.9,6-9.49,16-9.49,11.78,2.2,11.78,4.2-3.2,7.39,1.6,10,5.39,8.59,0,10-12.59-2.59-16.18-1.4-11.69,3.7-13.19,5.2c1.8,3.79,2.7,24.07,4.2,25.57s9.79,29,13.58,30.56S200,139.9,200,141.5s-1.6,2.2-5.39,2.2h-14c-2.19,0-4.39.4-6.59-4.2s-15.18-25.77-16.38-30.36-4.4-19-4.4-22.38c-2.19,0-4.59-.6-6.39,3.6s-6.69,12.08-8.19,13.58c0,2.2-3.2,17.38-5,24.37s-.8,10.79,1.39,10.79,18.58,1,18.58,2.2-4.19,1.4-4.19,1.4c-3.6,0-15.38.2-18,.2s-4-2.8-4-6,.6-20.37.6-24,7.19-24.37,7.19-24.37c-2.69,2.7-14-.6-17.38-2.2s-5.59-3.2-8.39-2.4c3.8,8,6.4,17.58,4.8,24.78s-6,25-3.6,27.36,16.18,4,16.18,5.4-1.39,1.2-5.19,1.2H105.51c-3,0-3.8-2.4-3.8-5.2s.8-8.59-.6-13,1.4-14,1.4-17.58-3.59-5.19-4.59-8.59c-2,9.19-7.79,13-12.79,13s-19.38,1.2-24.57,4.4-9,6-9,10.59S57.26,137.6,56,138.9s-3.2-.6-6-7.39-2-6.19,0-11.19-.2-7.39,2.2-9.79,11.79-2,16.38-6.59,11.88-2.89,14.58-5.59-3.51-17,2.6-25.77c-7.39-1.8-22.17-10.29-39.35-9.39-19.18,1-30.57,18-36.56,31.56S1.73,111,.23,109.53s4.67-15.3,9-23.37C15.21,75,27.8,59.79,47.38,58.39,70.29,56.76,79.74,65.39,85.13,65.39Z" transform="translate(0 -53)"/>
</svg>
