<?xml version="1.0" encoding="utf-8"?>
<!-- Generator: Adobe Illustrator 25.2.0, SVG Export Plug-In . SVG Version: 6.00 Build 0)  -->
<svg version="1.1" id="Ebene_1" xmlns="http://www.w3.org/2000/svg" xmlns:xlink="http://www.w3.org/1999/xlink" x="0px" y="0px"
	 viewBox="0 0 200 110" style="enable-background:new 0 0 200 110;" xml:space="preserve">
<path d="M58.6,31.5c0,0,1.2-2,2.7-3.7c1.6-1.8,3.8-3.3,4.8-3.9c1-0.5,2-0.6,2.3-1.8c0.4-0.9-1.2-2.2-1.5-2.7c-1.7-2.1-4-4.7-4.4-6
	c-0.8-2.1,1.5-6.1,0.1-6.6C61,6.3,59.5,12.3,58.8,18c-0.6,4.9-0.3,9.4-0.2,12.1C58.5,30.6,58.6,31.5,58.6,31.5L58.6,31.5z
	 M77.2,103.5c3,0.8,7.1,1.7,9.9,0.8c-0.3-1.2-0.4-0.7,0-1.8c0-1.2,0.2-2,0.7-2.8c0.7-1.2,3.4-1.8,4.9-2.4c2.3-0.8,2.2-1.7,3.4-2.7
	c0.8-0.5,1.8-0.8,2.4-1.5c1.8-4.7,3.7-9.7,5.7-14.2c1.5-2.2,3.2-3.9,4.4-6.3c0.3-1.1-0.3-2.2-0.5-3c-0.4-2,0.1-3.8-0.5-5.6
	c0.2-1,1-0.8,1.6-1.3c0.6-0.4,1.3-1.2,1.6-1.8c0-0.1-3.6-0.2-5.4-0.5c-6.7-1-12.4-3-12.7-3c-3.3,4.2-0.4,11.2-5.5,16.5
	c-2.1,10.4-8.1,18.9-11.8,28.6C75.7,103.3,76.5,103.2,77.2,103.5L77.2,103.5z M26.9,86.4c0.8-4.4,0.2-7.4,1.5-9.8
	c1.5-2.8,5.7-4.2,8.7-4.6c3.8-0.7,7.1-1.4,10.2-2.7c1.4-0.6,3.7-1.9,3.7-1.9s0.6-1.8,1-3.4c0.6-2.6,1.2-6.3,1.4-9.2
	c0.2-3.3,1.3-13.2,1.4-23.6c0.2-16.4,0.6-28,10-31c4.1-1.3,3.1,7.1,4.5,10.2c2.3,4,8.9,4.3,11.9,7.4c5.2-1.9,14.9-1.2,16.6-0.9
	c6.4,1.4,13.2,2.9,19.6,1.7c2.5-0.5,4.3-1.3,6.4-2.5c1.5-0.9,2.4-1.6,3.4-2c3.4-1.5,7.3-2.4,10.8-3.3c2.3-0.3,3.5-2,5.1-3.6
	c0.8-0.6,1.6-1.4,3.2-1.4c5,0,9.6,4.3,14.5,3.8c1.7,0.8,0.7,4,2.8,4.9c-0.1,1.6-2.3,1.2-2.9,2.3c0,2,2,4.1,3.3,5.5
	c0.6,1.4,1.1,2.3,2.5,3.2c1,0.6,1.5,1.3,2.8,1.6c-6.4,21.2-14,0.9-24,9c-1.2,3.2,0.5,8.6-1.1,11.7c-8.7,15.1-9.2,16.6-3.8,33.6
	c1.1,6.4,2.2,13,3.7,19.2c0.5,0.6,1.4,0.9,1.7,1.5c2.8,2.7,6.3-0.1,8.5,3c0,0.7-0.2,0.9-0.4,1.3c-3.7,0-7.9,0.6-11.8,0.4
	c-1.3-0.6-1.5-1.9-2.3-2.8c-0.9-0.6-2.5-1.2-3-2.1c-1.4-5.6-3.1-11.2-4.8-16.7c-1.7-1.9-2.4-5.3-3-8.1c-0.5-2.1-1.1-3.9-1.3-4.5
	c-0.5-1.6-0.6-3-2.1-3.6c-4,0.1-5.5,7.1-8.6,10.2c-3.1,3.2-6.5,8.8-9.6,13.1c-2.9,4-5.3,6.9-5.7,7.1c-0.9,0.6-6.5,2.7-9.4,3.9
	c-0.7,1.5,0.7,2.4,1,3.8c0,0.2-0.9,1.4-1.2,1.8c-7.7-0.4-16.9,3.8-23.3-1.6c-1.7-1-3.5-2.6-2.4-4.8c-0.1-2.8,1.1-5.3,2.3-7.9
	c1.8-5.7,3.4-11.7,3-17.8c0.2-1.1,1-4.9,1-4.9s-1.5,1.1-2.8,1.8c-1.4,0.8-10.8,4.5-16.1,6c-0.7,0.1-1.5,0.5-1.5,0.5
	s-0.4,0.4-0.6,1.2c-0.4,1.5-2,4.5-3.9,3c-0.1-0.5-0.3-1.1-0.1-1.9c0-0.5,0-1.2,0-1.2s-1.6,0.4-2.3,0.6c-3.3,0.4-7.2,1.5-9.9,3.2
	c-1.4,0.9-1,5.5-0.1,10.1c0.2,1.2,0.2,2.1,0.5,3.2c0.6,3.1,1.3,6.2,0.9,8.7c-0.2,0.1-0.4,0.1-0.5,0.2c-2.3,0.1-3-0.8-3.5-2.5
	c-3.2-1.2-2.1-2.9-2.6-5.7c-0.3-1.1-1.6-1.3-1.9-2.4C27.9,93.1,26.7,89.9,26.9,86.4L26.9,86.4z"/>
</svg>
