<svg id="Ebene_1" data-name="Ebene 1" xmlns="http://www.w3.org/2000/svg" width="109.95" height="200" viewBox="0 0 109.95 200">
  <g>
    <path d="M109.63.1l-1.95.2c-.22,0-1.3.22-2.43.39a81.29,81.29,0,0,0-10,2.37,2.72,2.72,0,0,1-.88.32,34.52,34.52,0,0,0-5.08,1.71,2.56,2.56,0,0,1-.7.33C88.37,5.42,84.37,7,83,7.64c-.64.29-1.71.84-2.35,1.21s-1.51.85-1.94,1.05a9.66,9.66,0,0,0-1.32.83,11.22,11.22,0,0,1-1.22.81,74.76,74.76,0,0,0-6.24,4.54,11.93,11.93,0,0,1-1.14.89,2.33,2.33,0,0,0-.57.78c-.21.48-.37.64-.65.64s-3.61,3.13-5.61,5.52a46.71,46.71,0,0,0-7.16,12.38,30.08,30.08,0,0,0-1.19,5.32,2.5,2.5,0,0,1-.53,1.61c-1.66,2.48-2.74,6.7-2.33,8.94.11.61.06.92-.41,2.26a7.61,7.61,0,0,0-.55,3.44,8.32,8.32,0,0,0,.35,3,12.61,12.61,0,0,0,3.62,5.75,12.2,12.2,0,0,0,2.35,1.76,2.7,2.7,0,0,1,.78.57,9.84,9.84,0,0,1,1.74,2.71c2.28,4.52,5.09,8,7.86,9.88a6.08,6.08,0,0,1,1,.75c.25.67,5.71,6.56,5.91,6.38s-.94-2.07-3.24-4.71a3,3,0,0,1-.59-.8,9.62,9.62,0,0,1,1.55.36l1.48.41.55,1.09a14.21,14.21,0,0,0,3.7,4.77l.64.55.11,1.88a16.44,16.44,0,0,0,1.94,7.2,11.87,11.87,0,0,0,2.16,3.36c.59.64,1.39,1.55,1.8,2s1.11,1.27,1.58,1.77l.86.92-.22.8c-.57,2.12-.46,3.54.53,6.59a10.29,10.29,0,0,1,.58,4.15c0,1.32.08,2.7.14,3a10.7,10.7,0,0,0,.73,2.74,6.18,6.18,0,0,1,.39,1.17,2.09,2.09,0,0,0,.58,1.07c.71.65,1.24,2.89,1.27,5.29,0,1.69.11,2.19.34,2a12,12,0,0,0,.38-3,8.21,8.21,0,0,0-1.16-4c-.45-1-1-2.14-1.11-2.61s-.37-1.11-.5-1.42a29.39,29.39,0,0,1-.2-5.86,8.57,8.57,0,0,0-.6-2.58c-.79-2.47-1-3.66-.9-4.71.15-1.2.32-1.4.76-.87a15.17,15.17,0,0,1,1.91,4c.23,1.11,1.25,3.5,1.47,3.47s.59.49,1,1.1a10.36,10.36,0,0,0,1.54,1.72c.41.31.72.65.68.76s.2.36.57.6a13,13,0,0,1,2,1.65c1.35,1.33,1.75,1.54,1.07.52a16.07,16.07,0,0,0-3.11-3.17,9.4,9.4,0,0,1-1.69-1.63,1.4,1.4,0,0,0-.41-.58c-.53-.48-1-1.5-1.7-3.83a26,26,0,0,0-2.4-5.56l-.54-.91.33-.73a19,19,0,0,0,.65-2.57c.38-2.05.89-3.14,1.71-3.69.53-.36.54-.36.86-.06a1.82,1.82,0,0,0,.76.41c.24.06.42.17.42.26a8.84,8.84,0,0,1-.54,1.19c-.69,1.35-1.19,3.88-.86,4.47.17.33.15.49-.07,1-.42,1.07-.31,1.86.52,3.44a1.45,1.45,0,0,1,0,.75c0,.39,0,.52.22.6a1.5,1.5,0,0,1,.54.42c.33.39.58.23.71-.44s.29-.8.59-.56c.14.11.25.11.36,0,.28-.28.44.16.52,1.48a2.81,2.81,0,0,0,.25,1.3c.09,0,.32-.09.51-.26s.42-.29.49-.24a2.87,2.87,0,0,1,.22.92,7.61,7.61,0,0,0,.18,1.11c.14.33.82.68,1.82.88,1.19.25,1.72.83,1.2,1.34a.42.42,0,0,0-.08.44c.08.2.24.25.66.2s.55,0,.5.25a.33.33,0,0,1-.33.32c-.33,0-.36.37,0,.5a.61.61,0,0,0,.42,0,2,2,0,0,1,.83-.14c.61,0,.63,0,.61-.52s0-.56.42-.34c.22.12.3.32.3.78s.06.61.34.65.46.25.63.63.36.56.51.5.22,0,.15.39,0,.59.5,1.22a2.81,2.81,0,0,1,.6,1,.89.89,0,0,0,.21.46c.12.13.11.25,0,.5s-.16.47.13,1.38.4,1.06.62,1.06.22.1-.2.69a2.88,2.88,0,0,0-.47,1.1,1.5,1.5,0,0,1-.19.71.59.59,0,0,0,0,.66,3.51,3.51,0,0,1,.25.88c0,.47,0,.54-.46.73a1.87,1.87,0,0,0-1,1.38,1.46,1.46,0,0,1-.4.59c-.75.69-1,1.22-.85,1.47s.11.49-.48.78c-.25.14-.46.36-.46.52a12.92,12.92,0,0,1-1.26,2.62c-.11.15-.28.16-.52.07s-.64,0-1.87.54c-.43.21-.61.22-.88.08a.44.44,0,0,0-.62.08.44.44,0,0,1-.61.09,1.26,1.26,0,0,0-1.33.07,2.2,2.2,0,0,1-.71.23,1.21,1.21,0,0,0-.56.22,2.38,2.38,0,0,1-.62.27.58.58,0,0,0-.4.45.5.5,0,0,1-.53.44c-.59.08-1,.95-.76,1.78.18.67,0,1-.39.87s-.82.15-.82.9a1.34,1.34,0,0,0,.52,1.18,8.8,8.8,0,0,1,.81,1c.17.28.55.84.83,1.25s.49.81.44.92a2.27,2.27,0,0,0,.2,1,6.94,6.94,0,0,1,.52,3.58,5.28,5.28,0,0,0-.19,1.21,4,4,0,0,1-.39,1.32c-.56,1.21-.53,1.33.25,1.21s.92,0,.92.58c0,.17-.09.23-.3.17-.42-.11-.56.23-.23.59a1,1,0,0,0,1.3.1.69.69,0,0,1,.64-.14c.39.06.5,0,.58-.27a.4.4,0,0,1,.45-.33c.52,0,1.11-1.11.77-1.41s-.27-.45.23-.26c.34.12.55.14.75,0a.81.81,0,0,0,.13-1.14c-.18-.15-.21-.29-.08-.59a.61.61,0,0,0,0-.61.85.85,0,0,1-.08-.63.74.74,0,0,0-.24-.78c-.18-.2-.4-.33-.47-.28s-.14-.09-.14-.31-.06-.44-.15-.49-.11-.29-.06-.54,0-.6-.4-1.08-.57-.6-.68-.56-.35-.16-.53-.44a6.51,6.51,0,0,1-.36-3.86,5.32,5.32,0,0,1,2.59-2.66,7,7,0,0,0,2.22-1.55,2.14,2.14,0,0,1,1.38-.8,1.85,1.85,0,0,0,.78-.39,3.68,3.68,0,0,1,1.3-.56c.86-.19,1-.3,1-.91,0-.25.13-.42.28-.45s.25,0,.19.19c-.12.33.34.5.64.25s.33-.16.72,0a.81.81,0,0,0,.94-.06c.25-.15.51-.24.61-.18s.22,0,.3-.2a1.29,1.29,0,0,1,.62-.48,1.37,1.37,0,0,0,.64-.66c.24-.55.47-.75.36-.3s.55.42.74-.09.21-.41.78-.33.62,0,.62-.17a1.6,1.6,0,0,1,1.21-1.21,2.23,2.23,0,0,0,.67-.15c.23-.14.19-.75-.08-1.11s-.3-.53,0-.53a1.37,1.37,0,0,0,.61-.32c.36-.29.4-.4.35-1.29a6.35,6.35,0,0,0-.16-1.25c-.08-.16,0-.27.08-.27s.09-.83-.41-2.25c-.34-.94-.36-1.16-.2-1.55s.16-.5-.14-.75a.8.8,0,0,1-.34-.52.43.43,0,0,0-.14-.31,1.8,1.8,0,0,1-.24-.75,3.41,3.41,0,0,0-.23-.83,1.1,1.1,0,0,1-.21-.54,1.25,1.25,0,0,0-.58-.74,3.39,3.39,0,0,1-.82-.83.77.77,0,0,0-.68-.47c-.22,0-.39-.06-.39-.14a8.61,8.61,0,0,0-1.09-1.54.6.6,0,0,0-.56-.1,1.56,1.56,0,0,1-.94-.17,1.74,1.74,0,0,0-.91-.17c-.47.11-.62-.06-.28-.31s.23-.22-.11-.58a.7.7,0,0,0-.59-.32c-.16.07-.22,0-.21-.2.07-.59,0-.69-.54-.69-.38,0-.55.08-.55.24s-.14.23-.31.23c-.41,0-.25-.37.26-.61.31-.14.38-.25.3-.54a.55.55,0,0,1,.16-.58c.17-.14.21-.36.15-.74a1.54,1.54,0,0,1,.08-.83c.09-.2.09-.29,0-.29a1.38,1.38,0,0,1-.5-.39,1,1,0,0,0-.53-.39c-.09,0-.22-.33-.28-.77-.09-.74-.39-1.22-.61-1-.06,0-.11-.11-.11-.38,0-.47-.53-1.14-.9-1.14a.37.37,0,0,1-.29-.23.41.41,0,0,0-.32-.24c-.18,0-.21-.07-.11-.28a1.91,1.91,0,0,0,.11-.62c0-.19.07-.36.2-.38a2.73,2.73,0,0,0,.41,0c.1,0,.23.16.28.38s.18.37.34.34.3.12.36.44a1,1,0,0,0,.34.58c.29.1.63-.19.38-.33s-.2-.38.16-.57.31-.15.15.14,0,.6.28.41c.1,0,.11.14.07.47-.08.5.12,1,.4,1s.11-1.35-.08-1.58c-.31-.41-.37-.77-.14-.77a.27.27,0,0,1,.24.28,1,1,0,0,0,.29.57,1.14,1.14,0,0,1,.36.61c.07.45.36.5.74.12s.48-.41.37,0c-.06.25.07.47.49.86.61.56,1.14.69,1.28.3s.34-.27.52.28c.12.37.39.64,1,1a4.37,4.37,0,0,0,1.08.51,1,1,0,0,0,.53-.44l.33-.42.55.59c.28.34.59.56.67.52s1.13.46,1.13.65a2.16,2.16,0,0,0,.7.56c.77.49.91.74.36.6-.34-.08-.34-.06-.09.22.72.81,1.18,1.7,1,2a4.26,4.26,0,0,0-.17,1.14,1.73,1.73,0,0,1-.15.88c-.07,0-.24.17-.38.39s-.23.53-.06,1.62a2.81,2.81,0,0,1,0,1.85c-.27.66-.21,1.45.12,1.66a.59.59,0,0,1,.22.51,1.73,1.73,0,0,0,.14.66,12.85,12.85,0,0,1,.58,2.48,1.86,1.86,0,0,0,.31.85.64.64,0,0,1,.22.48.42.42,0,0,0,.31.39.63.63,0,0,1,.39.36,2.45,2.45,0,0,0,.82.75c.56.38.73.58.78,1a1.91,1.91,0,0,0,1.06,1.66c.36.2.64.48.67.67s.35.47.35.17.42-.2.55,0,0,.11-.15.07-.25,0-.25.25.07.34.57.26.53-.06.37.13,0,.62.69.87.86.82,1.22,2.65c.13.64.27,1.28.3,1.4s-.16.3-.64.44-.82.3-.94.36c-.85.5-1.17.59-1.42.36s-.75-.27-1.27.25-.47.5-.19.7a5,5,0,0,0,.89.49c.63.29.8.62.22.47l-1.16-.25c-1-.22-1.45-.52-1.17-.8s.24-.45-.17-.45a1.07,1.07,0,0,0-.66.31,1,1,0,0,1-.62.31,1,1,0,0,0-.86.75c0,.1.28.33.61.5,1,.53.94.63-.77.63-1.51,0-1.58,0-1.75-.39-.23-.52-.44-.5-.4,0a2.17,2.17,0,0,1,0,.67.18.18,0,0,0,.17.23,3.78,3.78,0,0,1,.84.3c.54.24.58.3.38.5a2.3,2.3,0,0,1-1.08.36c-1.14.16-1.33.28-1,.64s.2.63-.16.63-.86.79-.86,1.7,0,.94-.51,1.39-1.05.66-1.05.35c0-.1-.11-.16-.23-.16-.36,0-.28.59.09.8a1,1,0,0,0,.63.09c.25-.06.29,0,.28.49a3,3,0,0,1-.13.86c-.09.26-.12.26-.47,0s-.61-.32-1.25.61a4.06,4.06,0,0,1-1.06,1.11c-.41.25-.52.43-.52.8,0,.53-.83,1.53-1.28,1.53a4.1,4.1,0,0,0-1,.3c-.63.27-.91.58-1,1,0,.08-.21.14-.45.11a.5.5,0,0,0-.51.17c-.05.13-.22.19-.44.16-.52-.11-1.35.36-1.35.73,0,.18-.06.32-.15.32s-.16-.14-.16-.3c0-.52-.28-.52-.64,0-.19.26-.42.42-.55.37-.29-.11-.7.25-.65.57,0,.15-.1.26-.35.29-.47.08-.81.33-.69.52s.25.09.47.05c.63-.16.42.12-.72,1-.81.64-1.09,1-1.17,1.33-.26,1.31-.86,2.52-.86,1.75,0-.36-.34-.19-.64.34s-.36.82-.06.88,0,.38-.58,1.45a16.81,16.81,0,0,1-1,1.61.85.85,0,0,0-.2.5c0,.4-.16.79-.33.79s-.14-.11-.14-.24c0-.45-.26-.23-.45.39a1.94,1.94,0,0,1-.33.71,16.48,16.48,0,0,0-1.41,2.89c0,.2.1.2.49,0s.36-.16.15.34c-.07.21-.23.77-.34,1.25a2.56,2.56,0,0,1-.47,1.16c-.25.22-.27.2-.25-.27s0-.53-.2-.56a.22.22,0,0,0-.27.22,2.88,2.88,0,0,1-.7,1.58c-.46.33-.35.66.17.61A4.52,4.52,0,0,0,92,176.73c.11-.54.61-1.5.75-1.43s.39,0,.39-.32a1.41,1.41,0,0,1,.15-.57c.13-.21.16-.19.16,0,0,.39.2.34.78-.14.33-.27.47-.5.42-.71s.15-.51.6-1a2.33,2.33,0,0,0,.78-1.45c.08-.41.14-.78.16-.83s.09-.3.15-.58a2.06,2.06,0,0,1,1.35-1.36c.45,0,.59-.4.15-.4H97.5l.36-.47c.36-.5.75-.63.75-.24s.27.3.47-.08c.09-.17.11-.31,0-.31s0-.11.23-.25a.79.79,0,0,0,.34-.59c0-.28.15-.39.72-.58.79-.24.88-.55.16-.5s-.3-.2.42-.31c.55-.08.58-.07.58.31v.41l.34-.3c.74-.66,1.25-.88,1.77-.8a1,1,0,0,0,1.17-1c0-.33.08-.42.36-.42a1.17,1.17,0,0,0,.64-.24.8.8,0,0,1,.58-.15.26.26,0,0,0,.36-.19c.1-.28.35-.45,1.24-.86.23-.11.42-.28.42-.38s.19-.29.41-.43a2.59,2.59,0,0,0,.68-1,1.94,1.94,0,0,1,.57-.8c.2-.08.23-.22.15-.7a2,2,0,0,1,.11-1,3.36,3.36,0,0,0,.31-1.09c.1-.81.38-1.2.68-1s.59-.38.48-.8a.3.3,0,0,1,.11-.36,4.86,4.86,0,0,0,.84-1.16,23.37,23.37,0,0,1,3.37-4.19,13.1,13.1,0,0,1,3.89-2c1.62-.65,1.84-.65,2.31-.15s.71.5.91.15a.48.48,0,0,1,.51-.19c.27,0,.4.17.47.54.13.65.74,1.18,1.16,1a4,4,0,0,1,.92-.12c.35,0,.64-.11.67-.22.1-.27.36-.24.36,0a.35.35,0,0,0,.22.32,1.35,1.35,0,0,1,.47,1.18.41.41,0,0,1-.31.14.21.21,0,0,0-.22.2,1.82,1.82,0,0,1-.55.69,1.63,1.63,0,0,0-.54.81c0,.38.23.44.37.09,0-.12.16-.23.25-.23s0,.28-.19.63c-.31.53-.32.65-.15.93s.12.41-.64,1.21a3,3,0,0,1-1.21.89c-.39,0-.53.22-.34.51.08.13.3.14.73.05A1.39,1.39,0,0,1,126,155a2.6,2.6,0,0,1-.42,1c-.55,1-.61,1.3-.28,1.57.17.14.19.31.06.73a3,3,0,0,0,0,1l.11.49-.36-.35c-.45-.4-.59-.17-.22.39.19.29.33.36.58.3s.3,0,.24.19a7.56,7.56,0,0,0-.19.94c-.14.86-.33,1-.8.45s-.83-.52-1-.3c-.07.05,0,.27.21.46.32.34.33.47.25,1.68a9,9,0,0,1-.89,3.46c-.17.11-.75-.7-1-1.36-.28-.88-.5-1.24-.72-1.16s-1.3-.36-1.3-.56-.5-.11-.58.19-.1.31-.15.31-.52-.22-1.06-.47c-1.08-.5-1.65-.59-1.65-.26a.66.66,0,0,0,.66.57c.28,0,.74.71.56.88s-1-.38-1.37-.83a.81.81,0,0,0-.83-.39c-.77.08-1.83.52-1.83.77s.42.42.95.2a.87.87,0,0,1,.57-.11c.17.19-.3.58-.93.77s-.75.14-1-.43c0-.09-.14-.07-.26.05a.92.92,0,0,1-.47.19.73.73,0,0,0-.45.23.94.94,0,0,1-.64.24.89.89,0,0,0-.93.76,1.13,1.13,0,0,1-.39.64,1.31,1.31,0,0,0-.39.55.92.92,0,0,1-.31.47,1.24,1.24,0,0,0-.13,1.45c.16.16.13.3-.07.66s-.27.47,0,.66.41.44,0,.44-.32.06-.22.45.06.47-.35.51c-.25,0-.42.13-.4.24a2.65,2.65,0,0,1-.81,1.67,5.07,5.07,0,0,1-2.83.1c-.55-.22-2.9.32-4.15,1a6.65,6.65,0,0,0-3.09,4,10.72,10.72,0,0,0-.28,3.89,1.17,1.17,0,0,1,.11.57,1.71,1.71,0,0,0,.25.82,2.14,2.14,0,0,1-.21,2,4,4,0,0,0-.83,1.91c0,.4-.39,1-.54.84s0-.36.08-.66a2.65,2.65,0,0,0,.12-.9c-.06-.33-.09-.3-.31.19a9,9,0,0,0-.64,2.29.82.82,0,0,1-.16.46,1.28,1.28,0,0,0-.11.61,1.71,1.71,0,0,1-.31.9,1.57,1.57,0,0,0-.31.8,3.74,3.74,0,0,0,1.11,1.81c.23,0,.37-.4.46-1.43a2.65,2.65,0,0,1,.35-1.3.83.83,0,0,0,.26-.47c0-.13.18-.34.38-.47a2.4,2.4,0,0,0,.61-1.91c-.09-.25.25-.7.44-.58s.5-.68.37-.87,0-.16.16-.22c.3-.11.3-.41,0-.41s-.3-.29,0-.42a1.47,1.47,0,0,0,.55-.44,3.76,3.76,0,0,0,.5-2.18c0-.19,0-.41.08-.46a1.55,1.55,0,0,0,.17-.86,4.26,4.26,0,0,1,.23-1.31,3.9,3.9,0,0,0,.24-1.24c0-.5.07-.71.31-.87s.31-.36.31-.81,0-.63.31-.63a1.6,1.6,0,0,0,.72-.25c.36-.25.41-.25.74.05a1.85,1.85,0,0,0,2.05.19,1.45,1.45,0,0,1,.76-.3,1.57,1.57,0,0,0,.8-.33.91.91,0,0,1,.66-.23c.34.12.95-.33,1.12-.85a.79.79,0,0,1,.64-.55.94.94,0,0,0,.56-.25c.24-.37.43-.11.33.47a1.5,1.5,0,0,0,.24,1.18c.34.57.53.7.64.37,0-.11.28,0,.59.3.53.48.55.48.25.81s-.29.33,0,.33a.88.88,0,0,1,.58.47.78.78,0,0,0,.72.47c.52,0,1.63,1.09,2,2a3,3,0,0,1-.72,3.31,5.6,5.6,0,0,1-2.9,1.15.53.53,0,0,0-.45.23.43.43,0,0,1-.39.24c-.42,0-1.11.32-1.11.51a.71.71,0,0,0,.27.36c.26.19.26.2,0,.22a.45.45,0,0,0-.36.3.91.91,0,0,1-.55.47c-.42.14-.46.21-.46.79s.06.67.31.74c.41.11.41.54,0,.9s-.41.71-.14,1c.11.11,0,.32-.47.66-.61.48-.63.48-.67.14-.08-.53-.52-.55-.52,0a.84.84,0,0,0,.09.52c.07.05-.23.31-.65.59-.72.47-.77.49-.77.18s-.28-.33-.53.06c-.12.2-.12.31,0,.39s.06.22-.28.47c-.58.44-.62.44-.62-.06s-.36-.44-.44,0a1.86,1.86,0,0,1-.55.72c-.45.4-.47.43-.14.43s.34.1.34.25,0,.22.44,0a4.91,4.91,0,0,0,.81-.65,8.1,8.1,0,0,1,1.24-.85l.84-.47-.07.8a1.71,1.71,0,0,0,0,.8c.25,0,.49-.42.49-.86s.09-.53.7-.85c.39-.18.7-.45.7-.57a.25.25,0,0,1,.28-.22,1.85,1.85,0,0,0,.82-.55c.58-.59.89-.72.62-.25s-.2.8,0,.8.65-.77.68-1.22a3.41,3.41,0,0,0-.09-.89l-.11-.47.24.42c.39.69.56.53.45-.41-.06-.54-.05-.87.08-.93a.57.57,0,0,0,.08-.49.41.41,0,0,1,.21-.53.94.94,0,0,0,.39-.63c.08-.36.21-.5.54-.57a1.41,1.41,0,0,0,.64-.35.76.76,0,0,1,.54-.26c.24,0,.35-.1.33-.29s.3-.34.57,0a.47.47,0,0,0,.48.16.34.34,0,0,1,.38.08c.1.19.39.06.39-.19,0-.08-.1-.12-.22-.08s-.25,0-.3-.3,0-.43.69-.78l.76-.37v-1c0-.88,0-1,.33-1.08s.35-.08,0-1.81a3,3,0,0,0-2.17-1.9c-.33,0-.45-.15-.8-.89a4.35,4.35,0,0,1,0-3.7l.42-.85,1-.11a2.71,2.71,0,0,0,1.06-.25c.05-.09.27,0,.49.18.55.42.75.39.75-.08s.19-.5.44-.19a.35.35,0,0,1,0,.42c-.17.28-.07.47.33.47s.42-.47.1-.47.6-.45,1-.47.5,0,.24.47,0,.58.31.27a1.19,1.19,0,0,1,.76-.27,2.8,2.8,0,0,0,.74-.09c.2-.08.2-.14-.08-.36s-.31-.31-.14-.66.2-.37.48.3.33.66.6.5a.82.82,0,0,0,.36-.66c0-.36.14-.53.34-.56s.27,0,.21.19c-.15.36.25.31.59-.06a1.09,1.09,0,0,1,.72-.32c.39,0,.47-.09.67-.75.13-.4.24-.65.24-.54s.2.07.56-.13a1.4,1.4,0,0,1,.86-.25c.45.13.39-.28-.11-.66s-.42-.34-.16-.54a.52.52,0,0,0,0-.88c-.28-.23-.31-.72-.06-.87s.14-.35.06-.83-.12-1-.14-1.3a2.2,2.2,0,0,0-.51-1.24c-.58-.75-.6-.84-.28-1.39.21-.39.31-.26.25.35,0,.15,0,.28.11.28.26,0,.31-.19.18-.64-.08-.27-.08-.46,0-.46s.14-.11.14-.23.08-.23.16-.23.15.09.15.21c0,.4.31.46.66.16s.62-.81.5-1a8.32,8.32,0,0,1-.13-2.17,2.94,2.94,0,0,1,.46.41c.47.47,1,.45,1.25-.05a.73.73,0,0,1,.42-.41c.34-.09.36-.43.06-1a2.19,2.19,0,0,1-.14-1.31c.08-.74.14-.89.39-.89a.52.52,0,0,0,.42-.38,1,1,0,0,1,.41-.47.22.22,0,0,0,.17-.32c-.11-.32.13-.3.41,0a18.57,18.57,0,0,1,1.69,4.58c0,.22.09.29.34.26.42,0,.52.39.74,3a11.67,11.67,0,0,0,.25,1.92,1.62,1.62,0,0,1-.32,1.07,2,2,0,0,0-.34,1.22c.08.37,0,.54-.64,1.12-.41.39-1,.92-1.39,1.22-1,.74-.91,1.1.08.56.62-.34.82-.37,1.18-.25a1.47,1.47,0,0,0,1.52-.07.5.5,0,0,1,.52-.16,2.84,2.84,0,0,0,1.79-.74c.16-.2.27-.23.43-.09s.25.08.39-.23c.31-.68,1.08-.74,1.08-.08,0,.22-.11.29-.4.29s-.39.1-.39.24a.23.23,0,0,0,.21.23A2.13,2.13,0,0,0,140,168a.45.45,0,0,1,.48-.33.66.66,0,0,0,.52-1c-.17-.22-.17-.26.06-.41s.24-.21.17-.31.13-.36.39-.59c.57-.52.61-.92.18-1.33s-.39-.61.07-.3.68.21.8-.69a2.77,2.77,0,0,1,.25-.92c.16-.2-.11-.44-.34-.28s-.21,0-.22-.78c0-.3-.09-.47-.24-.47s-.37-.25-.54-.55-.25-.48-.08-.36.3.16.34.1.11-.55-.14-.74a1.26,1.26,0,0,1-.36-.92c0-.23-.28-.09-.43.23s-.16.35-.43-.15-.23-.53,0-.91.25-.42,0-.61a1.82,1.82,0,0,1-.36-1.12c-.12-1.22-.26-1.46-.87-1.46s-.47,0-.19.19.55.44.55.7-.38.25-.8-.09-.39-.47-.42-1c0-.76-.47-1.47-.94-1.47a.85.85,0,0,1-.47-.31,2.9,2.9,0,0,0-1.86-.64c-.22,0-.44-.17-.66-.53s-.42-.55-.54-.55a.57.57,0,0,1-.42-.33c-.15-.26-.11-.39.14-.65a1.14,1.14,0,0,0,.28-1.4c-.13-.23-.17-.46-.1-.51s.16,0,.21.14.23.19.5.14a.82.82,0,0,1,.67.16,1.87,1.87,0,0,0,.89.28,1.19,1.19,0,0,1,1.24,1c.17.74,1.15.74,2.72,0a.81.81,0,0,1,1,0c.48.22,1,.2,1.17-.07,0-.07.3-.09.57,0s.53,0,.68-.17a.72.72,0,0,1,.28-.26c.33,0,.43,0,.63-.52s.3-.52.53-.45.39,0,.6-.35.34-.39.86-.31.61.08.82-.45a1.51,1.51,0,0,1,.5-.68c.21-.07.24-.21.16-.68-.11-.66,0-.75.84-1,.47-.14.55-.22.52-.58s0-.42.19-.42c.4,0,1.17-.81,1.94-2.08a9.72,9.72,0,0,0,1.5-3.64,2.6,2.6,0,0,1,.31-1,3.14,3.14,0,0,0,.38-.78,17.53,17.53,0,0,1,1.07-2.86,6.73,6.73,0,0,0,.58-1.15c.22-.5.5-1.09.61-1.31a23,23,0,0,0,1-4.06,40.21,40.21,0,0,0-.07-11,39.72,39.72,0,0,0-4-9.27,2.88,2.88,0,0,1-.44-1.58,5.89,5.89,0,0,0-.18-1.33,7.18,7.18,0,0,1-.27-1.05c-.13-.75-.41-1-.84-.9-.27.07-.35,0-.46-.43s-.22-.51-.51-.53c-.74,0-.75,0-.72-.65l0-.58-.69,0c-.5,0-.73,0-.83.19s-.34.2-1.06-.36l-.38-.3.54,0c.39,0,.54,0,.59-.25s0-.27-.25-.27a.56.56,0,0,1-.45-.36c-.19-.4-1.74-1.06-3.35-1.44-.47-.11-1.11-.26-1.41-.36s-1.29-.32-2.25-.5a10.66,10.66,0,0,1-2.61-.81A6.45,6.45,0,0,1,135,92.8c0-.06.27-.23.61-.36.61-.25.8-.56.8-1.39,0-.33.06-.39.33-.33s.48-.06.84-.42.5-.56.47-.62.27-.29.67-.49.76-.48.79-.76a1.24,1.24,0,0,1,.2-.55,1,1,0,0,0,.14-.58c0-.23.08-.44.17-.44s.14-.17.1-.45-.05-.45.37-.55a1.65,1.65,0,0,0,.91-1.87.7.7,0,0,1,0-.68,3.36,3.36,0,0,0,.22-1.23c.05-1,0-1-.4-1.28l-.44-.28.41-.55c.23-.31.82-1,1.31-1.55l.89-1,2.27,2.34a24.11,24.11,0,0,0,2.81,2.63c.53.28.56.34.47.86-.27,1.45-1.25,3.15-3.72,6.47-1.45,1.94-2,2.73-2,3s.3,0,1.42-1.42c.6-.8,1.64-2.06,2.32-2.82a13.22,13.22,0,0,0,2.67-4.22c.09-.31.26-.57.36-.57A8.44,8.44,0,0,1,152.7,86c.94,1.29,1,1.43.72,2.47-.22.87-.19,1.92.08,2.09.07,0,.14-.26.14-.69,0-.76.36-1.92.5-1.65a23,23,0,0,1,1.25,6.08c-.13,1.73-.25,5.75-.17,5.8.25.14.5-1.61.72-5.1a22.91,22.91,0,0,0-.51-5.7c-.1-.35-.25-.82-.29-1.05-.17-.8-1.66-2.75-3.25-4.29l-1.61-1.53-.1-1.42a29,29,0,0,0-.51-3.44,17.29,17.29,0,0,1-.47-3.47l0-1.42,1-1.94a16.53,16.53,0,0,1,1.44-2.47l.48-.55.47.55c.25.3.77,1,1.13,1.48a14.76,14.76,0,0,0,1.25,1.52l.59.58L155.28,73c-.27,1.23-.33,4.77-.1,4.92s.46-.47.57-2.11c.15-2.58.28-2.7.86-.94.89,2.71.47,5.73-1.32,9.54-.42.91-.54,1.67-.23,1.47a26.89,26.89,0,0,0,2.28-5,7.88,7.88,0,0,0,.42-3.24,11.93,11.93,0,0,0-.86-5,3.11,3.11,0,0,1-.21-2.35c.11-.68.37-2.09.61-3.12a34.37,34.37,0,0,0,.71-6.16,21.88,21.88,0,0,0-.64-3.85,20,20,0,0,0-2.81-7,4.16,4.16,0,0,1-.61-1.26c0-.4.53-1.69,2-4.88,2.19-4.72,3.06-7.32,3.53-10.51a14.33,14.33,0,0,0,0-5.16,12.49,12.49,0,0,0-3.23-6.92c-2.8-3.21-3.25-4.22-4.08-8.94a16.32,16.32,0,0,0-.66-2.8A8.49,8.49,0,0,0,150.37,8a6.47,6.47,0,0,0-2.31-1.63,16,16,0,0,0-2.6-.94,11.38,11.38,0,0,0-5.11.25c-1.09.42-1.13.42-2.77-.12a16.81,16.81,0,0,0-5.13-.8,3,3,0,0,1-2-.55,44.59,44.59,0,0,0-5.63-2.67,27.81,27.81,0,0,0-5-1.17A58.12,58.12,0,0,0,109.63.1ZM136.33,7c.31.09.58.23.58.31a3.89,3.89,0,0,1-1.88.63,1.63,1.63,0,0,1-1-.64l-.63-.65,1.18.08A9.81,9.81,0,0,1,136.33,7Zm10.37.94c1.73.75,2.42,1.33,2.92,2.37.37.8.52,1.39,1.19,5a10.28,10.28,0,0,0,2.47,5.13c2.41,3,3.06,4,3.95,6.15,1.5,3.58.5,10.3-2.56,17.16a15.18,15.18,0,0,0-.72,1.81.56.56,0,0,1-.22.38,2.56,2.56,0,0,0-.42,1c-.2.78-.45,1-.45.45a9.58,9.58,0,0,1,.31-1.45c.69-2.49,1.22-7.27.92-8.51a11.6,11.6,0,0,1-.14-2,16.71,16.71,0,0,0-1.94-7.3c-.37-.78-.41-1-.41-2.89a11.56,11.56,0,0,0-.46-3.8c-.88-3.36-1.65-4.8-3.6-6.77a9,9,0,0,0-2.69-2c-1-.51-1.37-.76-1.37-1a11.63,11.63,0,0,0-2-3.39l-.66-.74.67-.15a9.93,9.93,0,0,1,2.26-.08A6.13,6.13,0,0,1,146.7,7.92ZM139.83,9c.8.85,1.49,1.88,1.33,2a2,2,0,0,1-.89,0,19.9,19.9,0,0,0-2.44-.14c-1.59,0-1.67,0-1.76-.37-.22-.82-.13-1,.53-1.21A13.67,13.67,0,0,0,138,8.78a5,5,0,0,1,1-.39A2.92,2.92,0,0,1,139.83,9Zm1.5,4.19a4.12,4.12,0,0,1,1.18.52c.4.48,1.14,5,.89,5.42a4,4,0,0,1-1.35-.39c-.7-.28-2-.72-2.79-1l-1.54-.42L137.66,16a6.15,6.15,0,0,0-.39-2.15c-.41-.9-.44-.86,1.61-.9A7.67,7.67,0,0,1,141.33,13.23Zm4.54,2.25a13.3,13.3,0,0,1,3.37,5.72,13.15,13.15,0,0,1,.44,3.07,7.1,7.1,0,0,1-1.3-1.19,21.25,21.25,0,0,0-2.18-2l-1-.71-.1-1.59a28,28,0,0,0-.51-4C144.51,14.36,144.46,14.33,145.87,15.48Zm-6,4.63c.88.34,2,.84,2.52,1.09l.92.47v1.54a15.47,15.47,0,0,1-.25,2.68c-.14.65-.28,1.43-.31,1.72-.21,1.46-.36,1.55-1.32.74a18.92,18.92,0,0,0-2.61-1.56,22.86,22.86,0,0,1-2.61-1.58l-.59-.5.48-.93a8.88,8.88,0,0,0,1-3.4c.1-.89.1-.89.65-.89A9.38,9.38,0,0,1,139.88,20.11Zm6.5,3.74a13.57,13.57,0,0,1,2.8,3.23c.21.44.21.69,0,2a26,26,0,0,1-1.74,5.67c-.45.91-.51.88-1.37-.76-.33-.61-1-1.65-1.41-2.3l-.83-1.21.22-1c.12-.56.33-1.48.45-2.08a16.83,16.83,0,0,0,.31-2.06c.16-1.75.25-2.35.38-2.35A9.51,9.51,0,0,1,146.38,23.85ZM137.13,28a19.42,19.42,0,0,1,4.38,2.87c.28.31.26.36-.72,2.48-.57,1.19-1.13,2.42-1.27,2.74-.25.54-.28.58-.69.42a15.43,15.43,0,0,1-5.69-4.11l-1.08-1.27V30.07a2.42,2.42,0,0,1,.13-1.05,4.73,4.73,0,0,0,2-1.62,4.59,4.59,0,0,1,.5-.72S135.8,27.27,137.13,28Zm14.19,3.26a18.55,18.55,0,0,1,.69,2.61,18.13,18.13,0,0,1,.41,4.92,23.25,23.25,0,0,1-.36,5,9.4,9.4,0,0,1-.53,2.08,8.86,8.86,0,0,1-1.8-2.61c-.42-.82-.66-1.85-.44-2s-.08-.33-.33-.63a4.92,4.92,0,0,1-.79-1.56L147.85,38l.78-1.7a43.91,43.91,0,0,0,2.19-5.57C150.82,30.38,151.07,30.6,151.32,31.26ZM132.11,33.4a17.77,17.77,0,0,0,5.08,3.86,6,6,0,0,1,1.41.83,30.91,30.91,0,0,1-1.53,2.8,7.7,7.7,0,0,1-.79-1.11A21.53,21.53,0,0,0,132,35.26c-.43-.28-1.19-.75-1.69-1l-.92-.48.84-.74a3.33,3.33,0,0,1,.95-.67A6.9,6.9,0,0,1,132.11,33.4Zm11.29-.6a29.65,29.65,0,0,1,2.26,4.3c.18.57.16.72-.06,1.07-.34.51-.78.5-2.09-.05-.58-.25-1.38-.53-1.78-.66s-.76-.26-.76-.34A38,38,0,0,1,143,32.46C143.1,32.46,143.26,32.62,143.4,32.8Zm-14.73,2.88A18.53,18.53,0,0,1,134.75,41c1.5,2.11,1.43,1.81.89,3.33a11.85,11.85,0,0,0-.54,2.3c-.1.89-.14,1-.47,1A66.44,66.44,0,0,1,128,46.37c-.21-.09-.32-.4-.4-1A15.78,15.78,0,0,0,127,42.7a5.31,5.31,0,0,0-1.09-2.25l-.53-.53.62-1a17.83,17.83,0,0,0,1.74-3.51C127.69,35.21,127.75,35.23,128.67,35.68ZM142,38.87a5.94,5.94,0,0,1,2.55.94,6.94,6.94,0,0,1-.37.95,13.67,13.67,0,0,0-1,3.91,8.44,8.44,0,0,0,.71,3,8.71,8.71,0,0,0,2.4,3.07c1.79,1,2.36,1.4,2.36,1.76A10.14,10.14,0,0,1,147,55.72l-.72,1.14-.59-1.06A14.62,14.62,0,0,0,141,50.34a4.25,4.25,0,0,1-.86-.57,5.57,5.57,0,0,1-.19-1.18,19.71,19.71,0,0,0-1.45-4.89c-.41-1.09-.43-1.23-.22-1.64.12-.25.29-.67.39-.94a6.44,6.44,0,0,1,1.67-2.56A15,15,0,0,1,142,38.87Zm5,2.19c.11.22.44,1,.75,1.72a7.33,7.33,0,0,0,.94,1.72,4.76,4.76,0,0,1,.68,1.09,3.19,3.19,0,0,0,.64,1,4,4,0,0,1,.64.82c.36.56.34.59-.5,2.43a3.64,3.64,0,0,1-.6,1.07,9.39,9.39,0,0,1-1.06-.6,8.69,8.69,0,0,1-3.11-3.14c-.7-1.41-.53-3.41.48-5.71C146.32,40.48,146.67,40.35,147,41.06Zm-9.48,5.42a5.66,5.66,0,0,1,.31,1.07.44.44,0,0,0,.2.34c.24.16.28.83,0,.81a7.87,7.87,0,0,1-1-.28c-.75-.26-.78-.31-.76-.86a11,11,0,0,1,.22-1.51c.19-.86.23-.94.42-.68A8.14,8.14,0,0,1,137.54,46.48Zm-82.86.42a7.46,7.46,0,0,1-1.5,2.24,4.8,4.8,0,0,0-.69.86c-.25.41-.31.45-.31.2a19.45,19.45,0,0,1,1.19-4.11l.41-.83.45.72A3.36,3.36,0,0,1,54.68,46.9ZM131.91,49c3.06.51,2.87.35,3,2.59a12.18,12.18,0,0,0,.45,3c.19.64.53,1.77.74,2.5a9.39,9.39,0,0,0,.64,1.7,1.47,1.47,0,0,1,.15,1,28.31,28.31,0,0,1-3.22,6.56,17.73,17.73,0,0,1-2.73,3.18c-.35.23-.36.22-1-1.27a5.89,5.89,0,0,1-.68-2.38,4.83,4.83,0,0,0-.48-1.87,2.69,2.69,0,0,1-.22-2.57,1.44,1.44,0,0,0,.25-.57,8.19,8.19,0,0,1,.56-1.33c.47-.94.66-1.16,1-1.24a.69.69,0,0,0,.56-.51,1.85,1.85,0,0,0-.23-1.8c-.42-.45-.42-.52,0-.63s.3-.15.22-.42-.06-.33.22-.23.33,0,.33-.35a1.51,1.51,0,0,1,.25-.79,1.43,1.43,0,0,0,.19-.79c0-.37-.11-.42-.57-.37-.7.08-1.5-.5-1.28-.91s.17-.8-.72-1.72C128,48.41,128.05,48.37,131.91,49ZM152,50.88a4.39,4.39,0,0,1-.52,1.28.59.59,0,0,1-.31-.22c-.15-.19-.14-.31,0-.6a4.57,4.57,0,0,0,.42-1c.24-.74.47-1.08.65-.91A3.76,3.76,0,0,1,152,50.88Zm-96-.61a6.72,6.72,0,0,0,2.39,1.93l.49.25-.22,1.15a36.07,36.07,0,0,0-.22,7.77,23.28,23.28,0,0,0,2.06,7.87,1.57,1.57,0,0,1,.27.68c-.16.15-2.11-1.54-2.35-2-.14-.3-.47-1.33-.75-2.31a15.78,15.78,0,0,0-.94-2.65c-1.26-2.47-3.45-7.23-3.73-8.17s-.31-1.06,0-1.85a10.53,10.53,0,0,1,.58-1.2,13.63,13.63,0,0,1,1.78-2.22A2.88,2.88,0,0,1,56,50.27Zm81.65.18c.83.47.84.49.84,1.21,0,1.83-.79,6.23-1.09,6.05a4,4,0,0,1-.38-1.05c-.15-.55-.39-1.33-.51-1.74a19.34,19.34,0,0,1-.39-4.59C136.19,49.83,136.61,49.86,137.63,50.45Zm17.09,2.79a18.86,18.86,0,0,1,1.89,6.22,30.86,30.86,0,0,1-.22,7.08c-.6,4-.69,4.22-1.28,3.31A15.38,15.38,0,0,0,154,68.57a8.69,8.69,0,0,1-1-1.2,1.35,1.35,0,0,1,.09-1.47,9.28,9.28,0,0,0,1.39-3.19,11.18,11.18,0,0,0,.28-3,8.19,8.19,0,0,0-.48-3.3,12,12,0,0,0-1.05-2.28,2.65,2.65,0,0,1-.33-2.74c.24-.53.25-.54.54-.29A16.25,16.25,0,0,1,154.72,53.24Zm-51.86-.83a1.28,1.28,0,0,1,0,.64c-.14.62-.06,1,.24,1,.1,0,.23.22.29.5.08.44,0,.58-.5,1.13-.73.78-.86,1.06-.58,1.44.13.18.16.36.07.47-.27.31.28,1.09,1,1.36s.8.51.14.65c-.47.11-.48.13-.41.91a7.46,7.46,0,0,0,.74,2.49c.16.26.09.46-.5,1.78a1.38,1.38,0,0,0-.06.79c.07.32,0,.54-.11.66-.36.28-.43-.08-.52-3a14.79,14.79,0,0,0-.41-3.76,10.85,10.85,0,0,0-3-5l-.66-.59h.56a5.22,5.22,0,0,0,2.8-1C102.63,52.3,102.72,52.27,102.86,52.41Zm38.91,1a18.5,18.5,0,0,1,1.52,1.8A12.71,12.71,0,0,1,145,59a8,8,0,0,1-.64,2,24.5,24.5,0,0,0-2.46,9.77,8.52,8.52,0,0,0,.18,3.5c.15.64.31,1.28.32,1.44a8.44,8.44,0,0,1-2,2.62,1.33,1.33,0,0,1-.63-.46c-.58-.69-1.58-1.15-3.72-1.69a14.17,14.17,0,0,1-4.31-1.58l-.72-.46-.1-1.14-.11-1.15.52-.39a21.33,21.33,0,0,0,6.35-8.73,5.4,5.4,0,0,1,.62-1.28A3.31,3.31,0,0,1,139,62c1.54,1.58,2.21,5.14,1.3,6.92-.39.79-.5,1.33-.26,1.47.06,0,.28-.36.48-.89s.48-1.22.61-1.51a6.34,6.34,0,0,0,.31-1.74c.11-1.81-.33-2.89-2.08-5.14-.62-.81-.65-1-.25-2.19a39.3,39.3,0,0,0,1.19-5.68c.06-.56.17-.89.3-.89A5.16,5.16,0,0,1,141.77,53.36Zm9,.33c.33.27.33.3.13,1.67a51,51,0,0,0,.08,9.85c.26,1.25.26,1.25-.08,1.72-2.82,3.8-3.3,6.16-2.32,11.29.68,3.51.71,3.47-1.12,1.84a11.44,11.44,0,0,1-3-3.62c-.11-.41,0-.76.62-1.57a21.77,21.77,0,0,0,2-4.81,12.19,12.19,0,0,0,.55-4.38,16.61,16.61,0,0,0-.17-4.05c-.44-2.13-.38-2.48.76-4.74s1.9-3.48,2.1-3.48A1.13,1.13,0,0,1,150.82,53.69ZM62.31,54.88l.5.26-.41.78a12.68,12.68,0,0,0-.71,2.47,12,12,0,0,0,1.37,8.68,8.87,8.87,0,0,0,3,3c.26.07.56.53,1.14,1.74A14.87,14.87,0,0,0,74,79a2.73,2.73,0,0,1,.81.53c0,.07,0,1,.06,2a8.33,8.33,0,0,1-.06,1.92,2.14,2.14,0,0,1-.52-.14c-.29-.11-.48-.45-.86-1.53a19.78,19.78,0,0,0-.9-2.16c-.71-1.23-2.43-2.9-5.1-4.94-3.17-2.42-4.14-3.41-5.08-5.09C61,67,60.53,65.38,60.06,61.44a22.91,22.91,0,0,1,.09-6.39c.27-1.42.24-1.41,1-.89C61.5,54.41,62,54.74,62.31,54.88Zm2.85.9c.4.94.5,1.9.54,5.91,0,1.94.1,4.18.16,5L66,68.15l-.5-.34c-1.51-1.08-2.65-4.08-2.65-7,0-2.72,1-5.7,1.9-5.7C64.8,55.13,65,55.42,65.16,55.78ZM53.74,60.05c.8,1.72,1.5,3.21,1.58,3.3A23.45,23.45,0,0,1,56.53,67c-.19.17-2.65-2.49-3.33-3.58a10,10,0,0,1-1.57-6.9l.13-.75.26.61C52.17,56.66,53,58.33,53.74,60.05Zm16-3.56A7.73,7.73,0,0,1,70.39,58a22,22,0,0,1,.49,5.8A7.67,7.67,0,0,0,71,66.16a13.46,13.46,0,0,0,1.86,4c.27.16.3.14.19-.11a11.85,11.85,0,0,1-1.16-7.56c.32-2.8.27-4-.22-5a8.32,8.32,0,0,1-.42-1,10.07,10.07,0,0,1,2.63.17,2.26,2.26,0,0,1-.17.92c-1,3.2-.94,6.85.14,8.43.22.31.36.64.31.71a4,4,0,0,0,.38,1.3,23.33,23.33,0,0,1,1.25,3.93c0,.26-.49.14-4.3-1.07-2.8-.89-3.18-1.09-3.35-1.76a20.74,20.74,0,0,1-.48-5.57,51.43,51.43,0,0,0-.41-7.17c-.09-.38,0-.4.67-.46l1-.08C69.13,55.77,69.39,56,69.71,56.49Zm82.83-.19a6.21,6.21,0,0,0,.49,1.16,3.63,3.63,0,0,1,.42,2.56,10.06,10.06,0,0,1-.58,3.08c-.51,1.58-.72,2-.87,1.85a7.81,7.81,0,0,1-.25-1.79,41.09,41.09,0,0,1,.26-7.28C152.12,55.71,152.54,56,152.54,56.3ZM78.15,57.38a9.11,9.11,0,0,0,2,.58l1.21.17.2,1.12a110.19,110.19,0,0,1-.12,14.43l-.08.83-.66-.33a13.8,13.8,0,0,0-1.58-.68l-1-.36-.89-2.55c-.49-1.41-1.22-3.52-1.63-4.68a8.4,8.4,0,0,1-.76-4.14,10.08,10.08,0,0,1,1-5l.31-.59.5.39A7.53,7.53,0,0,0,78.15,57.38Zm6.7.94a9.76,9.76,0,0,1-.15,1.62c-.08.44-.3,2.08-.47,3.64a19.79,19.79,0,0,0-.16,4.87,21.4,21.4,0,0,0,1,5.41c.44,1.4.42,1.81-.1,2.67l-.31.51L84,76.42a11.18,11.18,0,0,0-1.08-.89c-.39-.25-.42-.35-.42-1.47a17.61,17.61,0,0,1,.33-2.75,35.48,35.48,0,0,0,.47-3.52,76,76,0,0,0-.11-8.91L83.12,58l.75-.25a6.11,6.11,0,0,1,.87-.28C84.81,57.47,84.85,57.85,84.85,58.32ZM146,64.82l.11,2.58-.55,2.06A13.82,13.82,0,0,1,143.65,74l-.31.39V72.71a29.27,29.27,0,0,1,2.12-10.5c.22-.52.25-.56.36-.28A24,24,0,0,1,146,64.82Zm-51,1.69c1.21,4.61,1.69,5.89,3,8.06A6.14,6.14,0,0,1,98.77,76c0,.38-.29.44-.35.06a1.23,1.23,0,0,0-.59-.64c-.85-.47-1.14-.83-.94-1.18.27-.51.19-.79-.25-.9a.88.88,0,0,1-.55-.48c-.09-.27-.22-.36-.39-.3s-.26,0-.33-.19a1.21,1.21,0,0,0-.31-.42,7.51,7.51,0,0,1-.36-2.4c-.09-1.24-.2-2.3-.23-2.38a3.8,3.8,0,0,1,.22-1.7A3.77,3.77,0,0,1,95.06,66.51Zm20.32-.13c.11,0,.21.3.24.74,0,.72.25,1.3.47,1.3a2,2,0,0,0,0-1c-.11-1,.05-1.72.24-1a1.9,1.9,0,0,0,.64.83,2.72,2.72,0,0,1,1,1.55,1.08,1.08,0,0,1-.21.47c-.22.29-.24.29-.55,0-.49-.44-.8-.09-.35.36a1.25,1.25,0,0,1,.33.81c0,.41.05.46.32.38s.31,0,.31.3a.73.73,0,0,0,.15.48c.27.17.18.38-.23.48s-.5.29-.22.46c.1.06.11.3.06.55-.11.53.16.78.3.26a1.46,1.46,0,0,1,1.22-1.2c.42,0,.47,0,.38.39s0,.42.25.56a1.18,1.18,0,0,1,.54.56c.17.38.16.47-.14.79-.47.5-.73.45-1-.18s-.47-.78-.71-.64.05.63.6,1.21c.36.4.37.45.14.7a3.16,3.16,0,0,1-.72.56l-.47.27-.69-1a11.61,11.61,0,0,1-2.06-4.27c-.58-1.84-.89-4.36-.64-5,.08-.24.11-.24.34,0A.8.8,0,0,0,115.38,66.38Zm-11.17,1.14c.29.24.22.58-.21,1s-.5,1-.22,2a1.52,1.52,0,0,0,.77,1c.56.36.61.43.47.8a2.87,2.87,0,0,0-.16.89,1.92,1.92,0,0,1-.15.74c-.11.17-.16,0-.16-.5a2.56,2.56,0,0,0-.92-2.15l-.64-.68V69a8.89,8.89,0,0,1,.09-1.69C103.21,67.15,103.93,67.31,104.21,67.52ZM61.72,72.89a22,22,0,0,1,2.12,2.72A28.24,28.24,0,0,1,65.63,79c0,.47-2.37-2.16-3.52-3.91a38.21,38.21,0,0,1-2.27-3.94A8.77,8.77,0,0,1,61.72,72.89Zm8.53-1a4.4,4.4,0,0,0,1,.36,30.93,30.93,0,0,1,4.42,1.3c.42.22.44.26.36,1a10.5,10.5,0,0,1-.76,3.08c-.54,0-2.36-1.33-3.71-2.67a16,16,0,0,1-2.52-3.29C69.06,71.53,70,71.68,70.25,71.87Zm9.6,3.19c1.31.59,1.2.37,1.64,3a7.24,7.24,0,0,1,.17,1.55,16.06,16.06,0,0,1-3.53-.72c-.83-.28-.86-.31-.91-.91a5.5,5.5,0,0,1,.36-1.76A7.56,7.56,0,0,0,78,74.72C78,74.26,78.1,74.28,79.85,75.06Zm-11.38,2.3A8.91,8.91,0,0,1,72,82.05c.21.73.08.75-1.51.2-2.14-.72-2.77-1.31-3.77-3.61-.36-.84-1-2.06-1.3-2.69l-.62-1.16,1.08.72C66.47,75.9,67.64,76.73,68.47,77.36ZM106,75.92c.26.5.32,1.8.07,1.64a3.59,3.59,0,0,1-.47-.81C105.18,75.67,105.52,74.92,106,75.92ZM84,77.45c.22.33.2.42-.25,1.31l-.5.94-.17-.44a6.75,6.75,0,0,1-.41-2.47c.1-.25.14-.25.6,0A2.89,2.89,0,0,1,84,77.45Zm36.78-.5a.59.59,0,0,0,.55.16c.2-.07.41,0,.45.06a.41.41,0,0,0,.4.08.91.91,0,0,1,.73.22,1.15,1.15,0,0,0,1.11.18c.58-.11.66-.09.66.16s.29.41.37.09c.24-.75.25-.78.49-.57a.47.47,0,0,1,.15.48c-.08.22,0,.3.22.3s.33.08.33.17.25.27.55.39c.61.25.61.24.39,1s-1.6,2-3.19,2.75c-2,1-1.92,1-2.42-.59a9.85,9.85,0,0,0-1.74-3.44l-.64-.86.52-.42C120.34,76.64,120.54,76.61,120.82,77Zm-33.62.78a9.34,9.34,0,0,0,1.28,1.72c1,1.13,1.45,1.86,1.22,2a4,4,0,0,1-1,.19,2.41,2.41,0,0,1-1.59-.32,6.65,6.65,0,0,0-1.34-.5c-.9-.17-1-.28-.79-.84.39-.91.58-.92,1.43-.09.43.42.78.7.78.62a6.73,6.73,0,0,0-.64-1.19l-.64-1.06.36-.64a2.08,2.08,0,0,1,.43-.63A2.81,2.81,0,0,1,87.2,77.73Zm13.1.88a4.36,4.36,0,0,0,.5.73c.47.5,1,1.28.87,1.38s-.09,0-.09-.1-.16-.17-.34-.14-.36,0-.44-.34a1.17,1.17,0,0,0-.67-.67c-.69-.31-.83-.58-.58-1S100,78,100.3,78.61Zm6.78.31c.24.83.58,1.41.82,1.33s1.64,1,2.29,2.06c.22.35.21.46-.11,1.33s-.36,1-.86,1-.76-.35-.43-1c.15-.3.17-.44,0-.64a3.69,3.69,0,0,1-.37-.66,1.55,1.55,0,0,0-.39-.52c-.13-.08-.18-.18-.13-.26s-.53-1.41-.78-1.41a3.17,3.17,0,0,1-.92-1.75.55.55,0,0,1,.37-.13C106.8,78.26,106.94,78.45,107.08,78.92ZM80.29,81.16a10.31,10.31,0,0,1,2,.54c.16.14.16.33,0,1.08a1.7,1.7,0,0,1-1,1.42c-.72.47-.8.5-1.43.32l-1.67-.46-1-.26L76.94,83a6.86,6.86,0,0,1,0-2.52c.05-.13.25-.13.81,0S79.32,81,80.29,81.16Zm22.9,1.23c.81,1.11.84,1.22.49,1.52s-.26.17-.16-.14a.92.92,0,0,0-.72-1.13c-.33,0-.91-.41-.91-.64a1.58,1.58,0,0,1,.53-.61S102.78,81.84,103.19,82.39ZM85,82.33a.15.15,0,0,1-.16.15.16.16,0,0,1-.15-.15.16.16,0,0,1,.15-.16A.15.15,0,0,1,85,82.33Zm41.91,2.72c-.17.64-.69,2.06-1.12,3.17-1.32,3.32-1.6,4.33-1.47,5.43a6.2,6.2,0,0,0,.32,1.48c.27.63.19,1-.18,1-.21,0-.24.09-.16.5a1.7,1.7,0,0,0,.28.7c.16.2.2.19.31-.09s.47-.43.74-.11c.12.15.12.32,0,.7-.2.58,0,1.27.39,1.27a.52.52,0,0,1,.39.26,2.08,2.08,0,0,0,.91.58,5.9,5.9,0,0,1,1,.53c.23.2.3.2.55,0s.28-.19.54.67a12,12,0,0,0,1.38,2.58,18.36,18.36,0,0,1,3.27,12.27,11.54,11.54,0,0,0,0,2.63.72.72,0,0,1,0,.71c-.25.46-.17.94.16,1s.26-.18.36-1.4c.06-.8.19-2.32.28-3.36a17.08,17.08,0,0,0-2.25-10.88c-1.89-2.94-2.39-4.3-2.28-6.24a3,3,0,0,1,.28-1.42c.11-.11.15-.11.11,0-.19.33.2,1.25.68,1.61s.47.42.4.86a.69.69,0,0,0,.21.8,1.07,1.07,0,0,1,.32.72.64.64,0,0,0,.34.62c.22.13.28.22.16.27-.33.11-.21.65.2.84s.45.67-.08.67c-.25,0-.4.11-.44.29s0,.26.4.17c.79-.19,1-.38.95-.81,0-.24-.13-.41-.24-.4a.48.48,0,0,1-.36-.18c-.14-.18-.1-.19.19-.13.49.13,1.22.69,1.13.86s.12.45.4.2.3-.23.29.24.26.83.67.7a.64.64,0,0,1,.53.24c.3.33.7.42.7.17a.3.3,0,0,0-.14-.24c-.2-.14-.5-1-.33-1s.21.22.29.5.21.53.73.63a2.18,2.18,0,0,0,1,0c.31-.11.51-.06.93.23a1.67,1.67,0,0,0,.94.33,1.35,1.35,0,0,1,.58.08,1.58,1.58,0,0,0,.81,0c.49-.07.69-.2.85-.5.29-.62.64-.64.54,0-.06.41,0,.52.3.64s.36.25.36.66c0,.59.24.91.6.78.15-.06.2,0,.15.13a.5.5,0,0,1-.48.19c-.38,0-.39,0-.32.51s0,.53-.14.53c-.42,0-.57.32-.4.82a1,1,0,0,1,0,.79c-.18.41-.09.74.19.74.11,0,.28.23.39.53a1.12,1.12,0,0,0,.44.62,2.83,2.83,0,0,1,.53.29c.2.14.31.14.52,0a1.64,1.64,0,0,1,.72-.26c.36,0,.45,0,.45.25a.41.41,0,0,0,.31.37c.3.08.31.18.24,1.35-.07.91-.05,1.26.09,1.26s.14,0,0,.22-.13.25.06.41a.4.4,0,0,1,.17.41c-.11.29.3.56.74.45s.44,0,.73.47.33.58.1.84a1.05,1.05,0,0,0-.25.61c0,.36.5,1,.79,1,.13,0,.13.06,0,.19a1.93,1.93,0,0,0-.14.83,2.73,2.73,0,0,1-.33,1.3c-.36.7-.45,1.51-.19,1.67a.46.46,0,0,1,.13.44c0,.5.2,1.67.36,1.67s-.06,1-.42,1.33-.47.7-.19,1,.12.19-.08.19-.53.47-.61.94c0,0-.22.47-.47.94a2,2,0,0,0-.22,2.06c.19.52.17.58-.08.64a.84.84,0,0,0-.43.47,1.34,1.34,0,0,1-.32.5c-.25.14-.2.8.07,1a.59.59,0,0,1,.15.65.85.85,0,0,0,.08.67c.27.32,0,1.3-.44,1.72-.29.27-.36.46-.28.75a1.33,1.33,0,0,1-.14.83,2.28,2.28,0,0,0-.23.64,12.9,12.9,0,0,1-3,2.57,17.46,17.46,0,0,1-7.25,1.56c-.88-.08-1.1-.14-1.14-.37s0-.27.28-.27c.42,0,.7-.7.48-1.22-.09-.2-.23-.33-.31-.27s-.39-.48-.25-.7a.27.27,0,0,1,.28-.11.77.77,0,0,0,.47-.08c.23-.12.28-.26.19-.68s-.05-.54.15-.54.24.13.21.5,0,.52.15.55.19,0,.19-.17.2-.34.45-.47a.89.89,0,0,0,.55-1.16c-.06-.23-.05-.37,0-.31s.54-.19.54-.59a.66.66,0,0,1,.16-.46c.13-.07.13-.17,0-.31a.82.82,0,0,1-.08-.58.52.52,0,0,0-.14-.58c-.22-.18-.25-.15-.28.16a5,5,0,0,0,.06,1.19c0,.19,0,.34-.11.34s-.14-.14-.11-.31a3.73,3.73,0,0,0-.43-1.33c-.58-1.17-.53-1.47.22-1.47,1.46,0,.46-2.08-1.29-2.67-.61-.2-.75-.31-.78-.69s.1-.58.6-1.09.65-.72.54-1.3a1,1,0,0,0-.33-.72.52.52,0,0,1-.21-.47c0-.5-.25-.66-.46-.3s-.19.25-.33,0a1.76,1.76,0,0,1-.12-.78c0-.38,0-.44.08-.19s.15.33.25.3.25-1.13,0-1.14a3.93,3.93,0,0,1-.74-.27,3,3,0,0,0-1-.26c-.36,0-.39,0-.17-.16s.23-1-.21-1.91a2.64,2.64,0,0,1-.29-1c0-.34-.18-.48-1.1-1a4.15,4.15,0,0,1-1.36-1,12.67,12.67,0,0,0-.92-1.2,8.08,8.08,0,0,1-.74-1,38.16,38.16,0,0,0-3.78-5c-.81-.94-1.47-1.74-1.44-1.75s1.16.06,4.79.47a12.25,12.25,0,0,0,2.22.15c.53-.32-.39-.62-2.6-.84a23.71,23.71,0,0,1-8.13-2.28c-.62-.3-.62-.3-.67-1.32a2.31,2.31,0,0,0-.23-1.12c-.11-.06,0-.22.23-.44a3,3,0,0,0,1.06-1.67,1,1,0,0,0-.29-.58,1.1,1.1,0,0,1-.3-.77,3.41,3.41,0,0,0-.27-1.09c-.26-.66-.2-.89.24-.89.19,0,.31-.13.34-.36a.43.43,0,0,1,.41-.39c.42-.06.44-.22,0-.58s-.39-.53-.09-1c.17-.22.26-.25.4-.11s.31.12.64,0,.46-.25.46-.67a.9.9,0,0,0-.18-.64,1.6,1.6,0,0,1-.39-.64c-.22-.5-.2-.56.16-1s.38-.52.22-.85a.79.79,0,0,1,0-.76,2.26,2.26,0,0,0,.08-1,.88.88,0,0,1,.15-.82,3,3,0,0,0,.07-2.15,1.17,1.17,0,0,1-.13-.67c0-.23,0-.34-.22-.34-.33,0-.47-.42-.23-.71s.15-.23,0-.23-.15,0,0-.19a.63.63,0,0,0,.18-.39,1.07,1.07,0,0,1,.33-.53.74.74,0,0,0,.24-.78.73.73,0,0,1,.67-.92,21.44,21.44,0,0,0,3.92-1.93l.55-.39,0,.61A6.79,6.79,0,0,1,126.92,85.05Zm-34-.24a28.14,28.14,0,0,1,3.6,4.43c.25.5.26.45-.94,2.39-.41.66-.82,1.11-1,1.14-.49.08-2-1.41-2.54-2.52a19.27,19.27,0,0,1-1-2.92c-.52-2-.89-3-1.44-3.55-.25-.28-.26-.36-.09-.42l.45-.14a2.77,2.77,0,0,1,.75-.09C91.22,83.11,91.47,83.31,92.92,84.81Zm-4.58-.53a9.54,9.54,0,0,1,1.53,3.77,20,20,0,0,0,.92,2.85A7.82,7.82,0,0,0,93.72,94l.64.3-.1,1.39a4.39,4.39,0,0,1-.7,2.53c-.64,1.17-.87,1.39-1.39,1.22-.27-.08-.24-.16.33-.77,1.84-2,.79-4.53-2.57-6.19-.79-.4-1.32-.76-1.34-.9s0-.64,0-1.13a9.71,9.71,0,0,0-2-5.5c-.59-.74-.62-.81-.37-1a2.12,2.12,0,0,1,1-.2A1.11,1.11,0,0,1,88.34,84.28Zm-13,.39A7.3,7.3,0,0,1,76,85.8a10.82,10.82,0,0,0,1.17,1.7c.7.83,1,1.39.62,1.39a7.19,7.19,0,0,1-1.17-1.11c-1.26-1.37-2.36-3.42-1.81-3.42A1.05,1.05,0,0,1,75.32,84.67Zm10,0A13.43,13.43,0,0,1,87,87.77c.49,1.14.88,3.28.64,3.52A3.57,3.57,0,0,1,86.26,91c-1.14-.39-1.33-.5-1.58-1a11.66,11.66,0,0,1-.76-3.44,4,4,0,0,1,.79.55,4,4,0,0,0,.82.54,2.79,2.79,0,0,1,.67.41c.29.23.58.38.62.34a2.06,2.06,0,0,0-.43-.76,4.82,4.82,0,0,0-1.6-1.25c-1.47-.78-1.67-1.27-.73-1.78C84.63,84.28,84.9,84.31,85.28,84.7Zm-6.57.44a2.12,2.12,0,0,1,.77.33,3.22,3.22,0,0,1-.79,1.39,10.57,10.57,0,0,1-1.18-1.92c0-.08.12-.09.28,0S78.35,85.05,78.71,85.14ZM82,86a34.89,34.89,0,0,1,1,3.79,8.75,8.75,0,0,1-2.3-1.2L80,88.1l.31-.61a4.93,4.93,0,0,1,1.41-1.72A.62.62,0,0,1,82,86Zm27.67.76a1.3,1.3,0,0,1-.36,1.06l-.42.49-.33-.41c-.3-.37-.3-.42,0-.56s.24-.27.16-.69-.1-.55.42-.5S109.63,86.21,109.68,86.72Zm.76,3.78c-.42,1.16-.42,1.71,0,2.16.15.17.19.3.09.3a.18.18,0,0,1-.19-.16c0-.09-.1-.15-.23-.15s-.23.14-.23.37a.52.52,0,0,1-.22.45,1.26,1.26,0,0,0-.41.72c-.12.46-.23.61-.39.55s-.24,0-.24.17.07.22.16.16.1.08,0,.34a10.15,10.15,0,0,0-.2,1.5c-.08,1.07-.08,1.08.3,1s.46,0,.1.41a1.39,1.39,0,0,1-1.67,0,8.27,8.27,0,0,1-1-2.6,3.29,3.29,0,0,1,.41-1c.53-.92.51-.9.68-.64s.18.19.21.16a5.08,5.08,0,0,0,1.2-2A4.57,4.57,0,0,1,110,89.32l.74-.79,0,.47A4.63,4.63,0,0,1,110.44,90.5Zm-29.07.33a18.51,18.51,0,0,0,2.09.94.82.82,0,0,1,.61.59,14.91,14.91,0,0,0,1.31,2.71,5.44,5.44,0,0,1,.63,1,9.69,9.69,0,0,0,2.41,2.55,3.3,3.3,0,0,1,.81.76,2.54,2.54,0,0,1-.59.77,4.88,4.88,0,0,0-1.46,3.58c-.15,1.63-.31,2.25-.61,2.44s-.81-.56-3.08-3.13A18.58,18.58,0,0,1,79.07,91.9c0-.66.2-.65,1.41.14a14.18,14.18,0,0,1,4.67,5.09c.8,1.58,1.08,1.5.42-.11a14,14,0,0,0-4.89-6C78.69,89.72,79,89.63,81.37,90.83Zm16.52,1.3c.31.91.31,1.59,0,1.7a3.44,3.44,0,0,1-1.72-.56,6.73,6.73,0,0,1,1.36-1.87A2.25,2.25,0,0,1,97.89,92.13Zm-11.1.67a.54.54,0,0,1,.41.61c0,.55-.14,1-.33,1A5.42,5.42,0,0,1,86,92.72C86,92.6,86.35,92.63,86.79,92.8Zm2.6,1q3.6,2.11,2,4c-.45.53-.58.59-1,.5a9.92,9.92,0,0,1-2.64-2.47l-.41-.55.46-1a5.9,5.9,0,0,1,.54-1A8.92,8.92,0,0,1,89.39,93.83ZM96.58,95a2.87,2.87,0,0,1-1,1c-.18,0,0-1,.22-1.11S96.58,94.82,96.58,95Zm7.28,19.48a1.63,1.63,0,0,1,0,.65c0,.24-.09.21-.32-.15s-.27-.88,0-.88C103.69,114.06,103.8,114.23,103.86,114.44ZM121.28,116c.29,0,.4.16.47.5a1,1,0,0,0,.54.72,1.52,1.52,0,0,1,.68.87,1.78,1.78,0,0,0,.43.74,1.85,1.85,0,0,1,.63,1.7,1.71,1.71,0,0,0,.09,1,3.72,3.72,0,0,1,.14,1.44,2,2,0,0,0,.43,1.72,1.67,1.67,0,0,1,.39.81.26.26,0,0,0,.09.28.57.57,0,0,1,.17.45c0,.49.14.58.49.36s.34-.14.45,0a.65.65,0,0,1,.06.55c-.36,1.2-.23,1.62.92,3.28.76,1.09.77,1.09.71,2.17,0,.89-.13,1.13-.42,1.36s-.33.39-.27.64c.19.71.36.85.83.66a.84.84,0,0,1,.89.11c.8.48,1.13,1.39.61,1.69-.25.14-.25.19.08.76a2.81,2.81,0,0,1,.34,1.1,1,1,0,0,0,.22.64,1.71,1.71,0,0,1,.31.8c.1.64.41.87.41.32s.27-.51.37,0c.16.79.11,1.27-.09,1.15a.26.26,0,0,0-.34.1,2.1,2.1,0,0,1-.55.43c-.31.18-.41.17-.73-.14a1.11,1.11,0,0,1-.38-.63,6,6,0,0,0-.8-1.45c-.73-1.08-.79-1.24-.62-1.6s.12-.47-.77-1.33a5.34,5.34,0,0,1-.94-1.07,5.1,5.1,0,0,0-.73-1.08,33,33,0,0,1-3.47-6.43,12.84,12.84,0,0,1-.91-5.47,12.41,12.41,0,0,1,.27-2.28c.14-.41.11-.64-.17-1.39a3.14,3.14,0,0,1-.25-1.44.86.86,0,0,0-.36-1,1.12,1.12,0,0,1-.38-1.37c.11-.36.11-.36.44,0A1.58,1.58,0,0,0,121.28,116Zm-3.94,14.12s-.14,0-.19-.19-.08-.24.08-.09S117.38,130,117.34,130.09Zm9.46,17c-.13.48-.36.53-.36.09,0-.25.09-.4.22-.4S126.84,146.84,126.8,147.05Zm1.51,2.64a.31.31,0,0,1-.15.25c-.08.05-.16,0-.16-.14s.08-.25.16-.25A.14.14,0,0,1,128.31,149.69Zm-30.48,7.22c0,.13-.41.3-.72.3a.21.21,0,0,1-.22-.22c0-.12.17-.2.47-.19S97.83,156.87,97.83,156.91Zm7.35,1.24c0,.08,0,.15-.07.15s-.12-.07-.17-.15,0-.16.06-.16A.16.16,0,0,1,105.18,158.15Zm22.59,1.72a1.77,1.77,0,0,1-.07.73c-.12.42-.11.61,0,.69a.32.32,0,0,1,.06.37c-.06.19-.16.22-.3.11s-.17-.48-.14-1.11C127.41,159.77,127.55,159.51,127.77,159.87Zm-9.46,8.75a7.45,7.45,0,0,1,2.81.81,3.34,3.34,0,0,1-.84.75,7.65,7.65,0,0,1-2.63,1.19c-1,.32-2.11.66-2.55.8a3.42,3.42,0,0,0-1,.47c-.22.19-.36.2-.77.06s-.55-.12-.78.08-.32.2-.61,0-.38-.16-.69.25l-.38.44-.06-.6a1.66,1.66,0,0,1,.17-1l.27-.43s.14,0,.28.06a.53.53,0,0,1,.25.5c0,.37,0,.39.31.11a6.68,6.68,0,0,0,.82-1.08,6.92,6.92,0,0,1,1.09-1.33,2.07,2.07,0,0,0,.6-.73c0-.29.29-.44,1.09-.55A6.75,6.75,0,0,1,118.31,168.62Zm-27.89,9.8c-.16.16-.3-.08-.16-.28s.13-.17.19,0A.31.31,0,0,1,90.42,178.42ZM109,189.19a1,1,0,0,1-.08.58l-.16.35-.15-.39c-.16-.43-.1-.79.14-.79C108.87,188.94,109,189.05,109,189.19ZM107.21,194s-.16.16-.35.25-.34.18-.14-.06S107.21,193.85,107.21,194Z" transform="translate(-49.77)"/>
    <path d="M149.53,41.31c-.22.22-.1.55.25.7a1.46,1.46,0,0,1,.56.69c.2.58,1.06,1.58,1.22,1.44a1.76,1.76,0,0,0-.17-.78C151.12,42.67,149.71,41.12,149.53,41.31Z" transform="translate(-49.77)"/>
    <path d="M125,97.49c0,.08.11.16.23.16s.24-.08.24-.16-.11-.15-.24-.15S125,97.4,125,97.49Z" transform="translate(-49.77)"/>
    <path d="M136.91,135.23c0,.33.33.48.47.23a.37.37,0,0,0,.06-.32C137.3,134.92,136.91,135,136.91,135.23Z" transform="translate(-49.77)"/>
    <path d="M136.05,141a.31.31,0,0,1-.42.16c-.25-.06-.3,0-.25.22a.48.48,0,0,0,.9.06c.13-.25.15-.39,0-.52S136.11,140.81,136.05,141Z" transform="translate(-49.77)"/>
    <path d="M85.87,99.79c0,1.41,0,1.36.33,1.13a.54.54,0,0,0,.12-.6,7.48,7.48,0,0,1-.12-.94c0-.29-.1-.56-.21-.59S85.84,99,85.87,99.79Z" transform="translate(-49.77)"/>
    <path d="M125.48,127.57a11.09,11.09,0,0,0,0,2.34c.06.91.16,1.3.38,1.52a1,1,0,0,1,.29.49,2.54,2.54,0,0,0,.22.57c.21.36.21.36.32-.28s0-1-.3-1-.52-.52-.56-2.1a5.93,5.93,0,0,0-.18-1.59C125.56,127.52,125.48,127.52,125.48,127.57Z" transform="translate(-49.77)"/>
    <path d="M126.8,133c-.13.08-.14.2,0,.34s.19.19.34,0A.24.24,0,1,0,126.8,133Z" transform="translate(-49.77)"/>
    <path d="M126.91,133.84c0,.14.07.23.17.2a.2.2,0,0,0,0-.4C127,133.6,126.91,133.7,126.91,133.84Z" transform="translate(-49.77)"/>
    <path d="M128.58,136c-.33.19-.21.46.2.46s.52-.24.27-.44A.4.4,0,0,0,128.58,136Z" transform="translate(-49.77)"/>
    <path d="M128.19,138.39c.18.69.67,1.26.83,1A.31.31,0,0,0,129,139a.77.77,0,0,1-.17-.44c0-.28-.39-.77-.62-.77C128.08,137.82,128.09,138.07,128.19,138.39Z" transform="translate(-49.77)"/>
    <path d="M129.83,141.81a.24.24,0,0,0,.14.34c.34.13.47-.07.19-.35S129.91,141.58,129.83,141.81Z" transform="translate(-49.77)"/>
    <path d="M153.28,90.88c-.17.28-.3,1.61-.16,1.61s.52-.7.52-1.17S153.4,90.66,153.28,90.88Z" transform="translate(-49.77)"/>
    <path d="M104.74,111c.11.29.59.34.59.06s-.14-.25-.33-.25S104.71,110.86,104.74,111Z" transform="translate(-49.77)"/>
    <path d="M105.64,111c0,.13.08.19.16.14a.32.32,0,0,0,.16-.25.15.15,0,0,0-.16-.14C105.72,110.78,105.64,110.89,105.64,111Z" transform="translate(-49.77)"/>
    <path d="M92.83,114.44c0,.26.42.45.54.25a.29.29,0,0,0,0-.31C93.23,114.14,92.83,114.19,92.83,114.44Z" transform="translate(-49.77)"/>
    <path d="M93.76,115.09c0,.15.08.22.19.19.28-.09.33-.44.06-.44A.25.25,0,0,0,93.76,115.09Z" transform="translate(-49.77)"/>
    <path d="M94.33,115.61c-.11.16.31.64.53.64s.61.89.44,1.06-.08.19,0,.27.47-.19.45-.62S94.55,115.25,94.33,115.61Z" transform="translate(-49.77)"/>
    <path d="M96.83,117.61a.76.76,0,0,0-.1.39c0,.38.52.33.6,0S97,117.44,96.83,117.61Z" transform="translate(-49.77)"/>
    <path d="M110.41,137.37c-.15.24,0,.39.25.19s.11-.2,0-.27A.22.22,0,0,0,110.41,137.37Z" transform="translate(-49.77)"/>
    <path d="M115,143.12c-.18.36-.2.8,0,.8a2.75,2.75,0,0,0,.82-1C115.81,142.69,115.17,142.86,115,143.12Z" transform="translate(-49.77)"/>
    <path d="M90.06,144.34c-.31.13-.24.36.11.36.17,0,.31-.11.31-.23S90.39,144.2,90.06,144.34Z" transform="translate(-49.77)"/>
    <path d="M112.51,145.42c-.17.22-.16.24.17.19a.58.58,0,0,0,.44-.25C113.2,145.09,112.76,145.13,112.51,145.42Z" transform="translate(-49.77)"/>
    <path d="M111.9,146.09a.33.33,0,0,0,.15.25c.1,0,.16,0,.16-.14s-.06-.25-.16-.25A.16.16,0,0,0,111.9,146.09Z" transform="translate(-49.77)"/>
    <path d="M111.35,147.22c-.08.11,0,.25.14.33s.22.2.17.3,0,.14.16.14.23-.11.2-.43S111.54,146.89,111.35,147.22Z" transform="translate(-49.77)"/>
    <path d="M110,149.53a.17.17,0,0,0,.06.25.69.69,0,0,1,.16.49c0,.22.09.37.22.37.39,0,.45-.31.14-.65-.16-.18-.27-.36-.24-.41S110.05,149.36,110,149.53Z" transform="translate(-49.77)"/>
    <path d="M125.86,152.44c0,.14,0,.3,0,.35s.58-.29.47-.44S126,152.18,125.86,152.44Z" transform="translate(-49.77)"/>
    <path d="M124.09,156.52c0,.14.08.22.19.19.28-.09.33-.44.06-.44A.25.25,0,0,0,124.09,156.52Z" transform="translate(-49.77)"/>
    <path d="M124.28,157.32c.08.39.44.44.44.06,0-.19-.1-.33-.25-.33S124.25,157.16,124.28,157.32Z" transform="translate(-49.77)"/>
    <path d="M133.66,160.05c-.3.3-.22.86.2,1.33l.38.44v-.39a2,2,0,0,0-.21-.77.93.93,0,0,1-.14-.59C134,159.82,133.91,159.8,133.66,160.05Z" transform="translate(-49.77)"/>
    <path d="M92.15,160.51c-.09.36,0,.76.21.76a1.09,1.09,0,0,0,.39-.31c.23-.25.23-.34.08-.55S92.25,160.12,92.15,160.51Z" transform="translate(-49.77)"/>
    <path d="M91.12,161.23c-.12.22-.2.23-.55.08a1,1,0,0,0-.81,0,1.27,1.27,0,0,1-.92,0c-.44-.17-.61-.14-1.42.26a9.43,9.43,0,0,1-1.32.54c-.26,0-.5.29-.73.82s-.45.74-.59.74c-.6,0-1.16,2.66-.69,3.22a1.27,1.27,0,0,1,.15.78c0,.42.07.61.5,1a2.84,2.84,0,0,1,.61,2.8c-.56,2.87-.65,3.17-1.28,4.08a3.81,3.81,0,0,0-.62,1.36c0,.92-.18,1.37-.49,1.29a1,1,0,0,0-.67.18c-.36.23-.41.23-.61-.07s-.25-.28-.52-.09A5.81,5.81,0,0,0,80,180.6c-.14.57-.19.62-.61.56s-.47-.06-.41.64a2.68,2.68,0,0,0,.34,1.16c.27.36.3.61.24,1.43s0,1,.14.93.23-.3.27-.57.12-.5.34-.5a.81.81,0,0,0,.56-.39c.14-.22.3-.36.36-.31a3.91,3.91,0,0,1,.31,1.17c.21,1.14.41,1.38.58.69a1.06,1.06,0,0,0-.15-.84c-.28-.5-.35-1.8-.08-2,.09,0,.12-.27.08-.47a.41.41,0,0,1,.22-.56c.17-.11.31-.27.31-.36,0-.36.62-.88.91-.8a.62.62,0,0,0,.87-.46c.08-.32.16-.35.63-.28.29.05.56,0,.62-.09a.79.79,0,0,1,.55-.17c.58,0,.92-.41,1-1.25a2.24,2.24,0,0,1,.46-1.08,1.33,1.33,0,0,0,.38-.52,2.3,2.3,0,0,1,.41-.65c.36-.44.42-.71.47-1.8a6.89,6.89,0,0,0-.15-2,11.8,11.8,0,0,1-.07-3.31c.2-4.49.48-5.36,2.15-6.63a4.74,4.74,0,0,0,1.07-1C91.93,160.87,91.31,160.91,91.12,161.23Z" transform="translate(-49.77)"/>
    <path d="M133.58,162c-.2.19-.11.67.11.67a.37.37,0,0,1,.3.19c.06.15.11.15.26,0s.16-.21,0-.29a.47.47,0,0,1-.27-.39C133.94,161.9,133.77,161.81,133.58,162Z" transform="translate(-49.77)"/>
    <path d="M97.67,162.37a.16.16,0,0,0,.16.15.15.15,0,0,0,.15-.15.14.14,0,0,0-.15-.16A.16.16,0,0,0,97.67,162.37Z" transform="translate(-49.77)"/>
    <path d="M96.58,163.57c-.1.42-.22.85-.25.94-.11.39.25.19.48-.27s.31-1.4.1-1.4S96.69,163.17,96.58,163.57Z" transform="translate(-49.77)"/>
    <path d="M126.78,163.49a1,1,0,0,0-.19.63c0,.61.42.56.55-.05S127.06,163.21,126.78,163.49Z" transform="translate(-49.77)"/>
    <path d="M133.88,164a3.33,3.33,0,0,0,0,1,2.18,2.18,0,0,1-.08,1c-.16.26-.14.33.06.33s.56-.66.52-1.46a3.43,3.43,0,0,1,0-.87.22.22,0,0,0-.18-.28C134.07,163.62,133.94,163.74,133.88,164Z" transform="translate(-49.77)"/>
    <path d="M133,166.65c0,.39.19.72.41.72s.28-.22.06-.64S133,166.34,133,166.65Z" transform="translate(-49.77)"/>
    <path d="M94.42,167.25c-.23.23-.25.59,0,.59s.36-.39.28-.63S94.56,167.1,94.42,167.25Z" transform="translate(-49.77)"/>
    <path d="M94.08,168.46c0,.3,0,.33.18.19s.14-.23,0-.37S94.08,168.17,94.08,168.46Z" transform="translate(-49.77)"/>
    <path d="M137.22,169.2c-.43.08-.78.33-.78.53s.27.17,1,0S138.11,169,137.22,169.2Z" transform="translate(-49.77)"/>
    <path d="M139.35,169.53c-.13.2.17.54.36.44s.22-.57-.05-.57A.47.47,0,0,0,139.35,169.53Z" transform="translate(-49.77)"/>
    <path d="M134.27,170.07c-.1.13-.13.27-.08.32s.7-.21.61-.38S134.47,169.84,134.27,170.07Z" transform="translate(-49.77)"/>
    <path d="M129.06,170.14a1.35,1.35,0,0,0-.75.29c-.22.25-.17.27.71.22s1.22-.14,1-.4-.22-.21-.29-.19Z" transform="translate(-49.77)"/>
    <path d="M131.41,170.93c-.44,0-.6.41-.24.55s.89-.15.89-.34S131.89,170.87,131.41,170.93Z" transform="translate(-49.77)"/>
    <path d="M129.33,171.29a.23.23,0,0,0,0,.25c.13.13.57-.07.57-.26S129.45,171.08,129.33,171.29Z" transform="translate(-49.77)"/>
    <path d="M128.31,171.53c0,.14.08.22.19.19.28-.1.33-.44.06-.44A.25.25,0,0,0,128.31,171.53Z" transform="translate(-49.77)"/>
    <path d="M117.4,183.74a5,5,0,0,1-.33,1.89c-.19.45-.28.52-.65.44a.65.65,0,0,0-.63.15c-.25.32-.05.49.33.25.19-.11.33-.12.39,0,.36.58,1.17-.28,1.17-1.23a2.31,2.31,0,0,1,.19-.88c.16-.34.14-.45-.14-.72l-.31-.33Z" transform="translate(-49.77)"/>
    <path d="M80.13,185.21c-.44.25-.33.45.25.45s.85-.23.42-.45S80.46,185,80.13,185.21Z" transform="translate(-49.77)"/>
    <path d="M96.91,185.33c-.21.36-.22,1,0,1s.5-1.08.34-1.18S97,185.16,96.91,185.33Z" transform="translate(-49.77)"/>
    <path d="M108.61,187.58c0,.43.21.57.41.25,0-.09,0-.28-.15-.42S108.61,187.19,108.61,187.58Z" transform="translate(-49.77)"/>
    <path d="M108.61,193.88c-.65.47-.76.69-.31.69s1.1-.45,1.1-.8S109.29,193.41,108.61,193.88Z" transform="translate(-49.77)"/>
    <path d="M105.33,195.59a.24.24,0,1,0,.24-.24A.24.24,0,0,0,105.33,195.59Z" transform="translate(-49.77)"/>
    <path d="M104,196.28c-.27.28-.41.56-.36.7s.22.11.64-.31c.61-.61.67-.75.38-.82A1.32,1.32,0,0,0,104,196.28Z" transform="translate(-49.77)"/>
    <path d="M102.13,196.45a.32.32,0,0,0,.25.47c.19,0,.19-.43,0-.55A.18.18,0,0,0,102.13,196.45Z" transform="translate(-49.77)"/>
    <path d="M102.42,197.62a.88.88,0,0,0-.15.64c.06.16,0,.36-.25.53s-.31.33-.25.39.75-.09.75-.37a3.09,3.09,0,0,1,.31-.88c.38-.73.38-.7.08-.7C102.78,197.23,102.57,197.4,102.42,197.62Z" transform="translate(-49.77)"/>
    <path d="M101.42,199.82c0,.27.35.22.44-.06,0-.11,0-.19-.19-.19A.25.25,0,0,0,101.42,199.82Z" transform="translate(-49.77)"/>
  </g>
</svg>
