<?xml version="1.0" encoding="utf-8"?>
<!-- Generator: Adobe Illustrator 25.2.0, SVG Export Plug-In . SVG Version: 6.00 Build 0)  -->
<svg version="1.1" id="Ebene_1" xmlns="http://www.w3.org/2000/svg" xmlns:xlink="http://www.w3.org/1999/xlink" x="0px" y="0px"
	 viewBox="0 0 109.9 200" style="enable-background:new 0 0 109.9 200;" xml:space="preserve">
<style type="text/css">
	.st0{clip-path:url(#SVGID_1_);fill:#29211A;}
</style>
<g>
	<g>
		<defs>
			<polygon id="SVGID_3_" points="28,10.2 117.3,46.1 82,180.9 -7.3,145 			"/>
		</defs>
		<clipPath id="SVGID_1_">
			<use xlink:href="#SVGID_3_"  style="overflow:visible;"/>
		</clipPath>
		<path class="st0" d="M95.9,119.6c0-0.1,0-0.1,0-0.2c0.6-2.1,0.8-4.3,0.6-6.4c-0.1-0.8-0.2-1.6-0.3-2.5c0.1-0.3,0.3-0.6,0.4-0.9
			c0.6-0.2,1.2-0.5,1.7-0.9c0.7,3.7,0.3,7.4-1.9,10.3C96.3,119.2,96.1,119.4,95.9,119.6L95.9,119.6z M93.9,126.2
			c-1.8,3.1-4.7,4.7-7.8,5.9c1.3-1.4,2.7-2.5,4-3.7c2-1.8,3.7-3.7,4.9-6.3c0,0,0.1-0.1,0.1-0.1C95.1,123.5,94.6,124.9,93.9,126.2
			L93.9,126.2z M84.6,132.7c-0.4,0.1-0.8,0.3-1.1,0.4c-2.8,1-5.8,2-8.3,4c2.3-3.3,4.6-6.5,7.1-9.5c0.2-0.2,0.4-0.4,0.6-0.6
			c0.5-0.1,1.1-0.2,1.6-0.3c3.1-0.7,6.2-1.5,8.9-3.3c-0.9,1.4-1.9,2.7-3.1,3.8C88.3,128.9,86.2,130.5,84.6,132.7L84.6,132.7z
			 M73.6,137.4c0-0.9-0.3-1.8-0.6-2.6c-0.2-0.7-0.5-1.9,0-2.4c1.4,0.6,3.1-0.2,3.6-1.9c0.2-0.7,0-1.5-0.2-2.2
			c1.6-0.4,3.2-0.7,4.8-1.1c-1.4,1.7-2.7,3.5-4,5.3C75.9,134.1,74.8,135.8,73.6,137.4L73.6,137.4z M71.4,140.6
			c-0.1-0.3-0.1-0.5,0-0.6c0.1-0.1,0.4-0.1,0.5-0.1C71.7,140.1,71.6,140.3,71.4,140.6L71.4,140.6z M70.1,145.1
			c-0.7,1.4-1.5,2.7-2.7,3.7c0.9-1.4,1.7-2.8,2.6-4.1c0.1-0.1,0.2-0.2,0.4-0.3C70.3,144.6,70.2,144.8,70.1,145.1L70.1,145.1z
			 M65.6,149.7c-1.6,0.4-3.4-0.2-5.1,0c-1.8,0.1-3.4,1.1-4.8,2.3c-0.7,0.6-1.3,1.3-1.8,2c-0.6-1-1-2-1.4-3.1c0.1,0,0.2,0,0.3,0
			c1,0.1,2.2-0.3,2.4-1.6c0.1-0.3-0.1-0.7-0.4-0.8c-1.1-0.4-2.2-0.8-3.3-1.2c-0.3-1.3-0.5-2.6-0.6-4c-0.1-0.9-0.3-1.9-0.4-2.8
			c0.5,1.1,0.7,2.4,1,3.5c0.2,0.7,0.4,1.5,1,2.1c0.6,0.6,1.4,0.7,2.1,0.8c0.8,0.1,1.6,0.2,2.5,0.3c0.7,0.1,1.3,0.1,1.9-0.3
			c1-0.6,1-2,0.9-3.2c0-0.4-0.1-0.8-0.1-1.1c0-0.2-0.1-0.9,0-1.1c-0.1,0.1,0.2,0,0.2,0c0.2,0,0.3,0,0.5,0.1c0.3,0.1,0.6,0.4,0.9,0.7
			c1.1,1.2,2,2.8,3.7,2.5c0.4-0.1,0.7-0.8,0.3-1.2c-0.3-0.3-0.4-0.8-0.1-1.1c0.4-0.3,0.8,0.2,1,0.6c0.6,0.9,1.2,1.6,2.2,1.8
			c0.1,0,0.1,0,0.2,0C67.5,146.5,66.5,148.1,65.6,149.7L65.6,149.7z M62.5,154.8c-0.8,1.3-1.7,3.5-3.3,3.6c-0.9,0.1-1.9-0.6-2.6-1.2
			c-0.7-0.6-1.4-1.3-1.9-2c-0.1-0.1-0.2-0.3-0.3-0.4c0.1-0.1,0.2-0.3,0.4-0.4c1.3-1.5,2.7-2.9,4.5-3.4c1.8-0.6,3.7,0,5.5-0.1
			C64,152.2,63.3,153.4,62.5,154.8L62.5,154.8z M49.6,146.7c-0.2-0.1-1-0.2-1.1-0.5c-0.1-0.2,0.1-0.5,0.2-0.7
			c0.3-0.6,0.6-1.2,0.6-1.9c0-1.2-1-1.9-1.6-2.8c-0.3-0.5-0.3-1.1,0.2-1.5c0,0,0,0,0.1,0c0.1,0,0.1-0.1,0.2-0.1
			c0.5-0.2,1-0.1,1.5,0.3c0.1,0.1,0.2,0.2,0.3,0.3c-0.1,0-0.2,0.1-0.2,0.3c0,2.2,0.2,4.5,0.6,6.8C50.1,146.8,49.8,146.7,49.6,146.7
			L49.6,146.7z M51,125.2c-0.9,0.3-1.9,0.6-2.8,1c0.2-1.1,0.4-2.1,0.5-3.2c0.2-1.6,0.3-3.3,0.3-4.9c1.2,0.3,2.4,0.5,3.7,0.4
			c-0.2,0.4-0.3,0.7-0.4,1.2c-0.1,0.7,0.2,1.5,0.5,2.1c0.2,0.6,0.7,1.4,0.7,2c0,0.5-0.4,0.6-0.8,0.8C52.1,124.8,51.5,125,51,125.2
			L51,125.2z M47,126.6c-0.3-1.7-0.5-3.4-0.4-5.2c0.1-1.3,0.4-2.6,0.9-3.8c0.2,0.1,0.4,0.1,0.6,0.2c0,0.8,0,1.6-0.1,2.5
			C47.9,122.5,47.6,124.5,47,126.6C47.1,126.6,47.1,126.6,47,126.6L47,126.6z M47,116.6c-1.2-0.5-2.4-1-3.5-1.6
			c0.1-0.8,0.2-1.6,0.2-2.5c0-3.6-1.5-6.7-3.8-9.2c-1-1.1-2.1-2.1-3.3-3.1c-0.4-0.9-0.8-1.8-1.3-2.6c-1-1.7-1.8-3.2-1.6-5.2
			c0.1-0.6,0.2-1.2,0.4-1.7c1.1-0.3,2.3-0.4,3.5-0.5c0,0,0,0,0,0c0.5,0.9,1.1,1.7,1.6,2.5c0.8,1.2,1.5,2.4,2.3,3.7
			c1.4,2.4,2.7,4.8,3.8,7.4c1.5,3.5,2.4,7.2,2.7,11C47.6,115.4,47.3,116,47,116.6L47,116.6z M46.3,117.6c-0.4,0.3-0.8,0.7-1.1,0.8
			c-0.2,0.1-0.7,0.3-1,0.4c-0.5,0.2-1.1,0.4-1.6,0.5c-0.3,0.1-0.6,0.2-0.8,0.2c0.7-1.2,1.2-2.5,1.5-3.8c0.1,0,0.2,0.1,0.3,0.1
			c1,0.5,2,1,3,1.4C46.5,117.4,46.4,117.5,46.3,117.6L46.3,117.6z M41.8,114.1c-1.1-0.6-2.2-1.4-3-2.6c-0.3-0.5-0.6-1-0.9-1.5
			c0.5-2.4,0.3-5-0.5-7.4c-0.1-0.3-0.2-0.7-0.4-1c2.2,1.8,4.3,4,5.3,6.9c0.7,2,0.8,4.2,0.4,6.2C42.5,114.5,42.2,114.3,41.8,114.1
			L41.8,114.1z M28.9,116.1c1.5-1.6,2.8-3.4,3.6-5.5c1-0.9,1.8-2.1,2.3-3.5c0.3,0.2,0.6,0.5,0.8,0.8c0.5,0.5,0.9,1.2,1.3,1.8
			C36,113.8,32.6,115.7,28.9,116.1L28.9,116.1z M32.7,99.2c0.3,0.3,0.5,0.5,0.7,0.9c1.1,1.7,1.4,3.9,1,5.9c-0.3-0.2-0.6-0.4-0.8-0.5
			C33.7,103.3,33.4,101.2,32.7,99.2L32.7,99.2z M35.1,100c1.2,2.5,2.2,5.1,2.1,8c0,0.2,0,0.5-0.1,0.7c-0.1-0.1-0.2-0.2-0.3-0.4
			c-0.5-0.7-1.1-1.4-1.8-1.9c0.1-0.6,0.2-1.2,0.3-1.8c0.1-2.2-0.5-4.2-1.7-5.7C34.1,99.2,34.6,99.6,35.1,100L35.1,100z M33.6,106.2
			c0.2,0.1,0.5,0.3,0.7,0.5c-0.1,0.4-0.3,0.8-0.5,1.2c-0.2,0.4-0.5,0.9-0.8,1.3C33.3,108.1,33.5,107.2,33.6,106.2L33.6,106.2z
			 M30.3,93.7c0.4-1.3,1.3-2.1,2.4-2.6c-0.1,0.5-0.2,1.1-0.3,1.6c-0.1,1.8,0.5,3.4,1.4,4.9c0.2,0.3,0.3,0.6,0.5,0.8
			c-0.8-0.6-1.6-1.1-2.5-1.6C31.4,95.7,30.8,94.7,30.3,93.7L30.3,93.7z M30.3,95.5c0.1,0.1,0.1,0.3,0.2,0.4
			C30.4,95.8,30.4,95.6,30.3,95.5L30.3,95.5z M26,93.7c-1.4-0.8-2.7-2.4-1.6-4.1c0.6-0.9,1.5-1.3,2.5-1.5c0.2,2,1.5,4.1,2.5,5.7
			c0,0,0,0.1,0,0.1c-0.1,0.5-0.1,1,0,1.5C28.3,94.9,27.1,94.3,26,93.7L26,93.7z M34.4,87.7c-0.1,0.2-0.2,0.3-0.3,0.5
			c-0.4,0.6-0.7,1.2-1,1.8c-1.4,0.4-2.7,1.2-3.3,2.7c-0.8-1.3-1.7-2.7-1.9-4.2c0-0.2-0.1-0.4-0.1-0.5c0.5-0.1,1.1-0.1,1.5-0.1
			C30.9,87.8,32.6,87.8,34.4,87.7C34.3,87.7,34.4,87.7,34.4,87.7L34.4,87.7z M30.1,84.9c1.6-0.3,3.2,0.3,4.8,0.6
			c0.5,0.1,1,0.2,1.5,0.2c-0.5,0.4-1,0.9-1.4,1.4c-1.6,0.1-3.3,0-4.9,0c-0.8,0-1.5,0-2.3,0.1C28,86,28.9,85.1,30.1,84.9L30.1,84.9z
			 M37.2,87.4c-0.2,0.6-0.2,1.3,0,2c0,0,0,0,0,0c-0.8,0.1-1.6,0.2-2.3,0.3c-0.1,0-0.2,0-0.4,0.1c0.5-0.8,1-1.5,1.7-2.2
			C36.6,87.5,36.9,87.4,37.2,87.4L37.2,87.4z M40,84.8c1.2-0.8,2.4-1.6,3.5-2.4c0,0.2-0.1,0.3-0.1,0.5c-0.1,0.4-0.2,0.8-0.2,1.2
			c-0.5,0.4-1,0.8-1.5,1.1c-0.4,0-0.7,0-1.1,0.1c-1.1,0.1-2.2,0.4-2.9,1.3c-0.1,0.1-0.1,0.2-0.2,0.3c-0.2,0-0.3,0.1-0.5,0.1
			C38,86.1,39,85.4,40,84.8L40,84.8z M45,77c0.9-1.9,1.6-3.9,2-6c0.1-0.6,0.2-1.2,0.3-1.9c0.3,0.3,0.6,0.5,1,0.6
			c-0.1,0.6-0.2,1.2-0.4,1.7c-0.6,2-1.5,3.9-2.3,5.8c-0.5,1-0.9,1.9-1.3,3c-0.5,0.4-0.9,0.7-1.4,1.1C43.7,79.9,44.4,78.5,45,77
			L45,77z M48.5,68.7C48.5,68.8,48.5,68.8,48.5,68.7c-0.3-0.1-0.6-0.3-0.8-0.5L48.5,68.7L48.5,68.7z M49.4,70
			c-0.2,1.8-0.5,3.6-0.9,5.3c-0.1,0.4-0.2,0.8-0.2,1.2c-0.1,0.2-0.1,0.3-0.2,0.5c-0.9,0.9-1.9,1.7-2.9,2.5c0.3-0.6,0.6-1.3,0.9-1.9
			c0.9-1.8,1.8-3.6,2.4-5.6c0.2-0.7,0.4-1.4,0.5-2.1C49.1,70,49.2,70,49.4,70L49.4,70z M46.3,82.3c-0.6,0.9-1.3,1.8-2.2,2.3
			c-0.1,0.1-0.2,0.1-0.3,0.2c0-0.2,0-0.4,0-0.7c1.5-1.3,2.7-3,3.7-4.8c0.1,0,0.1-0.1,0.2-0.1C47.3,80.2,46.8,81.3,46.3,82.3
			L46.3,82.3z M50.7,70.2l0.2,0.1c0,0.5,0.1,1,0.4,1.5c0.2,0.4,0.5,0.7,0.7,0.9c-0.1,0.1-0.1,0.2-0.2,0.3c-0.1,0.2-0.1,0.3-0.2,0.5
			c-0.6,0.7-1.3,1.3-2,2c-0.2,0.2-0.5,0.5-0.7,0.7c0.1-0.2,0.1-0.4,0.2-0.7c0.6-1.7,1-3.4,1.3-5.2c0-0.1,0-0.1,0-0.2
			C50.5,70.2,50.6,70.2,50.7,70.2L50.7,70.2z M53.3,70.6c0,0.2,0,0.5,0,0.7c-0.1,0.1-0.3,0.3-0.4,0.4c-0.1,0.1-0.2,0.2-0.3,0.3
			c-0.4-0.3-0.7-0.7-0.8-1.2L53.3,70.6L53.3,70.6z M52.9,75.6c-0.3,1.6-0.8,3.1-1.5,4.6c-1,2.1-2.3,4-3.8,5.5
			c-0.5,0.5-1,0.9-1.5,1.4c-0.2,0-0.5,0-0.8,0c-0.9-0.2-1.3-0.7-1.5-1.5c0,0,0.1,0,0.1,0c0.9-0.4,1.6-1.1,2.2-1.9
			c1.1-1.5,1.8-3.3,2.3-5.2c0,0,0.1-0.1,0.1-0.1c1.2-1.1,2.4-2.2,3.5-3.4c0.2,0.2,0.3,0.4,0.5,0.5C52.7,75.5,52.8,75.5,52.9,75.6
			L52.9,75.6z M53.7,75.9c0.7,0.2,1.5,0.3,2.1,0.5c0,0,0.1,0,0.1,0c0,0.1,0.1,0.2,0.1,0.3c-0.4,0.8-0.8,1.5-1.2,2.2
			c-0.7,0.1-1.3,0.2-1.7,0.7c-0.5,0.7-0.6,1.8-0.3,2.7c-0.4,0.7-0.9,1.3-1.3,1.9c-0.3,0.4-0.5,0.8-0.8,1.1c-0.2,0-0.5,0-0.7,0.1
			c-0.4,0.1-0.9,0.3-1.3,0.5c1.3-1.4,2.4-3,3.3-4.8C52.7,79.5,53.3,77.7,53.7,75.9L53.7,75.9z M56,78.5c0.1-0.2,0.2-0.5,0.4-0.7
			c0.1,0.3,0.1,0.6,0.2,0.9c-0.3,0-0.5,0.1-0.7,0.1C55.9,78.7,56,78.6,56,78.5L56,78.5z M57.9,77.6c0.1,0.4-0.1,0.7-0.5,0.9
			c-0.1-0.6-0.2-1.2-0.4-1.7C57.4,77,57.8,77.2,57.9,77.6L57.9,77.6z M57.9,84.4c0.1-0.2,0.3-0.3,0.4-0.5c-0.1,0.1-0.2,0.3-0.2,0.4
			C58,84.5,58,84.6,58,84.7c-0.1,0.1-0.1,0.3,0,0.5c0.8,0.9,0.2,2.2-0.5,2.8c-0.3,0.2-0.5,0.5-0.8,0.7c-0.5-0.6-1-1.1-1.5-1.5
			c0.1-0.1,0.2-0.2,0.2-0.4c0.2-0.3,0.4-0.7,0.6-1C56.8,85.8,57.4,85.1,57.9,84.4L57.9,84.4z M59,100c0,0.2,0,0.4,0,0.6
			c-1.1-1.1-2.3-2.2-3.6-3c-0.6-0.4-1.1-0.7-1.7-1c0,0,0-0.1,0-0.1c-0.2-2.3-0.9-5,0.1-7c0.3-0.6,0.7-1.2,1.1-1.8
			c0.5,0.4,0.9,0.9,1.4,1.4c-0.3,0.3-0.6,0.5-0.9,0.9c-0.4,0.7-0.7,1.6-0.5,2.4c0.3,1,1.3,1.3,2,1.8C58.5,95.4,58.8,97.9,59,100
			L59,100z M50.6,103.9c-0.2-2.5-0.2-4.9,0.2-7.3c0.4,0.1,0.9,0.3,1.3,0.4c0.2,0.1,0.5,0.2,0.7,0.3c0,0.4,0,0.8,0.1,1.2
			c0.1,2.4,0,4.8-0.3,7.1c-0.2,1.3-0.5,2.6-1,3.7c-0.3,0.7-0.7,1.4-1.2,2c0-0.1,0-0.2,0.1-0.3C50.9,108.8,50.8,106.3,50.6,103.9
			L50.6,103.9z M52.6,94.9c0,0.4,0.1,0.9,0.1,1.3c-0.6-0.2-1.2-0.4-1.8-0.6c0.3-1.6,0.8-3.2,1.4-4.7c0,0.2,0,0.4,0,0.6
			C52.3,92.6,52.5,93.8,52.6,94.9L52.6,94.9z M53.7,86.1c-0.7-0.3-1.4-0.6-2.1-0.7c0.6-0.7,1.1-1.5,1.6-2.2c0.4,0.5,0.9,0.9,1.5,1.1
			c0,0,0,0,0,0C54.4,84.9,54,85.5,53.7,86.1L53.7,86.1z M45.6,88.9C45.6,88.8,45.7,88.8,45.6,88.9c0.5-0.6,1-1,1.5-1.5
			c0.4-0.2,0.9-0.4,1.3-0.5c0.5-0.2,1-0.4,1.5-0.5c-0.5,0.6-1,1.2-1.6,1.6C47.5,88.5,46.5,88.7,45.6,88.9L45.6,88.9z M46.9,89.5
			c1.4-0.4,2.5-1.3,3.5-2.5c0.2-0.3,0.4-0.5,0.7-0.8c0.8,0,1.5,0.2,2.3,0.6c-1.1,2.2-2.1,4.6-2.8,7.1c-0.1,0.5-0.3,1-0.4,1.6
			c-0.3-0.1-0.5-0.1-0.8-0.2c-1.2-0.2-2.5-0.1-3.7-0.6c-0.9-0.4-1.9-1.3-1.8-2.6c0.1-0.8,0.4-1.6,0.9-2.3
			C45.5,89.8,46.2,89.7,46.9,89.5L46.9,89.5z M44,82.7c0.1-0.3,0.2-0.6,0.3-0.9c0.8-0.6,1.6-1.2,2.4-1.9c-0.7,1.2-1.6,2.4-2.6,3.4
			c-0.1,0.1-0.1,0.1-0.2,0.2C43.9,83.2,43.9,82.9,44,82.7L44,82.7z M42.6,85c0.1-0.1,0.3-0.2,0.4-0.3c0.1-0.1,0.2-0.1,0.2-0.2
			c0,0.1,0,0.2,0,0.3C43,85,42.8,85,42.6,85L42.6,85z M43.3,85.6c0.1,0.5,0.3,0.9,0.7,1.2c0.4,0.5,0.9,0.7,1.4,0.7
			C45,88,44.6,88.5,44.3,89c-0.1,0-0.1,0-0.2,0c-2,0.1-4,0.1-6,0.3c-0.2-0.4-0.3-0.8-0.2-1.2c0.1-0.4,0.2-0.7,0.4-1
			c1-0.3,1.9-0.6,2.8-1.1C41.8,85.9,42.6,85.9,43.3,85.6L43.3,85.6z M48.1,117c0,0-0.1,0-0.1,0c0-0.1,0.1-0.1,0.1-0.2c0,0,0,0,0,0
			C48.1,116.9,48.1,116.9,48.1,117L48.1,117z M48.7,113.7c-0.3-2.4-0.8-4.8-1.5-7.1c-1.7-5.3-4.6-10.1-7.5-14.7
			c-0.4-0.6-0.7-1.1-1.1-1.7c0,0,0-0.1-0.1-0.1c1.4-0.1,2.8-0.2,4.2-0.2c0.3,0,0.7,0,1,0c-0.1,0.2-0.2,0.5-0.3,0.7
			c-0.4,1-0.5,2.2,0,3.2c0.5,0.9,1.2,1.5,2,1.9c1.1,0.5,2.3,0.5,3.4,0.6c0.4,0.1,0.7,0.1,1.1,0.2c-0.2,1.4-0.3,2.9-0.3,4.3
			c0,2.4,0.3,4.7,0.3,7.1c0,1.9-0.3,3.7-0.9,5.3C49,113.4,48.8,113.5,48.7,113.7L48.7,113.7z M58.8,103.2c-0.1,0.5-0.3,1-0.7,1.3
			c-0.4,0.4-1,0.3-1.5,0.4c-2,0.4-2.1,2.9-1.9,4.9c-1.2,0.3-1.7,1.8-1.7,3.2c0,1.1,0.3,2.2,0.3,3.3c0,0.5-0.1,0.9-0.2,1.3
			c-1.4,0.2-2.7,0.1-4.1-0.3c0-0.6,0-1.1-0.1-1.7c0.3-0.5,0.5-0.9,0.7-1.4c0.9-1.2,1.9-2.4,2.6-3.8c1-2,1.3-4.3,1.4-6.6
			c0.1-1.9,0.1-3.9,0-5.8c2,1,3.8,2.4,5.3,4.2C58.9,102.4,58.9,102.8,58.8,103.2L58.8,103.2z M79.9,83.4c0,0-0.1,0-0.1,0
			c-0.4-0.1-0.6-0.7-0.7-1.1c-0.1-0.4-0.2-0.8-0.2-1.1C79.2,82,79.5,82.7,79.9,83.4L79.9,83.4z M79.4,78c0.8,1.3,1.7,2.5,2.8,3.6
			c0,0.5,0.1,0.9,0.2,1.4c0,0.1,0,0.1,0,0.2c-0.6-0.4-1.1-0.2-1.7,0c0,0,0,0,0,0C80,82,79.4,80.7,79,79.4
			C79.1,78.9,79.2,78.5,79.4,78L79.4,78z M80,77.1c0.6,0.6,1.4,1,2.1,1.4c0,0.6,0,1.3,0,1.9c-0.9-0.9-1.6-1.9-2.3-3.1
			C79.9,77.3,79.9,77.2,80,77.1L80,77.1z M83.4,78.9C83.4,78.9,83.4,78.9,83.4,78.9c0.1,0.3,0.3,0.5,0.4,0.7c0.6,1,1.3,1.8,1.9,2.7
			c0.6,0.9,1.1,1.9,1.4,2.9c0,0,0,0.1,0,0.1c-0.3-0.4-0.7-0.7-1-1.1c-1-1-2.1-1.9-3.1-2.9C83,80.6,83,79.7,83,78.8
			C83.1,78.9,83.3,78.9,83.4,78.9L83.4,78.9z M85.4,79.2c0.4,0,0.7,0,1.1,0.1c0,0.2,0.1,0.4,0.1,0.6c0.1,0.7,0.3,1.4,0.5,2.1
			c-0.1-0.2-0.2-0.4-0.4-0.6c-0.5-0.8-1.1-1.5-1.7-2.2C85.2,79.2,85.3,79.2,85.4,79.2L85.4,79.2z M87.7,79.4c0.7,0.1,1.5,0,2.2-0.2
			c-0.3,1.9-0.1,4,0.1,6c0.2,1.5,0.5,3,1,4.5c0.1,0.4,0.2,0.8,0.3,1.1c-0.5-0.8-1.1-1.6-1.6-2.4c-0.5-2.1-1-4.1-1.5-6.2
			c-0.2-1-0.5-1.9-0.7-2.9C87.6,79.4,87.6,79.4,87.7,79.4L87.7,79.4z M92.8,89.7c0.8,2.1,1.5,4.4,2,6.7c0.1,0.3,0.1,0.6,0.2,0.9
			c-0.1,0-0.1-0.1-0.2-0.1c-0.2-0.4-0.4-0.8-0.6-1.1c-0.2-0.6-0.4-1.2-0.7-1.8c-0.7-2-1.2-4-1.7-6c-0.2-1-0.3-2-0.4-2.9
			c-0.1-0.7-0.2-1.5-0.2-2.2C91.5,85.3,92,87.6,92.8,89.7L92.8,89.7z M93.3,79.2c2.8,3.6,6.3,7.1,6.6,12.1c0.1,1.4,0,2.7-0.3,3.9
			c-0.1-0.4-0.3-0.9-0.5-1.3c-1.2-2.7-3.1-4.9-4.7-7.3c-0.6-0.9-1.1-1.9-1.6-2.9c0-0.1,0-0.3,0-0.4c-0.1-1.3-0.2-2.6-0.2-3.9
			C92.8,79.3,93,79.3,93.3,79.2L93.3,79.2z M99.1,99.2c0,0.6-0.1,1.1-0.2,1.6c-0.2-0.3-0.4-0.6-0.7-0.9c0.3-0.5,0.6-1,0.9-1.5
			C99.1,98.7,99.1,98.9,99.1,99.2L99.1,99.2z M95.6,113c0-0.4-0.1-0.7-0.1-1.1c0-0.1,0.1-0.1,0.1-0.2c0.1,0.9,0.2,1.9,0.2,2.8
			C95.7,114,95.6,113.5,95.6,113L95.6,113z M86.9,123.4c1.7-1,3.5-1.4,5.3-1.7c1-0.1,1.9-0.6,2.5-1.3c-0.1,0.2-0.2,0.5-0.3,0.7
			c-2.4,2-5.3,3.1-8.3,3.9c-0.7,0.2-1.3,0.3-2,0.5C85.1,124.7,85.9,124,86.9,123.4L86.9,123.4z M81.3,123.4c2.4-1.4,4.6-3,6.9-4.6
			c1.7-1.2,3.5-2.5,5-4.1c0.6,1.1,1.1,2.3,1.5,3.6c-0.1,0.2-0.2,0.5-0.3,0.7c-0.9,1.9-2.8,1.6-4.4,2c-1.7,0.4-3.4,1.2-4.9,2.3
			c-1,0.7-1.9,1.6-2.8,2.5c-2.1,0.5-4.2,0.9-6.3,1.4c-0.1-0.3-0.2-0.6-0.2-0.9C77.6,125.3,79.5,124.5,81.3,123.4L81.3,123.4z
			 M81,109.8c0.1-0.1,0.2-0.3,0.3-0.4c2.4-0.7,4.8-1.4,7.1-2.3c0.9,1.3,1.8,2.6,2.6,3.9c-1.3,0.5-2.5,0.9-3.8,1.4
			c-2.6,1-5.2,1.9-7.6,3.4c-0.9,0.6-1.7,1.2-2.5,1.9c0-0.1-0.1-0.2-0.1-0.3c-0.1-0.6-0.1-1.3,0-1.9C78.3,113.5,79.6,111.6,81,109.8
			L81,109.8z M86.6,89.8c-0.9-1.3-1.8-2.7-2.4-4.1c-0.4-1-0.7-1.9-0.9-2.9c1.4,1.4,2.9,2.7,4.2,4.2c0,0.5,0,0.9-0.1,1.3
			c0,0.8-0.1,1.5,0,2.2C87.1,90.2,86.9,89.9,86.6,89.8L86.6,89.8z M79.3,110c-0.3,0.5-0.7,0.9-1,1.4c0.2-0.4,0.4-0.9,0.7-1.3
			c0,0,0,0,0,0C79.1,110.1,79.2,110.1,79.3,110L79.3,110z M84.8,102.3c-1.3,0.5-2.6,0.9-3.8,1.6c-0.3,0.2-0.7,0.4-1,0.6
			c-0.1-1,1.3-1.7,1.9-2.1c0.7-0.4,1.4-0.7,2.1-1.1C84.3,101.6,84.6,102,84.8,102.3L84.8,102.3z M90,93.6c-0.1-0.1-0.3-0.3-0.4-0.4
			c-0.4-0.4-0.8-0.7-1.1-1.1c-0.1-0.2-0.1-0.4-0.2-0.7c-0.2-1.2-0.1-2.4-0.1-3.6c0,0,0.1,0.1,0.1,0.1c0.1,0.1,0.2,0.3,0.4,0.4
			c0.2,0.8,0.4,1.5,0.6,2.3C89.5,91.7,89.8,92.6,90,93.6L90,93.6z M93,96c-0.6-0.4-1.3-0.9-1.9-1.4c0-0.1-0.1-0.2-0.1-0.3
			c-0.3-1.3-0.6-2.6-0.9-3.9c1.1,1.7,2.1,3.5,3,5.3c0.1,0.1,0.2,0.3,0.2,0.4c0,0,0,0,0,0.1C93.3,96.2,93.1,96.1,93,96L93,96z
			 M92.6,96.8c0,0,0.1,0.1,0.1,0.1c0.4,0.3,0.8,0.5,1.2,0.7c0.2,0.4,0.3,0.9,0.5,1.3C93.8,98.2,93.2,97.5,92.6,96.8L92.6,96.8z
			 M95.2,101.4c0.1,0.2,0.1,0.5,0.1,0.7c-0.5,0.4-0.9,0.8-1.4,1.2c-0.8-2.1-1.5-4.1-2.1-6.2C93,98.5,94.2,99.9,95.2,101.4
			L95.2,101.4z M97.7,99.4c-0.3-0.3-0.7-0.7-1.1-0.9c-0.2-0.1-0.3-0.2-0.5-0.3c-0.1-0.4-0.1-0.8-0.2-1.2c-0.5-2.3-1.2-4.5-1.8-6.8
			c-0.2-0.9-0.4-1.7-0.6-2.6c0.9,1.4,1.8,2.6,2.7,4c1.1,1.7,2.2,3.6,2.7,5.7C98.6,97.9,98.1,98.7,97.7,99.4L97.7,99.4z M97.3,103.4
			c-0.1-0.1-0.1-0.2-0.2-0.3c-0.1-0.4-0.2-0.9-0.3-1.3c0.3-0.4,0.7-0.8,1-1.2c0.3,0.3,0.6,0.7,0.8,1.1
			C98.2,102.3,97.8,102.9,97.3,103.4L97.3,103.4z M95.9,109.1c0-0.1-0.1-0.3-0.1-0.4c0.2-0.9,0.5-1.8,0.6-2.7c0-0.2,0-0.3,0.1-0.5
			c0,0,0.1-0.1,0.1-0.1C96.5,106.7,96.3,107.9,95.9,109.1L95.9,109.1z M94.1,113.8c0.2-0.2,0.4-0.4,0.5-0.7c0,0,0,0,0,0.1
			c0.1,1,0.3,2,0.3,3c-0.3-0.7-0.6-1.4-1-2.1C94,114,94,113.9,94.1,113.8L94.1,113.8z M96.5,103.9c0,0.1,0,0.1,0,0.2c0,0,0,0,0,0
			C96.5,104,96.5,104,96.5,103.9L96.5,103.9z M94.5,110.5c0,0.5,0,0.9,0,1.4c0,0-0.1,0.1-0.1,0.1c-0.3,0.5-0.6,0.9-0.9,1.3
			c-0.3-0.6-0.6-1.1-1-1.6c-0.1-0.1-0.1-0.2-0.2-0.3C93,111,93.7,110.7,94.5,110.5L94.5,110.5z M95.5,103.1c0.1,0.5,0.1,1.1,0.1,1.6
			c-0.1,0.1-0.3,0.1-0.4,0.2c-0.2,0.1-0.4,0.1-0.5,0.2c-0.1-0.3-0.2-0.6-0.4-1c0,0,0,0,0,0C94.6,103.8,95.1,103.4,95.5,103.1
			L95.5,103.1z M95.2,106.9C95.2,106.9,95.2,106.9,95.2,106.9c-0.1-0.2-0.2-0.5-0.2-0.7c0.1,0,0.1,0,0.2-0.1c0.1,0,0.2-0.1,0.3-0.1
			C95.3,106.3,95.3,106.6,95.2,106.9L95.2,106.9z M96.5,100.9c0-0.1-0.1-0.2-0.1-0.3c0-0.2,0-0.4,0-0.5c0-0.3,0-0.6-0.1-0.9
			c0.3,0.2,0.6,0.5,0.9,0.8C97,100.3,96.8,100.6,96.5,100.9L96.5,100.9z M94.2,106.4c0.2,0.6,0.4,1.3,0.6,1.9
			c-0.1,0.4-0.2,0.9-0.3,1.3c-0.9,0.3-1.8,0.6-2.6,1c-0.8-1.3-1.6-2.6-2.5-3.8C91,106.9,92.6,106.8,94.2,106.4L94.2,106.4z
			 M93.5,104.6c0.1,0.2,0.2,0.5,0.3,0.7c-0.7,0.2-1.3,0.3-2,0.3c0.1,0,0.1-0.1,0.2-0.1C92.4,105.2,93,104.9,93.5,104.6L93.5,104.6z
			 M86.4,102.9c1-0.5,1.9-1.1,2.7-2.1c0.9-1.3,1.4-2.9,1-4.6c-0.1-0.5-0.3-0.9-0.5-1.4c0.3,0.3,0.7,0.7,1,1c0.5,1.7,0.9,3.4,1.5,5
			c0.3,1,0.7,2,1.1,3c-0.1,0.1-0.2,0.2-0.4,0.2c-1,0.6-2,1.2-3.1,1.6c-0.4,0-0.8,0-1.3,0c-0.1-0.2-0.2-0.3-0.4-0.5
			C87.6,104.4,87,103.6,86.4,102.9L86.4,102.9z M86.7,97.3c-0.2-0.5-0.6-0.9-0.1-1.3c0.3-0.3,0.7-0.5,0.9-0.9
			c0.2-0.3,0.4-0.7,0.5-1.1c0-0.1,0.1-0.2,0.1-0.3c0.6,1.5,1.4,3,1.1,4.7c-0.4,1.9-2,3-3.4,3.6c-0.3-0.3-0.5-0.7-0.8-1
			c0,0,0.1,0,0.1-0.1c0.7-0.5,1.5-1.2,1.8-2.1C86.8,98.2,86.8,97.7,86.7,97.3L86.7,97.3z M86.7,106.9c-1.4,0.5-2.8,0.9-4.2,1.3
			c0.4-0.4,0.9-0.7,1.4-0.9C84.8,107,85.8,106.9,86.7,106.9L86.7,106.9z M84,106c-1.2,0.4-2.2,1.1-3,2c-0.2,0.3-0.5,0.5-0.7,0.8
			c-0.1,0-0.3,0.1-0.4,0.1c0.3-0.5,0.6-1,0.8-1.5c0.1-0.4,0.2-0.9,0.1-1.3c0-0.2-0.1-0.4-0.2-0.5c1.4-0.9,2.9-1.6,4.5-2.2
			c0.2-0.1,0.4-0.1,0.5-0.2c0.6,0.8,1.2,1.6,1.8,2.4C86.2,105.6,85.1,105.7,84,106L84,106z M83.9,88.9c-0.6-0.2-1.2-0.4-1.7-1
			c-0.1-0.2-0.3-0.4-0.3-0.7c0-0.2,0-0.4,0.1-0.6C82.6,87.4,83.3,88.2,83.9,88.9L83.9,88.9z M82.3,85.7c0.1-0.5,0.2-1,0.3-1.5
			c0.4,1.5,1.2,3,2,4.3C83.9,87.6,83.1,86.7,82.3,85.7L82.3,85.7z M78.2,120.2c-0.2-0.6-0.5-1.2-0.7-1.7c0.7-0.6,1.4-1.2,2.1-1.7
			c2.4-1.6,5-2.6,7.6-3.6c1.4-0.5,2.8-1.1,4.2-1.6c0.4,0.7,0.8,1.4,1.2,2.1c0.1,0.1,0.1,0.2,0.2,0.3c-1.3,1.4-2.8,2.5-4.3,3.6
			c-2.2,1.6-4.5,3.2-6.9,4.6c-1.8,1.1-3.7,2-5.6,2.9c0-0.1,0.1-0.1,0.1-0.2c0.5-0.8,1.2-1.3,1.7-2.1
			C78.3,122.1,78.4,121.1,78.2,120.2L78.2,120.2z M97.3,106.6c0-0.3,0.1-0.6,0.1-0.9c0.2,0.4,0.3,0.8,0.4,1.2
			c0.1,0.4,0.2,0.8,0.3,1.2c-0.4,0.3-0.8,0.5-1.3,0.7C97.1,108.1,97.2,107.4,97.3,106.6L97.3,106.6z M99.2,107
			c-0.1,0.2-0.2,0.3-0.3,0.4c-0.3-1-0.6-2-1.1-2.9c0.5-0.5,1-1,1.3-1.6C99.7,104.1,99.8,105.7,99.2,107L99.2,107z M20.2,121.2
			c-2.8,1.4-6.3,2.2-9.3,0.3c-1.4-0.9-2.7-2.6-2.7-4.5c-0.1-2.3,2-3.8,3.1-5.3c0.5-0.7,1-1.6,1.4-2.5c1.8,1.9,3.7,3.7,5.8,5.2
			c2.4,1.6,5.1,2.6,7.9,2.8C24.4,118.8,22.3,120.2,20.2,121.2L20.2,121.2z M96.1,121c2.3-2.5,3.6-6,3.4-9.9c-0.1-1-0.2-2-0.4-3
			c0.7-0.7,1.1-1.6,1.2-2.9c0-1.1-0.2-2.2-0.7-3.2c0.1-0.2,0.1-0.3,0.2-0.5c0.6-1.6,0.5-3.4,0.1-5.1c0.2-0.6,0.4-1.3,0.5-2
			c0.4-2.5,0.2-5-0.8-7.4c-1-2.4-2.6-4.5-4.2-6.5c-0.4-0.6-0.9-1.1-1.4-1.7c0.4-0.2,0.8-0.3,1.2-0.5c0.1,0,0.1,0.1,0.2,0
			c0.3,0,3.9-2,5.1-3c1.4-1.2,2.3-3,2.9-4.9c0.4-0.7,0.6-1.5,0.8-2.3c0.4-1.6,0.5-3.5,0.5-5.2c0-1.7,0-3.5-0.4-5.1
			c-0.1-0.7-0.8-3.3-0.9-3.9c-0.3-1.4-0.8-2.8-1.3-4.1c-0.5-1.5-1.1-2.9-1.8-4.3c-0.5-1-1.1-1.9-1.8-2.8l0,0l0,0
			c-0.2-0.5-0.5-0.9-0.7-1.4c-0.7-1.1-1.6-1.9-2.5-2.7c-0.7-0.6-3.2-2.3-3.5-2.4c-0.3-0.2-0.6-0.3-0.9-0.5c-0.6-0.3-1.2-0.6-1.8-0.8
			c-0.2-0.1-1.6-0.7-2.1-0.6c-0.5-0.2-1-0.3-1.4-0.4c-1.3-0.4-6.5-1.7-7.8-1.9c-0.7-0.1-3.2-0.7-3.7-0.8c-0.9-0.3-5.3-0.8-7.3-1
			c-1.6-0.2-3.1-0.4-5.8-0.2C58.5,30,54.6,32,54,32.5c-0.3,0.2-0.6,0.4-0.9,0.6c-0.5,0.4-1.1,0.8-1.6,1.2c-1,0.8-1.8,1.7-2.7,2.7
			c-0.9,1-1.6,2.2-2.4,3.3c-0.2,0.3-0.4,0.7-0.6,1c-0.5,0.7-1,1.5-1.4,2.3c-0.7,1.4-1.4,2.8-1.8,4.4l0,0l0,0
			c-0.2,0.8-0.4,1.6-0.6,2.4c-0.2,1.2-0.4,2.5-0.5,3.8c0,0.7,0,1.3,0,2c0,0.3,0,0.6,0.1,0.9c0,0.1,0,0.1,0,0.2
			c0,1.2,0.1,2.3,0.3,3.5c0.2,1.4,0.3,3.2,1,4.4c0.2,0.3,0.4,0.5,0.5,0.8l0,0l0,0c0.8,1.1,1.8,2.2,2.7,3.1c0.1,0.1,0.3,0.2,0.4,0.2
			c-0.7,3.7-2.4,7.1-4,10.3c-0.6,1.2-1.3,2.4-2.2,3.4c-0.8,0.5-1.7,1.1-2.5,1.6c-0.7,0.2-1.4,0.2-2.2,0.1c-2.6-0.4-6.2-2.1-8.2,0.8
			c-0.4,0.6-0.6,1.3-0.7,1.9c-0.5,0.1-1,0.2-1.5,0.5c-1.2,0.5-2.2,1.8-2,3.4c0.2,1.4,1.2,2.4,2.3,3c1.3,0.8,2.8,1.4,4.1,2.2
			c0.2,0.3,0.4,0.6,0.6,0.8c0.3,0.3,0.7,0.6,1,0.9c0.8,2,1.2,4.1,1.3,6.3c0,0.2,0,0.4,0,0.6c-0.4-0.1-0.8-0.2-1.2-0.3
			c-0.9-0.1-1.8,0-2.6,0.4c-0.9,0.4-1.5,1.2-2.2,1.9c-1,1-2.2,0.2-2.9-1c-0.6-1-0.8-2.2-1.3-3.3c-0.5-1-1.2-1.7-2.1-2.2
			c-1-0.6-2.2-0.9-3-1.8c-1-1.1-1-2.7-1.1-4.2c0-1.7,0-3.4-0.2-5.1c0-0.2-0.2-0.2-0.2,0c-0.1,1.6,0,3.1,0,4.7c0,1.2,0,2.4,0.3,3.5
			c0.8,2.3,3.1,2.5,4.7,3.8c1.8,1.5,1.6,4.5,3.4,6c0.7,0.6,1.6,0.9,2.4,0.4c0.9-0.6,1.4-1.6,2.4-2c1.2-0.5,2.4-0.5,3.5-0.1
			c-0.2,1.8-0.7,3.5-1.4,5c-3.9,2.8-10.1,2.6-12.8-2.2c0-0.1-0.1,0-0.1,0.1c1.1,2.6,3.6,3.9,5.9,4.3c2.2,0.4,4.5-0.1,6.4-1.1
			c-0.7,1.2-1.5,2.3-2.3,3.2c-0.4,0.4-0.7,0.8-1.1,1.2c-2,0-3.9-0.4-5.6-1.1c-3.3-1.4-6.2-3.8-8.8-6.6c0.8-2.3,1-5-0.8-6.8
			c-0.1-0.1-0.3,0.1-0.2,0.2c0.8,1.6,1.2,3.5,0.8,5.3c-0.1,0.3-0.1,0.5-0.2,0.8c-0.2-0.2-0.4-0.4-0.5-0.6c-2.5-2.7-5.6-5.6-6.4-9.6
			C5.5,97.5,4.9,97.6,5,98c0.7,3.5,3,6.1,5.2,8.5c0.7,0.7,1.3,1.5,2,2.2c-0.6,1.4-1.5,2.7-2.5,3.8c-1.1,1.2-2.2,2.5-2.3,4.4
			c0,1.5,0.7,3,1.6,4.1c2.2,2.7,5.6,3.1,8.4,2.3c3.2-0.8,6.2-2.8,8.9-4.9c0.5-0.4,1-0.8,1.5-1.3c0.1,0,0.3,0,0.4,0
			c3-0.2,6.3-1.1,8.3-3.8c0.5-0.7,0.9-1.6,1.2-2.4c0.7,1.2,1.5,2.3,2.6,3.1c0.8,0.6,1.6,1,2.5,1.4c-0.3,1.2-0.7,2.3-1.2,3.4
			c-0.2,0.3-0.4,0.6-0.5,1c-0.5,0.1-1,0.2-1.5,0.3c-2.2,0.4-4.4,0.4-6.7,0.6c0,0,0,0.1,0,0.1c2.2,0.4,4.5,0.2,6.7-0.1
			c0.3,0,0.6-0.1,1-0.2c-4.4,6.3-12.4,7.7-18.5,11c-0.1,0.1,0,0.3,0.1,0.2c6.3-2.7,13.7-4.2,18.4-10.2c0.3-0.4,0.6-0.8,0.8-1.2
			c0.5-0.1,1-0.2,1.5-0.3c0.3-0.1,0.7-0.2,1-0.3c0.3-0.1,1.7-0.3,2.4-0.9c-0.4,1.4-0.5,2.9-0.5,4.4c0.1,1.3,0.3,2.6,0.5,3.9
			c-0.2,0.2-0.5,0.5-0.6,0.9c-0.2,0.6-0.2,1.2,0,1.7c-1.9,0.5-4.2,1.6-4.4,4.2c0,0.4,0.1,0.8,0,1.2c0,0.2-0.1,0.4-0.2,0.5
			c-0.2,0.2-0.4,0.3-0.7,0.5c-1.3,1-2.5,2.3-3.8,3.3c-1.3,1-2.6,1.8-4,2.6c-2.8,1.6-5.7,2.8-8.5,4.3c-2.7,1.4-5.5,3.1-7.5,5.6
			c-0.5,0.6-0.9,1.2-1.3,1.9c-0.1,0.2,0.2,0.5,0.3,0.3c4.1-5.3,10.3-7.5,15.8-10.2c2.8-1.4,5.5-3.1,7.9-5.3c0.2-0.2,0.4-0.3,0.6-0.5
			c0.1,0.7,0.8,1.2,1.3,1c0,0.4-0.3,0.8-0.4,1c-0.2,0.4-0.5,0.7-0.6,1.1c-0.2,0.6-0.2,1.3,0.3,1.7c-0.4,2.5,0,5.1,1.2,7.3
			c0.2,0.5,0.5,1,1,1.2c0.1,0.1,0.3,0.1,0.4,0.1c0.1,0.5,0.2,1,0.2,1.5c0.1,0.7,0.9,0.6,1.1,0.1c0.4-1.1,2-0.6,2.8-0.5
			c1,0.2,2.1,0.1,2.8-0.7c0.4-0.5,0.5-1.1,1.2-1.2c0.1,0,0.1,0,0.2,0c0.3,0.8,0.6,1.5,0.9,2.3c0.3,0.6,0.6,1.2,1,1.8
			c-0.5,0.6-1,1.3-1.4,2c-1.4,2-2.7,4.1-3.7,6.4c-0.5,1.1-0.9,2.2-1.3,3.3c-0.1,0.2,0.2,0.4,0.4,0.2c2-3.8,4.1-7.6,6.7-10.9
			c0.5,0.7,1.1,1.4,1.7,1.9c1.3,1.2,3,2.4,4.7,1.8c1.5-0.6,2.3-2.3,3.2-3.7c1-1.7,2-3.4,3-5c3.3-1.1,4.7-5.3,6.2-8.5
			c1-2.1,2.4-3.8,4.2-4.9c1.7-1.1,3.6-1.9,5.5-2.5c0.4-0.1,0.9-0.3,1.3-0.4c-1.4,2.1-2.3,4.6-3,7.2c-0.9,3.5-1.1,7.2-0.9,10.8
			c0.2,3.7,1,7.3,2.1,10.9c0,0.2,0.3,0.1,0.2-0.1c-1.5-6.4-2.4-13.4-1.1-19.7c0.6-3.1,1.7-6.1,3.3-8.6c0.2-0.3,0.4-0.6,0.6-0.8
			c3-1,6.1-2.2,8.4-4.7c1.4-1.5,2.5-3.4,2.9-5.5C96.1,122.7,96.2,121.8,96.1,121L96.1,121z"/>
	</g>
</g>
</svg>
